<svg width="16" height="16" viewBox="0 0 16 16" fill="none" xmlns="http://www.w3.org/2000/svg">
<path d="M14.6666 12.6667V14.6667H1.33331V12.6667C1.33331 12.3 1.63331 12 1.99998 12H14C14.3666 12 14.6666 12.3 14.6666 12.6667Z" fill="#072AC8" stroke="#072AC8" stroke-miterlimit="10" stroke-linecap="round" stroke-linejoin="round"/>
<path opacity="0.6" d="M5.33335 7.33301H2.66669V11.9997H5.33335V7.33301Z" fill="#072AC8"/>
<path opacity="0.4" d="M7.99998 7.33301H5.33331V11.9997H7.99998V7.33301Z" fill="#072AC8"/>
<path opacity="0.6" d="M10.6667 7.33301H8V11.9997H10.6667V7.33301Z" fill="#072AC8"/>
<path opacity="0.4" d="M13.3334 7.33301H10.6667V11.9997H13.3334V7.33301Z" fill="#072AC8"/>
<path d="M15.3334 15.167H0.666687C0.393354 15.167 0.166687 14.9403 0.166687 14.667C0.166687 14.3937 0.393354 14.167 0.666687 14.167H15.3334C15.6067 14.167 15.8334 14.3937 15.8334 14.667C15.8334 14.9403 15.6067 15.167 15.3334 15.167Z" fill="#072AC8"/>
<path d="M14.2466 3.83354L8.24664 1.43355C8.11331 1.38022 7.88665 1.38022 7.75332 1.43355L1.75332 3.83354C1.51998 3.92687 1.33331 4.2002 1.33331 4.45353V6.66687C1.33331 7.03354 1.63331 7.33354 1.99998 7.33354H14C14.3666 7.33354 14.6666 7.03354 14.6666 6.66687V4.45353C14.6666 4.2002 14.48 3.92687 14.2466 3.83354ZM7.99998 5.66687C7.44665 5.66687 6.99998 5.22021 6.99998 4.66687C6.99998 4.11354 7.44665 3.66687 7.99998 3.66687C8.55331 3.66687 8.99998 4.11354 8.99998 4.66687C8.99998 5.22021 8.55331 5.66687 7.99998 5.66687Z" fill="#072AC8"/>
</svg>
