<svg width="37" height="37" viewBox="0 0 37 37" fill="none" xmlns="http://www.w3.org/2000/svg">
<path d="M35.7576 22.878C33.3438 32.5599 23.5376 38.4521 13.8545 36.0377C4.17553 33.624 -1.71669 23.8172 0.698112 14.136C3.1108 4.45307 12.917 -1.4396 22.5971 0.974148C32.2794 3.38789 38.1713 13.1958 35.7573 22.8781L35.7575 22.878H35.7576Z" fill="#F7931A"/>
<path fill-rule="evenodd" clip-rule="evenodd" d="M26.1971 15.9315C26.5568 13.5264 24.7258 12.2336 22.2219 11.3712L23.0342 8.11326L21.051 7.6191L20.2603 10.7912C19.7389 10.6612 19.2035 10.5387 18.6714 10.4172L19.4678 7.22414L17.4859 6.72998L16.6732 9.98682C16.2417 9.88859 15.818 9.79151 15.4068 9.68921L15.4091 9.67896L12.6743 8.99602L12.1467 11.1142C12.1467 11.1142 13.6181 11.4515 13.5871 11.4722C14.3902 11.6727 14.5354 12.2043 14.5113 12.6256L13.586 16.3372C13.6413 16.3512 13.713 16.3715 13.7922 16.4033L13.7346 16.389C13.6857 16.3767 13.6348 16.364 13.5826 16.3515L12.2857 21.5508C12.1875 21.7948 11.9384 22.1609 11.377 22.0219C11.3968 22.0507 9.93554 21.6622 9.93554 21.6622L8.95093 23.9323L11.5317 24.5756C11.8143 24.6465 12.0936 24.7193 12.3701 24.7914C12.5633 24.8417 12.7551 24.8917 12.9457 24.9405L12.125 28.2357L14.1059 28.7299L14.9186 25.4696C15.4597 25.6165 15.9849 25.752 16.499 25.8798L15.6891 29.1247L17.6723 29.6189L18.4929 26.3298C21.8747 26.9698 24.4175 26.7117 25.4878 23.653C26.3502 21.1903 25.4448 19.7698 23.6657 18.8435C24.9615 18.5446 25.9376 17.6924 26.1978 15.9318L26.1972 15.9313L26.1971 15.9315ZM21.666 22.2854C21.1037 24.5448 17.567 23.6107 15.9489 23.1834L15.9485 23.1833C15.8031 23.1449 15.6732 23.1105 15.5623 23.083L16.6514 18.7174C16.7866 18.7511 16.9518 18.7882 17.1389 18.8302L17.139 18.8302C18.8128 19.2058 22.2421 19.9754 21.666 22.2854H21.666ZM17.4748 16.8035C18.8238 17.1635 21.7668 17.9489 22.2793 15.8954H22.2795C22.8028 13.7951 19.9428 13.1619 18.5459 12.8526C18.3888 12.8179 18.2502 12.7872 18.137 12.7589L17.1496 16.7183C17.2428 16.7416 17.3522 16.7708 17.4748 16.8035Z" fill="white"/>
</svg>
