<svg width="20" height="20" viewBox="0 0 20 20" fill="none" xmlns="http://www.w3.org/2000/svg">
<path d="M12.9918 10.217C15.3528 10.217 17.2668 8.30301 17.2668 5.942C17.2668 3.58098 15.3528 1.66699 12.9918 1.66699C10.6308 1.66699 8.7168 3.58098 8.7168 5.942C8.7168 8.30301 10.6308 10.217 12.9918 10.217Z" stroke="#3458D9" stroke-width="1.25" stroke-miterlimit="10"/>
<path d="M5.30005 16.1997C6.71758 16.1997 7.86673 15.0506 7.86673 13.6331C7.86673 12.2155 6.71758 11.0664 5.30005 11.0664C3.88252 11.0664 2.7334 12.2155 2.7334 13.6331C2.7334 15.0506 3.88252 16.1997 5.30005 16.1997Z" stroke="#3458D9" stroke-width="1.25" stroke-miterlimit="10"/>
<path d="M13.8501 18.3331C15.0283 18.3331 15.9835 17.3779 15.9835 16.1997C15.9835 15.0215 15.0283 14.0664 13.8501 14.0664C12.6719 14.0664 11.7168 15.0215 11.7168 16.1997C11.7168 17.3779 12.6719 18.3331 13.8501 18.3331Z" stroke="#3458D9" stroke-width="1.25" stroke-miterlimit="10"/>
</svg>
