<svg width="508" height="193" viewBox="0 0 508 193" fill="none" xmlns="http://www.w3.org/2000/svg">
<g clip-path="url(#clip0_2521_18000)">
<rect width="508" height="193" fill="#4181FE" fill-opacity="0.2"/>
<path fill-rule="evenodd" clip-rule="evenodd" d="M146.809 75.1123H146.847C147.219 75.1186 147.561 74.9078 147.721 74.5723C149.493 70.7927 148.996 67.6184 148.267 65.6113C147.366 63.1297 145.619 61.0736 143.478 59.9827C139.527 57.962 132.407 59.3637 128.254 61.9544C130.749 46.563 128.856 30.7809 122.794 16.413C118.663 6.70751 113.159 1.01347 106.434 -0.508213C98.1454 -2.38441 90.2632 2.76422 86.1324 8.70096C81.5538 15.2786 80.1313 23.3642 79.3423 30.4027C79.1689 31.953 79.0177 33.5227 78.87 35.0566L78.8454 35.3113L78.8438 35.3277C78.3583 40.4166 77.8584 45.6577 76.5274 50.629C72.585 45.5186 67.7088 39.7209 60.9515 37.2666C56.5124 35.7136 51.6245 36.0945 47.4805 38.3165C44.4391 40.0127 42.3996 42.6252 41.7471 45.6795C40.5185 51.4362 43.9995 56.4867 48.2805 60.6236C45.8997 59.9582 43.5053 59.7346 41.1819 60.5036C38.7465 61.3135 36.7671 63.7624 36.3685 66.4622C36.0573 68.5102 36.7562 70.3018 38.2797 71.3708C39.855 72.478 41.8863 72.5244 43.3688 72.5571L130.155 74.5151C132.807 74.574 141.166 74.896 144.934 75.0411C146.062 75.0848 146.779 75.1123 146.809 75.1123ZM130.196 72.6062L43.4125 70.6482C41.8071 70.6127 40.3956 70.5254 39.3772 69.8028C38.1322 68.9138 38.135 67.5039 38.2496 66.7321C38.5418 64.7496 40.0243 62.8898 41.7744 62.3089C45.1052 61.2044 48.7337 62.5952 52.4769 64.2451C52.9159 64.4401 53.4316 64.2792 53.6814 63.8693C53.9312 63.4594 53.8376 62.9279 53.4625 62.628C48.144 58.3247 42.2139 52.5516 43.6009 46.0694C44.2971 42.8625 46.5905 40.9944 48.3924 39.9909C52.0657 38.0435 56.3827 37.7048 60.3153 39.0555C67.2119 41.5598 72.176 48.0474 76.166 53.262L76.1752 53.2743C76.392 53.5573 76.7489 53.6964 77.1002 53.6345C77.4519 53.5723 77.7394 53.3201 77.8461 52.9797C79.6399 47.2939 80.2187 41.289 80.7647 35.4804C80.9176 33.8633 81.076 32.2134 81.2589 30.5908C82.0207 23.7869 83.383 15.9958 87.7186 9.7645C92.1716 3.36689 99.7016 -0.101889 106.028 1.3298C112.113 2.72059 117.167 8.03829 121.044 17.1466C127.299 31.9704 129 48.3171 125.931 64.1087C125.858 64.5246 126.067 64.9388 126.445 65.1276C126.823 65.3163 127.28 65.2347 127.569 64.9268C130.542 61.6408 138.973 59.8137 142.602 61.6735C147.32 64.0869 147.554 69.7291 146.227 73.1788C143.514 73.0725 133.199 72.6743 130.196 72.6062Z" fill="#C1C6C7"/>
<path fill-rule="evenodd" clip-rule="evenodd" d="M16.7009 137.581C18.3718 137.709 20.9628 137.761 24.1053 137.761C30.3027 137.761 38.6067 137.563 45.9742 137.387C46.4389 137.376 46.8997 137.365 47.3559 137.354L48.0879 137.336C54.9258 137.172 60.7769 137.031 63.4452 137.082C68.0756 137.169 81.7404 136.681 82.3192 136.659C82.7159 136.646 83.063 136.388 83.1902 136.013C85.7184 128.56 85.429 121.128 82.4257 116.621C80.5173 113.738 77.5577 112.102 73.8692 111.829C72.2193 111.726 70.5711 112.059 69.0913 112.795C70.5727 108.845 71.7385 104.784 72.5778 100.651C73.1757 97.725 73.5306 94.3899 71.6413 91.8483C70.1151 89.7975 66.6232 88.2268 62.5606 89.623C59.5328 90.6593 57.1547 92.9554 55.1644 95.0225C46.0801 104.431 38.6613 115.312 33.2243 127.201C29.7132 125.11 25.0582 125.028 21.5089 127.087C17.8067 129.236 16.1603 131.979 15.8218 136.558C15.7826 137.083 16.1758 137.54 16.7009 137.581ZM47.2287 135.439C36.5956 135.703 23.5224 136.028 17.8258 135.74H17.823C18.249 132.372 19.5704 130.419 22.4781 128.745C25.8281 126.869 29.9666 127.122 33.0632 129.391C33.2955 129.568 33.5961 129.629 33.8793 129.557C34.1624 129.485 34.3969 129.287 34.5157 129.02C39.8994 116.931 47.3568 105.875 56.5513 96.3506C58.3888 94.4553 60.5675 92.3446 63.194 91.4419C65.4765 90.6566 68.5862 90.9402 70.1178 92.9991C71.5594 94.938 71.229 97.7687 70.7158 100.283C69.6952 105.299 68.1838 110.203 66.2027 114.924C64.759 116.39 63.8924 118.326 63.7619 120.378C63.7411 120.827 64.036 121.229 64.4706 121.345C64.905 121.46 65.3612 121.258 65.5666 120.858C66.3747 119.262 67.1263 117.646 67.8217 116.01C67.9064 115.909 67.9992 115.822 68.0947 115.737C69.6319 114.341 71.6634 113.617 73.7381 113.725C76.8561 113.948 79.245 115.273 80.8367 117.668C83.4359 121.573 83.7117 128.08 81.5875 134.766C78.7317 134.864 67.4859 135.238 63.4834 135.164C60.6904 135.107 54.4846 135.26 47.3123 135.437L47.2287 135.439Z" fill="#C1C6C7"/>
<path fill-rule="evenodd" clip-rule="evenodd" d="M304.016 116.395C304.194 116.663 304.491 116.824 304.814 116.824H304.849C304.849 116.824 317.607 116.406 325.462 116.134C339.184 115.662 378.71 112.763 379.109 112.733C379.256 112.722 379.398 112.678 379.526 112.602C383.788 110.085 386.846 103.996 387.99 99.087C389.306 93.4339 387.703 86.1255 382.098 83.0712C377.918 80.7941 372.152 81.4213 367.407 84.6938C366.847 85.0775 366.309 85.4865 365.793 85.9209C370.683 76.6365 374.197 66.6918 376.225 56.3981C377.468 50.036 376.376 45.58 373.067 43.5211C367.36 39.9514 360.819 46.3599 358.949 48.4052C345.221 63.4339 336.331 81.8495 328.037 99.9924C328.031 99.9823 328.026 99.9728 328.021 99.9629C328.012 99.9466 328.001 99.9305 328.001 99.9133C327.032 97.7181 324.976 96.0573 322.765 95.6837C319.235 95.0892 315.246 97.0254 312.597 100.617C310.435 103.551 305.412 112.04 303.934 115.496C303.809 115.79 303.839 116.128 304.016 116.395ZM314.143 101.749C316.474 98.5825 319.382 97.4917 321.514 97.4917H321.525C321.828 97.4925 322.129 97.5182 322.426 97.5681C324.01 97.8326 325.541 99.0843 326.249 100.685C326.628 101.491 326.732 102.4 326.538 103.27L326.071 104.293C325.864 104.748 326.044 105.285 326.483 105.524C326.923 105.764 327.474 105.624 327.745 105.204C327.996 104.815 328.193 104.394 328.326 103.952C336.976 84.9256 346.01 65.3619 360.344 49.6842C363.677 46.0354 368.491 42.9266 372.04 45.13C375.297 47.1617 375.084 52.1767 374.333 56.0245C371.57 70.0442 366.009 83.3638 357.977 95.1874L357.6 95.7328C357.297 96.1672 357.406 96.7636 357.84 97.0649C358.277 97.366 358.872 97.258 359.175 96.8236L359.56 96.2645C362.099 92.5667 364.769 88.8116 368.474 86.2645C372.63 83.4066 377.618 82.8094 381.167 84.7456C384.777 86.7145 387.632 92.1222 386.112 98.6534C385.123 102.954 382.396 108.553 378.74 110.846C375.464 111.086 338.537 113.772 325.4 114.225C319.213 114.44 309.985 114.746 306.345 114.866C308.254 111.021 312.327 104.203 314.143 101.749Z" fill="#C1C6C7"/>
<path d="M75.9734 225.078C74.9022 225.078 74.0338 224.21 74.0338 223.139L73.5405 97.9919C73.5387 97.5727 73.1986 97.2339 72.7793 97.2339H66.8661C66.6645 97.233 66.4709 97.3127 66.3281 97.4549C66.1853 97.5971 66.1049 97.7904 66.1049 97.9919L65.6116 223.142C65.6098 224.212 64.7426 225.08 63.672 225.081C60.8449 225.085 58.5539 227.375 58.5505 230.202V231.06C58.5521 232.544 59.7548 233.747 61.2392 233.749H78.4062C79.8903 233.747 81.0931 232.544 81.0949 231.06V230.202C81.0931 227.374 78.8018 225.082 75.9734 225.078Z" fill="#A3B6B7"/>
<path d="M96.5445 63.4997C92.2999 58.6683 86.947 53.6056 81.7707 48.7102C80.0169 47.0511 78.3574 45.4863 76.7893 43.9671C76.564 43.751 76.3386 43.5288 76.1103 43.3065C73.8845 41.1146 71.3603 38.6365 68.0748 39.0444C65.7973 39.3337 64.0038 40.9167 62.3626 42.5089C54.635 50.0178 47.3958 58.0135 40.6891 66.4466C37.7934 70.0846 35.0134 74.4076 36.341 78.8584C36.9804 80.9895 42.1263 85.3703 46.9068 89.2945C47.5675 89.8364 48.0882 90.2656 48.3988 90.5335L64.019 104.029C65.8064 105.573 67.5968 106.961 69.8317 107.003H69.9322C72.5478 107.003 74.6183 105.137 76.4665 103.116C77.2826 102.218 78.5523 100.906 80.163 99.2404C87.4038 91.7513 99.5254 79.2146 100.832 73.5339C101.696 69.7711 99.0718 66.3797 96.5445 63.4997Z" fill="#F6F6F6"/>
<path d="M87.4859 66.4679C84.6329 63.2196 81.0399 59.8221 77.5657 56.5373C76.3904 55.4261 75.282 54.3788 74.2315 53.362L73.7778 52.9114C72.2554 51.3893 70.5076 49.6936 68.1844 49.9889C66.5797 50.1928 65.3405 51.2827 64.2108 52.3787C59.0245 57.4198 54.1651 62.7867 49.6623 68.4468C47.6801 70.9401 45.7801 73.9022 46.7027 76.9953C47.1077 78.3531 49.7476 80.7246 53.8673 84.113C54.3028 84.4722 54.6529 84.7584 54.863 84.9411L65.3344 94.0102C66.5523 95.0757 67.8068 96.0347 69.3902 96.0651H69.4633C71.3115 96.0651 72.7487 94.7743 74.0306 93.377C74.5756 92.7681 75.4282 91.8974 76.503 90.7862C82.8059 84.2652 89.596 77.0105 90.4242 73.4334C91.0393 70.7787 89.2124 68.4376 87.4859 66.4679Z" fill="#FFC037"/>
<g clip-path="url(#clip1_2521_18000)">
<path d="M469.51 65.2326H469.323C468.982 65.1873 468.674 65.0064 468.467 64.7306C468.261 64.4547 468.174 64.1072 468.226 63.7665C468.592 61.2814 469.001 58.463 470.325 55.9926C471.894 53.0604 474.592 51.2021 477.367 51.1104C479.179 51.0777 480.915 51.8394 482.121 53.196C482.391 53.4957 482.63 53.8224 482.834 54.1709C483.333 53.7903 483.888 53.4887 484.479 53.2767C486.921 52.4374 489.62 53.3453 491.063 55.4911C492.506 57.6367 492.332 60.4859 490.64 62.4397C490.164 62.964 489.355 63.0025 488.832 62.5258C488.309 62.0491 488.27 61.2377 488.746 60.7134C489.541 59.7557 489.7 58.4187 489.151 57.3008C488.602 56.1829 487.448 55.4934 486.206 55.541C484.964 55.5886 483.866 56.3642 483.404 57.521C483.186 58.1414 482.535 58.496 481.897 58.3422C481.259 58.1882 480.841 57.5753 480.929 56.9235C480.99 56.1767 480.723 55.4402 480.197 54.9076C479.5 54.1179 478.496 53.6678 477.444 53.6725C475.616 53.7311 473.692 55.1202 472.574 57.2058C471.455 59.2912 471.111 61.7469 470.746 64.1331C470.656 64.7528 470.134 65.2175 469.51 65.2326Z" fill="#847E7A" fill-opacity="0.42"/>
<path d="M438.806 40.4688C438.136 40.4705 437.58 39.9544 437.532 39.2873C437.51 38.9655 437.51 38.6426 437.532 38.3209C437.484 36.3736 437.167 34.9077 436.535 33.7518C435.86 32.5118 434.473 31.3851 433.138 31.6368C432.513 31.8097 431.994 32.2446 431.714 32.8291C431.412 33.3426 431.361 33.9655 431.576 34.5212C431.862 35.1627 431.575 35.9147 430.934 36.2038C430.294 36.4928 429.539 36.2102 429.247 35.5713C428.706 34.3035 428.78 32.8574 429.448 31.6513C430.081 30.3668 431.264 29.4397 432.663 29.1315C434.94 28.7013 437.455 30.0979 438.78 32.5339C439.008 32.9525 439.202 33.3892 439.36 33.8392C439.891 33.229 440.532 32.7242 441.251 32.3514C443.763 31.0939 446.804 31.6453 448.714 33.7044C449.171 34.2213 449.134 35.0074 448.631 35.4796C448.128 35.9517 447.341 35.9391 446.853 35.451C445.716 34.2354 443.92 33.8986 442.419 34.6197C441.127 35.2833 440.229 36.7894 440.09 38.372C440.09 38.6686 440.09 38.9493 440.09 39.2143C440.081 39.8975 439.533 40.4512 438.849 40.4688H438.806Z" fill="#847E7A" fill-opacity="0.42"/>
<path d="M473.883 30.0216H473.792C473.219 29.9816 472.743 29.567 472.625 29.0061C471.996 25.9648 470.649 23.1177 468.695 20.7022C468.246 20.1536 468.327 19.3451 468.877 18.8966C469.426 18.4481 470.235 18.5294 470.684 19.0781C472.224 20.9702 473.433 23.1082 474.261 25.4022C476.463 22.5501 479.964 20.882 483.405 21.3146C484.088 21.4258 484.56 22.0569 484.473 22.7424C484.386 23.4278 483.771 23.9214 483.082 23.8589C479.817 23.4481 476.305 25.7835 475.091 29.1748C474.907 29.6828 474.424 30.0214 473.883 30.0216Z" fill="#847E7A" fill-opacity="0.42"/>
<path d="M425.97 19.7677C425.595 19.7687 425.239 19.6039 424.997 19.3177C424.754 19.0314 424.65 18.6526 424.712 18.2825C424.898 16.7953 424.31 15.3168 423.155 14.3628C422.2 13.538 421.055 13.2316 420.099 13.5417C419.428 13.7594 418.708 13.3918 418.491 12.7206C418.273 12.0495 418.641 11.3288 419.311 11.1112C421.135 10.5236 423.184 11.0164 424.822 12.4287C425.845 13.3084 426.602 14.4559 427.01 15.7424C429.421 13.8915 432.47 13.0795 435.482 13.487C435.95 13.5318 436.356 13.8311 436.538 14.2657C436.719 14.7002 436.647 15.1995 436.35 15.5648C436.053 15.9301 435.579 16.1021 435.117 16.0125C432.012 15.6196 428.924 16.862 426.955 19.297C426.713 19.5926 426.352 19.7652 425.97 19.7677Z" fill="#847E7A" fill-opacity="0.42"/>
</g>
<path d="M496.081 89.6027C496.034 85.3577 495.747 80.9503 492.906 77.9022C489.587 74.3346 484.284 74.1907 479.575 74.3114L455.653 74.9887C452.942 75.0676 450.128 75.3088 448.209 77.2806C446.29 79.2523 446.119 81.9848 446.077 84.6571L444.496 182.793C444.492 183.101 444.609 183.398 444.823 183.619C445.036 183.84 445.329 183.967 445.637 183.972C446.269 183.972 446.785 183.464 446.795 182.83V182.803L494.778 182.292C494.792 182.93 495.316 183.438 495.951 183.438C496.257 183.436 496.553 183.311 496.767 183.09C496.984 182.869 497.1 182.572 497.096 182.264L496.081 89.6027Z" fill="#D2DCD0"/>
<path d="M498.009 173.496H444.106C442.368 173.496 440.957 174.906 440.955 176.646V187.59C440.955 188.231 441.474 188.75 442.113 188.75H499.997C500.637 188.75 501.156 188.231 501.156 187.59V176.646C501.151 174.907 499.747 173.499 498.009 173.496Z" fill="#A3B6B7"/>
<path d="M372.18 86.9258H349.746L331.089 108.596H356.036C361.86 101.715 367.252 94.4772 372.18 86.9258Z" fill="#FA4A1B"/>
<path d="M288.562 107.283C289.697 108.136 291.078 108.597 292.497 108.596H312.377C318.21 101.716 323.608 94.4786 328.54 86.9258H306.083L288.562 107.283Z" fill="#FA4A1B"/>
<path d="M415.833 86.9258H393.38L374.724 108.596H399.67C405.501 101.715 410.899 94.4777 415.833 86.9258Z" fill="#FA4A1B"/>
<path d="M459.482 86.9258H437.029L418.373 108.596H443.319C449.15 101.715 454.548 94.4777 459.482 86.9258Z" fill="#FA4A1B"/>
<path fill-rule="evenodd" clip-rule="evenodd" d="M471.723 85.7568H292.488C288.213 85.7619 284.748 89.2298 284.743 93.5092V101.995C284.748 106.274 288.213 109.742 292.488 109.747H471.723C472.363 109.747 472.882 109.228 472.882 108.587V86.9167C472.882 86.276 472.363 85.7568 471.723 85.7568ZM392.389 88.0765H415.068C410.621 94.7896 405.804 101.25 400.639 107.427H375.702L392.389 88.0765ZM332.072 107.427H356.99L356.986 107.437C362.15 101.257 366.966 94.7938 371.41 88.0765H348.731L332.072 107.427ZM436.033 88.0765H458.712C454.27 94.791 449.459 101.255 444.302 107.437H419.37C424.929 100.988 430.483 94.5345 436.033 88.0765ZM305.072 88.0858L289.313 106.402C290.23 107.071 291.335 107.433 292.47 107.437H313.328C318.491 101.259 323.306 94.7989 327.752 88.0858H305.072Z" fill="#F6F6F6"/>
<path d="M488.335 98.8069C488.224 95.2857 487.992 91.5603 486.546 88.0436C484.887 84.012 481.846 81.2377 478.203 80.4305C472.71 79.215 467.76 81.2888 464.97 85.9977C464.562 86.6852 464.206 87.4016 463.904 88.1411C462.193 92.3443 462.161 96.9883 462.128 101.085C462.078 108.044 465.489 113.226 471.26 114.938C472.454 115.287 473.692 115.462 474.935 115.458C478.226 115.46 481.415 114.293 483.927 112.164C488.145 108.489 488.461 102.778 488.335 98.8069Z" fill="#A3B6B7"/>
<path fill-rule="evenodd" clip-rule="evenodd" d="M469.531 100.701C469.698 102.653 470.087 107.191 475.237 107.191C478.917 107.191 481.114 104.816 481.1 100.84V100.135V100.113C481.109 97.0715 481.118 93.9246 479.334 90.8887C478.514 89.4208 477.012 88.465 475.334 88.3463C473.929 88.2349 472.535 88.6683 471.44 89.5572C470.724 90.2299 470.238 91.1113 470.05 92.0763C469.396 94.5677 469.234 97.226 469.531 100.696L469.531 100.701ZM475.237 104.872C472.975 104.872 472.117 103.754 471.839 100.506L471.825 100.557C471.566 97.3605 471.705 94.9434 472.289 92.7212C472.362 92.1928 472.608 91.7033 472.988 91.3294C473.612 90.8534 474.39 90.6251 475.172 90.6892C476.089 90.7485 476.91 91.2737 477.35 92.081C478.796 94.5723 478.796 97.277 478.796 100.14V100.845C478.796 103.517 477.6 104.872 475.237 104.872Z" fill="#F6F6F6"/>
<path d="M510.473 189.214H328.53C327.891 189.214 327.372 188.695 327.372 188.054C327.372 187.413 327.891 186.894 328.53 186.894H510.473C511.112 186.894 511.632 187.413 511.632 188.054C511.632 188.695 511.112 189.214 510.473 189.214Z" fill="#1B1812"/>
</g>
<defs>
<clipPath id="clip0_2521_18000">
<rect width="508" height="193" fill="white"/>
</clipPath>
<clipPath id="clip1_2521_18000">
<rect width="175.31" height="80.2737" fill="white" transform="translate(418)"/>
</clipPath>
</defs>
</svg>
