<svg width="244" height="400" viewBox="0 0 244 400" fill="none" xmlns="http://www.w3.org/2000/svg">
<path d="M95.1341 259.4H148.673C138.109 264.925 128.198 271.615 119.127 279.346C113.851 283.805 108.966 288.701 104.523 293.989C94.7191 290.959 84.0852 290.798 73.8894 292.299C61.895 294.108 50.3456 298.144 39.8393 304.204C37.0814 296.424 37.2744 287.902 40.3811 280.257C48.9171 281.334 57.5841 280.644 65.8419 278.229C77.1718 274.804 87.3176 268.282 95.1341 259.4Z" fill="#6880FF"/>
<path d="M71.497 259.4H95.1322C87.3222 268.284 77.1833 274.809 65.8591 278.24C57.6014 280.655 48.9348 281.345 40.3984 280.268C42.9226 274.097 47.228 268.817 52.7668 265.1C58.3051 261.384 64.8257 259.4 71.497 259.4Z" fill="#6880FF"/>
<path d="M80.6901 388.14H71.4973C67.0877 388.14 62.7212 387.272 58.6471 385.586C54.5734 383.9 50.8717 381.431 47.7534 378.313C44.6355 375.198 42.1624 371.5 40.4749 367.429C38.7878 363.359 37.9196 358.992 37.92 354.588C37.918 353.463 37.9745 352.337 38.0891 351.216H38.1198C38.8427 348.662 39.8496 346.201 41.1213 343.874C52.9697 344.776 64.0071 352.057 70.8632 361.873C76.2782 369.622 79.3258 378.743 80.6901 388.14Z" fill="#6880FF"/>
<path d="M133.094 321.381C136.204 333.006 131.942 346.727 121.769 353.151C111.596 359.576 96.1121 356.661 90.2821 346.132C86.8233 339.884 86.9578 332.23 88.4681 325.248C90.9777 313.64 96.9038 303.186 104.54 293.989C106.194 294.496 107.82 295.087 109.413 295.763C120.501 300.464 129.985 309.769 133.094 321.381Z" fill="#6880FF"/>
<path d="M203.182 292.952C203.186 296.193 202.717 299.419 201.795 302.526C192.341 305.214 182.16 306.017 172.768 303.175C166.557 301.293 160.182 296.846 159.701 290.379C159.413 286.412 161.446 282.668 163.675 279.377C168.391 272.444 174.247 266.362 181.004 261.389C187.499 263.735 193.113 268.023 197.079 273.671C201.049 279.319 203.178 286.051 203.182 292.952Z" fill="#6880FF"/>
<path d="M198.805 371.158C195.873 376.316 191.626 380.605 186.496 383.589C181.365 386.573 175.535 388.144 169.598 388.14H134.895C135.252 385.701 135.563 383.263 135.855 380.843C137.704 365.74 139.76 349.707 149.398 337.929C153.461 332.971 159.74 328.793 165.947 330.383C171.738 331.865 175.147 337.649 178.187 342.787C184.155 352.867 191.058 362.368 198.805 371.158Z" fill="#6880FF"/>
<path d="M201.796 302.526C200.389 307.23 197.968 311.57 194.705 315.241C191.439 318.912 187.411 321.823 182.899 323.77C187.23 325.636 191.123 328.398 194.317 331.869C197.511 335.341 199.939 339.446 201.438 343.916C202.941 348.386 203.479 353.125 203.026 357.817C202.572 362.51 201.135 367.057 198.806 371.158C191.062 362.368 184.16 352.871 178.195 342.791C175.155 337.652 171.746 331.869 165.955 330.387C159.748 328.797 153.468 332.975 149.406 337.933C139.767 349.711 137.711 365.744 135.863 380.847C135.571 383.263 135.259 385.701 134.902 388.144H80.6908C79.3342 378.747 76.2789 369.626 70.864 361.876C64.0078 352.061 52.9704 344.78 41.122 343.877C49.2541 329.047 65.2107 326.285 65.2107 326.285C61.3449 325.241 57.634 323.689 54.1732 321.677C47.5327 317.672 42.4802 311.501 39.8691 304.204C50.3755 298.144 61.9248 294.108 73.9192 292.299C84.115 290.798 94.749 290.959 104.553 293.989C96.9165 303.206 90.9904 313.64 88.4808 325.249C86.9705 332.23 86.8321 339.884 90.2948 346.132C96.1248 356.661 111.601 359.572 121.782 353.152C131.962 346.731 136.216 333.006 133.107 321.381C129.998 309.757 120.513 300.464 109.426 295.763C107.833 295.088 106.206 294.496 104.553 293.989C108.996 288.701 113.881 283.805 119.157 279.346C128.228 271.615 138.139 264.925 148.703 259.4H169.636C173.53 259.396 177.392 260.069 181.054 261.389C174.302 266.362 168.441 272.444 163.726 279.377C161.497 282.668 159.464 286.412 159.752 290.379C160.213 296.846 166.589 301.293 172.819 303.175C182.161 306.017 192.342 305.214 201.796 302.526Z" fill="#6880FF"/>
<path d="M169.604 388.673H71.4964C62.4524 388.666 53.7811 385.071 47.3862 378.681C40.9908 372.291 37.3941 363.624 37.3848 354.588C37.3848 353.436 37.4425 352.284 37.5539 351.162C38.1392 345.317 40.2291 339.722 43.6199 334.922C47.0107 330.122 51.5871 326.278 56.9041 323.77C55.8703 323.282 54.8618 322.737 53.8834 322.146C48.8446 319.119 44.6768 314.842 41.7852 309.726C38.894 304.611 37.3779 298.835 37.3848 292.96C37.376 288.551 38.2284 284.185 39.8944 280.103V280.072C42.4439 273.794 46.8143 268.421 52.4433 264.643C58.0728 260.866 64.7041 258.857 71.4849 258.874H169.593C177.337 258.881 184.846 261.52 190.892 266.357C196.937 271.194 201.157 277.942 202.855 285.491C204.554 293.041 203.631 300.944 200.242 307.902C196.848 314.857 191.191 320.456 184.197 323.774C191.199 327.088 196.864 332.683 200.261 339.642C203.655 346.6 204.581 354.507 202.882 362.061C201.18 369.614 196.96 376.366 190.907 381.204C184.858 386.039 177.341 388.673 169.593 388.673H169.604ZM40.8936 280.441V280.472C37.6393 288.478 37.6504 297.445 40.9247 305.444C44.1991 313.444 50.4764 319.849 58.4144 323.282C58.5101 323.325 58.5912 323.394 58.6484 323.478C58.7057 323.566 58.7357 323.666 58.7357 323.77C58.7357 323.878 58.7057 323.977 58.6484 324.066C58.5912 324.15 58.5101 324.219 58.4144 324.262C54.1697 326.093 50.3558 328.793 47.219 332.188C44.0822 335.582 41.6918 339.596 40.2019 343.97C39.0412 347.391 38.4505 350.978 38.4532 354.588C38.4613 363.343 41.9462 371.738 48.1425 377.932C54.3392 384.123 62.741 387.606 71.5041 387.614H169.612C177.222 387.614 184.596 384.994 190.496 380.19C196.391 375.39 200.453 368.701 201.987 361.254C203.524 353.808 202.44 346.059 198.924 339.319C195.403 332.576 189.666 327.253 182.679 324.25C182.583 324.208 182.502 324.139 182.444 324.054C182.387 323.966 182.356 323.866 182.356 323.758C182.356 323.655 182.387 323.555 182.444 323.467C182.502 323.382 182.583 323.313 182.679 323.271C189.666 320.268 195.403 314.945 198.924 308.202C202.44 301.462 203.524 293.713 201.987 286.266C200.453 278.822 196.391 272.133 190.496 267.33C184.596 262.528 177.222 259.906 169.612 259.907H71.4964C64.9281 259.891 58.5047 261.837 53.0513 265.496C47.5983 269.155 43.3644 274.36 40.8936 280.441Z" fill="#002127"/>
<path d="M104.541 294.523C104.416 294.523 104.295 294.481 104.199 294.4C104.142 294.354 104.096 294.3 104.062 294.235C104.028 294.174 104.007 294.104 104 294.031C103.994 293.958 104.002 293.886 104.024 293.816C104.046 293.751 104.082 293.686 104.13 293.632C108.585 288.325 113.485 283.406 118.776 278.928C127.879 271.17 137.824 264.456 148.426 258.913C148.55 258.854 148.693 258.845 148.824 258.889C148.954 258.933 149.063 259.025 149.127 259.147C149.191 259.269 149.206 259.411 149.167 259.544C149.129 259.676 149.041 259.789 148.921 259.857C138.393 265.365 128.514 272.033 119.472 279.738C114.224 284.181 109.367 289.062 104.952 294.331C104.902 294.392 104.839 294.439 104.768 294.473C104.697 294.508 104.619 294.523 104.541 294.523Z" fill="#002127"/>
<path d="M109.533 357.072C107.415 357.072 105.306 356.807 103.253 356.285C97.2735 354.749 92.4926 351.239 89.8024 346.389C86.7279 340.824 86.09 333.674 87.9347 325.137C90.2406 314.385 95.7055 303.778 104.118 293.647C104.185 293.567 104.276 293.505 104.377 293.475C104.478 293.448 104.586 293.448 104.687 293.478C106.359 293.993 108.003 294.592 109.614 295.272C121.647 300.375 130.616 310.084 133.599 321.243C136.923 333.666 132.061 347.276 122.042 353.605C118.28 355.909 113.946 357.111 109.533 357.072ZM104.725 294.604C96.551 304.519 91.2744 314.865 88.9915 325.364C87.2045 333.639 87.7963 340.54 90.7479 345.874C93.292 350.46 97.8269 353.789 103.519 355.248C109.725 356.838 116.439 355.886 121.485 352.698C131.12 346.615 135.785 333.497 132.576 321.52C129.679 310.675 120.939 301.232 109.206 296.259C107.765 295.644 106.259 295.087 104.725 294.604Z" fill="#002127"/>
<path d="M39.858 304.753C39.7638 304.753 39.6716 304.726 39.5902 304.68C39.5087 304.634 39.4407 304.565 39.393 304.484C39.358 304.423 39.3353 304.358 39.3265 304.285C39.3177 304.216 39.3227 304.147 39.3415 304.077C39.3599 304.008 39.3918 303.947 39.4349 303.889C39.4779 303.836 39.5317 303.789 39.5928 303.755C50.1503 297.645 61.7661 293.578 73.8312 291.77C85.2146 290.095 95.6025 290.667 104.699 293.478C104.835 293.521 104.948 293.613 105.015 293.74C105.081 293.866 105.095 294.012 105.053 294.147C105.011 294.281 104.917 294.396 104.792 294.462C104.667 294.527 104.52 294.542 104.384 294.5C95.4411 291.735 85.2107 291.174 73.9849 292.829C62.0528 294.619 50.5649 298.64 40.1232 304.68C40.0436 304.73 39.9514 304.753 39.858 304.753Z" fill="#002127"/>
<path d="M185.37 305.479C181.054 305.51 176.757 304.907 172.614 303.686C169.351 302.733 166.323 301.101 163.733 298.897C160.981 296.451 159.409 293.521 159.186 290.418C158.875 286.14 161.196 282.108 163.252 279.078C167.999 272.09 173.902 265.963 180.708 260.96C180.766 260.918 180.831 260.888 180.896 260.871C180.965 260.854 181.035 260.851 181.104 260.861C181.177 260.872 181.242 260.896 181.304 260.932C181.361 260.968 181.415 261.016 181.457 261.073C181.496 261.129 181.526 261.193 181.546 261.261C181.561 261.33 181.565 261.4 181.553 261.469C181.542 261.539 181.519 261.606 181.484 261.666C181.446 261.726 181.4 261.778 181.342 261.819C174.636 266.752 168.817 272.791 164.136 279.676C162.18 282.565 159.967 286.389 160.251 290.341C160.712 296.743 167.365 300.978 172.933 302.664C181.307 305.199 191.238 304.968 201.657 302.011C201.726 301.992 201.795 301.988 201.864 301.996C201.934 302.004 202.003 302.023 202.064 302.057C202.126 302.092 202.179 302.138 202.222 302.196C202.268 302.249 202.299 302.311 202.318 302.38C202.337 302.449 202.345 302.518 202.333 302.587C202.326 302.657 202.306 302.726 202.272 302.787C202.237 302.849 202.191 302.902 202.133 302.945C202.08 302.991 202.018 303.021 201.949 303.041C196.561 304.615 190.984 305.433 185.37 305.479Z" fill="#002127"/>
<path d="M134.902 388.673H134.825C134.755 388.662 134.689 388.639 134.628 388.604C134.568 388.566 134.516 388.52 134.474 388.462C134.432 388.408 134.402 388.343 134.385 388.274C134.368 388.205 134.365 388.136 134.375 388.067C134.759 385.436 135.086 382.794 135.332 380.789C137.119 366.197 139.144 349.63 148.994 337.599C151.086 334.987 153.683 332.821 156.631 331.232C159.894 329.557 163.076 329.096 166.089 329.872C172.084 331.408 175.566 337.299 178.641 342.499C184.594 352.56 191.48 362.038 199.209 370.809C199.259 370.863 199.297 370.924 199.32 370.989C199.347 371.058 199.359 371.128 199.355 371.2C199.351 371.273 199.332 371.343 199.301 371.408C199.27 371.473 199.228 371.531 199.17 371.577C199.117 371.623 199.055 371.661 198.986 371.684C198.917 371.704 198.848 371.715 198.775 371.707C198.702 371.7 198.632 371.68 198.571 371.646C198.506 371.615 198.452 371.569 198.406 371.512C190.639 362.698 183.717 353.175 177.734 343.067C174.751 338.021 171.389 332.314 165.82 330.905C159.744 329.35 153.568 333.693 149.817 338.274C140.163 350.068 138.16 366.458 136.389 380.901C136.143 382.917 135.812 385.567 135.428 388.197C135.414 388.328 135.352 388.447 135.255 388.535C135.158 388.623 135.032 388.673 134.902 388.673Z" fill="#002127"/>
<path d="M80.6911 388.673C80.5623 388.673 80.4382 388.627 80.3406 388.543C80.243 388.458 80.1791 388.343 80.1607 388.216C78.7003 378.097 75.426 369.338 70.4261 362.18C63.2471 351.903 52.2788 345.26 41.08 344.407C40.6418 344.373 40.1807 344.346 39.6772 344.33C39.6069 344.33 39.5377 344.311 39.4739 344.284C39.4097 344.254 39.3517 344.211 39.304 344.162C39.256 344.112 39.2187 344.05 39.1945 343.985C39.1703 343.92 39.1595 343.847 39.1626 343.778C39.163 343.708 39.1776 343.639 39.2057 343.574C39.2341 343.509 39.2749 343.451 39.3263 343.401C39.3778 343.355 39.4386 343.317 39.505 343.294C39.5711 343.271 39.6415 343.259 39.7118 343.263C40.2345 343.263 40.7076 343.305 41.1649 343.34C52.6751 344.219 63.9427 351.02 71.3023 361.569C76.3983 368.866 79.7341 377.779 81.2176 388.067C81.2287 388.136 81.2256 388.209 81.2087 388.274C81.1922 388.343 81.1618 388.408 81.1199 388.466C81.078 388.52 81.0254 388.57 80.9651 388.604C80.9047 388.639 80.8375 388.662 80.7679 388.673H80.6911Z" fill="#002127"/>
<path d="M48.2427 281.286C45.599 281.286 42.9572 281.123 40.3335 280.798C40.1983 280.782 40.0745 280.715 39.9873 280.61C39.9 280.505 39.8559 280.371 39.8643 280.235C39.8728 280.1 39.9327 279.972 40.0319 279.879C40.1314 279.785 40.2628 279.734 40.3989 279.734H40.5065C48.9575 280.787 57.5342 280.101 65.7097 277.718C76.6549 274.473 86.9622 267.837 94.733 259.039C94.7783 258.983 94.8344 258.937 94.8982 258.903C94.962 258.869 95.0324 258.848 95.1042 258.842C95.1761 258.836 95.2487 258.845 95.3171 258.867C95.3855 258.89 95.4489 258.927 95.5028 258.974C95.5569 259.022 95.6008 259.081 95.6319 259.146C95.6626 259.211 95.6799 259.282 95.683 259.354C95.6857 259.426 95.6738 259.498 95.6476 259.565C95.6219 259.633 95.5827 259.694 95.5323 259.746C87.6739 268.724 77.4435 275.308 66.0133 278.744C60.2425 280.439 54.2576 281.295 48.2427 281.286Z" fill="#002127"/>
<path d="M38.1201 351.75C38.0717 351.758 38.0225 351.758 37.9741 351.75C37.9049 351.731 37.8404 351.7 37.7831 351.658C37.7262 351.615 37.6786 351.562 37.6428 351.5C37.6071 351.439 37.584 351.37 37.5748 351.301C37.5656 351.231 37.5706 351.158 37.5898 351.089C38.3265 348.501 39.3488 346.001 40.6374 343.635C47.1092 331.838 58.5925 327.537 63.1581 326.247C59.916 325.241 56.8004 323.866 53.8731 322.146C53.7528 322.069 53.6675 321.95 53.636 321.812C53.6041 321.673 53.6287 321.527 53.704 321.408C53.7797 321.289 53.8996 321.201 54.038 321.17C54.1763 321.139 54.3216 321.163 54.4419 321.239C57.8611 323.225 61.5251 324.753 65.341 325.786C65.4582 325.817 65.5608 325.89 65.6315 325.99C65.7026 326.086 65.738 326.209 65.7318 326.328C65.7253 326.45 65.678 326.566 65.5973 326.654C65.5162 326.746 65.4071 326.808 65.2872 326.827C65.1296 326.854 49.4843 329.73 41.5751 344.15C40.3253 346.446 39.3338 348.87 38.6197 351.385C38.5844 351.489 38.5171 351.581 38.4276 351.646C38.3384 351.711 38.2308 351.746 38.1201 351.75Z" fill="#002127"/>
<path d="M202.947 351.75C202.832 351.75 202.721 351.711 202.625 351.642C202.532 351.573 202.467 351.477 202.432 351.366C196.491 330.629 176.13 326.842 175.915 326.808C175.796 326.788 175.688 326.727 175.604 326.635C175.523 326.547 175.477 326.431 175.469 326.308C175.465 326.189 175.5 326.066 175.569 325.97C175.642 325.871 175.746 325.798 175.861 325.767C179.677 324.734 183.34 323.206 186.756 321.22C186.875 321.159 187.014 321.143 187.144 321.178C187.275 321.212 187.39 321.293 187.463 321.408C187.533 321.524 187.56 321.662 187.536 321.792C187.51 321.927 187.437 322.046 187.329 322.126C184.408 323.843 181.295 325.218 178.059 326.224C181.357 327.165 184.516 328.54 187.456 330.302C195.269 334.903 200.999 342.345 203.451 351.07C203.47 351.139 203.474 351.212 203.466 351.281C203.459 351.35 203.435 351.42 203.397 351.481C203.362 351.542 203.316 351.596 203.259 351.638C203.201 351.681 203.136 351.711 203.066 351.731C203.028 351.742 202.99 351.75 202.947 351.75Z" fill="#002127"/>
<path d="M201.795 302.783C201.656 302.783 201.526 302.729 201.426 302.633C201.33 302.541 201.268 302.415 201.26 302.276C200.745 292.541 197.94 284.266 192.925 277.672C188.916 272.399 183.486 268.179 176.784 265.13C165.343 259.919 154.06 259.946 153.937 259.934C153.795 259.934 153.659 259.878 153.559 259.778C153.458 259.678 153.402 259.542 153.402 259.4C153.402 259.259 153.458 259.123 153.559 259.023C153.659 258.923 153.795 258.867 153.937 258.867C154.06 258.867 165.585 258.867 177.233 264.155C184.097 267.28 189.662 271.612 193.782 277.027C198.928 283.793 201.806 292.269 202.333 302.219C202.336 302.288 202.329 302.357 202.306 302.426C202.283 302.491 202.244 302.553 202.198 302.607C202.152 302.656 202.094 302.699 202.033 302.729C201.968 302.76 201.898 302.779 201.829 302.783H201.795Z" fill="#002127"/>
<path d="M62.7543 325.318C62.5636 325.314 62.3788 325.383 62.2354 325.51C62.1217 325.429 61.9899 325.375 61.8511 325.36C61.8081 325.337 61.7612 325.321 61.7128 325.318C60.9864 325.118 60.2489 324.972 59.5149 324.803C59.2613 324.738 59.0076 324.669 58.7463 324.588C58.7025 324.446 58.6141 324.319 58.4934 324.231C58.3731 324.143 58.2271 324.093 58.0772 324.093C57.9861 324.1 57.8958 324.116 57.8082 324.143C57.6733 324.166 57.543 324.212 57.4238 324.277C57.3005 324.331 57.1856 324.4 57.0822 324.484C56.6479 324.749 56.2325 325.045 55.8213 325.345C55.7071 325.252 55.5649 325.202 55.4181 325.202C55.2709 325.202 55.1287 325.252 55.0146 325.345C53.1722 326.658 51.3544 328.006 49.5608 329.384C48.8794 329.861 48.2238 330.375 47.597 330.921C46.9705 331.516 46.602 332.387 45.8641 332.841C45.7 332.937 45.5774 333.09 45.5209 333.275C45.464 333.455 45.4767 333.651 45.5563 333.824C45.3407 334.05 45.1378 334.288 44.9491 334.538C43.6789 336.097 42.6232 337.818 41.8092 339.657C41.6055 340.087 41.3984 340.513 41.2062 340.947C41.1082 340.909 41.0037 340.89 40.8984 340.89C40.7616 340.894 40.6275 340.928 40.5095 340.997C40.3911 341.066 40.2923 341.166 40.2228 341.285C40.1532 341.4 40.1156 341.535 40.1125 341.673C40.1098 341.808 40.1421 341.946 40.2066 342.065C39.8761 342.768 39.5422 343.466 39.1886 344.158C38.7159 345.076 40.1033 345.886 40.5721 344.968C41.0102 344.112 41.4249 343.248 41.8246 342.376C42.5317 342.272 42.8818 341.055 43.2854 340.529C43.6274 339.937 44.4072 338.755 44.9567 337.948C45.1796 337.679 45.3987 337.41 45.6139 337.138C45.7331 337.034 45.8411 336.923 45.9448 336.823C46.6865 336.009 47.4052 335.175 48.1162 334.334L48.5005 333.981C48.6242 334.116 48.7933 334.196 48.9747 334.215C49.1561 334.231 49.3375 334.181 49.4843 334.073L49.5727 334C50.2876 333.394 51.0331 332.764 51.7825 332.153C51.8206 332.161 51.8594 332.161 51.8974 332.153C52.4355 332.199 52.9043 331.769 53.3463 331.523C53.9535 331.139 54.5569 330.736 55.1641 330.352L56.7013 329.365C56.8405 329.296 56.9846 329.239 57.1318 329.192C57.9407 328.874 58.7324 328.509 59.503 328.106C59.9642 327.914 60.4987 327.56 60.5333 327.042L61.0825 326.946C61.2093 326.946 61.3361 326.915 61.4668 326.907C61.6351 326.923 61.8042 326.888 61.9514 326.804C62.0391 326.769 62.1221 326.727 62.1974 326.669C62.2681 326.739 62.3519 326.792 62.4434 326.827C62.5352 326.861 62.6328 326.881 62.7312 326.877C63.7881 326.923 63.7881 325.318 62.7543 325.318Z" fill="#002127"/>
<path d="M201.737 344.607C201.806 344.492 201.845 344.357 201.845 344.223C201.845 344.089 201.806 343.954 201.737 343.839C201.26 342.994 200.811 342.126 200.273 341.316C200.219 341.235 200.15 341.166 200.077 341.105C200.058 341.07 200.042 341.036 200.023 341.005C199.831 340.563 199.619 340.125 199.412 339.688C198.597 337.848 197.54 336.128 196.272 334.569C196.157 334.423 196.041 334.281 195.922 334.142C195.93 334.031 195.915 333.916 195.872 333.812C195.826 333.708 195.757 333.616 195.672 333.543C193.705 331.765 191.799 329.922 189.958 328.021C189.846 327.894 189.693 327.814 189.527 327.787C189.362 327.764 189.193 327.795 189.051 327.883C188.175 327.169 187.233 326.547 186.238 326.017C186.069 325.836 185.884 325.675 185.68 325.537C185.177 325.153 184.67 324.803 184.143 324.477C184.039 324.392 183.924 324.323 183.801 324.269C183.682 324.2 183.551 324.158 183.417 324.135C183.328 324.108 183.236 324.093 183.144 324.085C182.994 324.085 182.848 324.135 182.729 324.223C182.61 324.311 182.521 324.438 182.479 324.58C182.225 324.661 181.972 324.73 181.71 324.795C180.98 324.964 180.239 325.11 179.516 325.31C179.466 325.314 179.416 325.329 179.374 325.352C179.243 325.371 179.12 325.418 179.016 325.494C178.824 325.494 178.632 325.494 178.44 325.46C177.406 325.391 177.41 326.996 178.44 327.065C179.185 327.115 179.931 327.142 180.68 327.157C180.761 327.633 181.261 327.96 181.699 328.144C182.468 328.547 183.259 328.912 184.07 329.231C184.216 329.277 184.362 329.334 184.501 329.404L186.038 330.391C186.645 330.775 187.248 331.159 187.852 331.562C188.294 331.823 188.766 332.238 189.304 332.192C189.343 332.195 189.381 332.195 189.42 332.192C190.165 332.802 190.915 333.432 191.63 334.039L191.718 334.112C191.799 334.177 191.895 334.223 191.995 334.242C192.095 334.265 192.202 334.262 192.302 334.238L192.337 334.288L193.271 335.44C193.378 335.556 193.524 335.636 193.682 335.663C193.839 335.694 194.001 335.675 194.147 335.609C194.531 336.032 194.885 336.447 195.261 336.861C195.365 336.961 195.473 337.073 195.588 337.176C195.807 337.449 196.026 337.718 196.249 337.986C196.799 338.793 197.579 339.976 197.917 340.567C198.209 340.951 198.474 341.688 198.862 342.103V342.126C199.396 342.937 199.846 343.804 200.323 344.649C200.377 344.749 200.453 344.834 200.542 344.903C200.48 345.022 200.453 345.156 200.457 345.291C200.465 345.425 200.503 345.556 200.576 345.671C200.645 345.786 200.745 345.882 200.861 345.951C200.976 346.016 201.111 346.051 201.245 346.055C202.098 346.062 202.26 345.006 201.737 344.607Z" fill="#002127"/>
<path d="M202.234 285.802C202.303 285.625 202.323 285.433 202.28 285.249C202.161 284.631 201.973 284.024 201.723 283.448C201.738 283.383 201.75 283.317 201.75 283.248C201.692 282.722 201.285 282.3 201.058 281.835C200.831 281.37 200.543 280.967 200.29 280.533C200.147 280.149 200.001 279.807 199.855 279.489C198.983 277.229 197.772 275.115 196.266 273.217C196.308 273.175 196.343 273.127 196.373 273.075C196.635 272.611 196.373 272.062 195.989 271.743C195.244 270.934 194.375 270.247 193.414 269.707L193.161 269.573C192.392 268.893 191.623 268.229 190.832 267.622V267.599C190.42 266.836 189.806 266.203 189.052 265.771C188.945 265.704 188.826 265.666 188.699 265.66C188.576 265.653 188.449 265.68 188.337 265.736C188.107 265.537 187.865 265.322 187.569 265.088C187.058 264.704 186.635 264.12 186.032 263.84C185.962 263.82 185.893 263.809 185.82 263.805C185.789 263.759 185.755 263.715 185.716 263.674C185.371 263.413 185.382 263.506 184.763 263.218C184.252 263.026 183.737 262.841 183.226 262.664C183.218 262.491 183.145 262.326 183.022 262.203C182.796 262.037 182.531 261.93 182.254 261.893C181.896 261.743 181.424 261.735 181.074 261.612L179.198 261.228C179.183 261.078 179.122 260.936 179.022 260.823C178.922 260.71 178.787 260.632 178.641 260.598C177.235 260.228 175.793 260.013 174.341 259.957C174.249 259.95 174.152 259.961 174.064 259.989C173.976 260.019 173.891 260.065 173.822 260.126L173.518 260.007C173.23 259.911 172.942 259.727 172.631 259.823C172.527 259.856 172.427 259.91 172.342 259.98C172.004 259.915 171.666 259.865 171.324 259.807C170.982 259.75 170.728 259.65 170.425 259.577C170.332 259.547 170.24 259.526 170.144 259.515C170.029 259.473 169.906 259.455 169.783 259.461C169.66 259.469 169.541 259.502 169.429 259.557C169.372 259.589 169.322 259.628 169.279 259.676C168.895 259.638 168.511 259.611 168.153 259.596H168.134C167.973 259.598 167.815 259.643 167.677 259.727C166.597 259.619 165.521 259.489 164.449 259.343C163.438 259.189 163 260.733 164.022 260.879C165.694 261.135 167.373 261.327 169.06 261.455C169.095 261.459 169.126 261.459 169.16 261.455C169.71 261.605 170.263 261.739 170.817 261.873C170.863 261.978 170.928 262.072 171.013 262.149C171.097 262.226 171.197 262.284 171.305 262.319C173.661 263.133 176.001 263.999 178.318 264.918C180.866 266.454 183.234 268.329 185.905 269.669C186.024 269.729 186.155 269.761 186.289 269.765C186.331 269.843 186.389 269.914 186.454 269.972C188.549 271.793 190.463 273.816 192.158 276.013C192.246 276.13 192.365 276.221 192.5 276.278C192.634 276.336 192.78 276.357 192.926 276.34C193.722 277.511 194.602 278.624 195.555 279.672C195.647 279.841 195.743 280.007 195.832 280.176C195.92 280.345 196.039 280.591 196.154 280.79C196.154 280.878 196.166 280.964 196.193 281.047C196.662 282.342 197.223 283.601 197.872 284.815C198.606 286.328 198.887 287.887 199.206 289.511C199.809 292.584 201.039 295.498 201.17 298.64C201.212 299.665 202.815 299.673 202.772 298.64C202.73 297.772 202.626 296.904 202.457 296.051H202.48C202.864 295.905 202.895 295.518 202.864 295.157C202.872 295.13 202.88 295.107 202.888 295.08C203.522 291.985 203.295 288.778 202.234 285.802Z" fill="#002127"/>
<path d="M182.062 140.081C190.132 142.735 199.64 149.413 204.256 156.356C193.433 155.726 182.63 154.317 172.312 150.98C162.074 147.681 152.277 142.278 145.025 134.92C148.434 135.277 151.855 135.534 155.26 135.792C164.295 136.491 173.441 137.247 182.062 140.081Z" fill="#EAA28C"/>
<path d="M163.772 221.87C157.73 224.174 151.508 226.064 145.078 226.785C138.649 227.507 132.046 226.966 126.305 224.738C128.245 224.097 130.171 223.395 132.069 222.703C137.146 220.864 142.304 219.032 147.688 218.46C152.749 217.922 159.556 219.224 163.772 221.87Z" fill="#EAA28C"/>
<path d="M102.092 151.994C110.162 164.194 116.38 178.875 120.735 192.896C109.282 189.743 95.9005 179.006 89.517 169.47C82.7032 159.301 78.7025 147.558 74.8478 135.945C73.3951 131.567 71.9386 127.163 70.3398 122.823C83.2182 129.256 94.0942 139.889 102.092 151.994Z" fill="#EAA28C"/>
<path d="M104.642 204.973C101.287 210.86 94.1348 216.474 87.955 218.667C81.3602 221.006 74.2962 221.567 67.317 222.066C64.6883 222.254 62.0408 222.45 59.4121 222.711C64.7925 216.494 72.2136 211.958 80.0458 209.27C87.9396 206.509 96.2677 205.411 104.642 204.973Z" fill="#EAA28C"/>
<path d="M120.735 259.865C120.594 259.864 120.458 259.807 120.358 259.706C120.258 259.605 120.201 259.47 120.201 259.327V105.922C120.201 105.781 120.258 105.645 120.358 105.545C120.458 105.445 120.594 105.389 120.735 105.389C120.877 105.389 121.013 105.445 121.113 105.545C121.213 105.645 121.27 105.781 121.27 105.922V259.327C121.27 259.47 121.213 259.605 121.114 259.706C121.013 259.807 120.878 259.864 120.735 259.865Z" fill="#002127"/>
<path d="M120.736 213.122C120.653 213.122 120.571 213.102 120.498 213.064L64.9836 185.522C64.921 185.491 64.8649 185.448 64.8188 185.395C64.7726 185.342 64.7373 185.281 64.715 185.214C64.6927 185.148 64.6839 185.077 64.6889 185.007C64.6935 184.937 64.7123 184.869 64.7434 184.806C64.8068 184.679 64.9175 184.583 65.052 184.538C65.1185 184.516 65.1889 184.507 65.2588 184.511C65.3291 184.516 65.3971 184.535 65.4602 184.566L120.974 212.109C121.101 212.171 121.198 212.281 121.243 212.415C121.288 212.549 121.279 212.696 121.216 212.822C121.172 212.912 121.103 212.987 121.018 213.04C120.933 213.093 120.836 213.121 120.736 213.122Z" fill="#002127"/>
<path d="M120.736 232.45C120.627 232.45 120.521 232.416 120.433 232.354C120.316 232.272 120.237 232.148 120.212 232.009C120.187 231.869 120.217 231.725 120.298 231.608L130.379 217.085L143.295 198.137C143.375 198.02 143.499 197.94 143.638 197.913C143.777 197.887 143.922 197.917 144.039 197.997C144.156 198.077 144.237 198.2 144.263 198.339C144.289 198.479 144.259 198.623 144.179 198.74L131.259 217.688L121.174 232.219C121.125 232.29 121.06 232.348 120.984 232.388C120.908 232.429 120.822 232.45 120.736 232.45Z" fill="#002127"/>
<path d="M120.735 146.483C120.633 146.483 120.533 146.454 120.447 146.399C120.361 146.344 120.293 146.265 120.251 146.172C120.221 146.108 120.204 146.039 120.202 145.969C120.199 145.898 120.209 145.828 120.234 145.762C120.258 145.696 120.295 145.636 120.343 145.584C120.391 145.533 120.448 145.49 120.512 145.461L176.664 119.778C176.795 119.719 176.941 119.713 177.071 119.763C177.206 119.812 177.314 119.912 177.375 120.041C177.433 120.17 177.437 120.317 177.387 120.45C177.34 120.583 177.241 120.69 177.11 120.75L120.958 146.433C120.888 146.466 120.812 146.483 120.735 146.483Z" fill="#002127"/>
<path d="M120.735 193.429C120.688 193.434 120.639 193.434 120.592 193.429C108.552 190.115 95.1085 178.805 89.0786 169.781C82.0226 159.247 77.9336 146.966 74.3479 136.129L74.1788 135.622C72.803 131.475 71.3776 127.174 69.8442 123.023C69.8188 122.957 69.8069 122.886 69.8088 122.816C69.8107 122.745 69.8269 122.675 69.8557 122.611C69.8845 122.546 69.926 122.488 69.9771 122.44C70.0286 122.391 70.0894 122.353 70.1555 122.328C70.2216 122.303 70.2919 122.291 70.3626 122.293C70.4333 122.294 70.5029 122.31 70.5674 122.339C70.6324 122.368 70.6904 122.41 70.7392 122.461C70.7876 122.512 70.8257 122.572 70.8511 122.639C72.3883 126.821 73.8141 131.118 75.1938 135.273L75.3629 135.78C78.9408 146.532 82.9915 158.76 89.9668 169.19C95.8967 178.049 109.078 189.159 120.88 192.4C121.005 192.434 121.113 192.513 121.184 192.621C121.256 192.728 121.286 192.858 121.268 192.986C121.251 193.114 121.188 193.232 121.09 193.316C120.993 193.402 120.868 193.448 120.738 193.448L120.735 193.429Z" fill="#002127"/>
<path d="M120.737 193.429C120.622 193.428 120.51 193.39 120.418 193.321C120.326 193.252 120.259 193.156 120.226 193.045C116.836 182.143 110.864 166.221 101.648 152.282C93.1127 139.363 82.2059 129.336 70.1039 123.288C69.977 123.225 69.8802 123.115 69.8348 122.981C69.7895 122.847 69.7991 122.7 69.8617 122.574C69.9252 122.447 70.0366 122.35 70.1711 122.305C70.3056 122.26 70.4528 122.269 70.5804 122.332C82.8515 128.476 93.9005 138.618 102.54 151.694C111.825 165.738 117.839 181.759 121.248 192.73C121.269 192.798 121.276 192.868 121.27 192.938C121.263 193.008 121.243 193.076 121.21 193.138C121.177 193.2 121.132 193.255 121.078 193.3C121.024 193.344 120.962 193.378 120.895 193.399C120.844 193.417 120.791 193.427 120.737 193.429Z" fill="#002127"/>
<path d="M59.4116 223.245C59.2763 223.243 59.1468 223.188 59.0496 223.094C58.952 223 58.8943 222.873 58.8874 222.738C58.8805 222.603 58.9255 222.47 59.0127 222.367C59.0999 222.263 59.2233 222.197 59.3578 222.181C61.8366 221.92 64.3539 221.739 66.8019 221.567L67.2785 221.532C73.7388 221.071 81.0561 220.545 87.7739 218.164C94.115 215.917 101.013 210.257 104.176 204.723C104.247 204.6 104.363 204.51 104.5 204.472C104.637 204.435 104.783 204.454 104.907 204.524C105.03 204.594 105.12 204.71 105.157 204.847C105.195 204.984 105.177 205.13 105.106 205.253C101.828 211.013 94.6915 216.862 88.1313 219.185C81.279 221.616 73.881 222.146 67.3554 222.615L66.875 222.649C64.4461 222.822 61.9289 223.002 59.4693 223.256L59.4116 223.245Z" fill="#002127"/>
<path d="M59.4112 223.245C59.3086 223.245 59.2083 223.215 59.1222 223.16C59.0361 223.104 58.9677 223.026 58.9251 222.933C58.8828 222.839 58.8678 222.736 58.8824 222.635C58.897 222.534 58.9404 222.439 59.0073 222.361C64.1571 216.409 71.371 211.701 79.8682 208.748C86.8396 206.325 94.7022 204.957 104.614 204.439C104.755 204.432 104.894 204.481 105 204.576C105.104 204.671 105.168 204.804 105.175 204.946C105.182 205.088 105.132 205.226 105.038 205.331C104.942 205.436 104.809 205.5 104.667 205.507C94.8598 206.018 87.0929 207.369 80.2175 209.758C71.901 212.65 64.8454 217.25 59.8186 223.06C59.7679 223.118 59.7052 223.165 59.6349 223.197C59.5645 223.229 59.4881 223.245 59.4112 223.245Z" fill="#002127"/>
<path d="M126.304 225.284C126.176 225.284 126.053 225.239 125.956 225.157C125.859 225.075 125.795 224.961 125.774 224.836C125.754 224.71 125.779 224.582 125.845 224.473C125.911 224.365 126.014 224.283 126.134 224.243C127.956 223.64 129.789 222.976 131.561 222.323L131.899 222.2C136.649 220.48 142.029 218.525 147.656 217.93C153.036 217.354 159.931 218.821 164.066 221.417C164.124 221.454 164.178 221.502 164.216 221.56C164.258 221.617 164.289 221.682 164.305 221.751C164.32 221.819 164.32 221.89 164.308 221.959C164.297 222.028 164.274 222.094 164.235 222.154C164.197 222.213 164.151 222.265 164.093 222.306C164.035 222.347 163.97 222.376 163.901 222.391C163.832 222.407 163.763 222.409 163.693 222.397C163.624 222.386 163.555 222.36 163.497 222.323C159.547 219.842 152.932 218.441 147.771 218.99C142.287 219.577 136.968 221.505 132.276 223.214L131.937 223.337C130.158 223.982 128.317 224.646 126.48 225.257C126.424 225.277 126.364 225.286 126.304 225.284Z" fill="#002127"/>
<path d="M139.785 227.619C135.119 227.672 130.484 226.863 126.112 225.234C126.043 225.211 125.979 225.175 125.925 225.127C125.871 225.079 125.827 225.021 125.796 224.955C125.764 224.89 125.747 224.819 125.745 224.746C125.742 224.674 125.754 224.602 125.78 224.534C125.806 224.467 125.846 224.406 125.896 224.354C125.947 224.302 126.008 224.261 126.075 224.233C126.142 224.206 126.213 224.192 126.286 224.193C126.358 224.194 126.43 224.21 126.496 224.239C131.846 226.313 138.252 227.012 145.02 226.251C150.615 225.625 156.511 224.074 163.579 221.37C163.71 221.32 163.859 221.325 163.986 221.382C164.117 221.44 164.217 221.546 164.271 221.678C164.294 221.744 164.309 221.813 164.305 221.883C164.305 221.954 164.29 222.023 164.259 222.087C164.232 222.151 164.19 222.209 164.14 222.258C164.09 222.306 164.029 222.344 163.963 222.369C156.807 225.103 150.827 226.678 145.131 227.315C143.356 227.516 141.572 227.617 139.785 227.619Z" fill="#002127"/>
<path d="M204.255 156.894C204.166 156.894 204.078 156.872 204.001 156.829C203.924 156.787 203.855 156.726 203.809 156.652C199.443 150.081 190.224 143.322 181.903 140.588C173.087 137.693 163.606 136.971 155.239 136.337L154.651 136.291C151.484 136.053 148.21 135.803 144.989 135.465C144.919 135.458 144.851 135.437 144.789 135.404C144.727 135.37 144.673 135.325 144.629 135.27C144.585 135.216 144.551 135.153 144.532 135.085C144.512 135.018 144.505 134.948 144.513 134.878C144.519 134.807 144.539 134.739 144.572 134.677C144.605 134.614 144.651 134.559 144.706 134.515C144.761 134.471 144.824 134.438 144.892 134.418C144.96 134.399 145.031 134.393 145.101 134.401C148.306 134.739 151.573 134.985 154.732 135.227L155.32 135.269C163.748 135.911 173.298 136.636 182.222 139.57C190.754 142.374 200.208 149.309 204.693 156.06C204.731 156.119 204.758 156.184 204.774 156.253C204.785 156.322 204.785 156.393 204.77 156.462C204.758 156.531 204.731 156.596 204.689 156.654C204.651 156.713 204.601 156.763 204.543 156.801C204.459 156.86 204.359 156.892 204.255 156.894Z" fill="#002127"/>
<path d="M204.254 156.894H204.227C191.437 156.149 181.245 154.432 172.149 151.517C161.08 147.95 151.573 142.351 144.659 135.327C144.609 135.277 144.568 135.216 144.541 135.151C144.514 135.085 144.5 135.014 144.5 134.943C144.5 134.872 144.514 134.801 144.541 134.735C144.568 134.669 144.609 134.609 144.659 134.559C144.709 134.509 144.769 134.468 144.835 134.441C144.902 134.414 144.972 134.4 145.043 134.4C145.115 134.4 145.185 134.414 145.251 134.441C145.317 134.468 145.377 134.509 145.428 134.559C152.222 141.471 161.568 146.967 172.487 150.48C181.491 153.384 191.599 155.089 204.296 155.822C204.431 155.837 204.554 155.901 204.642 156.003C204.734 156.105 204.781 156.237 204.777 156.372C204.773 156.507 204.719 156.636 204.623 156.732C204.527 156.829 204.4 156.887 204.266 156.894H204.254Z" fill="#002127"/>
<path d="M180.555 63.1694C179.191 89.544 156.696 109.736 130.298 108.457C122.392 108.073 116.424 107.62 116.424 107.62V107.601C122.707 107.792 128.967 106.745 134.845 104.519C140.723 102.292 146.105 98.931 150.683 94.6265C155.262 90.322 158.945 85.1585 161.528 79.4312C164.11 73.7035 165.536 67.5242 165.728 61.2455C165.92 54.9671 164.871 48.7122 162.642 42.8386C160.417 36.9646 157.051 31.5871 152.743 27.0123C148.436 22.4374 143.268 18.7554 137.536 16.176C131.805 13.5969 125.62 12.1706 119.337 11.9794C124.652 11.9517 129.963 12.2724 135.236 12.9395C160.417 16.3265 181.938 36.7948 180.555 63.1694Z" fill="#002127"/>
<path d="M119.264 11.9871H119.337C132.366 11.997 143.599 17.2113 152.807 26.4224C162.016 35.6335 166.201 47.9652 166.197 60.9843C166.193 74.0034 161.378 84.6139 152.161 93.8181C142.946 103.022 132.147 107.451 119.119 107.451C106.09 107.451 95.0902 104.174 85.8755 94.9702C76.6608 85.766 70.1671 74.1255 70.1621 61.1064C70.1575 48.087 75.3273 35.5986 84.5354 26.3875C93.7432 17.1763 106.235 11.997 119.264 11.9871ZM152.161 71.207C154.419 64.5277 154.643 57.3296 152.807 50.5228C150.97 43.716 147.155 37.6059 141.843 32.9658C136.532 28.3256 129.962 25.3637 122.966 24.4543C115.97 23.5449 108.861 24.7293 102.538 27.8571C96.2151 30.985 90.9623 35.9158 87.4443 42.0267C83.9263 48.1377 82.3006 55.1537 82.773 62.1878C83.2453 69.222 85.7944 75.9581 90.0979 81.5444C94.4015 87.1308 100.266 91.3166 106.95 93.5723C115.914 96.5973 125.713 95.9402 134.191 91.7459C142.67 87.5517 149.134 80.1635 152.161 71.207Z" fill="#FFC964"/>
<path d="M110.524 74.9051L124.001 75.2891C126.023 75.3698 127.994 74.6443 129.481 73.2726C130.967 71.9009 131.848 69.9958 131.928 67.9754C132.009 65.9555 131.283 63.9858 129.91 62.5004C128.537 61.015 126.63 60.1356 124.609 60.055L111.561 59.3253V59.2981L123.783 59.7439C125.767 59.7808 127.687 59.0373 129.128 57.6729C130.569 56.3085 131.416 54.4333 131.486 52.4506C131.556 50.4683 130.844 48.5382 129.503 47.0755C128.162 45.6131 126.299 44.7356 124.317 44.6327L111.573 44.1412V44.4061L111.065 59.2793L110.532 74.8859L110.524 74.9051ZM129.778 26.0307C136.462 28.2857 142.328 32.4711 146.632 38.0575C150.936 43.6438 153.486 50.38 153.959 57.4141C154.432 64.4486 152.806 71.4646 149.288 77.5756C145.77 83.6869 140.518 88.6185 134.195 91.7467C127.872 94.8746 120.763 96.0593 113.766 95.1499C106.77 94.2406 100.201 91.2786 94.8886 86.6385C89.577 81.998 85.7616 75.8882 83.9249 69.081C82.0887 62.2739 82.3131 55.0754 84.5709 48.3961C87.5982 39.4404 94.0615 32.0529 102.539 27.8587C111.017 23.6644 120.815 23.0069 129.778 26.0307Z" fill="#DDA14B"/>
<path d="M131.839 67.5046C131.862 68.5369 131.674 69.563 131.288 70.5203C130.902 71.4777 130.324 72.3464 129.592 73.0737C128.859 73.8014 127.985 74.3721 127.024 74.7519C126.064 75.1313 125.036 75.311 124.003 75.2811L110.525 74.897V74.8705L111.059 59.2639H111.167H111.551V59.2908L124.599 60.0204C126.53 60.1176 128.353 60.9448 129.698 62.3346C131.042 63.7239 131.807 65.5722 131.839 67.5046Z" fill="#DDA14B"/>
<path d="M131.593 52.0251C131.614 53.0512 131.425 54.0704 131.04 55.0212C130.653 55.9721 130.078 56.8342 129.347 57.5558C128.617 58.277 127.748 58.8426 126.792 59.2174C125.836 59.5922 124.814 59.7689 123.787 59.7363L111.567 59.2908H111.182H111.074L111.582 44.4176V44.1527L124.325 44.6442C126.249 44.721 128.071 45.5267 129.421 46.898C130.771 48.269 131.547 50.1023 131.593 52.0251Z" fill="#DDA14B"/>
<path d="M132.688 109.049C131.883 109.049 131.077 109.029 130.27 108.991C122.45 108.607 116.435 108.158 116.381 108.15C116.31 108.147 116.239 108.13 116.174 108.099C116.109 108.069 116.051 108.025 116.003 107.972C115.955 107.918 115.918 107.856 115.895 107.788C115.872 107.72 115.863 107.648 115.869 107.576C115.874 107.505 115.894 107.434 115.927 107.371C115.96 107.307 116.006 107.251 116.061 107.205C116.117 107.159 116.18 107.125 116.25 107.104C116.318 107.084 116.391 107.078 116.462 107.086C116.524 107.086 122.515 107.543 130.32 107.923C142.849 108.555 155.118 104.195 164.435 95.8004C173.751 87.4053 179.354 75.6608 180.015 63.1429C180.65 50.8811 176.192 39.0375 167.46 29.8018C159.09 20.9463 147.618 15.1476 135.159 13.4771C129.912 12.8096 124.626 12.4901 119.337 12.5208C119.196 12.5189 119.062 12.4629 118.961 12.3642C118.861 12.2655 118.803 12.1318 118.799 11.9909C118.798 11.85 118.853 11.7144 118.951 11.6138C119.05 11.5132 119.184 11.4552 119.325 11.4533C124.666 11.4202 130.003 11.7424 135.301 12.4175C148.003 14.1226 159.697 20.0323 168.236 29.0683C177.172 38.5191 181.733 50.6388 181.084 63.1963C180.434 75.581 175.05 87.2433 166.042 95.7759C157.037 104.308 145.095 109.06 132.684 109.049H132.688Z" fill="#002127"/>
<path d="M119.06 12.5136C118.921 12.5136 118.788 12.4582 118.69 12.3603C118.592 12.2624 118.537 12.1295 118.537 11.9909C118.537 11.8527 118.592 11.7194 118.69 11.6215C118.788 11.5235 118.921 11.4686 119.06 11.4686H119.268C119.34 11.4625 119.412 11.4713 119.481 11.4947C119.549 11.5182 119.612 11.5554 119.665 11.6042C119.719 11.6533 119.762 11.7125 119.791 11.7785C119.82 11.845 119.835 11.9168 119.835 11.989C119.835 12.0616 119.82 12.133 119.791 12.199C119.762 12.2655 119.719 12.325 119.665 12.3738C119.612 12.4229 119.549 12.4602 119.481 12.4832C119.412 12.5066 119.34 12.5155 119.268 12.5093H119.056L119.06 12.5136Z" fill="#002127"/>
<path d="M118.349 108.157C117.7 108.157 117.05 108.157 116.401 108.119C111.805 107.924 107.261 107.077 102.904 105.604C91.9641 101.909 82.7072 94.4272 76.8045 84.5098C70.9019 74.5925 68.7424 62.8933 70.7163 51.524C72.6901 40.155 78.6669 29.8659 87.5676 22.5146C96.4687 15.1637 107.706 11.2348 119.252 11.4379H119.325C126.928 11.5877 134.389 13.5255 141.103 17.0942C147.817 20.6629 153.595 25.7623 157.968 31.9788C162.341 38.1954 165.189 45.3539 166.277 52.8746C167.364 60.3952 166.665 68.0661 164.232 75.2661C160.881 85.2975 154.304 93.9391 145.524 99.8434C137.491 105.247 128.032 108.141 118.349 108.157ZM116.447 107.052C126.56 107.438 136.534 104.599 144.924 98.9448C153.234 93.3089 159.536 85.1788 162.914 75.7296C166.296 66.28 166.584 56.0013 163.733 46.3785C160.885 36.756 155.045 28.288 147.062 22.199C139.08 16.1099 129.366 12.7152 119.325 12.5055H119.252C106.81 12.3024 94.7877 17.0035 85.7882 25.5918C76.7892 34.18 71.5364 45.9641 71.1674 58.3933C70.7989 70.8226 75.3434 82.8973 83.8175 92.0033C92.2919 101.109 104.014 106.514 116.447 107.048V107.052Z" fill="#002127"/>
<path d="M118.4 95.9994C112.65 95.9936 106.983 94.6215 101.868 91.9963C96.7535 89.3712 92.337 85.5682 88.9831 80.9012C85.6292 76.2342 83.434 70.8368 82.5789 65.1552C81.7238 59.4732 82.2334 53.6695 84.0654 48.2233C86.2022 41.9296 90.0334 36.3463 95.1383 32.086C100.243 27.826 106.424 25.0545 113.003 24.0753C119.581 23.0964 126.303 23.9478 132.428 26.5361C138.554 29.1248 143.848 33.3502 147.727 38.7483C151.606 44.1465 153.922 50.509 154.42 57.1364C154.917 63.7639 153.576 70.4001 150.546 76.316C147.515 82.2322 142.912 87.1991 137.241 90.6715C131.57 94.1438 125.051 95.9875 118.4 95.9994ZM85.0839 48.5497C82.4829 56.2451 82.6324 64.603 85.5074 72.2C88.3821 79.7975 93.8039 86.1634 100.85 90.2141C107.895 94.2644 116.128 95.7486 124.146 94.4134C132.163 93.0785 139.47 89.0067 144.82 82.892C150.17 76.7776 153.233 68.9985 153.487 60.8803C153.741 52.7621 151.17 44.8071 146.212 38.3709C141.255 31.9343 134.217 27.4143 126.298 25.5818C118.38 23.7489 110.07 24.7166 102.785 28.3195C94.4365 32.4542 88.07 39.7303 85.0839 48.5497Z" fill="#002127"/>
<path d="M124.029 60.2739H123.768L111.147 59.8134C111.005 59.8081 110.871 59.747 110.775 59.6433C110.678 59.5396 110.627 59.4018 110.632 59.2601C110.637 59.1184 110.698 58.9851 110.802 58.8883C110.906 58.7919 111.043 58.7405 111.185 58.7455L123.802 59.2025C125.311 59.2581 126.798 58.8234 128.039 57.9636C129.28 57.1038 130.208 55.8646 130.685 54.4329C130.947 53.6618 131.071 52.8508 131.05 52.037C131.008 50.2486 130.286 48.5436 129.03 47.2694C127.774 45.9948 126.079 45.2471 124.29 45.178L107.138 44.5098C106.997 44.5041 106.863 44.443 106.767 44.3389C106.671 44.2349 106.62 44.0966 106.625 43.9553C106.631 43.8136 106.693 43.6799 106.797 43.5839C106.901 43.4875 107.039 43.4369 107.181 43.4426L124.333 44.1066C126.445 44.198 128.438 45.1108 129.886 46.6507C131.334 48.1907 132.122 50.2356 132.082 52.3481C132.042 54.4606 131.177 56.474 129.671 57.9578C128.166 59.4413 126.14 60.2781 124.025 60.2892L124.029 60.2739Z" fill="#002127"/>
<path d="M124.217 75.8191H123.986L106.919 75.3429C106.778 75.3387 106.643 75.2784 106.546 75.1755C106.449 75.0725 106.396 74.9354 106.401 74.7937C106.404 74.652 106.465 74.518 106.568 74.4205C106.671 74.3233 106.808 74.2711 106.95 74.2749L124.017 74.7515C125.89 74.8141 127.712 74.1344 129.085 72.8598C130.457 71.5852 131.269 69.8199 131.344 67.9489C131.419 66.078 130.75 64.2535 129.483 62.8737C128.216 61.4939 126.454 60.6713 124.582 60.5849L111.515 59.8553C111.374 59.8476 111.241 59.7839 111.147 59.6787C111.052 59.5731 111.002 59.434 111.01 59.2927C111.018 59.151 111.082 59.0181 111.187 58.9237C111.293 58.8288 111.432 58.78 111.573 58.7877L124.62 59.5174C126.76 59.608 128.778 60.5354 130.24 62.0988C131.701 63.6625 132.489 65.737 132.434 67.8756C132.379 70.0146 131.485 72.0464 129.946 73.533C128.406 75.0195 126.343 75.8417 124.202 75.8229L124.217 75.8191Z" fill="#002127"/>
<path d="M110.525 75.412C110.383 75.407 110.249 75.346 110.151 75.2423C110.054 75.1386 110.002 75.0011 110.006 74.859L111.043 44.3793C111.045 44.3086 111.061 44.2395 111.089 44.1753C111.118 44.1108 111.16 44.0528 111.211 44.0048C111.263 43.9568 111.324 43.92 111.39 43.8958C111.456 43.8716 111.527 43.8612 111.597 43.8647C111.739 43.8697 111.873 43.9307 111.97 44.034C112.068 44.1377 112.12 44.2756 112.116 44.4173L111.074 74.8936C111.072 74.9635 111.057 75.0326 111.028 75.0967C110.999 75.1609 110.958 75.2185 110.907 75.2665C110.856 75.3149 110.796 75.3525 110.73 75.3775C110.665 75.4024 110.595 75.4143 110.525 75.412Z" fill="#002127"/>
<path d="M116.461 44.4941H116.427C116.357 44.4898 116.288 44.4714 116.225 44.4407C116.162 44.4096 116.105 44.3666 116.059 44.314C116.012 44.261 115.977 44.1995 115.954 44.1331C115.932 44.0667 115.922 43.9964 115.927 43.9261L116.311 38.1658C116.316 38.0955 116.334 38.0272 116.365 37.9642C116.395 37.9008 116.438 37.8444 116.491 37.7979C116.543 37.7514 116.605 37.7153 116.671 37.6927C116.738 37.6696 116.808 37.66 116.878 37.6643C116.948 37.6685 117.017 37.6869 117.08 37.7176C117.143 37.7484 117.2 37.7914 117.246 37.844C117.293 37.8966 117.329 37.958 117.352 38.0245C117.375 38.0909 117.384 38.1608 117.38 38.2311L116.995 44.014C116.982 44.1461 116.92 44.2687 116.821 44.3574C116.722 44.4461 116.594 44.4948 116.461 44.4941Z" fill="#002127"/>
<path d="M121.797 44.4676H121.762C121.692 44.4633 121.624 44.4449 121.561 44.4138C121.497 44.3831 121.441 44.3397 121.395 44.2867C121.348 44.2341 121.312 44.1727 121.29 44.1062C121.267 44.0394 121.258 43.9691 121.263 43.8992L121.601 38.5229C121.601 38.45 121.616 38.3782 121.645 38.3113C121.674 38.2445 121.717 38.1846 121.77 38.1351C121.823 38.0851 121.885 38.0467 121.954 38.0222C122.023 37.9976 122.095 37.9868 122.168 37.9914C122.241 37.9957 122.312 38.0153 122.377 38.0479C122.442 38.0809 122.499 38.1266 122.546 38.1827C122.592 38.2384 122.627 38.3029 122.648 38.3728C122.668 38.4427 122.674 38.516 122.666 38.5882L122.331 43.9645C122.322 44.1001 122.262 44.2276 122.163 44.3209C122.064 44.4142 121.933 44.4668 121.797 44.4676Z" fill="#002127"/>
<path d="M115.045 81.7407H115.011C114.869 81.7307 114.737 81.6654 114.644 81.559C114.55 81.4527 114.502 81.3136 114.511 81.1723L114.895 75.412C114.895 75.3394 114.91 75.2672 114.94 75.2004C114.968 75.134 115.011 75.0737 115.064 75.0238C115.117 74.9742 115.18 74.9358 115.248 74.9109C115.317 74.8863 115.389 74.8763 115.462 74.8805C115.535 74.8851 115.606 74.9039 115.671 74.937C115.736 74.9696 115.793 75.0157 115.84 75.0714C115.887 75.1274 115.921 75.1923 115.941 75.2618C115.962 75.3317 115.968 75.4051 115.96 75.4773L115.575 81.2606C115.562 81.392 115.501 81.5137 115.403 81.6024C115.305 81.6911 115.177 81.7403 115.045 81.7407Z" fill="#002127"/>
<path d="M120.379 81.7134H120.348C120.206 81.7046 120.073 81.6401 119.979 81.5333C119.885 81.4269 119.836 81.2871 119.845 81.1454L120.183 75.7691C120.192 75.6274 120.256 75.495 120.362 75.4013C120.469 75.3072 120.608 75.2592 120.75 75.268C120.892 75.2768 121.024 75.341 121.118 75.4473C121.212 75.5533 121.26 75.6927 121.251 75.8344L120.913 81.2107C120.905 81.3467 120.845 81.4749 120.746 81.5683C120.647 81.662 120.515 81.7138 120.379 81.7134Z" fill="#002127"/>
<path d="M122.491 94.7552C122.453 94.8665 119.29 94.4211 118.979 94.3711C116.081 94.1284 113.226 93.5248 110.478 92.5739C107.819 91.534 105.369 90.0236 103.245 88.1154C102.684 87.6316 102.134 87.1289 101.604 86.6143C96.8369 82.0122 93.257 76.3245 91.1714 70.0376C89.0861 63.7504 88.5565 57.0523 89.6287 50.5163C89.7825 49.5639 89.9708 48.6177 90.1937 47.678C92.3036 41.9177 95.5741 36.4953 100.186 32.3978C102.057 30.6609 104.12 29.1421 106.335 27.8702C109.59 26.0806 114.221 25.2665 117.864 24.7327C118.249 24.6751 119.401 24.7327 119.448 24.126C119.471 23.742 117.661 23.8418 117.238 23.8495C111.318 23.8933 105.568 25.8283 100.828 29.3717C100.729 29.2385 100.581 29.1498 100.417 29.1244C100.253 29.0994 100.086 29.1401 99.9514 29.2373C99.1367 29.7442 98.3565 30.2861 97.6032 30.8659C97.4906 30.861 97.3784 30.8802 97.2739 30.9216C97.1693 30.9635 97.0744 31.0268 96.996 31.1079C96.5887 31.5199 96.189 31.9343 95.797 32.3517C95.0821 32.9815 94.3981 33.6386 93.7332 34.3221L93.6602 34.3947C92.1625 35.9688 90.7659 37.6362 89.4789 39.387L89.1983 39.771C89.0112 39.7798 88.8309 39.8447 88.681 39.9569C88.5311 40.0694 88.4182 40.2238 88.3567 40.4008C88.2183 40.7618 88.0838 41.1266 87.9493 41.4876C85.6665 44.7287 83.6181 48.327 83.7219 52.3362C83.1396 54.6607 82.8733 57.0531 82.9302 59.4483C82.8975 59.5243 82.8756 59.6045 82.8648 59.6863C82.7242 61.1249 82.8022 62.5761 83.0954 63.9912C83.1208 64.1275 83.1831 64.2539 83.2761 64.3564C83.8391 67.0308 84.6008 69.6594 85.555 72.2208C85.487 72.4493 85.5089 72.6954 85.6165 72.9082C85.8663 73.442 86.1315 73.9681 86.3851 74.4942C86.5273 74.7784 86.6657 75.0626 86.8079 75.3506C87.2422 76.3337 87.7149 77.2976 88.2106 78.2538C88.1991 78.4093 88.2356 78.5648 88.3144 78.6992C89.2952 80.2814 90.3801 81.7964 91.5618 83.2345C92.0634 84.2115 92.8055 85.0456 93.7178 85.6577C93.9361 85.7994 94.2013 85.8489 94.4557 85.7959L95.943 87.0863C95.9741 87.1116 96.0076 87.1335 96.0429 87.1515C96.0913 87.2153 96.1482 87.2721 96.212 87.3205C96.2889 87.3781 96.3696 87.4319 96.4541 87.4856C96.4276 87.6258 96.4453 87.771 96.5052 87.9004C96.5652 88.0298 96.6644 88.1373 96.7885 88.2076C98.7562 89.4288 100.605 90.7809 102.699 91.7986C102.638 91.5451 103.468 92.0405 103.395 91.7986C106.327 93.5843 108.641 94.1906 111.965 95.0547C112.595 95.2463 113.251 95.3385 113.91 95.3273C114.092 95.3216 114.271 95.284 114.44 95.216C114.539 95.1592 114.642 95.1092 114.747 95.0662C114.927 95.0228 115.114 95.0228 115.293 95.0662C117.288 95.4299 119.311 95.62 121.338 95.6346C121.876 95.6346 122.53 95.5616 122.753 95.0701C122.771 95.0343 122.78 94.9948 122.78 94.9549C122.78 94.9149 122.771 94.8757 122.753 94.8396C122.691 94.782 122.584 94.7667 122.491 94.7552Z" fill="#002127"/>
<g style="mix-blend-mode:overlay" opacity="0.5">
<g style="mix-blend-mode:overlay" opacity="0.5">
<path d="M163.136 42.8739C160.269 45.5928 157.223 48.1189 154.02 50.4357C137.191 62.8741 132.672 56.7639 115.842 69.2062C100.032 80.8882 103.061 86.9864 89.5405 98.0078C80.7413 91.3539 74.5074 81.8724 71.8887 71.1609C83.8408 60.8653 81.5618 54.7939 96.8113 43.5114C113.64 31.0729 118.16 37.1827 134.993 24.7404C137.595 22.848 140 20.6963 142.168 18.3196C151.796 23.8264 159.209 32.5069 163.136 42.8739Z" fill="white"/>
</g>
<g style="mix-blend-mode:overlay" opacity="0.5">
<path d="M164.781 71.5449C150.523 81.0379 145.715 76.7254 130.008 88.3382C119.39 96.1837 117.192 101.395 112.784 107.309C106.576 106.562 100.573 104.62 95.1055 101.591C106.635 91.5524 104.748 85.7115 119.821 74.5672C136.653 62.1287 140.958 67.9624 157.802 55.5239C160.404 53.6326 162.837 51.5175 165.07 49.203C166.749 56.5677 166.649 64.2259 164.781 71.5449Z" fill="white"/>
</g>
</g>
<path d="M63.0653 187.941C63.0511 187.965 63.0342 187.987 63.0158 188.007C58.743 193.678 52.3914 197.422 45.3574 198.417C38.3233 199.411 31.182 197.575 25.5026 193.31C19.8229 189.046 16.0701 182.703 15.0685 175.675C14.067 168.647 15.899 161.509 20.1615 155.83C24.4239 150.151 30.7681 146.396 37.8006 145.389C44.8328 144.381 51.9775 146.206 57.665 150.46C63.352 154.714 67.116 161.05 68.1302 168.076C69.1444 175.102 67.3254 182.244 63.073 187.93L63.0653 187.941ZM53.3503 188.041C56.5436 185.779 58.9943 182.622 60.3921 178.969C61.7902 175.315 62.0723 171.329 61.2034 167.516C60.334 163.702 58.3529 160.231 55.5098 157.542C52.667 154.854 49.0898 153.068 45.2309 152.411C41.3724 151.753 37.4052 152.254 33.8315 153.849C30.2573 155.445 27.2374 158.064 25.1529 161.375C23.0684 164.685 22.0131 168.539 22.1203 172.449C22.2279 176.359 23.4931 180.15 25.7563 183.341C27.2597 185.46 29.1663 187.261 31.3665 188.644C33.567 190.026 36.0182 190.962 38.5804 191.398C41.143 191.834 43.7659 191.761 46.3001 191.184C48.8343 190.606 51.23 189.536 53.3503 188.034V188.041Z" fill="#B9CEFF"/>
<path d="M63.0081 188.034C61.3049 190.4 59.4471 192.651 57.4471 194.773C47.7125 204.969 31.5022 207.93 20.1035 198.713C14.6343 194.283 11.1478 187.866 10.4088 180.871C9.6694 173.875 11.7378 166.872 16.1604 161.398C18.9121 157.976 21.0643 155.445 21.0643 155.445C18.9233 158.197 17.3457 161.343 16.4218 164.704C15.4975 168.064 15.2446 171.574 15.6781 175.032C16.1112 178.491 17.2219 181.83 18.9463 184.859C20.6711 187.889 22.9762 190.549 25.7298 192.688C28.4834 194.828 31.6317 196.404 34.9948 197.327C38.3579 198.251 41.8706 198.503 45.3313 198.07C48.7924 197.637 52.134 196.527 55.1655 194.804C58.1973 193.081 60.8594 190.778 63.0004 188.026L63.0081 188.034Z" fill="#002127"/>
<path d="M58.057 160.469C60.3213 163.66 61.5877 167.452 61.6956 171.363C61.8036 175.274 60.7487 179.129 58.6638 182.441C56.5793 185.753 53.5582 188.372 49.9833 189.969C46.4088 191.565 42.4404 192.066 38.5808 191.409C34.7208 190.751 31.1428 188.964 28.2993 186.275C25.4554 183.585 23.4738 180.114 22.6049 176.299C21.736 172.484 22.0188 168.497 23.4177 164.842C24.8166 161.188 27.2682 158.03 30.4633 155.768C32.584 154.267 34.9798 153.197 37.5143 152.62C40.0485 152.043 42.6722 151.971 45.2344 152.407C47.7966 152.844 50.2478 153.78 52.4479 155.164C54.6481 156.547 56.5539 158.349 58.057 160.469ZM45.9358 177.101L52.7996 164.943L38.7568 165.972L30.9783 178.791L45.8089 177.331L45.9358 177.101Z" fill="#6E9BFF"/>
<path d="M52.8005 164.947L45.9367 177.101L45.8637 177.062L46.1135 169.048L38.7539 165.983L38.7616 165.972L52.8005 164.947Z" fill="#6E9BFF"/>
<path d="M46.1134 169.048L45.8636 177.062L39.142 173.798L38.75 165.991L38.7538 165.983L46.1134 169.048Z" fill="#6E9BFF"/>
<path d="M45.9377 177.101L45.7994 177.35L30.9688 178.81L38.7511 165.991L39.1431 173.798L45.8647 177.062L45.9377 177.101Z" fill="#6E9BFF"/>
<path d="M35.9255 204.743C30.0543 204.775 24.3523 202.78 19.7844 199.094C14.2291 194.569 10.6896 188.034 9.93713 180.911C9.18503 173.79 11.2811 166.659 15.7687 161.076C18.4935 157.689 20.6606 155.138 20.6798 155.111C20.7724 155.029 20.892 154.982 21.0161 154.981C21.1402 154.98 21.2605 155.023 21.3547 155.104C21.4488 155.185 21.5103 155.298 21.5276 155.42C21.5449 155.543 21.5168 155.669 21.4484 155.772C21.4254 155.795 19.2698 158.338 16.5527 161.709C12.2296 167.084 10.2096 173.95 10.934 180.808C11.6585 187.666 15.0681 193.959 20.4189 198.314C25.6724 202.565 32.3902 204.409 39.3309 203.518C46.1125 202.599 52.3752 199.388 57.078 194.42C59.0588 192.314 60.9008 190.082 62.5929 187.738L63.0349 187.992L62.6198 187.696L62.6548 187.654C62.7371 187.547 62.8589 187.478 62.9922 187.461C63.126 187.444 63.2609 187.481 63.3673 187.563C63.4742 187.646 63.5433 187.767 63.5602 187.901C63.5771 188.035 63.5403 188.169 63.4576 188.276L63.4 188.353C61.6879 190.729 59.8213 192.991 57.8121 195.123C52.9478 200.257 46.4726 203.574 39.4612 204.524C38.2886 204.672 37.1076 204.745 35.9255 204.743Z" fill="#002127"/>
<path d="M63.0654 188.364C62.9878 188.364 62.912 188.342 62.8459 188.302C62.7798 188.261 62.726 188.203 62.6907 188.134C62.6553 188.065 62.6399 187.988 62.6457 187.911C62.6515 187.833 62.678 187.759 62.7234 187.696L62.8117 187.577C62.8429 187.531 62.8828 187.492 62.9294 187.462C62.9759 187.433 63.0277 187.412 63.0819 187.402C63.1365 187.393 63.1922 187.394 63.246 187.406C63.2998 187.418 63.3509 187.441 63.3959 187.473C63.4416 187.505 63.4808 187.545 63.5108 187.592C63.5408 187.638 63.5612 187.691 63.5708 187.745C63.5808 187.8 63.5792 187.856 63.5669 187.91C63.5546 187.964 63.532 188.015 63.4997 188.061L63.4074 188.187C63.3686 188.242 63.3175 188.287 63.2579 188.317C63.1984 188.348 63.1323 188.364 63.0654 188.364Z" fill="#002127"/>
<path d="M41.9361 198.971C36.8417 198.98 31.8479 197.553 27.5282 194.854C23.2086 192.155 19.7386 188.293 17.5161 183.713C15.2936 179.132 14.409 174.018 14.9639 168.957C15.5189 163.897 17.4908 159.095 20.6529 155.104C22.8312 152.293 25.5421 149.938 28.6312 148.174C31.7203 146.409 35.1269 145.27 38.6568 144.822C42.1863 144.373 45.7696 144.623 49.2027 145.558C52.6354 146.493 55.8501 148.095 58.6633 150.271C61.4768 152.448 63.8335 155.157 65.5994 158.243C67.3649 161.33 68.5048 164.734 68.954 168.261C69.4029 171.788 69.1527 175.369 68.2169 178.799C67.2811 182.229 65.6782 185.442 63.4999 188.253L63.4345 188.345C60.9054 191.642 57.6518 194.315 53.9251 196.156C50.1981 197.997 46.0974 198.957 41.9403 198.963L41.9361 198.971ZM21.4907 155.769C19.3397 158.46 17.7452 161.551 16.7994 164.863C15.8532 168.175 15.5753 171.642 15.9812 175.062C16.3866 178.482 17.4685 181.788 19.1629 184.787C20.8573 187.787 23.1313 190.42 25.8522 192.534C28.5736 194.648 31.6877 196.201 35.0143 197.103C38.3409 198.005 41.8135 198.237 45.2308 197.787C48.6481 197.337 51.9421 196.213 54.9209 194.481C57.9001 192.749 60.5053 190.442 62.5852 187.696L62.616 187.65L62.639 187.619C66.8065 182.162 68.6458 175.28 67.7554 168.473C66.8653 161.667 63.3181 155.488 57.8874 151.284C52.4563 147.08 45.5825 145.192 38.7644 146.032C31.9463 146.873 25.7369 150.373 21.4907 155.769Z" fill="#002127"/>
<path d="M41.9374 192.212C38.4482 192.217 35.0163 191.324 31.9725 189.619C28.9288 187.914 26.375 185.455 24.558 182.479C22.7409 179.502 21.721 176.108 21.5969 172.624C21.4727 169.139 22.2482 165.682 23.8493 162.583C25.45 159.485 27.8219 156.851 30.7369 154.934C33.6516 153.017 37.0112 151.883 40.4919 151.639C43.973 151.396 47.4576 152.053 50.6113 153.545C53.765 155.038 56.4805 157.316 58.4974 160.162C60.6522 163.199 61.9297 166.77 62.1902 170.485C62.4512 174.198 61.6849 177.913 59.9754 181.221C58.266 184.529 55.6792 187.305 52.4983 189.243C49.3169 191.181 45.6637 192.208 41.9374 192.212ZM41.8836 152.658C37.5704 152.669 33.386 154.126 30.001 156.796C26.6156 159.467 24.2255 163.196 23.2144 167.386C22.2029 171.576 22.6287 175.983 24.4235 179.902C26.2178 183.821 29.2773 187.025 33.1112 188.999C36.9451 190.974 41.3317 191.604 45.5672 190.791C49.8027 189.977 53.642 187.766 56.4697 184.512C59.2975 181.257 60.9501 177.148 61.1626 172.844C61.3747 168.539 60.1346 164.288 57.6404 160.772C55.8556 158.259 53.4929 156.21 50.7508 154.8C48.0087 153.389 44.9677 152.657 41.8836 152.666V152.658Z" fill="#002127"/>
<path d="M30.9682 179.343C30.8737 179.344 30.7803 179.319 30.6984 179.271C30.6166 179.223 30.5493 179.155 30.5028 179.072C30.4563 178.99 30.4325 178.896 30.4336 178.801C30.4352 178.707 30.4617 178.614 30.5109 178.533L38.2894 165.715V165.688C38.334 165.616 38.3951 165.557 38.4669 165.513C38.5392 165.47 38.6203 165.444 38.7044 165.438L52.7472 164.413C52.8433 164.405 52.9397 164.424 53.0258 164.467C53.1119 164.511 53.1842 164.577 53.2353 164.659C53.2852 164.741 53.3114 164.836 53.3114 164.933C53.3114 165.03 53.2852 165.125 53.2353 165.208L46.2331 177.612C46.1905 177.686 46.1305 177.75 46.0582 177.797C45.986 177.844 45.9038 177.872 45.818 177.88L30.9874 179.343H30.9682ZM39.0734 166.483L31.979 178.173L45.4683 176.84L51.8441 165.549L39.0734 166.483Z" fill="#002127"/>
<path d="M45.8628 177.596C45.7817 177.596 45.7014 177.577 45.6284 177.542L38.9067 174.278C38.8207 174.236 38.7472 174.172 38.6942 174.093C38.6416 174.013 38.6112 173.92 38.607 173.825L38.2227 166.018V165.98C38.2227 165.897 38.2423 165.815 38.2795 165.741C38.3168 165.667 38.371 165.602 38.4379 165.553C38.5032 165.502 38.5801 165.468 38.6619 165.453C38.7434 165.438 38.8276 165.444 38.9067 165.469L38.9682 165.488L46.3278 168.56C46.4281 168.601 46.5134 168.671 46.5726 168.762C46.6318 168.852 46.6614 168.959 46.6583 169.067L46.4085 177.082C46.4058 177.171 46.3805 177.257 46.3355 177.335C46.2905 177.412 46.2275 177.476 46.151 177.523C46.0638 177.574 45.9639 177.599 45.8628 177.596ZM39.6561 173.453L45.3555 176.221L45.5669 169.401L39.3218 166.798L39.6561 173.453Z" fill="#002127"/>
<path d="M23.4858 164.505C23.236 164.854 23.505 164.106 23.4858 164.505V164.505Z" fill="#002127"/>
<path d="M61.3833 171.774C61.3602 171.348 61.3333 170.922 61.2987 170.496C61.3402 170.407 61.3575 170.309 61.3491 170.211C61.2945 169.333 61.188 168.458 61.0297 167.592C61.0197 167.504 60.9863 167.421 60.9336 167.349C60.8813 167.278 60.811 167.221 60.7299 167.185C60.5631 166.511 60.3487 165.849 60.0881 165.204C60.1723 165.132 60.2319 165.036 60.2588 164.928C60.2857 164.821 60.2784 164.708 60.238 164.605C60.0305 163.983 59.6273 163.538 59.3237 162.969C58.9586 162.286 58.7665 161.537 58.3553 160.876C57.6327 159.724 56.5682 158.822 55.6651 157.804C55.592 157.706 55.4868 157.637 55.3676 157.61C55.2489 157.582 55.124 157.598 55.0156 157.654C54.8849 157.52 54.7581 157.385 54.6313 157.27C53.9875 156.658 53.2931 156.102 52.5556 155.607C52.5875 155.504 52.589 155.394 52.5606 155.29C52.5322 155.186 52.4741 155.092 52.3942 155.02C51.8911 154.597 51.3047 154.284 50.6725 154.102C49.8608 153.774 49.0188 153.526 48.1591 153.361C48.0814 153.347 48.0023 153.347 47.9246 153.361C47.9246 153.291 47.8862 153.242 47.867 153.261C47.2021 152.95 46.7141 153.03 46.0069 152.788C45.7264 152.692 45.3228 152.504 45.1461 152.673C44.6465 152.593 44.6042 152.459 44.1046 152.397C44.0392 152.086 43.3052 152.374 42.8748 152.339C41.7214 152.254 40.5624 152.288 39.416 152.439C38.8587 152.385 38.3745 152.531 37.8249 152.416C37.406 152.331 36.8987 152.312 36.7796 152.742C36.7619 152.819 36.7554 152.898 36.7607 152.977C35.9587 153.201 35.172 153.475 34.4045 153.798C32.8861 154.075 31.4445 154.673 30.1771 155.553C29.2474 156.268 28.3677 157.046 27.5445 157.881C26.6222 158.772 26.1998 159.689 25.2967 160.599C25.0354 160.868 24.5277 162.274 24.6699 162.52C24.1511 163.18 23.9589 163.841 23.4747 164.528C23.4747 164.812 23.3709 165.089 23.3402 165.373C23.3094 165.657 23.3402 165.695 23.5554 165.526C23.9904 165.082 24.3697 164.587 24.6853 164.052C25.1464 163.414 25.6207 162.79 26.1072 162.178C26.3447 161.816 26.6233 161.482 26.9377 161.183C28.3235 159.627 29.8985 158.249 31.626 157.082C32.1467 156.763 32.6855 156.474 33.24 156.218C34.3227 155.746 35.4402 155.361 36.5836 155.066C39.6984 154.774 42.839 155.186 45.7725 156.271C49.1045 157.466 52.3519 159.478 54.6578 162.19C55.8346 163.629 56.7312 165.275 57.3019 167.043C57.9698 168.929 58.4137 170.887 58.6239 172.877C58.9183 175.57 58.63 178.295 57.7788 180.868C57.3741 182.05 56.823 183.176 56.1378 184.221C55.6689 184.928 55.1424 185.595 54.6005 186.256C54.4353 186.459 53.1398 187.838 53.3281 188.08C53.4318 188.207 54.2965 187.462 54.4426 187.355C54.923 186.981 55.3603 186.554 55.7454 186.083L55.9299 185.86C56.1912 186.01 56.4564 185.653 56.6754 185.38C57.9898 183.71 58.9813 182.189 59.5655 180.192C59.675 180.196 59.7834 180.17 59.8783 180.115C59.9736 180.061 60.0516 179.981 60.1035 179.885C60.3264 179.417 60.5493 178.944 60.7684 178.476C60.8487 178.33 60.8698 178.159 60.8275 177.999C60.7853 177.838 60.683 177.699 60.5416 177.612H60.5109C60.5274 177.584 60.5416 177.554 60.5531 177.523C60.5762 177.446 60.5954 177.37 60.6185 177.293C60.6996 177.308 60.783 177.307 60.8633 177.29C60.944 177.272 61.0205 177.24 61.0881 177.193C61.1561 177.146 61.2138 177.087 61.2587 177.017C61.3033 176.948 61.3341 176.871 61.3491 176.79C61.6331 175.131 61.6446 173.437 61.3833 171.774Z" fill="#002127"/>
<g style="mix-blend-mode:overlay" opacity="0.5">
<g style="mix-blend-mode:overlay" opacity="0.5">
<path d="M68.4125 173.38C64.5694 172.546 61.4949 171.333 54.3659 172.139C42.36 173.495 42.8365 177.85 30.846 179.205C23.3058 180.054 20.1275 178.161 15.8885 177.285C14.7148 171.576 15.4493 165.64 17.9792 160.388C20.6694 160.995 23.6939 161.44 28.7707 160.868C40.7766 159.513 40.3 155.158 52.2906 153.802C56.372 153.341 59.1237 153.541 61.4488 153.952C62.2089 154.78 62.9165 155.654 63.5663 156.571C67.0459 161.461 68.7553 167.389 68.4125 173.38Z" fill="white"/>
</g>
<g style="mix-blend-mode:overlay" opacity="0.5">
<path d="M67.9787 176.897C67.3765 180.05 66.2044 183.066 64.5199 185.798C61.6603 185.418 58.7629 185.418 55.9033 185.798C43.8973 187.154 44.3739 191.317 32.3603 192.669C30.0521 192.96 27.7174 192.979 25.4042 192.726C21.7636 189.837 18.942 186.047 17.2188 181.732C21.0619 182.5 24.1091 183.652 31.2496 182.85C43.2555 181.494 42.779 177.331 54.7888 175.975C61.3989 175.223 64.5161 176.148 67.9787 176.897Z" fill="white"/>
</g>
</g>
<path d="M186.818 186.271C185.239 192.465 181.269 197.781 175.773 201.052C170.277 204.324 163.709 205.283 157.506 203.721C153.636 202.749 150.73 201.939 150.73 201.939C153.818 202.65 157.017 202.746 160.143 202.221C163.268 201.697 166.257 200.562 168.944 198.883C171.63 197.203 173.959 195.012 175.8 192.432C177.637 189.853 178.951 186.938 179.662 183.852C180.373 180.766 180.469 177.57 179.943 174.448C179.42 171.325 178.283 168.336 176.603 165.651C174.924 162.967 172.729 160.639 170.147 158.802C167.568 156.965 164.647 155.653 161.561 154.943C164.201 155.452 166.807 156.136 169.359 156.99C181.484 161.129 190.093 173.364 186.818 186.271Z" fill="#002127"/>
<path d="M177.326 190.519C175.105 194.373 171.861 197.538 167.949 199.663C164.04 201.788 159.617 202.791 155.172 202.561C150.727 202.33 146.432 200.875 142.763 198.357C139.094 195.838 136.194 192.355 134.384 188.291C132.574 184.228 131.924 179.743 132.506 175.334C133.089 170.924 134.881 166.761 137.684 163.307C140.488 159.852 144.193 157.24 148.39 155.758C152.587 154.278 157.113 153.986 161.465 154.916H161.565C165.27 155.728 168.733 157.4 171.669 159.798C174.605 162.196 176.934 165.251 178.471 168.717C180.005 172.182 180.7 175.961 180.5 179.745C180.301 183.53 179.213 187.214 177.322 190.499L177.326 190.519ZM147.435 194.063C150.518 195.836 154.057 196.656 157.607 196.419C161.154 196.182 164.555 194.899 167.376 192.732C170.193 190.565 172.307 187.61 173.444 184.243C174.586 180.876 174.701 177.247 173.775 173.814C172.849 170.382 170.927 167.301 168.249 164.96C165.574 162.62 162.261 161.126 158.733 160.666C155.206 160.207 151.621 160.803 148.433 162.379C145.244 163.955 142.595 166.44 140.821 169.52C138.441 173.651 137.801 178.557 139.04 183.159C140.28 187.762 143.298 191.684 147.431 194.063H147.435Z" fill="#FF7170"/>
<path d="M171.992 187.454C170.216 190.535 167.568 193.021 164.378 194.598C161.192 196.174 157.606 196.771 154.078 196.311C150.551 195.852 147.239 194.358 144.561 192.018C141.883 189.677 139.96 186.596 139.035 183.164C138.11 179.731 138.224 176.102 139.363 172.734C140.503 169.367 142.616 166.412 145.435 164.245C148.255 162.078 151.654 160.795 155.204 160.558C158.752 160.321 162.295 161.141 165.378 162.915C169.509 165.294 172.526 169.215 173.767 173.817C175.008 178.418 174.37 183.323 171.992 187.454Z" fill="#CE4D4D"/>
<path d="M163.384 204.954C161.362 204.954 159.344 204.705 157.384 204.213C153.541 203.253 150.624 202.435 150.593 202.427C150.529 202.409 150.468 202.379 150.416 202.337C150.363 202.296 150.319 202.245 150.287 202.187C150.22 202.07 150.203 201.931 150.239 201.801C150.275 201.671 150.362 201.561 150.479 201.495C150.597 201.429 150.736 201.411 150.866 201.448C150.896 201.448 153.813 202.27 157.63 203.226C163.699 204.747 170.128 203.805 175.505 200.604C180.881 197.404 184.774 192.207 186.327 186.148C187.069 183.183 187.192 180.097 186.696 177.082C186.196 174.066 185.086 171.184 183.433 168.614C180.097 163.385 175.074 159.455 169.194 157.477C166.666 156.631 164.087 155.952 161.47 155.446C161.4 155.438 161.335 155.415 161.274 155.381C161.212 155.346 161.162 155.299 161.12 155.243C161.078 155.187 161.051 155.124 161.035 155.056C161.016 154.988 161.016 154.919 161.028 154.85C161.043 154.782 161.07 154.717 161.108 154.659C161.147 154.602 161.197 154.553 161.254 154.515C161.312 154.478 161.377 154.453 161.447 154.442C161.516 154.431 161.585 154.434 161.654 154.451C164.321 154.96 166.95 155.649 169.525 156.513C175.624 158.571 180.839 162.655 184.294 168.084C186.02 170.771 187.18 173.783 187.699 176.935C188.218 180.086 188.087 183.31 187.315 186.409C185.947 191.714 182.857 196.416 178.522 199.772C174.19 203.129 168.864 204.952 163.384 204.954Z" fill="#002127"/>
<path d="M156.343 203.107C154.412 203.107 152.489 202.877 150.613 202.423C144.354 200.868 138.954 196.923 135.574 191.435C132.193 185.947 131.101 179.353 132.532 173.069C133.963 166.785 137.802 161.312 143.227 157.826C148.65 154.339 155.226 153.116 161.543 154.421C161.593 154.428 161.643 154.44 161.693 154.455C167.63 155.757 172.876 159.208 176.424 164.142C179.971 169.077 181.562 175.148 180.901 181.187C180.236 187.226 177.361 192.806 172.826 196.854C168.295 200.902 162.423 203.131 156.343 203.114V203.107ZM150.855 201.437C156.379 202.772 162.2 202.073 167.25 199.467C172.3 196.861 176.239 192.523 178.345 187.249C180.455 181.974 180.589 176.118 178.722 170.753C176.858 165.388 173.122 160.876 168.195 158.042C166.097 156.83 163.822 155.95 161.455 155.435L161.397 155.415C161.374 155.415 161.374 155.415 161.355 155.415C155.288 154.134 148.961 155.288 143.739 158.628C138.516 161.967 134.817 167.225 133.439 173.265C132.061 179.305 133.115 185.645 136.373 190.916C139.631 196.187 144.832 199.967 150.855 201.44V201.437Z" fill="#002127"/>
<path d="M156.375 196.974C153.133 196.967 149.95 196.109 147.144 194.485C144.339 192.862 142.009 190.53 140.389 187.724C138.77 184.918 137.916 181.737 137.914 178.497C137.913 175.257 138.763 172.074 140.379 169.267C141.897 166.634 144.042 164.415 146.622 162.808C149.203 161.2 152.141 160.253 155.175 160.051C158.211 159.849 161.247 160.397 164.018 161.649C166.789 162.9 169.21 164.814 171.063 167.223C172.919 169.632 174.149 172.46 174.648 175.458C175.148 178.455 174.898 181.529 173.922 184.408C172.95 187.287 171.282 189.881 169.064 191.961C166.847 194.041 164.149 195.543 161.213 196.333C159.637 196.758 158.007 196.974 156.375 196.974ZM141.26 169.774C139.241 173.275 138.501 177.368 139.164 181.353C139.827 185.34 141.853 188.973 144.896 191.634C147.94 194.295 151.812 195.818 155.854 195.946C159.894 196.074 163.857 194.797 167.062 192.334C170.267 189.87 172.519 186.373 173.434 182.436C174.345 178.5 173.864 174.369 172.073 170.747C170.282 167.125 167.285 164.236 163.603 162.573C159.917 160.91 155.768 160.574 151.863 161.625C147.388 162.831 143.575 165.761 141.26 169.774Z" fill="#002127"/>
<path d="M156.958 186.229C156.136 186.225 155.328 186.005 154.618 185.591L149.887 182.872C149.829 182.839 149.779 182.795 149.738 182.742C149.697 182.689 149.668 182.629 149.65 182.564C149.633 182.5 149.628 182.433 149.637 182.367C149.646 182.3 149.667 182.237 149.701 182.179C149.734 182.121 149.778 182.071 149.831 182.03C149.884 181.99 149.944 181.96 150.009 181.943C150.073 181.925 150.14 181.921 150.207 181.929C150.273 181.938 150.336 181.959 150.394 181.993L155.125 184.712C155.892 185.164 156.8 185.316 157.673 185.138C158.057 185.068 158.423 184.917 158.745 184.697C159.068 184.476 159.345 184.191 159.549 183.858C159.756 183.525 159.887 183.153 159.941 182.766C159.994 182.379 159.964 181.984 159.856 181.609C159.599 180.69 158.988 179.911 158.154 179.443L155.775 178.076C154.744 177.493 153.984 176.527 153.661 175.388C153.527 174.908 153.49 174.407 153.553 173.913C153.616 173.419 153.777 172.943 154.026 172.511C155.133 170.653 157.662 170.096 159.687 171.248L164.203 173.802C164.318 173.868 164.406 173.978 164.441 174.108C164.479 174.237 164.46 174.376 164.395 174.493C164.329 174.61 164.218 174.696 164.087 174.732C163.961 174.768 163.818 174.751 163.703 174.685L159.184 172.131C157.646 171.248 155.725 171.644 154.914 173.003C154.729 173.321 154.61 173.673 154.563 174.037C154.516 174.402 154.543 174.772 154.641 175.127C154.891 176.012 155.481 176.763 156.282 177.216L158.661 178.583C159.725 179.186 160.509 180.188 160.84 181.367C160.982 181.876 161.021 182.409 160.944 182.932C160.871 183.455 160.69 183.958 160.413 184.407C160.133 184.857 159.768 185.244 159.333 185.545C158.895 185.845 158.403 186.052 157.885 186.152C157.579 186.21 157.269 186.236 156.958 186.229Z" fill="#002127"/>
<path d="M160.52 172.727C160.428 172.727 160.336 172.702 160.259 172.654C160.201 172.62 160.151 172.574 160.113 172.521C160.071 172.467 160.044 172.405 160.024 172.34C160.009 172.276 160.009 172.208 160.017 172.142C160.028 172.076 160.051 172.012 160.086 171.955L161.239 170.066C161.273 170.009 161.32 169.959 161.373 169.92C161.427 169.88 161.489 169.852 161.554 169.836C161.619 169.821 161.685 169.818 161.75 169.828C161.819 169.839 161.881 169.862 161.938 169.897C161.996 169.931 162.046 169.977 162.084 170.031C162.123 170.085 162.154 170.146 162.169 170.211C162.184 170.276 162.184 170.344 162.177 170.41C162.165 170.475 162.142 170.539 162.107 170.595L160.954 172.485C160.908 172.559 160.847 172.621 160.77 172.663C160.693 172.706 160.609 172.727 160.52 172.727Z" fill="#002127"/>
<path d="M152.315 186.767C152.225 186.767 152.137 186.742 152.06 186.697C151.982 186.652 151.918 186.587 151.874 186.509C151.83 186.431 151.807 186.342 151.809 186.253C151.81 186.163 151.835 186.075 151.881 185.999L153.034 184.113C153.068 184.056 153.114 184.006 153.168 183.967C153.221 183.928 153.283 183.899 153.347 183.883C153.412 183.867 153.479 183.864 153.545 183.875C153.611 183.885 153.675 183.907 153.731 183.942C153.788 183.976 153.838 184.022 153.877 184.076C153.917 184.13 153.945 184.19 153.962 184.255C153.977 184.32 153.98 184.387 153.97 184.453C153.96 184.519 153.937 184.582 153.902 184.639L152.749 186.529C152.704 186.602 152.64 186.663 152.563 186.705C152.487 186.746 152.402 186.768 152.315 186.767Z" fill="#002127"/>
<path d="M162.452 195.814C163.159 195.553 165.834 194.635 165.527 193.971C165.35 193.587 161.718 195.042 161.007 195.303C154.708 197.608 148.547 193.498 144.7 188.03C142.795 185.267 141.785 181.984 141.809 178.628C141.832 175.272 142.887 172.004 144.832 169.267C145.983 167.67 147.388 166.274 148.993 165.135C153.935 161.905 159.731 162.063 165.239 163.391C166.007 163.576 163.797 162.5 163.252 162.043C162.099 161.094 160.658 160.566 159.163 160.546C157.852 160.546 156.153 160.028 154.881 160.346C154.639 160.408 154.397 160.477 154.155 160.546C153.771 160.162 153.163 160.615 152.618 160.788C145.316 163.153 139.32 169.505 138.751 177.231C138.491 181.161 139.497 185.072 141.622 188.389C143.747 191.706 146.88 194.256 150.561 195.664C154.677 197.25 158.306 197.327 162.452 195.814Z" fill="#002127"/>
<g style="mix-blend-mode:overlay" opacity="0.5">
<g style="mix-blend-mode:overlay" opacity="0.5">
<path d="M166.862 200.223C164.095 195.023 165.005 192.158 159.767 185.388C153.234 176.94 150.16 179.305 143.592 170.849C141.441 168.172 139.901 165.058 139.08 161.725C142.746 157.938 147.553 155.459 152.765 154.666C153.749 156.878 155.013 158.954 156.528 160.841C163.08 169.29 166.154 166.92 172.707 175.38C177.073 181.014 177.165 183.951 178.675 187.784C176.396 193.236 172.192 197.662 166.862 200.223Z" fill="white"/>
</g>
<g style="mix-blend-mode:overlay" opacity="0.5">
<path d="M155.271 202.577C154.349 199.843 153.472 197.143 150.137 192.834C143.584 184.386 140.648 186.651 134.099 178.191C133.45 177.354 132.901 176.571 132.432 175.834C132.797 172.533 133.844 169.343 135.506 166.467C135.821 165.918 136.155 165.392 136.509 164.877C137.308 167.07 138.411 169.459 141.024 172.83C147.577 181.279 150.513 179.013 157.066 187.477C162.027 193.883 161.551 196.74 163.868 201.421C161.097 202.321 158.184 202.713 155.271 202.577Z" fill="white"/>
</g>
</g>
<path d="M181.487 86.1454C185.407 82.1858 190.419 79.4776 195.88 78.3628C201.345 77.248 207.013 77.7768 212.175 79.8824C217.336 81.988 221.759 85.5759 224.88 90.1922C228.001 94.8085 229.68 100.246 229.711 105.817C229.738 111.388 228.112 116.842 225.038 121.49C221.967 126.138 217.582 129.771 212.44 131.929C207.302 134.087 201.637 134.675 196.164 133.615C190.688 132.556 185.653 129.899 181.691 125.98C181.057 125.35 180.453 124.695 179.881 124.014C179.32 123.342 178.789 122.643 178.29 121.925C177.79 121.207 177.352 120.488 176.929 119.743C176.507 118.998 176.161 118.326 175.846 117.597C175.546 116.936 175.269 116.26 175.023 115.577C174.777 114.893 174.554 114.21 174.362 113.511C174.17 112.812 174.005 112.117 173.863 111.41C173.72 110.704 173.613 109.997 173.528 109.283C173.444 108.568 173.386 107.858 173.359 107.14C173.332 106.422 173.324 105.707 173.359 104.993C173.394 104.279 173.436 103.561 173.517 102.846C173.597 102.132 173.701 101.422 173.832 100.719C173.962 100.016 174.128 99.3058 174.316 98.6107C174.504 97.9156 174.7 97.2244 174.958 96.5409C175.215 95.8573 175.473 95.1814 175.769 94.5132C176.065 93.845 176.387 93.1884 176.737 92.5432C177.087 91.898 177.471 91.2567 177.89 90.6231C178.309 89.9895 178.732 89.3827 179.189 88.7875C179.646 88.1922 180.138 87.6047 180.649 87.0402C180.903 86.7483 181.195 86.4411 181.487 86.1454ZM216.46 120.707C219.384 117.756 221.367 114.005 222.155 109.927C222.947 105.85 222.509 101.63 220.902 97.8004C219.292 93.9714 216.583 90.7049 213.112 88.415C209.646 86.1251 205.576 84.9139 201.422 84.9346C197.263 84.9557 193.209 86.2076 189.762 88.5329C186.318 90.8577 183.643 94.1507 182.071 97.9959C180.5 101.841 180.104 106.066 180.938 110.135C181.768 114.204 183.789 117.935 186.745 120.857C190.703 124.772 196.053 126.956 201.625 126.931C207.194 126.906 212.524 124.673 216.448 120.723L216.46 120.707Z" fill="#95A6B0"/>
<path d="M186.58 91.1761C183.655 94.1273 181.672 97.8784 180.881 101.956C180.093 106.033 180.527 110.254 182.137 114.083C183.747 117.912 186.457 121.178 189.923 123.468C193.394 125.758 197.464 126.97 201.618 126.948C205.776 126.928 209.831 125.675 213.274 123.351C216.722 121.026 219.396 117.732 220.968 113.887C222.54 110.042 222.932 105.818 222.102 101.749C221.268 97.6795 219.25 93.9476 216.295 91.0259C214.335 89.0858 212.01 87.5513 209.454 86.5091C206.902 85.4664 204.166 84.9369 201.407 84.9507C198.647 84.9645 195.919 85.5217 193.375 86.5897C190.83 87.6581 188.521 89.2164 186.58 91.1761Z" fill="#95A6B0"/>
<path d="M177.068 120.062C178.302 122.533 179.709 124.913 181.277 127.186C189.705 139.547 206.172 145.457 219.708 137.773C226.203 134.079 230.968 127.962 232.955 120.762C234.942 113.563 233.989 105.87 230.307 99.3711C228.09 95.4349 226.314 92.4817 226.207 92.3012C229.489 98.2321 230.522 105.147 229.12 111.778C227.713 118.409 223.962 124.311 218.551 128.402C213.144 132.493 206.441 134.497 199.67 134.049C192.902 133.601 186.522 130.729 181.703 125.961C179.578 123.902 178.383 122.57 177.068 120.062Z" fill="#002127"/>
<path d="M206.677 141.725C203.883 141.719 201.108 141.305 198.433 140.496C191.262 138.29 185.059 133.699 180.859 127.485C179.075 124.823 177.469 122.047 176.047 119.175C176.016 119.115 176.001 119.05 175.997 118.983C175.993 118.917 176.001 118.85 176.024 118.787C176.047 118.724 176.078 118.665 176.124 118.616C176.166 118.565 176.22 118.525 176.281 118.495C176.343 118.466 176.408 118.449 176.474 118.445C176.539 118.441 176.608 118.45 176.67 118.472C176.735 118.493 176.793 118.528 176.843 118.572C176.892 118.616 176.931 118.67 176.962 118.73C178.361 121.558 179.94 124.291 181.696 126.913C185.766 132.933 191.777 137.382 198.725 139.521C205.847 141.663 213.214 140.888 219.459 137.343C225.827 133.704 230.493 127.697 232.441 120.631C234.389 113.566 233.463 106.017 229.862 99.6322C227.618 95.6461 225.846 92.6968 225.773 92.5739C225.746 92.5301 225.727 92.4837 225.712 92.4357C225.677 92.3059 225.696 92.168 225.762 92.0517C225.831 91.9353 225.938 91.8497 226.069 91.8139C226.184 91.7821 226.304 91.7913 226.411 91.8397C226.519 91.8881 226.607 91.9725 226.657 92.0785C226.922 92.5125 228.625 95.3619 230.75 99.133C238.521 112.904 233.679 130.442 219.962 138.226C215.912 140.526 211.335 141.732 206.677 141.725Z" fill="#002127"/>
<path d="M201.538 134.655C197.791 134.665 194.079 133.936 190.612 132.512C187.146 131.087 183.994 128.994 181.335 126.352C179.336 124.464 177.665 122.258 176.389 119.824C176.323 119.707 176.308 119.569 176.343 119.44C176.216 119.395 176.112 119.304 176.05 119.187C173.783 114.821 172.672 109.947 172.834 105.031C172.991 100.115 174.409 95.3223 176.954 91.1115C179.498 86.9011 183.079 83.4142 187.361 80.9853C191.642 78.5564 196.473 77.2664 201.396 77.2399H201.546C206.676 77.2407 211.715 78.6147 216.134 81.2184C220.558 83.8224 224.197 87.5617 226.684 92.0478C229.666 97.4828 230.819 103.734 229.966 109.874C229.116 116.015 226.307 121.717 221.957 126.137C219.309 128.825 216.157 130.961 212.675 132.422C209.197 133.883 205.462 134.639 201.688 134.647L201.538 134.655ZM177.042 119.071C177.169 119.115 177.273 119.206 177.334 119.325C178.56 121.662 180.166 123.78 182.088 125.592C184.647 128.136 187.68 130.151 191.019 131.523C194.355 132.895 197.929 133.596 201.538 133.587H201.684C205.316 133.578 208.913 132.849 212.26 131.443C215.612 130.036 218.648 127.979 221.196 125.392C223.751 122.814 225.777 119.757 227.149 116.397C228.521 113.038 229.22 109.44 229.201 105.811C229.185 102.181 228.451 98.5911 227.041 95.2452C225.634 91.8992 223.582 88.8631 221 86.3105C218.44 83.7671 215.408 81.7522 212.068 80.3812C208.732 79.0099 205.154 78.3091 201.546 78.319H201.404C196.665 78.3463 192.015 79.5886 187.895 81.9269C183.775 84.2656 180.328 87.6219 177.876 91.6745C175.428 95.7271 174.06 100.341 173.906 105.073C173.752 109.804 174.817 114.496 177 118.699C177.053 118.818 177.065 118.954 177.023 119.079L177.042 119.071Z" fill="#002127"/>
<path d="M201.514 127.481C197.259 127.482 193.101 126.225 189.562 123.869C186.026 121.512 183.263 118.162 181.626 114.24C179.988 110.318 179.546 105.999 180.361 101.828C181.176 97.6568 183.205 93.8197 186.199 90.7997C188.693 88.2836 191.768 86.4207 195.153 85.3762C198.539 84.3313 202.132 84.137 205.611 84.8105C209.089 85.4841 212.347 87.0045 215.099 89.2368C217.847 91.4695 220.007 94.345 221.379 97.6096C222.751 100.874 223.297 104.426 222.966 107.952C222.636 111.477 221.444 114.867 219.488 117.821C217.536 120.775 214.884 123.202 211.767 124.887C208.65 126.572 205.165 127.463 201.621 127.481H201.514ZM201.514 85.4849H201.41C198.72 85.4906 196.056 86.0294 193.578 87.0705C191.095 88.1112 188.847 89.6331 186.96 91.5486C184.116 94.4187 182.187 98.0654 181.414 102.029C180.638 105.993 181.057 110.097 182.613 113.824C184.17 117.551 186.795 120.736 190.157 122.975C193.52 125.215 197.471 126.41 201.514 126.41H201.618C204.308 126.403 206.967 125.867 209.45 124.832C211.932 123.798 214.188 122.284 216.083 120.379C217.982 118.474 219.484 116.215 220.506 113.729C221.529 111.243 222.051 108.581 222.048 105.894C222.04 103.206 221.502 100.546 220.468 98.0658C219.43 95.5858 217.916 93.3339 216.01 91.4384C214.104 89.5428 211.844 88.0413 209.354 87.019C206.867 85.9968 204.204 85.4741 201.514 85.481V85.4849Z" fill="#002127"/>
<path d="M182.58 96.1223C186.204 91.2337 190.781 87.6738 196.519 85.6462C197.18 85.4119 199.47 84.4945 199.678 85.0321C200.4 84.8547 201.154 84.8286 201.888 84.9549C201.926 84.9549 202.925 84.9933 202.964 85.001C204.785 84.8551 206.123 85.5582 207.941 85.9422C210.446 86.4722 212.679 87.8082 214.704 89.3712C215.7 90.1392 216.714 90.7809 217.506 91.7525C217.983 92.3362 218.459 92.9353 218.905 93.5574C219.139 93.8723 219.358 94.2064 219.574 94.5174C220.039 95.1933 219.912 95.777 220.342 96.4875C221.184 97.9275 221.111 98.3227 221.641 99.9087L221.991 100.462C222.099 100.896 222.64 102.052 222.256 102.324C222.302 102.501 222.502 103.092 222.544 103.261C222.767 104.267 222.679 104.924 222.752 105.949C222.787 106.426 222.752 106.79 222.752 107.267C222.752 107.923 222.979 108.902 222.391 109.329C222.252 109.432 221.949 110.892 221.76 110.865C221.495 110.865 221.672 109.79 221.684 109.651C221.783 108.27 221.714 106.881 221.484 105.515C221.299 104.137 220.976 102.78 220.527 101.464V101.43C219.77 99.3453 218.713 97.3822 217.391 95.6038C216.772 94.7628 216.207 93.9065 215.515 93.1154C214.658 92.095 213.674 91.191 212.583 90.4272C211.449 89.6722 210.212 89.0851 208.909 88.6838C205.139 87.5317 201.161 87.824 197.487 89.1757C190.208 91.8639 183.829 98.5339 183.652 106.575C183.556 110.704 184.805 114.751 186.665 118.415C186.673 118.43 186.684 118.444 186.696 118.457C187.18 119.354 187.764 120.195 188.433 120.965C189.263 121.924 190.181 122.805 191.173 123.595C191.5 123.829 191.173 123.595 190.908 123.979C190.85 124.055 190.777 124.118 190.693 124.163C190.608 124.209 190.516 124.236 190.42 124.243C190.324 124.251 190.228 124.238 190.139 124.205C190.047 124.173 189.966 124.122 189.897 124.056C188.514 122.981 187.318 121.683 186.361 120.216C186.346 120.229 186.331 120.24 186.315 120.251C185.773 120.569 185.201 119.905 184.901 119.317C183.133 115.861 181.165 113.519 180.866 109.625C180.42 109.49 180.481 108.158 180.608 107.574C180.912 106.288 180.796 104.943 180.923 103.634C181.046 102.418 181.269 101.215 181.592 100.035C181.638 99.8534 181.738 99.6894 181.876 99.5631C181.853 99.3914 181.888 99.2171 181.976 99.0677C182.245 98.5915 182.48 98.0977 182.684 97.5896L182.757 97.4126C182.78 97.3588 182.891 97.1476 182.78 97.3626C182.83 97.2451 182.876 97.1249 182.914 97.0017C182.914 96.9479 182.945 96.898 182.964 96.8442C182.584 96.5216 182.245 96.5716 182.58 96.1223Z" fill="#002127"/>
<path d="M199.45 119.758C199.354 119.759 199.262 119.734 199.181 119.687C199.101 119.64 199.032 119.571 198.985 119.49L191.026 105.35C190.988 105.274 190.965 105.189 190.965 105.102C190.965 105.016 190.988 104.931 191.026 104.855C191.065 104.779 191.119 104.713 191.184 104.662C191.249 104.61 191.33 104.575 191.411 104.559L213.701 100.849C213.843 100.826 213.985 100.859 214.1 100.941C214.216 101.024 214.293 101.149 214.32 101.289C214.343 101.429 214.308 101.573 214.227 101.688C214.143 101.804 214.016 101.882 213.878 101.905L192.318 105.488L199.904 118.963C199.973 119.088 199.989 119.234 199.95 119.371C199.912 119.507 199.819 119.623 199.696 119.693C199.62 119.735 199.535 119.757 199.45 119.758Z" fill="#002127"/>
<path d="M207.645 108.995C207.564 108.995 207.483 108.977 207.41 108.941C207.333 108.905 207.272 108.852 207.222 108.787L199.255 98.4183C199.167 98.3058 199.128 98.1637 199.147 98.0228C199.167 97.8822 199.24 97.7543 199.351 97.6676C199.466 97.5812 199.609 97.5428 199.747 97.5612C199.889 97.5796 200.016 97.6534 200.104 97.7659L208.071 108.134C208.133 108.214 208.171 108.308 208.179 108.408C208.19 108.508 208.171 108.608 208.125 108.698C208.083 108.788 208.013 108.863 207.929 108.915C207.844 108.968 207.744 108.995 207.645 108.995Z" fill="#002127"/>
<g style="mix-blend-mode:overlay" opacity="0.5">
<g style="mix-blend-mode:overlay" opacity="0.5">
<path d="M182.615 85.0736C187.792 92.8692 191.278 91.6523 196.723 100.857C202.561 110.73 198.972 112.846 204.794 122.72C207.815 127.827 210.559 129.632 213.157 131.617C216.285 130.199 219.129 128.219 221.542 125.776C223.022 124.282 224.332 122.628 225.447 120.846C223.744 119.29 221.961 117.301 219.897 113.803C214.056 103.933 217.645 101.813 211.808 91.9441C206.812 83.4957 203.46 83.8259 198.941 77.912C192.861 78.4558 187.127 80.9707 182.615 85.0736Z" fill="white"/>
</g>
<g style="mix-blend-mode:overlay" opacity="0.5">
<path d="M175.109 96.0954C178.491 99.5055 181.397 100.588 185.486 107.497C191.324 117.366 187.899 119.402 193.733 129.263C194.659 130.855 195.728 132.36 196.931 133.756C200.981 134.418 205.132 134.196 209.09 133.104C206.865 131.218 204.621 129.221 201.827 124.49C195.989 114.617 199.417 112.585 193.576 102.723C188.322 93.8293 185.013 94.59 180.144 87.6124C177.976 90.1193 176.27 92.9917 175.109 96.0954Z" fill="white"/>
</g>
</g>
</svg>
