<svg width="83" height="76" viewBox="0 0 83 76" fill="none" xmlns="http://www.w3.org/2000/svg">
<path d="M57.2801 54.0835C57.6168 54.147 57.9272 54.3089 58.1717 54.549C58.417 54.7883 58.5846 55.0948 58.6549 55.4297C58.7244 55.7638 58.693 56.1119 58.5649 56.4293C58.4367 56.7459 58.2164 57.0181 57.9331 57.2107C57.6498 57.4026 57.3152 57.507 56.9718 57.5099C56.6292 57.5135 56.2932 57.415 56.0062 57.2275C55.7193 57.04 55.4945 56.7722 55.3605 56.4577C55.2266 56.1425 55.1892 55.7952 55.2529 55.4596C55.2954 55.2363 55.381 55.024 55.5062 54.8343C55.6307 54.6446 55.7925 54.4811 55.9806 54.3534C56.1688 54.225 56.3803 54.136 56.6029 54.0893C56.8262 54.0434 57.056 54.0412 57.2801 54.0835Z" fill="white"/>
<path d="M56.5528 61.7578L50.5285 58.0548L50.4963 58.0344L48.8066 57.0954L48.8345 57.0457L49.609 55.701L58.7762 39.7824L59.5544 38.4319L61.8919 39.6124L62.2345 39.7846L67.4843 42.4026L67.5048 42.4062L67.0597 44.9074L65.1372 55.7127L64.0691 61.7198L63.9527 62.3765L63.3297 65.8788L63.2265 65.8605L56.5528 61.7578ZM58.6605 56.1023C58.7242 55.7667 58.6868 55.4194 58.5529 55.1042C58.4189 54.7897 58.1942 54.5219 57.9072 54.3344C57.6202 54.1469 57.2842 54.0484 56.9408 54.052C56.5982 54.0549 56.2637 54.1593 55.9803 54.3512C55.6963 54.5438 55.4767 54.816 55.3485 55.1326C55.2197 55.45 55.1889 55.7981 55.2585 56.1322C55.3288 56.4671 55.4964 56.7736 55.7409 57.0129C55.9855 57.253 56.2966 57.4149 56.6333 57.4784C56.8574 57.5207 57.0872 57.5185 57.3098 57.4726C57.5331 57.4259 57.7446 57.3369 57.9328 57.2084C58.1209 57.0808 58.282 56.9173 58.4072 56.7276C58.5316 56.5379 58.618 56.3256 58.6605 56.1023Z" fill="#6E9BFF"/>
<path d="M78.6883 1.81421C79.143 1.81428 79.5917 1.91359 80.0032 2.10512C80.4153 2.29672 80.7799 2.57588 81.072 2.92297C81.3634 3.27013 81.5757 3.67683 81.6928 4.1144C81.8107 4.55196 81.8297 5.00989 81.7506 5.45584L81.3963 7.44119L80.5105 12.413L79.5837 17.6182L78.632 22.9533L77.6803 28.2899L76.6714 33.9556L75.6297 39.8007L69.9538 71.6677C69.8257 72.3849 69.4494 73.0336 68.8894 73.5013C68.3294 73.9697 67.6222 74.2258 66.8915 74.2258H60.9492C61.6798 74.2258 62.387 73.9697 62.9463 73.502C63.5064 73.0336 63.8827 72.3849 64.0101 71.6677L64.7114 67.732L65.1001 65.5511L65.6675 62.3677L65.7817 61.7249L66.852 55.7178L68.6354 45.7086L69.6881 39.7985L70.7291 33.9534L71.7387 28.2877L72.6904 22.9519L73.6421 17.616L74.5696 12.4108L75.4547 7.439L75.8076 5.45876C75.8874 5.0128 75.8676 4.55488 75.7505 4.11724C75.6334 3.67961 75.4218 3.27291 75.1297 2.92567C74.8376 2.57851 74.473 2.29935 74.0616 2.10774C73.6494 1.91621 73.2006 1.81706 72.746 1.81713L78.6883 1.81421Z" fill="#6E9BFF"/>
<path d="M72.7452 1.81421C73.1998 1.81414 73.6486 1.91329 74.0607 2.10482C74.4722 2.29636 74.8368 2.57559 75.1289 2.92275C75.421 3.26999 75.6325 3.67669 75.7497 4.11433C75.8668 4.55196 75.8866 5.00989 75.8068 5.45584L75.4539 7.43609L74.5688 12.4078L73.6383 17.6131L72.6866 22.949L71.7349 28.2848L70.7254 33.9504L69.6843 39.7956L68.6316 45.7057L66.8483 55.7149L65.7779 61.722L65.6637 62.3648L65.0964 65.5482L64.7076 67.7291L64.0114 71.6677C63.884 72.3849 63.5078 73.0336 62.9477 73.502C62.3884 73.9697 61.6812 74.2258 60.9506 74.2258H31.8693C31.4149 74.2258 30.966 74.1266 30.5542 73.9347C30.1424 73.7435 29.7778 73.4641 29.4859 73.1168C29.1941 72.7702 28.9821 72.363 28.865 71.9253C28.7478 71.4882 28.7282 71.03 28.8077 70.5842L29.3202 67.7058L31.4608 55.6886L32.1606 51.7581C32.7223 51.8939 33.2911 51.9994 33.8642 52.074L33.2192 55.69L32.1475 61.6979L31.0742 67.705L30.9578 68.3617C30.5325 70.7498 30.9132 71.6633 33.6234 71.6918H33.7587H59.9081C61.8166 71.6918 62.3049 71.6918 62.6271 69.8764C62.6549 69.7159 62.682 69.5415 62.709 69.3518L62.9975 67.7306L63.0187 67.6109L63.3269 65.8765L63.9499 62.3743L64.0663 61.7176L65.1344 55.7105L67.0569 44.9053L67.502 42.4041L67.9669 39.7898L69.0064 33.9454L70.0145 28.279L70.9662 22.9431L71.9179 17.608L72.844 12.402L73.7284 7.43098L73.7408 7.35801C74.3177 4.12133 73.262 4.02648 70.9406 4.02648H44.7861C42.8951 4.09434 42.3198 4.48907 41.9852 6.36643L41.7999 7.40471L41.2472 10.5144L39.6696 9.59509L40.6008 4.3716C40.7285 3.65487 41.1054 3.00578 41.6652 2.53816C42.225 2.0706 42.932 1.81428 43.6624 1.81421H72.7452Z" fill="#6E9BFF"/>
<path d="M62.9971 67.7275L62.7086 69.3488C62.6815 69.5385 62.6544 69.7136 62.6266 69.8734C62.3045 71.688 61.8162 71.6887 59.9077 71.6887H56.1074L56.8205 67.7202L61.2862 67.7253L62.9971 67.7275Z" fill="#B9CEFF"/>
<path d="M56.822 67.7234L56.109 71.6911H48.0254L48.7442 67.7175L56.822 67.7234Z" fill="#B9CEFF"/>
<path d="M56.5543 61.7576L49.8301 61.7102L50.4758 58.1422L50.5299 58.0547L56.5543 61.7576Z" fill="#B9CEFF"/>
<path d="M56.822 67.7232L48.7441 67.7173L49.8306 61.7102L56.5547 61.7576L63.224 65.8582L63.3273 65.8757L63.019 67.6101L62.9978 67.7297L61.2906 67.7276L56.8242 67.7232H56.822Z" fill="#B9CEFF"/>
<path d="M70.9348 4.03003C73.2562 4.03003 74.3119 4.12488 73.735 7.36157L73.7226 7.43453H72.1566H70.2305L67.6895 7.42869L68.3015 4.03361L70.9348 4.03003Z" fill="#B9CEFF"/>
<path d="M73.7241 7.436L72.8397 12.407L71.2614 12.4041L66.7949 12.3997L67.691 7.42798L70.2313 7.43381H72.1574L73.7241 7.436Z" fill="#B9CEFF"/>
<path d="M72.8388 12.4072L71.912 17.6125L70.3226 17.6103L65.8555 17.6052L66.794 12.3999L71.2604 12.4043L72.8388 12.4072Z" fill="#B9CEFF"/>
<path d="M71.9123 17.6123L70.9642 22.9474L69.361 22.9452L64.8945 22.9408L65.8557 17.605L70.3229 17.6101L71.9123 17.6123Z" fill="#B9CEFF"/>
<path d="M70.9653 22.9472L70.0157 28.2838L68.4 28.2816L63.9336 28.2765L64.8956 22.9407L69.362 22.9451L70.9653 22.9472Z" fill="#B9CEFF"/>
<path d="M70.0155 28.2839L69.0067 33.9503L67.3786 33.9481L62.9121 33.943L63.9334 28.2766L68.3998 28.2817L70.0155 28.2839Z" fill="#B9CEFF"/>
<path d="M69.0053 33.9504L67.9657 39.7941L66.3236 39.7919L62.2306 39.7875L61.8887 39.6146L62.9107 33.9431L67.3771 33.9482L69.0053 33.9504Z" fill="#B9CEFF"/>
<path d="M68.3024 4.03296L67.6904 7.42797L59.6074 7.42287L60.2187 4.03296H68.3024Z" fill="#B9CEFF"/>
<path d="M67.9656 39.7942L67.5007 42.4092L67.4802 42.4055L62.2305 39.7876L66.3235 39.792L67.9656 39.7942Z" fill="#B9CEFF"/>
<path d="M67.6899 7.42796L66.7939 12.3997L58.7109 12.3939L59.607 7.42285L67.6899 7.42796Z" fill="#B9CEFF"/>
<path d="M66.7949 12.3999L65.8564 17.6051L57.7742 17.6H57.7734L58.712 12.394L66.7949 12.3999Z" fill="#B9CEFF"/>
<path d="M65.8567 17.605L64.8954 22.9408L56.8125 22.9357L57.7737 17.5999H57.7745L65.8567 17.605Z" fill="#B9CEFF"/>
<path d="M64.8945 22.9409L63.9325 28.2768L55.8496 28.2709L56.8116 22.9358L64.8945 22.9409Z" fill="#B9CEFF"/>
<path d="M63.9323 28.2768L62.9111 33.9432L54.8281 33.9374L55.8494 28.271L63.9323 28.2768Z" fill="#B9CEFF"/>
<path d="M62.9107 33.9431L61.8887 39.6146L59.5504 38.434L54.4785 35.8737L54.8277 33.9373L62.9107 33.9431Z" fill="#B9CEFF"/>
<path d="M60.2179 4.03296L59.6066 7.42287L51.9578 7.41776H51.957L52.5676 4.03296H60.2179Z" fill="#B9CEFF"/>
<path d="M59.6081 7.42283L58.712 12.3939L51.0625 12.3895L51.9586 7.41772H51.9593L59.6081 7.42283Z" fill="#B9CEFF"/>
<path d="M45.7361 38.3435L44.1197 35.7694L41.6577 31.8439C41.3216 31.3028 41.1342 30.683 41.1147 30.0469C41.095 29.4108 41.2438 28.7809 41.5459 28.2202C41.848 27.6596 42.2929 27.188 42.8357 26.853C43.3786 26.518 44.0005 26.3313 44.6386 26.3118C45.2528 27.7055 46.0224 29.026 46.933 30.2482C47.3795 30.8465 47.8972 31.447 48.6065 31.6827C48.8379 31.757 49.0831 31.7798 49.324 31.7497C49.5648 31.7196 49.7969 31.6372 50.0026 31.5083L50.5883 32.4568L50.7493 32.7231C50.8628 32.9099 50.9851 33.0911 51.1154 33.2667C51.8826 34.3155 52.9097 35.1475 54.0972 35.6811L54.4852 35.8766L59.557 38.4376L58.7774 39.7824L49.6139 55.6987L48.8393 57.0434L48.8115 57.093L46.299 55.6972L43.5303 54.2015L40.0895 52.3431C39.5567 52.0559 38.9446 51.9494 38.3456 52.0396C37.9464 52.098 37.546 52.1415 37.1443 52.1701C36.0515 52.2475 34.9537 52.2147 33.8675 52.0724C33.2943 51.9978 32.7256 51.8923 32.1639 51.7565C31.8799 51.6835 31.5987 51.6106 31.3184 51.5267C31.6771 51.1098 32.0453 50.7019 32.4231 50.3031C32.9028 49.7942 33.3929 49.2983 33.8931 48.8153C34.0827 48.6328 34.2731 48.4505 34.4641 48.2725L34.5483 48.1929C35.8221 47.0044 37.1473 45.869 38.4826 44.7446C39.192 44.147 39.905 43.5532 40.6144 42.9549C41.4578 42.2442 42.2982 41.5291 43.1189 40.7973C43.2697 40.6645 43.419 40.5303 43.5691 40.3946C43.6459 40.326 43.7229 40.2567 43.799 40.1866L43.8297 40.1582C43.9418 40.0575 44.0493 39.956 44.1628 39.8532L44.2923 39.7335L44.4959 39.5431C44.6167 39.4307 44.7375 39.3161 44.8576 39.2016C44.8905 39.1695 44.9234 39.1388 44.9556 39.1067C45.0244 39.0418 45.0932 38.9754 45.1613 38.9097C45.3146 38.7638 45.4671 38.6145 45.6189 38.4617C45.6482 38.4326 45.6767 38.4034 45.706 38.3749C45.7148 38.3647 45.7251 38.3537 45.7361 38.3435Z" fill="#A84E2B"/>
<path d="M58.712 12.394L57.7735 17.6L53.2931 17.5971H53.2924L50.4277 15.9138L51.0625 12.3896L58.712 12.394Z" fill="#B9CEFF"/>
<path d="M57.7736 17.6013L56.8116 22.9364H55.201C55.5876 21.7394 55.9148 20.5255 56.1828 19.2948L53.2969 17.5991L57.7736 17.6013Z" fill="#B9CEFF"/>
<path d="M56.8117 22.9351L55.849 28.2702H53.0137C53.8731 26.5487 54.6023 24.7656 55.196 22.9358L56.8117 22.9351Z" fill="#B9CEFF"/>
<path d="M49.0525 29.9543L48.7531 29.4771L48.8358 29.426C50.0496 27.661 50.7693 25.6859 51.3139 24.3455C50.7861 23.969 50.3432 23.4859 50.0145 22.9278C49.6836 22.3651 49.4757 21.7388 49.4061 21.0902C49.3358 20.4417 49.4054 19.7858 49.6089 19.1658L46.9074 17.5898L43.7104 15.7241L36.3164 11.4112C35.8864 11.9753 35.3313 12.4325 34.6945 12.747C34.0577 13.0616 33.3564 13.2249 32.6457 13.2243C32.4656 13.2246 32.2857 13.2141 32.1069 13.193C30.4132 17.4238 27.9776 21.3204 24.9142 24.7009C21.0986 28.9007 16.3993 32.1972 12.2587 36.0796C10.1525 38.054 8.15892 40.2502 6.5842 42.6675C7.14168 43.2143 7.52566 43.9124 7.68826 44.675C7.85085 45.4375 7.78482 46.2309 7.49857 46.9563L21.5326 55.1779C22.0256 54.5169 22.7022 54.0149 23.4786 53.7332C24.2551 53.4522 25.0973 53.4038 25.901 53.5946C27.4691 51.2028 29.445 49.0293 31.5322 47.0731C34.0125 44.7485 36.984 42.3188 39.5543 40.0941C40.9958 38.8223 42.8092 37.1996 44.1197 35.7695L45.7361 38.3473C45.7251 38.3575 45.7148 38.3685 45.7038 38.3794C45.6745 38.4079 45.6461 38.4371 45.6168 38.4663C45.4655 38.6166 45.313 38.7659 45.1592 38.9143C45.0911 38.9799 45.0223 39.0463 44.9534 39.1113C44.9212 39.1434 44.8883 39.174 44.8553 39.2061C44.7353 39.3207 44.6145 39.4352 44.4937 39.5476L44.2902 39.738L44.1606 39.8577C44.0501 39.9606 43.941 40.062 43.8275 40.1627L43.7967 40.1911C43.7235 40.2641 43.6438 40.3305 43.567 40.3991C43.4205 40.5348 43.2675 40.669 43.1166 40.8018C42.2938 41.5315 41.4555 42.2487 40.6122 42.9594C39.9028 43.5577 39.1897 44.1516 38.4804 44.7492C37.145 45.8736 35.82 47.0111 34.5461 48.1975L34.462 48.277C34.271 48.4558 34.0805 48.6374 33.8909 48.8198C33.3916 49.3034 32.9017 49.7993 32.421 50.3076C32.0437 50.7074 31.6754 51.1153 31.3162 51.5312C30.1828 52.8272 29.1642 54.2184 28.2722 55.6901C27.1638 57.5427 26.3102 59.5207 25.8439 61.6214L1.24219 47.1679C2.35642 42.9039 5.0491 39.1616 8.18022 35.9475C8.67994 35.4353 9.18969 34.9365 9.70947 34.451C10.5009 33.709 11.312 32.9881 12.1341 32.2796L12.1861 32.2351C13.6825 30.9444 15.2133 29.6894 16.7155 28.4082C18.2177 27.1269 19.6973 25.8158 21.0868 24.417C21.5216 23.9792 21.9492 23.5305 22.365 23.0723C23.4262 21.9047 24.4127 20.6718 25.319 19.3811C28.3884 15.0145 30.514 10.0598 31.5608 4.8313L39.67 9.59512L41.2454 10.5203L44.3202 12.3269L44.4176 12.3845L50.4245 15.9138L53.2898 17.5971L56.1757 19.2928C55.9092 20.522 55.582 21.7358 55.194 22.9344C54.1017 26.3032 52.5497 29.5061 50.5819 32.4533L49.9962 31.5048L49.0445 29.9565L49.0525 29.9543ZM54.194 21.0724C54.194 20.0888 53.4524 19.2928 52.5365 19.2928C51.6207 19.2928 50.8791 20.0888 50.8791 21.0724C50.8791 22.0559 51.6214 22.852 52.5365 22.852C53.4516 22.852 54.194 22.0523 54.194 21.0724ZM34.8844 9.63452C34.8844 8.65242 34.1398 7.85493 33.2218 7.85493C32.3038 7.85493 31.5592 8.65242 31.5592 9.63452C31.5592 10.6166 32.303 11.4141 33.2218 11.4141C34.1406 11.4141 34.8844 10.6173 34.8844 9.63452ZM26.1125 56.9232C26.1601 56.0097 25.4002 55.2275 24.4148 55.1772C23.4294 55.1269 22.5934 55.8258 22.5466 56.7408C22.4997 57.6558 23.2596 58.4365 24.2443 58.4869C25.2289 58.5372 26.0657 57.8375 26.1125 56.9232ZM6.58501 45.5678C6.58501 44.5857 5.84048 43.7882 4.92245 43.7882C4.00441 43.7882 3.25988 44.5857 3.25988 45.5678C3.25988 46.5499 4.00441 47.3474 4.92245 47.3474C5.84048 47.3474 6.58501 46.5507 6.58501 45.5678Z" fill="#FFF1DF"/>
<path d="M55.8491 28.2703L54.8242 33.9374H51.6601C51.4625 33.724 51.2773 33.4994 51.1052 33.2646C50.9764 33.0895 50.8541 32.9084 50.7392 32.7211L50.5781 32.4547C51.4749 31.1118 52.2861 29.7143 53.0072 28.2703H55.8491Z" fill="#B9CEFF"/>
<path d="M54.8281 33.9372L54.4789 35.873L54.0909 35.6774C53.1729 35.2645 52.3478 34.6723 51.6641 33.9358L54.8281 33.9372Z" fill="#B9CEFF"/>
<path d="M52.5363 19.2925C53.4522 19.2925 54.1938 20.0885 54.1938 21.0721C54.1938 22.0556 53.4522 22.8517 52.5363 22.8517C51.6205 22.8517 50.8789 22.0549 50.8789 21.0721C50.8789 20.0892 51.6212 19.2925 52.5363 19.2925Z" fill="#EAA28C"/>
<path d="M52.5695 4.03296L51.9589 7.41776L45.209 7.41338L45.8181 4.03296H52.5695Z" fill="#B9CEFF"/>
<path d="M51.9578 7.41795L51.0618 12.3897L44.4196 12.3853L44.3223 12.3277L45.2081 7.41357L51.9578 7.41795Z" fill="#B9CEFF"/>
<path d="M51.0622 12.3894L50.4275 15.9136L44.4199 12.385L51.0622 12.3894Z" fill="#B9CEFF"/>
<path d="M50.0135 22.9278C50.3422 23.4848 50.7851 23.9669 51.3129 24.3425C50.7682 25.6829 50.0486 27.658 48.8348 29.423L48.7521 29.4741L47.8303 28.0061C47.5033 27.4844 47.0483 27.0543 46.5082 26.7565C45.9683 26.4586 45.361 26.3029 44.7439 26.3038H44.6376C43.9995 26.3234 43.3776 26.5101 42.8347 26.8451C42.2919 27.1801 41.847 27.6516 41.5449 28.2123C41.2428 28.7729 41.094 29.403 41.1137 30.0391C41.1333 30.6751 41.3206 31.2948 41.6567 31.8359L44.1186 35.7614C42.8082 37.1915 40.9948 38.8142 39.5533 40.086C36.983 42.3107 34.0114 44.7404 31.5311 47.065C29.444 49.0212 27.4681 51.1948 25.8999 53.5865C25.0963 53.3957 24.2541 53.4441 23.4776 53.7252C22.7012 54.0068 22.0246 54.5088 21.5316 55.1698L7.49828 46.9548C7.78453 46.2293 7.85049 45.436 7.68797 44.6735C7.52537 43.9109 7.14147 43.2128 6.58398 42.666C8.1587 40.2487 10.1521 38.0525 12.2583 36.0781C16.399 32.1957 21.0982 28.8991 24.9138 24.6993C27.9773 21.3189 30.4128 17.4223 32.1065 13.1914C32.2854 13.2126 32.4653 13.2231 32.6454 13.2228C33.3561 13.2235 34.0573 13.0601 34.6942 12.7455C35.331 12.4309 35.8862 11.9738 36.316 11.4097L43.7101 15.7226L46.9071 17.5883L49.6086 19.1643C49.4044 19.7842 49.3356 20.4402 49.4051 21.0888C49.4754 21.7374 49.6826 22.3638 50.0142 22.9263L50.0135 22.9278ZM39.5533 33.9979C39.5557 33.7235 39.5425 33.4492 39.5138 33.1763C39.3384 31.5356 38.6359 29.9951 37.5108 28.7846C35.7252 26.835 32.9587 25.6968 29.9842 25.955C25.1766 26.3724 21.6495 30.2833 22.1056 34.6896C22.5616 39.0959 26.8275 42.3282 31.6351 41.913C33.8665 41.7197 35.8219 40.7726 37.2319 39.3739C38.6682 37.9474 39.5379 36.0511 39.5533 34.0008V33.9979Z" fill="#EAA28C"/>
<path d="M50.497 58.0343L50.5299 58.0547L50.4757 58.1423L49.83 61.7102H49.8234H49.8227L42.1738 61.7051L43.2566 55.6973L46.2947 55.6994L48.8073 57.096L50.497 58.0343Z" fill="#B9CEFF"/>
<path d="M49.0472 29.9563L49.9989 31.5046C49.7932 31.6335 49.5611 31.716 49.3202 31.7461C49.0787 31.7763 48.8341 31.7533 48.6028 31.679C47.8933 31.4433 47.3757 30.8428 46.9291 30.2445C46.0186 29.0223 45.2489 27.7019 44.6348 26.3081H44.7409C45.3581 26.3072 45.9653 26.4629 46.5054 26.7608C47.0454 27.0586 47.5004 27.4887 47.8274 28.0104L48.7492 29.4784L49.0486 29.9556L49.0472 29.9563Z" fill="#CE6F59"/>
<path d="M49.8307 61.7102L48.7443 67.7173H48.7413L41.0918 67.7122L42.1746 61.7051L49.8234 61.7102H49.8241H49.8307Z" fill="#B9CEFF"/>
<path d="M48.743 67.7175L48.0241 71.6911H40.373L41.0905 67.7124L48.7401 67.7175H48.743Z" fill="#B9CEFF"/>
<path d="M46.294 55.6996L43.2559 55.6974L43.5253 54.2039L46.294 55.6996Z" fill="#B9CEFF"/>
<path d="M45.8185 4.03003L45.2086 7.41118H41.8008L41.9861 6.37291C42.3206 4.49554 42.896 4.10081 44.7869 4.03295L45.8185 4.03003Z" fill="#B9CEFF"/>
<path d="M45.2074 7.41332L44.3216 12.3274L41.2461 10.5209L41.7995 7.41113L45.2067 7.41332H45.2074Z" fill="#B9CEFF"/>
<path d="M43.5256 54.2037L43.2569 55.6973L36.5078 55.6929L37.1418 52.1723C37.5439 52.1436 37.9444 52.1001 38.3431 52.0417C38.9421 51.9515 39.5542 52.058 40.087 52.3453L43.5256 54.2037Z" fill="#B9CEFF"/>
<path d="M43.2564 55.6973L42.1736 61.7051L35.4238 61.7007L36.5066 55.6929L43.2564 55.6973Z" fill="#B9CEFF"/>
<path d="M42.1731 61.7051L41.0904 67.7122H41.0897L34.3398 67.7078L35.4233 61.7007L42.1731 61.7051Z" fill="#B9CEFF"/>
<path d="M41.091 67.7117L40.3736 71.6911H33.7585H33.623L34.3405 67.7095L41.0903 67.7131L41.091 67.7117Z" fill="#B9CEFF"/>
<path d="M27.4861 30.5736L26.4019 31.8629L26.2554 32.0351C25.4289 33.0106 25.5234 34.3546 26.4751 35.0573C26.8597 35.3364 27.3245 35.4843 27.8002 35.479C28.179 35.4767 28.5528 35.3931 28.8963 35.2339C29.2397 35.0748 29.5448 34.8439 29.7907 34.5567L29.9371 34.3867L33.5895 36.9923L34.5412 35.8788C34.5903 35.8227 34.6349 35.765 34.6773 35.7059C34.9664 35.3142 35.1245 34.8417 35.1291 34.3554C35.1317 34.0398 35.0583 33.7282 34.9153 33.4467C34.7723 33.1651 34.5636 32.9218 34.307 32.737C33.3553 32.0446 31.9292 32.2212 31.0397 33.1113L27.4861 30.5736ZM39.5143 33.1792C39.5431 33.4521 39.5562 33.7263 39.5538 34.0008C39.5384 36.051 38.6687 37.9474 37.2324 39.3738C35.8224 40.7725 33.8648 41.7196 31.6356 41.913C26.828 42.3311 22.5621 39.098 22.1061 34.6895C21.65 30.281 25.1808 26.3716 29.9847 25.955C32.9592 25.6967 35.7257 26.835 37.5112 28.7845C38.6369 29.9959 39.3395 31.5374 39.5143 33.1792Z" fill="#FFC964"/>
<path d="M37.1397 52.1725L36.5057 55.693H33.2188L33.8636 52.0769C34.9497 52.2184 36.0472 52.2504 37.1397 52.1725Z" fill="#B9CEFF"/>
<path d="M36.506 55.6929L35.4233 61.7007H35.4226L32.1465 61.6985L33.2183 55.6914L36.506 55.6929Z" fill="#B9CEFF"/>
<path d="M35.4235 61.7009L34.34 67.708L31.0742 67.7066L32.1467 61.6987L35.4228 61.7009H35.4235Z" fill="#B9CEFF"/>
<path d="M35.1304 34.3554C35.1258 34.8416 34.9678 35.3141 34.6787 35.7058L31.041 33.1112C31.9305 32.2211 33.3551 32.0445 34.3083 32.7369C34.565 32.9217 34.7736 33.165 34.9166 33.4466C35.0596 33.7282 35.133 34.0398 35.1304 34.3554Z" fill="#FFC964"/>
<path d="M31.042 33.1113L34.6797 35.7059C34.6372 35.765 34.5926 35.8227 34.5435 35.8789L33.5918 36.9923L29.9395 34.3867L30.8992 33.2646C30.9456 33.2111 30.9932 33.16 31.042 33.1113Z" fill="#FFC964"/>
<path d="M33.2212 7.85474C34.1392 7.85474 34.8837 8.65223 34.8837 9.63433C34.8837 10.6164 34.1392 11.4139 33.2212 11.4139C32.3031 11.4139 31.5586 10.6172 31.5586 9.63433C31.5586 8.6515 32.3024 7.85474 33.2212 7.85474Z" fill="#EAA28C"/>
<path d="M34.3408 67.708L33.6234 71.6896C30.9147 71.6612 30.5325 70.7477 30.9579 68.3596L31.0743 67.7029H34.3401L34.3408 67.708Z" fill="#B9CEFF"/>
<path d="M27.4863 30.5737L31.0428 33.1113C30.994 33.16 30.9452 33.2111 30.8964 33.2646L29.9366 34.3868L26.3984 31.863L27.4863 30.5737Z" fill="#FFC964"/>
<path d="M29.9401 34.3868L29.7937 34.5569C29.5477 34.8439 29.2427 35.0749 28.8992 35.234C28.5558 35.3932 28.182 35.4767 27.8032 35.4791C27.3274 35.4845 26.8627 35.3366 26.478 35.0574C25.5263 34.3548 25.4297 33.0107 26.2584 32.0352L26.4048 31.863L29.9401 34.3868Z" fill="#FFC964"/>
<path d="M24.4133 55.1777C25.3987 55.2281 26.1586 56.0103 26.111 56.9238C26.0634 57.8373 25.2281 58.5377 24.2427 58.4874C23.2573 58.4371 22.4982 57.6556 22.545 56.7414C22.5919 55.8271 23.4287 55.1259 24.4133 55.1777Z" fill="#EAA28C"/>
<path d="M21.6029 16.9973L25.316 19.3781C24.4098 20.6688 23.4232 21.9016 22.362 23.0693C21.9462 23.5275 21.5187 23.9748 21.0839 24.4141L21.0158 24.3469L20.0545 23.7078L18.083 22.3535C16.6269 21.3839 16.318 19.4897 17.2287 17.9925C17.327 17.8315 17.4389 17.6792 17.5633 17.5372C18.0568 16.9749 18.7384 16.6103 19.4813 16.511C20.2242 16.4117 20.9781 16.5845 21.6029 16.9973Z" fill="#A84E2B"/>
<path d="M15.6267 27.6449L15.5996 27.626L15.0454 27.2385C14.9722 27.1882 14.899 27.1415 14.8258 27.0977L14.4597 26.8474C14.3366 26.7631 14.2192 26.6707 14.1083 26.5709C13.0139 25.5837 12.7093 23.9902 13.4451 22.7921C14.2738 21.4393 16.1121 21.0993 17.5404 22.0333L20.058 23.7114L21.0192 24.3506L21.0873 24.4177C19.6963 25.8164 18.2205 27.1261 16.716 28.4089L15.6267 27.6449Z" fill="#A84E2B"/>
<path d="M15.6275 27.6449L16.7139 28.4052C15.2116 29.6864 13.6808 30.9414 12.1845 32.2321L12.156 32.1993L11.7951 31.9359C11.7021 31.8673 11.6127 31.7951 11.5285 31.717C11.5117 31.7024 11.4942 31.6863 11.4781 31.6703C10.3953 30.6488 10.1346 29.0363 10.9187 27.8572C11.7503 26.6066 13.4583 26.2921 14.8258 27.0962L15.6275 27.6449Z" fill="#A84E2B"/>
<path d="M8.32332 33.0945C9.1352 31.8738 10.7817 31.544 12.1302 32.2766C11.308 32.9851 10.4969 33.7059 9.7055 34.448C9.18718 34.9344 8.67743 35.4332 8.17625 35.9445C7.73553 35.0266 7.75596 33.9453 8.32332 33.0945Z" fill="#A84E2B"/>
<path d="M4.92233 43.7881C5.84036 43.7881 6.58489 44.5856 6.58489 45.5677C6.58489 46.5498 5.84036 47.3473 4.92233 47.3473C4.0043 47.3473 3.25977 46.5505 3.25977 45.5677C3.25977 44.5848 4.0043 43.7881 4.92233 43.7881Z" fill="#EAA28C"/>
<path d="M46.2935 55.8498C46.2679 55.8506 46.2426 55.844 46.2203 55.8316L40.0122 52.4752C39.5077 52.2053 38.9293 52.1047 38.3628 52.1885C37.9639 52.2469 37.5575 52.2914 37.1497 52.3206C36.0467 52.3987 34.9386 52.3657 33.8422 52.2221C33.8225 52.2195 33.8036 52.213 33.7864 52.2032C33.7692 52.1932 33.7542 52.1801 33.7421 52.1644C33.73 52.1487 33.7212 52.1308 33.7161 52.1117C33.711 52.0926 33.7096 52.0727 33.7122 52.0531C33.7148 52.0335 33.7212 52.0146 33.7312 51.9975C33.7411 51.9804 33.7543 51.9654 33.77 51.9534C33.7858 51.9414 33.8037 51.9325 33.8229 51.9274C33.8421 51.9223 33.8621 51.921 33.8818 51.9236C34.958 52.0644 36.0457 52.0966 37.1285 52.0199C37.5267 51.9915 37.9272 51.947 38.3181 51.8908C38.9494 51.7972 39.5942 51.9093 40.1564 52.2104L46.3644 55.5667C46.394 55.5828 46.4173 55.6083 46.4308 55.639C46.4442 55.6696 46.4469 55.7039 46.4385 55.7367C46.43 55.7688 46.411 55.7973 46.3844 55.8177C46.3576 55.8381 46.3249 55.8491 46.2912 55.8491L46.2935 55.8498Z" fill="#002127"/>
<path d="M63.2229 66.0086C63.1951 66.0086 63.1673 66.0006 63.1438 65.986L50.4158 58.1621L46.2203 55.8345C46.1866 55.8148 46.162 55.782 46.1517 55.7448C46.1415 55.7068 46.1464 55.6667 46.1655 55.6324C46.1845 55.5981 46.2161 55.5726 46.2538 55.5616C46.2913 55.55 46.3319 55.5536 46.3667 55.5719L50.6076 57.9308L63.3005 65.7336C63.3283 65.7503 63.3503 65.7766 63.3627 65.8073C63.3744 65.8379 63.3759 65.8715 63.3671 65.9028C63.3583 65.9342 63.3393 65.9627 63.3129 65.9824C63.2866 66.0021 63.2544 66.0123 63.2214 66.0123L63.2229 66.0086Z" fill="#002127"/>
<path d="M62.232 39.9377C62.2086 39.9377 62.1851 39.9323 62.1639 39.9218L54.0239 35.8124C52.8152 35.2681 51.7683 34.42 50.9879 33.3513C50.8583 33.1747 50.7339 32.9865 50.6182 32.7975L50.4564 32.5304C50.4388 32.4964 50.4345 32.4569 50.4454 32.42C50.4557 32.3831 50.4798 32.3515 50.5128 32.3317C50.5457 32.3119 50.5853 32.3053 50.6226 32.3134C50.6607 32.3215 50.6936 32.3435 50.7156 32.375L50.8766 32.6421C50.9879 32.8252 51.1072 33.007 51.2317 33.1741C51.4001 33.403 51.5816 33.6223 51.7756 33.8307C52.4448 34.5536 53.2537 35.1343 54.1542 35.538L54.548 35.7365L62.3001 39.6503C62.3301 39.6657 62.3542 39.6908 62.3682 39.7215C62.3821 39.7521 62.3857 39.7867 62.3777 39.8195C62.3704 39.8524 62.3513 39.8816 62.325 39.9027C62.2986 39.9237 62.2657 39.9353 62.232 39.9356V39.9377Z" fill="#002127"/>
<path d="M32.1615 51.9091C32.1494 51.9091 32.1373 51.9076 32.1256 51.9047C31.8423 51.8361 31.5553 51.7588 31.2712 51.6727C31.2522 51.6669 31.2346 51.6575 31.2193 51.6449C31.2039 51.6324 31.1912 51.6169 31.1819 51.5995C31.1725 51.5821 31.1667 51.5629 31.1648 51.5432C31.1628 51.5236 31.1648 51.5037 31.1706 51.4848C31.1763 51.4658 31.1858 51.4482 31.1984 51.433C31.211 51.4177 31.2264 51.405 31.244 51.3957C31.2615 51.3864 31.2806 51.3806 31.3004 51.3786C31.3202 51.3767 31.3401 51.3787 31.3591 51.3845C31.6373 51.4684 31.9191 51.545 32.1965 51.6121C32.233 51.6202 32.2651 51.6415 32.2866 51.6719C32.3082 51.7022 32.3178 51.7394 32.3134 51.7764C32.309 51.8133 32.291 51.8473 32.263 51.8718C32.2349 51.8963 32.1987 51.9096 32.1615 51.9091Z" fill="#002127"/>
<path d="M66.8922 74.3755H60.9499C60.9118 74.3725 60.8759 74.3558 60.8496 74.328C60.8232 74.2996 60.8086 74.2631 60.8086 74.2244C60.8086 74.1865 60.8232 74.15 60.8496 74.1215C60.8759 74.0938 60.9118 74.077 60.9499 74.0741H66.8922C67.5877 74.0749 68.2605 73.8311 68.7934 73.3853C69.3264 72.9403 69.6844 72.3223 69.8052 71.64L75.4818 39.7744C75.484 39.754 75.4905 39.7343 75.5008 39.7165C75.5118 39.6987 75.5249 39.6832 75.5418 39.6709C75.5586 39.6587 75.5777 39.6498 75.5974 39.6452C75.6172 39.6404 75.6384 39.6398 75.6589 39.6434C75.6787 39.647 75.6984 39.6547 75.7153 39.666C75.7329 39.6773 75.7475 39.692 75.7592 39.7092C75.7702 39.7264 75.7782 39.7456 75.7812 39.7659C75.7848 39.7861 75.7841 39.8069 75.7797 39.8269L70.1031 71.6926C69.9699 72.4448 69.5753 73.1263 68.9882 73.6166C68.4003 74.1077 67.6587 74.3762 66.8922 74.3755Z" fill="#002127"/>
<path d="M75.6304 39.951C75.6216 39.9517 75.6129 39.9517 75.6041 39.951C75.5843 39.9475 75.566 39.9403 75.5492 39.9297C75.5323 39.9191 75.5177 39.9053 75.5067 39.8891C75.495 39.8729 75.4869 39.8546 75.4833 39.8353C75.4789 39.816 75.4782 39.7961 75.4818 39.7766L81.6006 5.43169C81.676 5.0074 81.6577 4.57174 81.5457 4.15533C81.4344 3.739 81.2323 3.35207 80.9549 3.02176C80.6767 2.69145 80.3297 2.42586 79.938 2.24353C79.5464 2.06126 79.1195 1.96677 78.6869 1.96663H72.7446C72.7043 1.96663 72.6662 1.95079 72.6377 1.92263C72.6099 1.89447 72.5938 1.85623 72.5938 1.81632C72.5938 1.77648 72.6099 1.73825 72.6377 1.71001C72.6662 1.68185 72.7043 1.66602 72.7446 1.66602H78.6891C79.1657 1.66587 79.6364 1.76977 80.0683 1.97057C80.5003 2.17129 80.8831 2.46402 81.1891 2.82804C81.4952 3.19206 81.717 3.61853 81.84 4.07748C81.963 4.53642 81.9835 5.0166 81.9 5.48422L75.782 39.8291C75.7754 39.864 75.7564 39.8952 75.7285 39.9175C75.7007 39.9398 75.6663 39.9516 75.6304 39.951Z" fill="#002127"/>
<path d="M56.961 57.6585C56.8416 57.6585 56.723 57.6476 56.6059 57.6257C56.1147 57.5323 55.6813 57.2485 55.4002 56.8369C55.1183 56.4254 55.0122 55.9191 55.1051 55.4295C55.1717 55.0792 55.3372 54.7553 55.5817 54.4948C55.8262 54.2351 56.1396 54.0497 56.4858 53.9607C56.8321 53.8717 57.1967 53.8826 57.5371 53.9921C57.8775 54.1015 58.1791 54.3058 58.4076 54.5802C58.636 54.8545 58.7817 55.188 58.827 55.5411C58.8724 55.895 58.8161 56.254 58.6645 56.5765C58.5122 56.8997 58.2721 57.1726 57.9705 57.3645C57.6689 57.5556 57.319 57.6578 56.961 57.6585ZM55.4016 55.4857C55.3533 55.741 55.3679 56.0037 55.4463 56.2518C55.5239 56.4991 55.6615 56.7239 55.8475 56.9063C56.0334 57.0879 56.2611 57.2215 56.5115 57.2944C56.7611 57.3674 57.0254 57.3783 57.2802 57.3251C57.5349 57.2725 57.7728 57.1573 57.9727 56.9909C58.1726 56.8245 58.3285 56.6115 58.4259 56.3707C58.5232 56.1299 58.5598 55.8687 58.5313 55.6104C58.5035 55.3529 58.412 55.1055 58.2655 54.891C58.1491 54.7195 57.9998 54.5721 57.8256 54.4591C57.6513 54.3452 57.4566 54.2672 57.2523 54.2292C56.8394 54.1519 56.4134 54.2409 56.0664 54.4766C55.7193 54.7122 55.48 55.0756 55.4016 55.4864V55.4857Z" fill="#002127"/>
<path d="M20.3908 24.0887C20.3602 24.089 20.3301 24.0798 20.3051 24.0624L17.999 22.4776C16.5093 21.4853 16.1227 19.5233 17.1015 17.9145C17.204 17.7458 17.3211 17.5863 17.4514 17.438C17.9678 16.8464 18.6827 16.4626 19.4625 16.3583C20.2422 16.2539 21.0333 16.4363 21.6879 16.8711L25.396 19.2497C25.43 19.2709 25.4541 19.3046 25.4632 19.3436C25.4722 19.3825 25.4652 19.4234 25.444 19.4573C25.4334 19.4741 25.4197 19.4886 25.4035 19.5C25.3873 19.5116 25.3691 19.5197 25.3498 19.5241C25.3107 19.5331 25.2696 19.5262 25.2356 19.5051L21.5232 17.1235C20.9295 16.7286 20.2118 16.5626 19.5042 16.6566C18.7966 16.7505 18.1476 17.0981 17.6784 17.6343C17.5599 17.7711 17.4531 17.9175 17.3591 18.0721C16.4667 19.5401 16.8145 21.3277 18.1689 22.231L20.4779 23.8172C20.5045 23.8354 20.5246 23.8616 20.5351 23.892C20.5457 23.9223 20.5463 23.9552 20.5367 23.9859C20.5271 24.0166 20.5079 24.0434 20.4819 24.0625C20.4558 24.0814 20.4245 24.0917 20.3922 24.0916L20.3908 24.0887Z" fill="#002127"/>
<path d="M14.8228 27.2464C14.7922 27.2464 14.7623 27.2369 14.7372 27.2194L14.3711 26.9699C14.2429 26.8806 14.1206 26.7831 14.0051 26.678C12.8389 25.6259 12.5483 23.9572 13.314 22.7088C13.5138 22.3837 13.7776 22.1024 14.0895 21.8818C14.4015 21.6613 14.7551 21.506 15.1289 21.4254C15.5548 21.3361 15.9943 21.3323 16.4217 21.4143C16.8492 21.4964 17.2559 21.6626 17.6179 21.9033L21.0975 24.2199C21.1308 24.2421 21.154 24.2765 21.1618 24.3156C21.1696 24.3548 21.1615 24.3954 21.1393 24.4286C21.117 24.4618 21.0825 24.4848 21.0432 24.4926C21.004 24.5004 20.9631 24.4923 20.9299 24.4701L17.451 22.1543C17.1226 21.9349 16.7535 21.7832 16.3654 21.708C15.9773 21.6328 15.5781 21.6357 15.1911 21.7165C14.857 21.7883 14.5408 21.9268 14.262 22.1238C13.9831 22.3209 13.7473 22.5723 13.5688 22.8628C12.8784 23.9879 13.1456 25.4968 14.2042 26.4519C14.3105 26.547 14.4228 26.6352 14.5403 26.716L14.9063 26.9662C14.9328 26.9846 14.9526 27.0108 14.9632 27.0412C14.9737 27.0715 14.9742 27.1044 14.9646 27.1351C14.9551 27.1657 14.9359 27.1926 14.91 27.2117C14.8842 27.2308 14.8529 27.2412 14.8206 27.2413L14.8228 27.2464Z" fill="#002127"/>
<path d="M15.734 27.8696C15.7035 27.8695 15.6737 27.8603 15.6483 27.8434L14.7399 27.2217C14.7088 27.1983 14.6879 27.1638 14.6816 27.1255C14.6754 27.0871 14.6843 27.0478 14.7063 27.0157C14.7283 26.9837 14.7619 26.9614 14.8001 26.9534C14.8383 26.9454 14.878 26.9524 14.9112 26.9729L15.8197 27.5946C15.8462 27.6129 15.8661 27.6392 15.8765 27.6695C15.8871 27.6999 15.8875 27.7327 15.878 27.7633C15.8685 27.7941 15.8493 27.8208 15.8235 27.8399C15.7975 27.8591 15.7662 27.8695 15.734 27.8696Z" fill="#002127"/>
<path d="M12.1547 32.3495C12.1187 32.3493 12.084 32.3364 12.0566 32.313L11.7045 32.0554C11.608 31.985 11.5152 31.9097 11.4263 31.83L11.3765 31.784L11.3707 31.7789C10.214 30.691 9.96948 29.0063 10.7894 27.7732C11.6533 26.4744 13.4557 26.1191 14.8949 26.9633L14.9103 26.972C14.9835 27.0136 15.0567 27.0632 15.1299 27.118L16.7984 28.2854C16.8312 28.3083 16.8535 28.3433 16.8604 28.3827C16.8673 28.422 16.8583 28.4625 16.8353 28.4952C16.8123 28.5279 16.7772 28.5501 16.7377 28.557C16.6982 28.5639 16.6576 28.5549 16.6248 28.532L14.9564 27.3646C14.8897 27.3179 14.821 27.2734 14.7514 27.2325L14.7433 27.2281C13.4417 26.4628 11.8151 26.7765 11.0391 27.9425C10.3011 29.0515 10.5266 30.5692 11.572 31.5593L11.58 31.5659C11.5946 31.5805 11.61 31.595 11.6254 31.6082C11.7074 31.6811 11.7931 31.7541 11.8809 31.8161L12.2418 32.0795C12.2614 32.0935 12.2773 32.112 12.288 32.1335C12.2996 32.1565 12.3051 32.1821 12.304 32.2079C12.3029 32.2336 12.2952 32.2587 12.2815 32.2806C12.268 32.3026 12.249 32.3207 12.2264 32.3333C12.2039 32.3458 12.1784 32.3524 12.1525 32.3524L12.1547 32.3495Z" fill="#002127"/>
<path d="M8.17784 36.0956C8.14928 36.0955 8.12139 36.0874 8.09731 36.0721C8.07322 36.0569 8.05397 36.0352 8.04174 36.0095C7.55857 35.0056 7.61706 33.8841 8.19833 33.0107C9.04462 31.7375 10.7672 31.3646 12.2043 32.1439C12.2217 32.1535 12.2371 32.1664 12.2495 32.1819C12.262 32.1974 12.2713 32.2152 12.2768 32.2343C12.2823 32.2533 12.2841 32.2733 12.2819 32.293C12.2796 32.3128 12.2736 32.3319 12.264 32.3493C12.2544 32.3667 12.2413 32.3821 12.2258 32.3944C12.2102 32.4068 12.1924 32.4161 12.1733 32.4216C12.1541 32.4271 12.1341 32.4288 12.1143 32.4266C12.0945 32.4244 12.0753 32.4183 12.0579 32.4088C10.7592 31.7047 9.20715 32.0352 8.44798 33.1778C7.926 33.9614 7.87548 34.972 8.31181 35.8775C8.32045 35.8954 8.32535 35.9148 8.3263 35.9347C8.32733 35.9546 8.32425 35.9744 8.31744 35.9931C8.31063 36.0118 8.30017 36.0289 8.28662 36.0435C8.27308 36.0581 8.25675 36.0699 8.2386 36.0781C8.21986 36.0883 8.19914 36.0942 8.17784 36.0956Z" fill="#002127"/>
<path d="M67.481 42.555C67.4576 42.5551 67.4342 42.5496 67.4137 42.5389L62.1639 39.921C62.1463 39.9122 62.1302 39.9 62.1171 39.8851C62.1039 39.8702 62.0944 39.8528 62.0878 39.8341C62.0819 39.8154 62.079 39.7956 62.0805 39.7759C62.0819 39.7562 62.087 39.7369 62.0958 39.7192C62.1046 39.7016 62.1171 39.6858 62.1324 39.6728C62.1471 39.6599 62.1646 39.65 62.1829 39.6437C62.202 39.6375 62.2217 39.635 62.2415 39.6364C62.2613 39.6377 62.281 39.643 62.2986 39.6518L67.5484 42.2697C67.5791 42.2847 67.6033 42.3096 67.6179 42.3404C67.6326 42.3712 67.6362 42.406 67.6289 42.4391C67.6209 42.4723 67.6018 42.5018 67.5755 42.5228C67.5484 42.5439 67.5154 42.5553 67.481 42.555Z" fill="#002127"/>
<path d="M60.9509 74.3754H31.8697C31.3932 74.3754 30.9226 74.271 30.4909 74.0697C30.0592 73.869 29.677 73.5764 29.3709 73.2123C29.065 72.8483 28.8427 72.4214 28.7198 71.9632C28.5969 71.5042 28.5763 71.0241 28.6595 70.5564L32.0124 51.7317C32.0161 51.7115 32.0238 51.6922 32.0352 51.675C32.0466 51.6578 32.0613 51.6432 32.0786 51.6319C32.0959 51.6206 32.1153 51.6129 32.1357 51.6094C32.156 51.6059 32.1769 51.6066 32.1969 51.6113C32.7522 51.7457 33.3142 51.8504 33.8807 51.9251C33.901 51.9276 33.9205 51.9343 33.9381 51.9446C33.9558 51.9549 33.9711 51.9686 33.9832 51.9849C33.9953 52.0014 34.0038 52.02 34.0085 52.0398C34.0132 52.0596 34.0138 52.0801 34.0103 52.1002L31.1047 68.3843C30.8667 69.7203 30.9194 70.4448 31.2862 70.8855C31.653 71.3262 32.3712 71.5247 33.623 71.5378H59.9048C61.8279 71.5378 62.1742 71.5378 62.4751 69.8472C62.5022 69.6904 62.5285 69.5211 62.5556 69.3277L73.5837 7.33532C73.8319 5.9417 73.7807 5.12815 73.4183 4.69694C73.0135 4.21537 72.2089 4.18108 70.9292 4.18108H44.7866C42.919 4.24821 42.4439 4.64148 42.1342 6.39627L41.3963 10.5443C41.3921 10.5683 41.3822 10.5909 41.3673 10.6102C41.3524 10.6295 41.333 10.6449 41.3109 10.6551C41.2887 10.6653 41.2644 10.67 41.2399 10.6687C41.2155 10.6674 41.1918 10.6604 41.1708 10.6479L39.5968 9.72489C39.57 9.70949 39.5487 9.68629 39.5356 9.65834C39.5225 9.6304 39.5183 9.59917 39.5236 9.56874L40.4548 4.34525C40.5878 3.59328 40.9827 2.91216 41.5698 2.4217C42.157 1.93123 42.8989 1.66287 43.665 1.66382H72.7455C73.2221 1.66375 73.6928 1.76779 74.1248 1.96859C74.5567 2.16939 74.9388 2.46212 75.2449 2.82614C75.5509 3.19008 75.7734 3.61656 75.8964 4.07543C76.0194 4.5343 76.0399 5.0144 75.9564 5.48203L64.1611 71.6925C64.0279 72.4448 63.6333 73.1262 63.0461 73.6166C62.459 74.1076 61.7174 74.3761 60.9509 74.3754ZM32.2826 51.9419L28.9575 70.609C28.882 71.0329 28.9007 71.4685 29.0121 71.8851C29.1236 72.301 29.3253 72.6885 29.6028 73.0182C29.8804 73.3488 30.2272 73.6144 30.6188 73.7968C31.0104 73.9792 31.4374 74.0741 31.8697 74.0741H60.9509C61.6464 74.0748 62.3192 73.8311 62.8521 73.386C63.3844 72.9402 63.7423 72.3222 63.8631 71.64L75.6585 5.42949C75.7346 5.00521 75.7156 4.56947 75.6043 4.15306C75.493 3.73666 75.291 3.34965 75.0135 3.01935C74.736 2.68897 74.389 2.42338 73.9974 2.24111C73.605 2.05885 73.1782 1.96436 72.7455 1.96443H43.665C42.9698 1.9637 42.2966 2.20733 41.7639 2.65234C41.2311 3.09742 40.8729 3.7155 40.7521 4.39778L39.8399 9.5184L41.1364 10.2801L41.8363 6.34592C42.1767 4.43864 42.7543 3.95489 44.7814 3.88193H70.9358C72.3004 3.88193 73.1643 3.92352 73.6533 4.50577C74.0786 5.01141 74.1504 5.90084 73.8854 7.39004L73.8729 7.463L62.858 69.3795C62.8316 69.5707 62.8038 69.7444 62.776 69.9034C62.4319 71.8435 61.7957 71.8435 59.9084 71.8435H33.6223C32.2731 71.8289 31.4817 71.5947 31.0556 71.0818C30.6295 70.5689 30.5541 69.7684 30.8096 68.3362L33.6889 52.206C33.216 52.1367 32.7445 52.0491 32.2826 51.9419Z" fill="#002127"/>
<path d="M76.9066 15.8102H76.881C76.8415 15.8033 76.8063 15.781 76.7829 15.7484C76.7602 15.7157 76.7514 15.6752 76.758 15.6358L78.0025 8.50872C78.0047 8.48815 78.0113 8.4683 78.0216 8.45035C78.0318 8.4324 78.0457 8.41679 78.0618 8.40431C78.0787 8.39191 78.0977 8.38301 78.1175 8.37819C78.138 8.37338 78.1585 8.37272 78.179 8.37629C78.1995 8.3798 78.2192 8.38753 78.2361 8.39884C78.2536 8.41022 78.2683 8.42496 78.28 8.44225C78.291 8.45947 78.299 8.47888 78.3027 8.49924C78.3056 8.5196 78.3049 8.54046 78.3005 8.56053L77.056 15.6877C77.0494 15.7222 77.0303 15.7532 77.0032 15.7756C76.9762 15.798 76.9417 15.8102 76.9066 15.8102Z" fill="#002127"/>
<path d="M75.2179 25.4086C75.2091 25.4093 75.2003 25.4093 75.1915 25.4086C75.152 25.4014 75.1168 25.3791 75.0942 25.3465C75.0707 25.3139 75.0619 25.2735 75.0685 25.2342L76.3131 18.1071C76.3219 18.0698 76.3453 18.0372 76.3775 18.0162C76.4097 17.9951 76.4485 17.9871 76.4866 17.9937C76.5239 18.0003 76.5583 18.021 76.5817 18.0518C76.6044 18.0824 76.6154 18.1207 76.611 18.1589L75.3665 25.286C75.3599 25.3204 75.3416 25.3515 75.3145 25.3739C75.2867 25.3963 75.253 25.4085 75.2179 25.4086Z" fill="#002127"/>
<path d="M38.4796 44.8974C38.4485 44.8974 38.4182 44.888 38.3928 44.8704C38.3673 44.8527 38.3479 44.8277 38.3373 44.7987C38.3266 44.7696 38.3253 44.738 38.3332 44.7082C38.3413 44.6783 38.3583 44.6516 38.3821 44.6318L39.3698 43.8029C39.7514 43.4833 40.1328 43.163 40.514 42.842C41.539 41.981 42.3076 41.3163 43.0148 40.6874C43.1656 40.5546 43.3149 40.421 43.4643 40.2853L43.6941 40.078L43.7249 40.0496C43.8362 39.949 43.9467 39.8475 44.0565 39.7454L44.1539 39.6556L44.1862 39.6257L44.3889 39.436C44.5097 39.3237 44.6305 39.2098 44.7498 39.0953L44.7769 39.0697C44.8003 39.0471 44.8237 39.0252 44.8464 39.0018L45.0522 38.8049C45.2049 38.659 45.357 38.5101 45.5082 38.3583L45.5961 38.2707L45.6276 38.2394C45.6416 38.2255 45.6583 38.2144 45.6766 38.2069C45.6949 38.1994 45.7145 38.1955 45.7344 38.1956C45.7542 38.1956 45.7738 38.1995 45.7921 38.2071C45.8104 38.2147 45.827 38.2258 45.841 38.2398C45.855 38.2537 45.866 38.2703 45.8736 38.2886C45.8812 38.3068 45.885 38.3264 45.885 38.3462C45.885 38.3659 45.8811 38.3855 45.8735 38.4037C45.8659 38.422 45.8547 38.4385 45.8406 38.4525L45.7213 38.5721C45.5705 38.7214 45.4187 38.87 45.266 39.0179L45.2593 39.0252L45.0559 39.2207L44.9827 39.2894L44.9563 39.3142C44.8362 39.4302 44.7147 39.5447 44.5902 39.6578C44.5219 39.722 44.4538 39.7855 44.386 39.8483L44.3546 39.8782L44.2556 39.9686C44.1458 40.0707 44.0348 40.1727 43.9225 40.2744L43.8918 40.3028C43.8186 40.3758 43.7381 40.4429 43.6605 40.5115C43.514 40.6465 43.3611 40.7815 43.2103 40.915C42.5009 41.5454 41.7278 42.2116 40.7036 43.074C40.3219 43.3955 39.94 43.7161 39.5579 44.0357L38.5711 44.8645C38.545 44.8852 38.5128 44.8967 38.4796 44.8974Z" fill="#002127"/>
<path d="M21.5314 55.3237C21.5057 55.3229 21.4805 55.3164 21.4582 55.3032L7.42565 47.0883C7.39461 47.0702 7.37104 47.0416 7.35918 47.0078C7.34739 46.9739 7.34813 46.937 7.36123 46.9037C7.63701 46.2058 7.70062 45.4426 7.54447 44.7089C7.38824 43.9753 7.01905 43.3036 6.48273 42.7776C6.45776 42.7532 6.4421 42.7209 6.43837 42.6864C6.43463 42.6518 6.44305 42.617 6.46223 42.5879C7.89711 40.3843 9.761 38.2202 12.1593 35.9722C13.7801 34.4531 15.5123 33.0011 17.1873 31.5944C19.7935 29.4098 22.4883 27.1509 24.8068 24.5993C27.8621 21.2349 30.2883 17.3525 31.9709 13.1359C31.9833 13.1051 32.0055 13.0793 32.0341 13.0625C32.0627 13.0455 32.096 13.0385 32.129 13.0425C32.3021 13.0625 32.4761 13.0725 32.6503 13.0724C33.3378 13.0751 34.0166 12.9182 34.6328 12.6142C35.2491 12.3103 35.7859 11.8677 36.2009 11.3213C36.2234 11.2922 36.2558 11.2722 36.292 11.2651C36.3282 11.258 36.3659 11.2642 36.3979 11.2826L49.6888 19.0365C49.7189 19.054 49.7416 19.0812 49.754 19.1134C49.7657 19.1456 49.7665 19.1811 49.7562 19.2138C49.6091 19.6613 49.5351 20.1293 49.5366 20.6001C49.5366 20.8492 49.5571 21.098 49.5988 21.3436C49.6881 21.8761 49.8748 22.3877 50.1508 22.8525C50.47 23.3909 50.8975 23.8571 51.4078 24.2214C51.4356 24.241 51.4554 24.2692 51.4649 24.3016C51.4744 24.3341 51.4729 24.3687 51.4605 24.4001C51.3953 24.5601 51.328 24.7285 51.2577 24.905C50.7452 26.1863 50.0454 27.9418 48.9663 29.5098C48.9436 29.5427 48.9092 29.5652 48.8696 29.5726C48.8301 29.5799 48.7898 29.5714 48.7562 29.5488C48.7232 29.5263 48.7005 29.4916 48.6932 29.4524C48.6859 29.4132 48.6947 29.3727 48.7174 29.3398C49.7767 27.7988 50.47 26.0622 50.9766 24.7934L51.1362 24.3957C50.634 24.0179 50.2108 23.5453 49.8916 23.005C49.5973 22.5086 49.3982 21.9625 49.3023 21.394C49.2584 21.1317 49.2357 20.8662 49.2357 20.6001C49.235 20.1382 49.3023 19.6788 49.4363 19.2364L36.3619 11.6088C35.9172 12.1625 35.3527 12.609 34.7107 12.915C34.0687 13.221 33.3656 13.3785 32.6539 13.376C32.5075 13.376 32.3567 13.3694 32.2147 13.3555C30.5209 17.5651 28.0905 21.4412 25.0366 24.8036C22.7042 27.3705 20.0014 29.636 17.3879 31.8264C15.7158 33.228 13.9865 34.6771 12.3723 36.1904C10.0296 38.388 8.19947 40.5018 6.78801 42.6499C7.3195 43.2032 7.68598 43.8932 7.84631 44.6424C8.00663 45.3917 7.95444 46.1706 7.69572 46.892L21.5036 54.9749C22.0096 54.3386 22.6839 53.8556 23.4504 53.5813C24.2169 53.3063 25.0452 53.2502 25.8419 53.4194C27.2636 51.2684 29.0953 49.1539 31.4387 46.9577C33.1686 45.3364 35.1371 43.6641 37.0406 42.0472C37.8861 41.3285 38.6856 40.6499 39.4645 39.975C39.4793 39.9606 39.4968 39.9493 39.5161 39.942C39.5354 39.9346 39.5561 39.9312 39.5767 39.932C39.5974 39.9328 39.6176 39.9379 39.6362 39.9468C39.6548 39.9557 39.6714 39.9684 39.6849 39.9839C39.6985 39.9995 39.7087 40.0175 39.7149 40.0372C39.7212 40.0568 39.7234 40.0775 39.7213 40.098C39.7193 40.1185 39.713 40.1384 39.7029 40.1563C39.6929 40.1744 39.6793 40.1901 39.6629 40.2027C38.8825 40.8783 38.0831 41.5576 37.2368 42.2763C35.3334 43.891 33.3707 45.5597 31.6459 47.1773C29.2879 49.3866 27.4539 51.5114 26.0373 53.671C26.0204 53.6973 25.9958 53.7177 25.9668 53.7287C25.9378 53.7403 25.9059 53.7425 25.8756 53.7352C25.1007 53.5506 24.2886 53.5973 23.5399 53.8687C22.7912 54.1402 22.1389 54.6239 21.6639 55.2616C21.6488 55.2821 21.6287 55.2988 21.6056 55.3098C21.5825 55.3207 21.5569 55.3251 21.5314 55.3237Z" fill="#002127"/>
<path d="M50.5847 32.6033C50.5591 32.6029 50.5342 32.5961 50.5115 32.5833C50.4895 32.5705 50.4712 32.5523 50.4581 32.5304L48.9207 30.0336C48.9104 30.0168 48.9031 29.9981 48.9002 29.9786C48.8973 29.9591 48.898 29.9391 48.9024 29.92C48.9068 29.9008 48.9156 29.8827 48.9265 29.8667C48.9383 29.8506 48.9529 29.8371 48.9697 29.8268C48.9866 29.8164 49.0056 29.8095 49.0254 29.8063C49.0444 29.8032 49.0649 29.8039 49.0839 29.8085C49.103 29.8131 49.1213 29.8215 49.1374 29.833C49.1535 29.8446 49.1674 29.8592 49.1777 29.876L50.5913 32.1715C52.4896 29.2895 53.9904 26.1665 55.0534 22.8861C55.4289 21.7245 55.7503 20.5403 56.0051 19.3656L53.2122 17.7261C53.1946 17.7162 53.1792 17.703 53.1675 17.6872C53.1551 17.6714 53.1463 17.6534 53.1412 17.6341C53.136 17.6149 53.1346 17.5948 53.1375 17.575C53.1397 17.5553 53.1463 17.5363 53.1565 17.5191C53.1668 17.5019 53.18 17.487 53.1961 17.4751C53.2122 17.4631 53.2305 17.4544 53.2502 17.4496C53.2693 17.4448 53.2898 17.4438 53.3095 17.4468C53.3293 17.4497 53.3476 17.4567 53.3652 17.467L56.251 19.1626C56.2789 19.1778 56.3016 19.2018 56.3147 19.231C56.3279 19.2601 56.3316 19.2927 56.3243 19.3239C56.0607 20.5439 55.7291 21.7741 55.3389 22.9802C54.2429 26.363 52.6858 29.5793 50.7099 32.5385C50.696 32.5587 50.677 32.5752 50.655 32.5865C50.6338 32.5978 50.6089 32.6036 50.5847 32.6033Z" fill="#002127"/>
<path d="M53.2925 17.7473C53.2669 17.7468 53.2412 17.7395 53.2193 17.7261L41.1742 10.6486C41.1396 10.6284 41.1146 10.5953 41.1045 10.5567C41.0944 10.518 41.1002 10.477 41.1204 10.4425C41.1407 10.4081 41.1739 10.383 41.2127 10.373C41.2514 10.363 41.2926 10.3687 41.3272 10.3889L53.373 17.4664C53.4016 17.4829 53.4235 17.5082 53.436 17.5386C53.4492 17.5688 53.4514 17.6024 53.4433 17.6342C53.4345 17.666 53.4162 17.6941 53.3906 17.7144C53.3642 17.7347 53.3328 17.746 53.2998 17.7466L53.2925 17.7473Z" fill="#002127"/>
<path d="M25.8416 61.7694C25.8145 61.7701 25.788 61.7628 25.7648 61.749L1.16155 47.2978C1.13263 47.2816 1.10979 47.2565 1.09661 47.2262C1.08336 47.1959 1.08043 47.1621 1.08834 47.13C2.08178 43.3307 4.36148 39.6402 8.05777 35.849L8.06436 35.8417C8.55047 35.3441 9.06659 34.8385 9.59808 34.3401C10.3192 33.6645 11.1142 32.9538 12.0279 32.1651C12.0447 32.1497 12.063 32.1337 12.082 32.1184C12.9247 31.3887 13.7944 30.6591 14.6348 29.9579C15.2842 29.4136 15.9526 28.851 16.6114 28.2928C17.8465 27.2399 19.4585 25.8354 20.9732 24.3105C21.4322 23.8472 21.8517 23.4093 22.247 22.9708C23.3033 21.8073 24.286 20.5794 25.1893 19.2942C28.2424 14.9423 30.3591 10.0079 31.4061 4.8013C31.4109 4.77781 31.4212 4.75577 31.4362 4.73702C31.4513 4.71819 31.4706 4.70331 31.4926 4.69346C31.5145 4.68361 31.5386 4.67908 31.5626 4.6804C31.5867 4.68164 31.6101 4.68857 31.6309 4.70061L39.7446 9.46742C39.7792 9.48763 39.8042 9.52069 39.8143 9.55936C39.8244 9.59803 39.8186 9.63911 39.7984 9.67355C39.7781 9.70798 39.7449 9.73294 39.7061 9.74301C39.6673 9.75308 39.6262 9.74738 39.5916 9.72717L31.661 5.06842C30.5912 10.2399 28.4738 15.1394 25.4382 19.4671C24.528 20.7627 23.5375 22.0004 22.4725 23.1729C22.0713 23.6143 21.6518 24.0558 21.1899 24.5221C19.6672 26.0543 18.0493 27.4647 16.8091 28.5219C16.1502 29.0808 15.4818 29.6441 14.8325 30.1884C13.992 30.8925 13.1238 31.6207 12.2804 32.3481L12.2314 32.3905C11.3177 33.1777 10.5264 33.8869 9.80826 34.5597C9.28189 35.0529 8.77155 35.5527 8.29058 36.0452L8.28399 36.0525C4.65724 39.7737 2.40836 43.3847 1.41345 47.0964L25.7376 61.3871C26.19 59.4608 26.9975 57.52 28.1381 55.6127C29.0349 54.1337 30.0585 52.7353 31.1976 51.4326L31.2041 51.4253C31.5459 51.0291 31.9172 50.6183 32.3074 50.2046C32.7642 49.7194 33.259 49.2167 33.7817 48.7118C33.9706 48.5294 34.1631 48.347 34.355 48.1668L34.4194 48.1062L34.4391 48.088C35.7474 46.8659 37.1061 45.7057 38.3785 44.6339C38.4094 44.6098 38.4484 44.5986 38.4874 44.6027C38.5264 44.6067 38.5622 44.6256 38.5876 44.6554C38.6128 44.6853 38.6256 44.7236 38.623 44.7626C38.6205 44.8016 38.6029 44.8381 38.574 44.8644C37.3038 45.9333 35.9494 47.0905 34.6456 48.3076L34.6259 48.3258L34.5636 48.3849C34.3711 48.5651 34.18 48.7497 33.9926 48.9277C33.4743 49.4297 32.9816 49.9288 32.5284 50.4111C32.1382 50.8241 31.7685 51.2341 31.4303 51.6289L31.423 51.637C30.298 52.9244 29.2869 54.3067 28.4009 55.7674C27.2362 57.7126 26.4243 59.6929 25.9894 61.6534C25.9847 61.6768 25.9743 61.6986 25.9591 61.7169C25.9439 61.7359 25.9244 61.7497 25.9023 61.7592C25.8831 61.7672 25.8623 61.7701 25.8416 61.7694Z" fill="#002127"/>
<path d="M48.8345 57.1968C48.8081 57.1968 48.7817 57.1895 48.759 57.1764C48.7356 57.1633 48.7166 57.1443 48.7034 57.1217C48.6902 57.0983 48.6836 57.0728 48.6836 57.0458C48.6829 57.0195 48.6902 56.9933 48.7034 56.9706L59.4197 38.359C59.4284 38.3404 59.4416 38.3239 59.457 38.3104C59.4731 38.297 59.4914 38.2869 59.5112 38.2808C59.5309 38.2747 59.5522 38.2728 59.5727 38.2751C59.5932 38.2775 59.6137 38.284 59.6312 38.2943C59.6495 38.3046 59.6649 38.3185 59.6774 38.3352C59.6898 38.3517 59.6986 38.3708 59.7037 38.3909C59.7081 38.4111 59.7088 38.432 59.7052 38.4524C59.7008 38.4727 59.6935 38.4921 59.6817 38.5093L48.9662 57.1209C48.953 57.1443 48.9333 57.1633 48.9106 57.1764C48.8872 57.1895 48.8608 57.1968 48.8345 57.1968Z" fill="#002127"/>
<path d="M32.3488 38.5991C32.32 38.5989 32.2918 38.5907 32.2676 38.5752C32.2434 38.5598 32.224 38.5377 32.2118 38.5117C32.1997 38.4856 32.1953 38.4567 32.199 38.4283C32.2028 38.3998 32.2147 38.373 32.2331 38.351L34.4294 35.782C34.4748 35.7287 34.518 35.674 34.5575 35.6185C34.8288 35.2525 34.9772 34.8105 34.9814 34.3555C34.9833 34.0638 34.9154 33.7758 34.7832 33.5155C34.6511 33.2553 34.4584 33.0302 34.2215 32.859C33.343 32.2184 31.9908 32.376 31.1467 33.2173C31.0999 33.264 31.0553 33.3128 31.0121 33.3632L29.9058 34.6554C29.6452 34.9584 29.3224 35.2022 28.9592 35.3704C28.596 35.5385 28.2009 35.6271 27.8004 35.6302C27.2921 35.6365 26.7956 35.4783 26.3852 35.1793C26.1557 35.0112 25.9634 34.7975 25.8207 34.5518C25.678 34.306 25.5878 34.0335 25.5558 33.7514C25.5247 33.4254 25.5605 33.0966 25.6613 32.785C25.7619 32.4733 25.9253 32.1855 26.1415 31.9389L28.2096 29.4808C28.2223 29.4656 28.2379 29.4531 28.2555 29.444C28.2731 29.4349 28.2923 29.4293 28.3121 29.4276C28.3319 29.4258 28.3517 29.428 28.3707 29.4339C28.3895 29.4399 28.4071 29.4495 28.4223 29.4622C28.4375 29.4749 28.45 29.4904 28.4592 29.5079C28.4684 29.5254 28.4739 29.5446 28.4756 29.5642C28.4774 29.5839 28.4753 29.6038 28.4693 29.6226C28.4633 29.6414 28.4537 29.659 28.441 29.6741L26.3729 32.133C25.9768 32.6 25.7945 33.1618 25.8604 33.7171C25.8876 33.9583 25.9648 34.1913 26.0868 34.4014C26.209 34.6115 26.3733 34.7941 26.5697 34.9378C26.9282 35.1978 27.3615 35.335 27.8048 35.3288C28.1616 35.326 28.5136 35.247 28.8372 35.0971C29.1607 34.9472 29.4482 34.7299 29.6803 34.4598L30.7866 33.1676C30.8349 33.1115 30.8854 33.0567 30.9373 33.0057C31.881 32.0615 33.4023 31.8908 34.4009 32.616C34.6766 32.815 34.9006 33.0767 35.0544 33.3794C35.2082 33.682 35.2874 34.0169 35.2853 34.3562C35.2811 34.8743 35.113 35.3778 34.8049 35.7951C34.7603 35.8571 34.712 35.9184 34.6585 35.9782L32.4623 38.5466C32.4482 38.5628 32.4308 38.576 32.4112 38.585C32.3917 38.5941 32.3704 38.5989 32.3488 38.5991Z" fill="#002127"/>
<path d="M34.5716 37.8415C34.5402 37.8415 34.5094 37.8318 34.4837 37.8138L25.534 31.4287C25.5178 31.4172 25.5041 31.4027 25.4936 31.3859C25.4831 31.3691 25.476 31.3504 25.4727 31.3309C25.4695 31.3114 25.4701 31.2914 25.4746 31.2721C25.4791 31.2529 25.4873 31.2346 25.4989 31.2186C25.5104 31.2025 25.525 31.1888 25.5418 31.1783C25.5588 31.1679 25.5774 31.1608 25.597 31.1575C25.6166 31.1543 25.6366 31.155 25.656 31.1594C25.6753 31.1639 25.6935 31.172 25.7096 31.1836L34.6602 37.5687C34.6864 37.5872 34.7059 37.6135 34.716 37.6439C34.7261 37.6742 34.7263 37.7071 34.7164 37.7375C34.7065 37.7679 34.6872 37.7945 34.6611 37.8132C34.6351 37.8319 34.6037 37.8418 34.5716 37.8415Z" fill="#002127"/>
<path d="M35.6481 36.5478C35.6165 36.5476 35.5858 36.5377 35.5602 36.5194L26.6097 30.1343C26.5772 30.111 26.5553 30.0758 26.5488 30.0364C26.5424 29.9969 26.552 29.9566 26.5753 29.9242C26.5988 29.8918 26.6341 29.87 26.6736 29.8635C26.7131 29.8571 26.7537 29.8666 26.7862 29.8899L35.7359 36.2742C35.7619 36.2929 35.7812 36.3192 35.7913 36.3495C35.8013 36.3798 35.8014 36.4125 35.7917 36.4428C35.782 36.4733 35.7628 36.4998 35.737 36.5186C35.7112 36.5375 35.68 36.5477 35.6481 36.5478Z" fill="#002127"/>
<path d="M30.8029 42.0996C26.2742 42.0996 22.3912 38.9272 21.9542 34.7077C21.7426 32.6589 22.3729 30.629 23.7295 28.9924C25.2302 27.1822 27.5048 26.0213 29.9705 25.8075C32.8798 25.5551 35.74 26.6306 37.6222 28.686C37.6438 28.7157 37.6537 28.7523 37.6501 28.7888C37.6465 28.8254 37.6295 28.8594 37.6025 28.8844C37.5754 28.9093 37.5402 28.9235 37.5034 28.9243C37.4666 28.9251 37.4306 28.9125 37.4025 28.8888C35.5833 26.9027 32.8168 25.863 30.0005 26.1074C27.6146 26.3146 25.4154 27.4361 23.9659 29.1843C22.6613 30.7581 22.0552 32.7085 22.2587 34.6763C22.706 38.9943 26.9066 42.1734 31.6249 41.7633C33.7363 41.5794 35.6902 40.6937 37.128 39.2672C37.1421 39.2533 37.1587 39.2422 37.1771 39.2347C37.1954 39.2272 37.215 39.2233 37.2348 39.2234C37.2547 39.2234 37.2742 39.2273 37.2925 39.2349C37.3108 39.2425 37.3274 39.2536 37.3414 39.2675C37.3554 39.2815 37.3665 39.2981 37.3741 39.3164C37.3817 39.3346 37.3855 39.3542 37.3855 39.374C37.3854 39.3937 37.3814 39.4133 37.3738 39.4315C37.3662 39.4497 37.3551 39.4663 37.341 39.4803C35.8534 40.9563 33.8329 41.8734 31.6513 42.0631C31.3643 42.0879 31.0818 42.0996 30.8029 42.0996Z" fill="#002127"/>
<path d="M33.2204 11.5649C32.2203 11.5649 31.4062 10.6988 31.4062 9.63424C31.4062 8.5697 32.2203 7.70435 33.2204 7.70435C34.2204 7.70435 35.0345 8.57043 35.0345 9.63424C35.0345 10.6981 34.2204 11.5649 33.2204 11.5649ZM33.2204 8.00569C32.3865 8.00569 31.7086 8.73533 31.7086 9.63424C31.7086 10.5332 32.3865 11.2635 33.2204 11.2635C34.0542 11.2635 34.7322 10.5339 34.7322 9.63424C34.7322 8.7346 34.0535 8.00569 33.2204 8.00569Z" fill="#002127"/>
<path d="M4.9216 47.4985C3.92157 47.4985 3.10742 46.6324 3.10742 45.5678C3.10742 44.5033 3.92157 43.6379 4.9216 43.6379C5.92163 43.6379 6.73563 44.504 6.73563 45.5678C6.73563 46.6316 5.92016 47.4985 4.9216 47.4985ZM4.9216 43.9393C4.08776 43.9393 3.40977 44.6689 3.40977 45.5678C3.40977 46.4668 4.08776 47.1971 4.9216 47.1971C5.75544 47.1971 6.43328 46.4675 6.43328 45.5678C6.43328 44.6682 5.75471 43.9415 4.9216 43.9415V43.9393Z" fill="#002127"/>
<path d="M24.3428 58.64C24.307 58.64 24.2696 58.64 24.236 58.64C23.7306 58.6181 23.2526 58.405 22.8991 58.0446C22.7279 57.8731 22.5946 57.6688 22.5077 57.4426C22.4209 57.2172 22.3825 56.9764 22.3948 56.7349C22.4073 56.4934 22.4703 56.2577 22.5798 56.0417C22.6894 55.8265 22.8431 55.636 23.0309 55.4836C23.4219 55.1654 23.9176 55.0034 24.4219 55.029C24.9261 55.0553 25.4026 55.2669 25.7586 55.6236C25.9293 55.7951 26.0621 56.0001 26.149 56.2256C26.2359 56.4511 26.2747 56.6918 26.263 56.9333C26.2132 57.8928 25.3626 58.64 24.3428 58.64ZM24.3128 55.3252C23.9157 55.3223 23.5305 55.4595 23.2249 55.7119C23.0688 55.8382 22.9411 55.9958 22.8501 56.1738C22.7591 56.3525 22.7067 56.5481 22.6964 56.748C22.6861 56.9479 22.7182 57.1479 22.7904 57.3346C22.8626 57.5222 22.9735 57.6914 23.1158 57.833C23.4165 58.138 23.8225 58.3182 24.2513 58.3364C25.1511 58.3831 25.9182 57.7454 25.9607 56.9151C25.9695 56.7159 25.9366 56.5167 25.8641 56.3307C25.7916 56.1446 25.6812 55.9761 25.5397 55.8345C25.2392 55.5295 24.8336 55.3493 24.405 55.3311L24.3128 55.3252Z" fill="#002127"/>
<path d="M52.5355 23.0007C51.5377 23.0007 50.7266 22.1345 50.7266 21.0707C50.7266 20.0069 51.5377 19.1401 52.5355 19.1401C53.5334 19.1401 54.3438 20.0061 54.3438 21.0707C54.3438 22.1352 53.5326 23.0007 52.5355 23.0007ZM52.5355 19.4415C51.7046 19.4415 51.0289 20.171 51.0289 21.0707C51.0289 21.9703 51.7046 22.6993 52.5355 22.6993C53.3665 22.6993 54.0422 21.9696 54.0422 21.0707C54.0422 20.1718 53.3657 19.4429 52.5355 19.4429V19.4415Z" fill="#002127"/>
<path d="M33.6238 71.8405H33.5967C33.5771 71.8369 33.5585 71.8296 33.5418 71.8194C33.5251 71.8084 33.5107 71.7945 33.4995 71.7785C33.4882 71.7617 33.4802 71.7435 33.476 71.7245C33.4719 71.7048 33.4716 71.6851 33.4751 71.6654L36.9928 52.1483C36.9963 52.1288 37.0036 52.1102 37.0144 52.0936C37.0251 52.077 37.0389 52.0626 37.0552 52.0514C37.0715 52.04 37.0899 52.0321 37.1093 52.0279C37.1286 52.0237 37.1487 52.0233 37.1681 52.0268C37.1877 52.0303 37.2063 52.0376 37.223 52.0483C37.2397 52.0589 37.2541 52.0727 37.2654 52.089C37.2767 52.1052 37.2848 52.1235 37.289 52.1429C37.2932 52.1621 37.2935 52.1821 37.29 52.2015L33.776 71.7187C33.7691 71.7537 33.7501 71.7851 33.7222 71.8069C33.6943 71.8296 33.6595 71.8412 33.6238 71.8405Z" fill="#002127"/>
<path d="M44.3215 12.4779C44.3125 12.4786 44.3035 12.4786 44.2945 12.4779C44.2551 12.4706 44.2201 12.4481 44.1973 12.4153C44.1743 12.3826 44.1653 12.3421 44.1721 12.3027L45.6671 4.00819C45.6758 3.9704 45.6988 3.93749 45.7313 3.91611C45.7638 3.89473 45.8032 3.88663 45.8415 3.89349C45.8798 3.90035 45.9139 3.92158 45.9369 3.95288C45.9599 3.98411 45.97 4.023 45.965 4.06145L44.4701 12.356C44.4634 12.3903 44.4448 12.4212 44.4177 12.4435C44.3906 12.4657 44.3566 12.4778 44.3215 12.4779Z" fill="#002127"/>
<path d="M39.5534 40.2414C39.5226 40.2415 39.4927 40.2322 39.4674 40.2148C39.4422 40.1974 39.4228 40.1728 39.412 40.1441C39.4012 40.1155 39.3994 40.0843 39.4069 40.0546C39.4144 40.0249 39.4307 39.9982 39.4537 39.978C41.0826 38.5399 42.7628 37.0223 44.0066 35.6644C44.035 35.6416 44.0706 35.6299 44.107 35.6312C44.1434 35.6324 44.1781 35.6468 44.2048 35.6716C44.2315 35.6962 44.2482 35.7297 44.2522 35.7658C44.2561 35.8019 44.2469 35.8381 44.2263 35.868C42.9729 37.2361 41.2862 38.7603 39.65 40.2035C39.6235 40.2275 39.5891 40.241 39.5534 40.2414Z" fill="#002127"/>
<path d="M37.2318 39.525C37.1914 39.5247 37.1528 39.5087 37.1241 39.4805C37.096 39.4522 37.0801 39.4139 37.0801 39.374C37.0801 39.3341 37.096 39.2958 37.1241 39.2674C38.5781 37.8235 39.387 35.9534 39.4009 33.9994C39.4033 33.7314 39.3906 33.4635 39.3629 33.1968C39.1914 31.5883 38.5024 30.0781 37.3987 28.892C37.3824 28.8782 37.3692 28.8612 37.36 28.842C37.3509 28.8228 37.3458 28.8019 37.3454 28.7806C37.3449 28.7593 37.349 28.7382 37.3573 28.7187C37.3657 28.699 37.378 28.6815 37.3936 28.667C37.4093 28.6526 37.4279 28.6416 37.4481 28.6348C37.4683 28.628 37.4898 28.6256 37.511 28.6277C37.5322 28.6298 37.5528 28.6364 37.5713 28.6469C37.5898 28.6575 37.6059 28.6719 37.6183 28.6891C38.7658 29.923 39.4818 31.4939 39.6594 33.1669C39.6886 33.4451 39.702 33.7248 39.6996 34.0046C39.685 36.0381 38.8445 37.984 37.3335 39.4834C37.3061 39.5095 37.2698 39.5244 37.2318 39.525Z" fill="#002127"/>
<path d="M40.3737 71.8413H40.3465C40.3072 71.834 40.2723 71.8114 40.2495 71.7785C40.2268 71.7457 40.218 71.7056 40.225 71.6662L43.1102 55.671C43.1137 55.6513 43.121 55.6331 43.1317 55.6163C43.1424 55.5995 43.1564 55.5856 43.1726 55.574C43.1889 55.563 43.2073 55.555 43.2266 55.5506C43.246 55.5462 43.2659 55.5462 43.2855 55.5492C43.305 55.5528 43.3237 55.5601 43.3404 55.571C43.3571 55.582 43.3714 55.5951 43.3828 55.6119C43.3941 55.628 43.4021 55.6462 43.4063 55.6659C43.4105 55.6849 43.4109 55.7046 43.4074 55.7243L40.5252 71.7172C40.5188 71.7523 40.5 71.7844 40.4722 71.807C40.4445 71.8296 40.4096 71.842 40.3737 71.8413Z" fill="#002127"/>
<path d="M43.2572 55.8484C43.2482 55.8491 43.2391 55.8491 43.2301 55.8484C43.2104 55.8454 43.1915 55.8381 43.1746 55.8279C43.1576 55.8177 43.143 55.8039 43.1316 55.7871C43.1202 55.771 43.1123 55.7528 43.1084 55.7331C43.1044 55.7134 43.1045 55.6937 43.1086 55.674L43.3773 54.1797C43.3808 54.16 43.3881 54.1417 43.3989 54.125C43.4096 54.1082 43.4234 54.0943 43.4396 54.0826C43.456 54.0717 43.4743 54.0637 43.4937 54.0593C43.5131 54.0549 43.5331 54.0549 43.5526 54.0586C43.5722 54.0615 43.5908 54.0688 43.6074 54.0797C43.6241 54.0907 43.6386 54.1045 43.6498 54.1206C43.6612 54.1366 43.6692 54.1549 43.6735 54.1746C43.6776 54.1935 43.678 54.2132 43.6745 54.2329L43.4058 55.7272C43.3989 55.7615 43.3803 55.7922 43.3533 55.8141C43.3262 55.8367 43.2922 55.8484 43.2572 55.8484Z" fill="#002127"/>
<path d="M50.4264 16.064C50.4176 16.0648 50.4089 16.0648 50.4001 16.064C50.3605 16.057 50.3254 16.0345 50.3027 16.0017C50.28 15.9688 50.2705 15.9282 50.2778 15.8889L52.4192 4.00819C52.4279 3.9704 52.4506 3.93749 52.4836 3.91611C52.5158 3.89473 52.5553 3.88663 52.5934 3.89349C52.6315 3.90035 52.6659 3.92158 52.6893 3.95288C52.712 3.98411 52.7222 4.023 52.7171 4.06145L50.5772 15.94C50.5721 15.9755 50.5531 16.0079 50.5253 16.0308C50.4974 16.0537 50.4623 16.0655 50.4264 16.064Z" fill="#002127"/>
<path d="M48.0247 71.8413C48.0157 71.8421 48.0067 71.8421 47.9977 71.8413C47.9581 71.834 47.9231 71.8114 47.9002 71.7786C47.8773 71.7458 47.8684 71.7056 47.8754 71.6662L50.3265 58.1175C50.3301 58.0978 50.3375 58.0796 50.3477 58.0628C50.3587 58.046 50.3726 58.0322 50.3887 58.0205C50.4048 58.0096 50.4231 58.0015 50.4429 57.9971C50.4619 57.9928 50.4824 57.9928 50.5014 57.9957C50.5212 57.9993 50.5402 58.0066 50.5564 58.0176C50.5732 58.0278 50.5878 58.0417 50.5988 58.0584C50.6105 58.0745 50.6186 58.0927 50.6222 58.1117C50.6266 58.1314 50.6274 58.1511 50.6237 58.1708L48.1726 71.7195C48.1662 71.7538 48.1477 71.7844 48.1208 71.807C48.0938 71.8289 48.0598 71.8413 48.0247 71.8413Z" fill="#002127"/>
<path d="M54.4791 36.024C54.4704 36.0251 54.4616 36.0251 54.4528 36.024C54.433 36.0206 54.4147 36.0134 54.3979 36.0027C54.381 35.9921 54.3664 35.9783 54.3554 35.9621C54.3437 35.9459 54.3357 35.9276 54.3313 35.9083C54.3276 35.889 54.3269 35.8691 54.3305 35.8496L60.0693 4.00887C60.073 3.98939 60.0803 3.97086 60.0906 3.95422C60.1015 3.93759 60.1155 3.92321 60.1316 3.9119C60.1477 3.90067 60.166 3.89271 60.1857 3.88848C60.2048 3.88425 60.2253 3.88389 60.2443 3.88739C60.2641 3.89089 60.2824 3.89819 60.2992 3.90884C60.3161 3.91956 60.3307 3.93336 60.3417 3.94955C60.3534 3.96582 60.3614 3.98407 60.3651 4.0034C60.3695 4.02274 60.3702 4.04266 60.3666 4.06214L54.6278 35.9029C54.6204 35.9371 54.6021 35.9678 54.575 35.9899C54.548 36.012 54.5143 36.024 54.4791 36.024Z" fill="#002127"/>
<path d="M56.1088 71.8414C56.1 71.8421 56.0905 71.8421 56.0817 71.8414C56.0422 71.8341 56.007 71.8122 55.9843 71.7794C55.9617 71.7465 55.9521 71.7057 55.9595 71.6663L57.5861 62.6144C57.5898 62.5947 57.5971 62.5764 57.6081 62.5596C57.6184 62.5429 57.6323 62.529 57.6484 62.5173C57.6652 62.5064 57.6835 62.4983 57.7026 62.494C57.7223 62.4896 57.7421 62.4896 57.7618 62.4925C57.7809 62.4962 57.7999 62.5035 57.8168 62.5144C57.8329 62.5253 57.8475 62.5392 57.8585 62.5553C57.8702 62.5713 57.8783 62.5896 57.8826 62.6093C57.8863 62.6282 57.887 62.6479 57.8834 62.6676L56.2574 71.7195C56.2508 71.7538 56.2325 71.7845 56.2054 71.8071C56.1783 71.829 56.1439 71.8414 56.1088 71.8414Z" fill="#002127"/>
<path d="M61.8901 39.7649C61.8814 39.7656 61.8718 39.7656 61.8631 39.7649C61.8235 39.7577 61.7884 39.7353 61.7657 39.7025C61.7423 39.6697 61.7335 39.6292 61.7408 39.5898L68.1538 4.00814C68.1575 3.98873 68.1648 3.97013 68.1751 3.95349C68.1861 3.93686 68.2 3.92248 68.2161 3.91125C68.2322 3.89994 68.2505 3.89198 68.2703 3.88775C68.2893 3.88352 68.3098 3.88315 68.3288 3.88666C68.3486 3.89016 68.3669 3.89745 68.3837 3.90811C68.4006 3.91883 68.4152 3.93262 68.4262 3.94889C68.4379 3.96509 68.446 3.98341 68.4496 4.00274C68.454 4.022 68.4547 4.042 68.4511 4.06141L62.0388 39.643C62.0322 39.6773 62.0131 39.7083 61.986 39.7305C61.959 39.7527 61.9253 39.7649 61.8901 39.7649Z" fill="#002127"/>
<path d="M73.7225 7.58543L67.6893 7.57813L41.7992 7.56135C41.7609 7.55872 41.7251 7.54172 41.699 7.5137C41.6728 7.48576 41.6582 7.44891 41.6582 7.41068C41.6582 7.37245 41.6728 7.3356 41.699 7.30765C41.7251 7.27971 41.7609 7.26271 41.7992 7.26001L67.6901 7.27679L70.2304 7.28263H73.7232C73.7635 7.28263 73.8015 7.29846 73.8301 7.3267C73.8579 7.35486 73.874 7.3931 73.874 7.43293C73.874 7.47285 73.8579 7.51108 73.8301 7.53924C73.8015 7.56741 73.7635 7.58324 73.7232 7.58324L73.7225 7.58543Z" fill="#002127"/>
<path d="M72.8388 12.5575L66.794 12.5502L44.4199 12.5356C44.3992 12.537 44.3784 12.5342 44.3588 12.5273C44.3391 12.5204 44.3212 12.5095 44.306 12.4954C44.2908 12.4812 44.2787 12.4641 44.2704 12.4451C44.2621 12.4261 44.2578 12.4056 44.2578 12.3849C44.2578 12.3642 44.2621 12.3437 44.2704 12.3247C44.2787 12.3057 44.2908 12.2886 44.306 12.2745C44.3212 12.2604 44.3391 12.2495 44.3588 12.2426C44.3784 12.2356 44.3992 12.2328 44.4199 12.2342L66.7947 12.2488L72.8395 12.2562C72.8776 12.2588 72.9135 12.2758 72.9398 12.3038C72.9662 12.3318 72.9801 12.3686 72.9801 12.4068C72.9801 12.4451 72.9662 12.4819 72.9398 12.5098C72.9135 12.5378 72.8776 12.5548 72.8395 12.5575H72.8388Z" fill="#002127"/>
<path d="M71.9122 17.7627L65.8557 17.7554L53.2917 17.7474C53.2536 17.7447 53.2177 17.7277 53.1914 17.6997C53.165 17.6718 53.1504 17.6349 53.1504 17.5967C53.1504 17.5585 53.165 17.5216 53.1914 17.4937C53.2177 17.4657 53.2536 17.4487 53.2917 17.446L65.855 17.4541L71.9122 17.4614C71.9503 17.464 71.9862 17.481 72.0125 17.509C72.0389 17.537 72.0535 17.5738 72.0535 17.612C72.0535 17.6503 72.0389 17.6871 72.0125 17.7151C71.9862 17.743 71.9503 17.76 71.9122 17.7627Z" fill="#002127"/>
<path d="M70.9638 23.0978L64.8941 23.0913L55.1969 23.0846C55.1764 23.0861 55.1552 23.0833 55.1355 23.0763C55.1164 23.0695 55.0981 23.0586 55.0827 23.0444C55.0681 23.0303 55.0557 23.0132 55.0476 22.9942C55.0388 22.9752 55.0352 22.9547 55.0352 22.934C55.0352 22.9133 55.0388 22.8928 55.0476 22.8738C55.0557 22.8548 55.0681 22.8377 55.0827 22.8236C55.0981 22.8094 55.1164 22.7986 55.1355 22.7916C55.1552 22.7847 55.1764 22.7819 55.1969 22.7833L70.9638 22.7964C70.9843 22.7951 71.0056 22.7978 71.0246 22.8048C71.0444 22.8117 71.0627 22.8226 71.0773 22.8367C71.0927 22.8508 71.1051 22.8679 71.1132 22.8869C71.1212 22.906 71.1256 22.9264 71.1256 22.9471C71.1256 22.9678 71.1212 22.9883 71.1132 23.0074C71.1051 23.0263 71.0927 23.0434 71.0773 23.0576C71.0627 23.0717 71.0444 23.0826 71.0246 23.0895C71.0056 23.0964 70.9843 23.0992 70.9638 23.0978Z" fill="#002127"/>
<path d="M70.015 28.4343L63.9329 28.4269L53.0153 28.4196C52.9948 28.4211 52.9736 28.4182 52.9545 28.4114C52.9348 28.4044 52.9165 28.3936 52.9011 28.3794C52.8865 28.3653 52.874 28.3482 52.866 28.3292C52.8579 28.3102 52.8535 28.2897 52.8535 28.2689C52.8535 28.2482 52.8579 28.2278 52.866 28.2087C52.874 28.1898 52.8865 28.1726 52.9011 28.1585C52.9165 28.1444 52.9348 28.1335 52.9545 28.1266C52.9736 28.1197 52.9948 28.1169 53.0153 28.1183L63.9336 28.1256L70.015 28.1329C70.0531 28.1356 70.089 28.1526 70.1153 28.1805C70.1417 28.2085 70.1563 28.2453 70.1563 28.2835C70.1563 28.3218 70.1417 28.3586 70.1153 28.3866C70.089 28.4145 70.0531 28.4316 70.015 28.4343Z" fill="#002127"/>
<path d="M69.0066 34.1007L62.912 34.0934L51.6657 34.0861C51.6452 34.0876 51.624 34.0848 51.6042 34.0778C51.5852 34.0709 51.5669 34.06 51.5515 34.0459C51.5369 34.0318 51.5244 34.0147 51.5164 33.9957C51.5076 33.9767 51.5039 33.9562 51.5039 33.9355C51.5039 33.9147 51.5076 33.8942 51.5164 33.8752C51.5244 33.8562 51.5369 33.8392 51.5515 33.825C51.5669 33.8108 51.5852 33.8 51.6042 33.7931C51.624 33.7862 51.6452 33.7833 51.6657 33.7848L62.9127 33.7921L69.0073 33.7994C69.0454 33.802 69.0812 33.819 69.1076 33.847C69.1339 33.875 69.1486 33.9118 69.1486 33.9501C69.1486 33.9883 69.1339 34.0251 69.1076 34.0531C69.0812 34.081 69.0454 34.098 69.0073 34.1007H69.0066Z" fill="#002127"/>
<path d="M67.9663 39.9444L62.2311 39.9378C62.1931 39.9351 62.1572 39.9181 62.1308 39.8902C62.1045 39.8622 62.0898 39.8254 62.0898 39.7871C62.0898 39.7489 62.1045 39.7121 62.1308 39.6841C62.1572 39.6561 62.1931 39.6391 62.2311 39.6365L67.9663 39.643C68.0043 39.6457 68.0402 39.6627 68.0666 39.6907C68.0929 39.7186 68.1076 39.7554 68.1076 39.7936C68.1076 39.8319 68.0929 39.8687 68.0666 39.8967C68.0402 39.9247 68.0043 39.9417 67.9663 39.9444Z" fill="#002127"/>
<path d="M46.2945 55.8498L33.2187 55.8417C33.198 55.8432 33.1772 55.8403 33.1576 55.8337C33.138 55.8264 33.12 55.8155 33.1048 55.8016C33.0897 55.787 33.0775 55.7702 33.0692 55.7513C33.061 55.7323 33.0566 55.7119 33.0566 55.6907C33.0566 55.6703 33.061 55.6499 33.0692 55.6309C33.0775 55.6119 33.0897 55.5944 33.1048 55.5805C33.12 55.5667 33.138 55.5557 33.1576 55.5484C33.1772 55.5419 33.198 55.5389 33.2187 55.5404L46.2945 55.5492C46.3345 55.5492 46.3729 55.5652 46.4011 55.5929C46.4295 55.6214 46.4453 55.6593 46.4453 55.6995C46.4453 55.7396 46.4295 55.7775 46.4011 55.806C46.3729 55.8337 46.3345 55.8498 46.2945 55.8498Z" fill="#002127"/>
<path d="M56.5642 61.9081H56.554L49.8291 61.8606L32.147 61.849C32.1069 61.849 32.0686 61.8329 32.0402 61.8052C32.012 61.7767 31.9961 61.7388 31.9961 61.6987C31.9961 61.6585 32.012 61.6206 32.0402 61.5921C32.0686 61.5644 32.1069 61.5483 32.147 61.5483L49.8225 61.5593L56.5635 61.6067C56.584 61.6053 56.6052 61.6082 56.6243 61.6147C56.644 61.622 56.6623 61.633 56.677 61.6468C56.6924 61.6607 56.7048 61.6782 56.7129 61.6972C56.7209 61.7162 56.7253 61.7366 56.7253 61.757C56.7253 61.7782 56.7209 61.7986 56.7129 61.8176C56.7048 61.8366 56.6924 61.8533 56.677 61.8679C56.6623 61.8818 56.644 61.8927 56.6243 61.9C56.6052 61.9066 56.584 61.9095 56.5635 61.9081H56.5642Z" fill="#002127"/>
<path d="M62.998 67.8801L56.8236 67.8736L41.0917 67.8626L31.0746 67.8568C31.0363 67.8538 31.0005 67.8371 30.9743 67.8093C30.9482 67.7809 30.9336 67.7444 30.9336 67.7065C30.9336 67.6678 30.9482 67.6313 30.9743 67.6028C31.0005 67.5751 31.0363 67.5583 31.0746 67.5554L62.9936 67.5788C63.0317 67.5817 63.0675 67.5985 63.0939 67.6262C63.1202 67.6547 63.1342 67.6911 63.1342 67.7298C63.1342 67.7677 63.1202 67.8042 63.0939 67.8327C63.0675 67.8604 63.0317 67.8772 62.9936 67.8801H62.998Z" fill="#002127"/>
<path d="M46.9117 40.3711C46.8857 40.3713 46.8602 40.3647 46.8377 40.3519C46.8152 40.3391 46.7966 40.3206 46.7836 40.2982L41.5279 31.9175C41.1772 31.3539 40.9816 30.7082 40.9608 30.0453C40.9401 29.3825 41.0949 28.7258 41.4096 28.1415C41.7243 27.5572 42.1879 27.0658 42.7538 26.7168C43.3195 26.3678 43.9676 26.1735 44.6327 26.1533C44.6685 26.1533 44.7059 26.1533 44.7432 26.1533C45.3862 26.151 46.0191 26.3127 46.5818 26.6229C47.1444 26.9331 47.6181 27.3816 47.9579 27.9256L49.3701 30.1751C49.3804 30.1919 49.3877 30.2106 49.3906 30.2301C49.3943 30.2495 49.3935 30.2695 49.3892 30.2888C49.3848 30.3081 49.3767 30.3263 49.365 30.3424C49.3533 30.3585 49.3386 30.3722 49.3218 30.3827C49.305 30.3932 49.2867 30.4003 49.2669 30.4036C49.2471 30.4069 49.2274 30.4062 49.2076 30.4018C49.1886 30.3974 49.1703 30.3892 49.1542 30.3777C49.1381 30.3662 49.1241 30.3517 49.1139 30.3349L47.7016 28.0854C47.389 27.5846 46.9531 27.1718 46.4353 26.8862C45.9175 26.6007 45.335 26.4518 44.7432 26.454H44.6423C44.0307 26.4731 43.435 26.6522 42.915 26.9733C42.395 27.2945 41.969 27.7464 41.6797 28.2836C41.3903 28.8208 41.2479 29.4245 41.2668 30.0339C41.2856 30.6433 41.4651 31.2371 41.7871 31.7555L47.0428 40.1354C47.0572 40.1582 47.0652 40.1845 47.066 40.2114C47.0668 40.2383 47.0602 40.265 47.0471 40.2885C47.034 40.3121 47.0148 40.3317 46.9914 40.3454C46.9682 40.359 46.9417 40.3662 46.9146 40.366L46.9117 40.3711Z" fill="#002127"/>
<path d="M49.114 31.9088C48.9251 31.9097 48.737 31.8801 48.5576 31.8213C47.814 31.5754 47.2781 30.961 46.811 30.3342C45.8932 29.1033 45.1177 27.773 44.499 26.3687C44.4829 26.3321 44.4821 26.2906 44.4966 26.2534C44.5112 26.2162 44.54 26.1863 44.5766 26.1702C44.6133 26.1541 44.655 26.1532 44.6923 26.1678C44.7296 26.1823 44.7597 26.211 44.7758 26.2476C45.3855 27.631 46.1495 28.9416 47.0533 30.1547C47.4925 30.7421 47.9882 31.3157 48.6535 31.536C48.8629 31.6037 49.0847 31.6248 49.3029 31.5977C49.5211 31.5706 49.7312 31.496 49.9171 31.3791C49.934 31.3667 49.9523 31.3578 49.9728 31.3529C49.9925 31.348 50.0138 31.3473 50.0343 31.3507C50.054 31.3541 50.0738 31.3616 50.0914 31.3729C50.1082 31.3841 50.1236 31.3987 50.1346 31.4159C50.1463 31.4331 50.1543 31.4523 50.158 31.4726C50.1616 31.4929 50.1609 31.5137 50.1565 31.5338C50.1514 31.5538 50.1426 31.5727 50.1309 31.5893C50.1184 31.6058 50.1031 31.6198 50.0848 31.6301C49.7956 31.8153 49.4581 31.9121 49.114 31.9088Z" fill="#002127"/>
<path d="M46.8255 40.1354C46.8015 40.1437 46.7771 40.1505 46.7523 40.1559C46.7527 40.1542 46.7527 40.1524 46.7523 40.1507C46.7586 40.1329 46.7599 40.1138 46.7559 40.0953C46.7724 40.0738 46.782 40.0479 46.7834 40.021C46.7848 39.9941 46.7781 39.9673 46.764 39.9443C46.7367 39.9032 46.6957 39.8729 46.6484 39.8589L46.6367 39.8545L46.5503 39.8166L46.5363 39.81C46.5282 39.7561 46.5025 39.7063 46.4631 39.6685C46.4228 39.6115 46.3804 39.5561 46.338 39.5014C46.3709 39.3722 46.2099 39.1635 46.0913 38.9979C46.1069 38.9769 46.1147 38.9511 46.1132 38.9249C46.1052 38.7863 45.9983 38.6776 45.928 38.5645C45.9243 38.5582 45.9201 38.552 45.9156 38.5463C45.9234 38.5285 45.9271 38.5092 45.9266 38.4898C45.9261 38.4704 45.9213 38.4513 45.9126 38.434C45.9039 38.4167 45.8914 38.4014 45.8761 38.3895C45.8608 38.3774 45.843 38.369 45.824 38.3646C45.704 38.3347 45.5883 38.4171 45.6103 38.528C45.5319 38.6054 45.4485 38.674 45.3687 38.7535C45.2509 38.8286 45.141 38.9154 45.0407 39.0125C44.8467 39.2081 44.6783 39.4277 44.4777 39.6174L44.4719 39.6218C44.4521 39.6379 44.4373 39.6594 44.4294 39.6838L44.4082 39.7035L44.3855 39.7195L44.34 39.7451C44.2349 39.8018 44.1337 39.8655 44.037 39.9355C43.995 39.9608 43.9602 39.9965 43.936 40.0391C43.9031 40.0474 43.8734 40.0654 43.8511 40.0909C43.8315 40.1166 43.8225 40.1487 43.8257 40.1808C43.829 40.2129 43.8443 40.2425 43.8686 40.2638C43.6986 40.3271 43.5338 40.4037 43.376 40.4929C43.2779 40.5564 43.2603 40.5776 43.2083 40.6126C43.1739 40.6396 43.1285 40.6593 43.1131 40.7024C43.1027 40.726 43.1007 40.7524 43.1074 40.7774C43.1139 40.8022 43.129 40.8242 43.1497 40.8395C43.2544 40.9183 43.354 40.7841 43.4462 40.7439C43.5774 40.6695 43.7123 40.6018 43.8503 40.5411C44.3628 40.3426 44.7428 40.3332 45.2713 40.3332C45.5642 40.3332 45.857 40.3886 46.1498 40.4061C46.4141 40.4214 46.6989 40.463 46.9485 40.3543C47.1315 40.2638 46.9851 40.015 46.8255 40.1354Z" fill="#002127"/>
<path d="M58.7189 56.0205C58.7093 55.9986 58.694 55.9803 58.6742 55.9672C58.6544 55.9548 58.631 55.9475 58.6076 55.9475C58.6442 55.8745 58.6683 55.7957 58.6808 55.7147C58.7218 55.5214 58.7152 55.3207 58.6625 55.1303C58.6098 54.9399 58.5109 54.7647 58.3762 54.6203C58.1866 54.4167 57.8045 54.1927 57.3652 54.0139C57.3418 54.0081 57.3176 54.0118 57.2972 54.0242C57.2767 54.0358 57.262 54.0555 57.2554 54.0789C57.2496 54.1015 57.2525 54.1256 57.2635 54.1467C57.2752 54.1672 57.2942 54.1825 57.3169 54.1898C57.4977 54.2664 57.6727 54.3561 57.8411 54.4576C57.9106 54.5021 57.9765 54.551 58.0402 54.6035C58.0614 54.6254 58.0841 54.6458 58.1076 54.6648C58.1207 54.6787 58.1259 54.683 58.1273 54.6823C58.1522 54.7159 58.1881 54.7429 58.2137 54.7757L58.2437 54.8158C58.2393 54.8355 58.2393 54.8552 58.2437 54.8749C58.3821 55.1989 58.3689 55.3995 58.262 55.6294C58.1705 55.7986 58.153 55.8359 58.0366 55.9438C57.885 56.0796 57.855 56.1029 57.6559 56.154C57.519 56.1751 57.3791 56.1729 57.243 56.1467C56.9977 56.0788 56.7481 56.027 56.4955 55.9935C56.3235 55.9723 56.1485 55.9884 55.9831 56.0416C55.7825 56.092 55.6075 56.2116 55.4874 56.3794C55.4516 56.4393 55.3945 56.5181 55.4033 56.5888C55.4047 56.6078 55.4113 56.6268 55.4216 56.6428C55.4325 56.6589 55.4472 56.672 55.464 56.6808C55.4472 56.7114 55.442 56.7479 55.4508 56.7822C55.4567 56.8004 55.4662 56.8172 55.4794 56.8318C55.4926 56.8457 55.5087 56.8566 55.527 56.8632C55.5445 56.8705 55.5643 56.8734 55.5833 56.8719C55.6024 56.8705 55.6214 56.8647 55.6382 56.8552L55.6514 56.8442C55.6705 56.8829 55.6983 56.9172 55.732 56.9442C55.7664 56.9719 55.8052 56.9909 55.8476 57.0018C55.9077 57.0653 55.9882 57.1054 56.0753 57.1164C56.0921 57.1543 56.1192 57.1872 56.1536 57.2112C56.1566 57.2244 56.1617 57.2368 56.1675 57.2492C56.2144 57.3615 56.3974 57.4046 56.6068 57.417C56.6222 57.436 56.6434 57.4491 56.6676 57.4549C56.7993 57.4943 56.9384 57.4593 57.0702 57.4338L57.1727 57.4053H57.24C57.2803 57.4039 57.3184 57.3878 57.3484 57.3608C57.568 57.3002 57.7832 57.2375 57.9956 57.1609C58.019 57.1543 58.0402 57.1419 58.0563 57.1237C58.0724 57.1062 58.0834 57.0843 58.0878 57.0602C58.0922 57.0368 58.0893 57.012 58.0805 56.9894C58.0717 56.9675 58.0563 56.9478 58.0366 56.934L58.1098 56.8975L58.1193 56.8931C58.142 56.9004 58.1669 56.9004 58.1903 56.8946C58.213 56.888 58.2342 56.8749 58.2503 56.8574C58.4238 56.699 58.5615 56.5049 58.6544 56.289C58.6771 56.1992 58.7533 56.1102 58.7189 56.0205Z" fill="#002127"/>
<path d="M63.2512 66.1955C63.2432 66.0496 63.23 65.7971 63.025 65.8139C62.9921 65.819 62.9613 65.8321 62.9357 65.8533C62.9386 65.8234 62.932 65.7927 62.9159 65.7672C62.883 65.7154 62.8222 65.6899 62.7761 65.6505C62.73 65.6111 62.6685 65.5717 62.6136 65.5344C62.2636 65.2813 61.9042 65.0419 61.5389 64.8136C61.3383 64.6873 61.1362 64.5633 60.9334 64.4422C60.7797 64.3254 60.6245 64.2116 60.4656 64.1022C60.1999 63.9205 59.9268 63.7505 59.6464 63.5914C59.4751 63.479 59.2906 63.3893 59.0974 63.3229C59.0242 63.3142 58.9363 63.2901 58.8777 63.3419C58.7606 63.22 58.6347 63.1069 58.5015 63.0026C58.0607 62.6465 57.5893 62.3291 57.0937 62.0541C57.0095 62.0074 56.9223 61.9658 56.833 61.93C56.7854 61.9089 56.7342 61.8979 56.6822 61.8965L56.4055 61.7323C56.2195 61.6228 56.0292 61.5207 55.8418 61.4142C55.721 61.3463 55.6039 61.2529 55.4626 61.2354C55.4516 61.2347 55.4399 61.2347 55.4289 61.2354C54.9677 60.926 54.4992 60.6262 54.0226 60.3401L53.9384 60.2905H53.9332C53.8395 60.2278 53.7458 60.1643 53.6514 60.1023C53.3717 59.8754 53.0752 59.6696 52.7648 59.4865C52.5115 59.3361 52.248 59.2034 51.9757 59.0903C51.9229 59.0603 51.8695 59.0319 51.8168 59.0027C51.8131 58.9896 51.808 58.9764 51.8014 58.9648C51.7758 58.9297 51.7421 58.9013 51.7033 58.8809C51.6367 58.8349 51.5694 58.7882 51.5013 58.7444C51.2677 58.589 51.0283 58.4438 50.7897 58.2971C50.551 58.1505 50.2911 58.0002 50.0371 57.8594C50.0305 57.855 50.0232 57.8513 50.0159 57.8477C49.9902 57.8163 49.961 57.7871 49.9353 57.7609C49.3746 57.2895 48.7252 56.9378 48.078 56.6015C48.0467 56.5825 48.0093 56.5752 47.9732 56.5825C47.9371 56.5898 47.9051 56.6102 47.8832 56.6394H47.8745C47.8723 56.6394 47.8701 56.6394 47.8679 56.6394C47.8049 56.6007 47.7419 56.5613 47.679 56.5234L47.545 56.4329C47.5 56.4001 47.4508 56.3731 47.3986 56.3527L47.3826 56.3424L47.1058 56.1447L46.8063 55.9258C46.7331 55.8747 46.6599 55.8025 46.5728 55.7879C46.5568 55.785 46.5405 55.785 46.5245 55.7879L46.4257 55.7259C46.388 55.7003 46.3461 55.6821 46.3019 55.6719C46.2937 55.6712 46.2853 55.6712 46.277 55.6719L46.2412 55.6391C46.2227 55.615 46.1976 55.5975 46.1689 55.5873C46.1403 55.5778 46.1095 55.577 46.0803 55.5843C46.051 55.5924 46.0248 55.6084 46.0048 55.6318C45.9849 55.6544 45.9721 55.6821 45.9681 55.712C45.8012 55.5902 45.6343 55.4698 45.4659 55.3472C44.807 54.8795 44.1306 54.4308 43.4388 54.012C42.9014 53.696 42.3488 53.4057 41.788 53.1365C41.1079 52.8089 40.4299 52.4703 39.7095 52.239C39.4252 52.1372 39.1353 52.0515 38.8413 51.9822C38.8184 51.9852 38.7972 51.9963 38.7818 52.0136C38.7665 52.0309 38.758 52.0532 38.7578 52.0763C38.7583 52.0976 38.7656 52.1181 38.7788 52.1349C38.7921 52.1516 38.8104 52.1635 38.831 52.1689C39.3373 52.3099 39.8357 52.478 40.3238 52.6724C40.7426 52.8534 41.3926 53.17 41.8867 53.4137C42.3406 53.6471 42.7931 53.8865 43.2338 54.1433C43.8978 54.5446 44.5435 54.9773 45.1775 55.4246C46.097 56.09 46.8913 56.6722 47.7581 57.415C48.7486 58.2971 49.7487 59.1661 50.7238 60.0694C51.6513 60.929 52.554 61.8162 53.4428 62.7151C53.9333 63.2018 54.4728 63.6359 55.0533 64.0117C55.2547 64.1423 55.4699 64.2503 55.6815 64.3626C56.0658 64.5669 56.4472 64.7756 56.8323 64.9785C58.0337 65.5943 59.1618 66.3407 60.2489 67.1382C60.2914 67.1681 60.3331 67.1995 60.3756 67.2316L60.4115 67.263C60.626 67.4468 60.8287 67.6446 61.0184 67.854C61.2394 68.0539 61.4415 68.2735 61.6216 68.5106C61.8405 68.7901 62.0374 69.0863 62.2109 69.3957C62.2841 69.5292 62.3573 69.6635 62.4225 69.7999C62.4349 69.8386 62.4584 69.8722 62.4891 69.8984C62.5169 69.9181 62.5506 69.9276 62.585 69.9262C62.6187 69.924 62.6509 69.9108 62.6765 69.8882C62.7022 69.8656 62.719 69.8349 62.7248 69.8014C62.7307 69.7678 62.7248 69.7335 62.7087 69.7036C62.6912 69.6686 62.6736 69.6306 62.6553 69.5971C62.6853 69.5759 62.7058 69.5438 62.7131 69.5081C62.7205 69.4723 62.7146 69.4351 62.6956 69.4037L62.6399 69.3118C62.7322 69.2228 62.6853 69.1316 62.6326 69.0623C62.6692 69.0666 62.7065 69.0571 62.7373 69.036C62.768 69.0156 62.79 68.9842 62.7995 68.9484C62.8164 68.8142 62.8207 68.6792 62.8127 68.5442C62.8127 68.4304 62.8127 68.3166 62.8127 68.2027C62.8332 68.1896 62.8508 68.1714 62.8625 68.1495C62.8742 68.1276 62.8801 68.1035 62.8801 68.0787C62.8866 67.9758 62.8918 67.8722 62.8969 67.7693C62.9101 67.7628 62.9225 67.754 62.9335 67.7438C62.9803 67.6789 63.006 67.6008 63.0067 67.5205C63.014 67.4315 63.0177 67.3418 63.0213 67.252C63.0601 67.2046 63.0821 67.1448 63.0843 67.0835C63.0843 67.0835 63.0843 67.0886 63.0843 67.0908V67.0754C63.0843 67.0492 63.0843 67.0528 63.0843 67.0645L63.0887 67.0353C63.1041 66.9105 63.1253 66.7865 63.1429 66.6625C63.1531 66.6486 63.1604 66.6318 63.1648 66.615C63.1685 66.6034 63.1707 66.5902 63.1707 66.5778C63.3003 66.5268 63.2476 66.3181 63.2512 66.1955Z" fill="#002127"/>
<path d="M21.1778 23.9142C21.0658 23.8412 20.9486 23.7829 20.8366 23.7128C20.5262 23.51 20.2173 23.305 19.9149 23.0904C19.4589 22.7768 19.0245 22.4328 18.6148 22.0609C18.412 21.8595 18.207 21.6596 18.0181 21.4451C17.9127 21.316 17.8065 21.1605 17.6733 20.9657C17.4625 20.6367 17.3805 20.3689 17.2611 19.9661C17.2171 19.6857 17.1977 19.402 17.2033 19.1183C17.1989 18.5878 17.3102 18.234 17.5781 17.7779C17.606 17.7261 17.6513 17.6743 17.6338 17.6116C17.6273 17.589 17.6144 17.5688 17.5966 17.5535C17.5788 17.5382 17.557 17.5283 17.5336 17.5253C17.5103 17.5221 17.4865 17.5258 17.4653 17.5361C17.4442 17.5462 17.4263 17.5623 17.4141 17.5824C17.2299 17.8727 17.0939 18.1908 17.0115 18.5243C16.9903 18.6465 16.9764 18.7698 16.9698 18.8935C16.9404 18.8962 16.9131 18.9098 16.8932 18.9316C16.8733 18.9533 16.8622 18.9816 16.8622 19.011V19.0387C16.8541 19.0701 16.8622 19.1358 16.8542 19.2686C16.837 19.5115 16.8353 19.7552 16.849 19.9982V20.1135C16.8578 20.1865 16.8409 20.2806 16.8856 20.3455C16.8884 20.3491 16.8913 20.3525 16.8944 20.3557C16.8944 20.3711 16.8995 20.3864 16.9024 20.4024C16.8811 20.4243 16.8694 20.4537 16.8695 20.4842C16.8862 20.5544 16.9133 20.6218 16.95 20.6841C16.9551 20.7055 16.9619 20.7265 16.9706 20.7468C16.9759 20.7662 16.9862 20.7838 17.0006 20.7979C17.024 20.8745 17.0489 20.9497 17.0738 21.0248C17.147 21.2087 17.2128 21.4028 17.3314 21.564C17.4056 21.6662 17.486 21.7637 17.5723 21.8559C17.6316 21.9186 17.7026 22.0113 17.8007 21.9894C17.8263 22.0179 17.8512 22.0478 17.8739 22.0755C17.9566 22.1638 18.0415 22.2499 18.1309 22.3309C18.1705 22.3765 18.2208 22.4116 18.2773 22.433C18.3227 22.4724 18.3695 22.5111 18.4171 22.549C18.4284 22.5968 18.4571 22.6386 18.4976 22.6665C18.5706 22.7309 18.6469 22.7915 18.726 22.8482C18.9537 23.0153 19.1859 23.1751 19.4252 23.3254C19.4701 23.3648 19.5256 23.3902 19.5848 23.3983C19.721 23.4888 19.8571 23.5786 19.9947 23.6669C20.0679 23.7114 20.1346 23.7544 20.2048 23.7982C20.2334 23.8183 20.2633 23.8366 20.2942 23.8529L20.3081 23.8609C20.3223 23.8675 20.3369 23.8728 20.352 23.877C20.3667 23.8799 20.3819 23.8799 20.3967 23.877C20.4913 23.9384 20.589 23.9949 20.6895 24.0463C20.718 24.0623 20.7474 24.0776 20.7767 24.0922L20.7833 24.1003C20.8035 24.1154 20.8254 24.1284 20.8483 24.1389C20.8746 24.1613 20.9036 24.1802 20.9347 24.1951C20.9994 24.2319 21.0734 24.2495 21.1478 24.2462C21.1746 24.2389 21.1978 24.222 21.213 24.1988C21.2318 24.1977 21.25 24.1919 21.2659 24.1818C21.2818 24.1717 21.2948 24.1577 21.3037 24.1411C21.3747 24.0222 21.2656 23.958 21.1778 23.9142Z" fill="#002127"/>
<path d="M17.1662 27.7667C17.0637 27.7142 16.9656 27.6551 16.8668 27.5967C16.5322 27.4121 16.1984 27.2246 15.8822 27.013C15.2233 26.5979 14.7108 26.2462 14.1896 25.6865C13.9392 25.3947 13.7811 25.2261 13.6259 24.8839C13.4062 24.468 13.3719 24.0405 13.3983 23.4976C13.4029 23.4077 13.4166 23.3185 13.4392 23.2313C13.4736 23.1204 13.5081 23.0124 13.5505 22.9015C13.6266 22.7465 13.7281 22.6053 13.8506 22.4834C13.8989 22.4338 13.9641 22.3813 13.9421 22.3032C13.9362 22.2831 13.9252 22.2649 13.9101 22.2503C13.8951 22.2357 13.8765 22.2253 13.8561 22.2199C13.8358 22.2145 13.8145 22.2145 13.7942 22.2197C13.7738 22.225 13.7552 22.2354 13.7402 22.2499C13.5971 22.391 13.4726 22.5497 13.3696 22.722C13.2356 22.9909 13.1607 23.2851 13.15 23.5852C13.1432 23.7798 13.1487 23.9748 13.1662 24.1689C13.1505 24.164 13.1338 24.1628 13.1176 24.1655C13.1013 24.1681 13.086 24.1746 13.0726 24.1842C13.0594 24.1938 13.0485 24.2065 13.0409 24.221C13.0334 24.2356 13.0294 24.2517 13.0293 24.2681C13.0359 24.3294 13.0439 24.3119 13.0535 24.3469C13.057 24.3599 13.0628 24.3722 13.0702 24.3834L13.0797 24.406C13.08 24.4104 13.08 24.4148 13.0797 24.4191C13.0815 24.511 13.1009 24.6016 13.1368 24.6862C13.1727 24.7934 13.21 24.8992 13.2554 25.0036C13.3125 25.1896 13.3741 25.3742 13.4473 25.5552V25.5494C13.4524 25.5885 13.4684 25.6255 13.4933 25.6561C13.5183 25.6867 13.5512 25.7099 13.5885 25.723C13.6462 25.8332 13.7095 25.9404 13.7781 26.0441C13.7876 26.0681 13.8027 26.0897 13.8221 26.1068C13.8796 26.1887 13.9424 26.2667 14.0102 26.3403C14.0561 26.3964 14.1131 26.4424 14.1779 26.4753L14.194 26.4906C14.3484 26.6365 14.5513 26.7927 14.7526 26.9444C14.9854 27.1407 15.2255 27.3289 15.4532 27.4851C15.5006 27.5381 15.5525 27.5869 15.6084 27.631C15.8282 27.8098 16.0688 27.9614 16.3251 28.0827C16.418 28.1279 16.511 28.1746 16.6062 28.2169C16.6794 28.2578 16.79 28.2899 16.842 28.1972C16.849 28.1856 16.8537 28.1727 16.8558 28.1593L16.8895 28.1381L16.9378 28.1148C16.951 28.1104 16.9708 28.1024 16.9817 28.0973C17.0087 28.0806 17.0285 28.0546 17.0375 28.0243C17.055 28.0194 17.071 28.0104 17.0842 27.998C17.1113 28.0166 17.1421 28.0293 17.1744 28.0352C17.1979 28.039 17.2219 28.0354 17.2433 28.0251C17.2648 28.0148 17.2826 27.9982 17.2943 27.9776C17.3573 27.8565 17.2592 27.812 17.1662 27.7667Z" fill="#002127"/>
<path d="M12.5925 31.7455H12.5881C12.4356 31.6486 12.2918 31.5387 12.1584 31.4172C11.8794 31.1751 11.6238 30.9076 11.3948 30.6182C11.2315 30.4081 11.1247 30.1622 11.0039 29.9272C10.9482 29.8324 10.8932 29.5668 10.8625 29.3676C10.8246 29.1099 10.8246 28.8482 10.8625 28.5905C10.8625 28.5905 10.8743 28.5278 10.8787 28.5081C10.9077 28.3705 10.9509 28.2363 11.0075 28.1075C11.0995 27.9179 11.2094 27.7374 11.3355 27.5683C11.4819 27.4319 11.2835 27.2392 11.1635 27.399C10.9323 27.6837 10.7623 28.0128 10.6642 28.3658C10.6043 28.6289 10.5797 28.8988 10.591 29.1684L10.5954 29.2063C10.5679 29.2118 10.5436 29.2274 10.5273 29.2501C10.468 29.3442 10.5046 29.469 10.5134 29.5741C10.5388 29.7302 10.5714 29.8846 10.6115 30.0374C10.6781 30.3096 10.7784 30.7327 11.0295 31.0224C11.1041 31.124 11.1874 31.2189 11.2784 31.3062C11.2982 31.3289 11.3172 31.3515 11.3377 31.3734C11.5419 31.5923 11.733 31.8279 11.9695 32.0125L11.9827 32.0228C12.0026 32.0462 12.0289 32.0632 12.0585 32.0716C12.0882 32.0801 12.1196 32.0796 12.1488 32.0702C12.1527 32.0687 12.1565 32.0668 12.1598 32.0643C12.1662 32.0672 12.1728 32.0694 12.1796 32.0709C12.2116 32.0787 12.2454 32.0738 12.2739 32.0572C12.3023 32.0406 12.3231 32.0136 12.3319 31.9819C12.351 31.9818 12.37 31.9775 12.3874 31.9693C12.4046 31.9611 12.4199 31.9492 12.4322 31.9345L12.4688 31.9585C12.542 31.9994 12.6576 32.006 12.6774 31.8637C12.678 31.8375 12.67 31.8118 12.6547 31.7905C12.6394 31.7691 12.6176 31.7534 12.5925 31.7455Z" fill="#002127"/>
<path d="M8.88377 32.6488C8.92915 32.6035 8.97608 32.5422 8.94387 32.4766C8.93618 32.4585 8.9241 32.4425 8.9088 32.4301C8.8935 32.4177 8.87542 32.4092 8.85602 32.4054C8.83669 32.4016 8.81671 32.4025 8.79782 32.4082C8.77886 32.4139 8.76173 32.424 8.74767 32.4379C8.60345 32.5957 8.48419 32.7746 8.39408 32.9683C8.29978 33.129 8.23023 33.303 8.18763 33.4842C8.17299 33.5513 8.16054 33.6192 8.14956 33.687C8.13594 33.677 8.12028 33.6698 8.10373 33.666C8.08719 33.6623 8.06998 33.662 8.05336 33.6652C8.03667 33.6685 8.02086 33.6751 8.00695 33.6848C7.99297 33.6944 7.98118 33.7069 7.97232 33.7213C7.94692 33.7755 7.93923 33.8363 7.95036 33.895C7.94304 33.8125 7.93718 34.0095 7.93572 34.0409C7.93323 34.2619 7.95783 34.4825 8.00893 34.6976C8.01771 34.8384 8.02576 34.98 8.03235 35.1208C8.02569 35.1336 8.02159 35.1476 8.02027 35.162C8.01903 35.1764 8.02071 35.1909 8.0251 35.2047C8.04926 35.2667 8.07415 35.328 8.09831 35.39C8.09831 35.4068 8.10483 35.4236 8.10849 35.4411C8.1123 35.4911 8.12364 35.5403 8.14216 35.587C8.15168 35.6199 8.16274 35.6527 8.16932 35.6863C8.17006 35.6957 8.17006 35.7052 8.16932 35.7147C8.16793 35.7339 8.1716 35.7532 8.17994 35.7705C8.18829 35.788 8.20103 35.8028 8.21691 35.8139C8.23251 35.8258 8.25081 35.8338 8.27013 35.8371C8.28953 35.8404 8.30945 35.839 8.32811 35.8328C8.34686 35.8267 8.36369 35.8161 8.37731 35.802C8.391 35.788 8.40103 35.7707 8.40652 35.7519C8.41062 35.7295 8.41186 35.7068 8.41018 35.6841C8.42065 35.6719 8.42863 35.6577 8.43361 35.6425C8.44701 35.6375 8.45952 35.6306 8.47095 35.622C8.48683 35.6336 8.50564 35.6406 8.52534 35.6422C8.54496 35.6437 8.56465 35.6398 8.58215 35.6308C8.59862 35.6242 8.61341 35.614 8.62549 35.601C8.63757 35.588 8.64664 35.5726 8.65199 35.5557C8.65741 35.5389 8.65894 35.521 8.65667 35.5035C8.65433 35.4859 8.64818 35.4691 8.63859 35.4542C8.63859 35.4477 8.61224 35.4061 8.60784 35.3907C8.55301 35.2749 8.50916 35.1543 8.4768 35.0303C8.39766 34.7949 8.35491 34.5489 8.35008 34.3007C8.32438 33.9296 8.38631 33.5578 8.53097 33.215C8.66129 32.9815 8.74174 32.8013 8.88377 32.6488Z" fill="#002127"/>
</svg>
