<svg width="327" height="333" viewBox="0 0 327 333" fill="none" xmlns="http://www.w3.org/2000/svg">
<g clip-path="url(#clip0_2254_18183)">
<path d="M282.43 152.275L282.074 151.773C282.01 151.82 281.953 151.877 281.91 151.945C281.867 152.012 281.839 152.088 281.822 152.166C281.811 152.246 281.812 152.326 281.832 152.405C281.846 152.482 281.881 152.557 281.925 152.622L289.464 163.33C286.552 167.232 283.395 171.074 280.073 174.735C270.689 185.071 259.953 194.096 248.162 201.569C247.974 201.695 247.782 201.819 247.595 201.932L247.676 202.588C259.834 194.988 270.894 185.752 280.535 175.136C283.958 171.363 287.183 167.427 290.214 163.328L282.43 152.275ZM264.301 174.323C264.4 174.228 264.463 174.102 264.481 173.967C264.499 173.831 264.474 173.694 264.404 173.577C263.137 171.382 262.343 168.95 262.065 166.43C261.797 163.89 262.068 161.32 262.864 158.891C263.665 156.465 264.971 154.235 266.697 152.351C266.793 152.248 266.847 152.115 266.855 151.976C266.867 151.838 266.825 151.699 266.746 151.586L230.819 100.849C230.732 100.728 230.603 100.644 230.459 100.61C230.314 100.576 230.161 100.596 230.029 100.665C227.592 101.994 224.878 102.737 222.104 102.835C219.329 102.933 216.571 102.383 214.046 101.228C213.405 100.939 212.781 100.613 212.178 100.252C212.064 100.181 211.929 100.15 211.796 100.165C211.662 100.18 211.537 100.239 211.441 100.334C198.21 113.09 182.804 123.377 165.951 130.708C153.163 136.266 139.48 140.118 126.249 143.835C117.737 146.224 108.948 148.706 100.44 151.606C87.8652 155.91 77.3937 160.795 68.4349 166.537C68.3167 166.614 68.2287 166.729 68.1864 166.863C68.1436 166.998 68.1488 167.142 68.2008 167.274C69.2917 170.108 69.5269 173.2 68.8767 176.166C68.2262 179.133 66.7195 181.844 64.5428 183.962C64.4382 184.063 64.3732 184.199 64.3596 184.343C64.3465 184.489 64.3857 184.633 64.4698 184.753L102.346 238.434C102.408 238.523 102.494 238.594 102.594 238.639C102.681 238.679 102.776 238.697 102.871 238.693C102.967 238.689 103.06 238.662 103.143 238.615C105.378 237.36 107.879 236.651 110.441 236.546C113.002 236.44 115.552 236.942 117.883 238.01C119.056 238.541 120.164 239.206 121.184 239.993C121.282 240.07 121.401 240.115 121.526 240.121C121.65 240.128 121.774 240.095 121.879 240.029C130.699 234.415 140.993 229.623 153.353 225.395C162.396 222.298 172.409 219.411 182.096 216.617C186.411 215.374 190.471 214.215 194.474 213.004C198.641 211.72 208.606 208.147 218.322 204.234L218.3 204.063C211.092 207.155 201.716 210.126 194.291 212.426C189.767 213.772 185.015 215.133 180.218 216.523L177.597 217.281L173.649 218.424L171.02 219.197L168.399 219.98L165.788 220.768C161.474 222.091 157.201 223.434 153.134 224.826C142.198 228.547 131.29 233.302 121.536 239.514C120.483 238.703 119.34 238.015 118.129 237.465C115.715 236.367 113.077 235.851 110.426 235.957C107.776 236.063 105.187 236.789 102.867 238.075L64.9861 184.392C67.25 182.19 68.8175 179.373 69.4937 176.289C70.1695 173.205 69.9236 169.989 68.7878 167.044C78.6188 160.742 89.6166 155.953 100.658 152.175C122.371 144.742 145.157 140.396 166.202 131.249C183.113 123.875 198.578 113.55 211.874 100.759C212.496 101.133 213.14 101.469 213.802 101.768C216.414 102.952 219.265 103.517 222.132 103.417C224.998 103.318 227.803 102.558 230.328 101.196L250.299 129.434L258.958 141.621L266.26 151.936C264.927 153.389 263.831 155.044 263.023 156.843C262.593 157.792 262.242 158.774 261.972 159.78C260.725 164.547 261.411 169.613 263.885 173.874C259.643 177.912 253.697 184.003 246.288 188.496L245.894 188.547L246.012 189.653C251.821 185.356 257.39 180.741 262.691 175.83C263.264 175.315 263.792 174.805 264.301 174.323ZM219.137 215.924L216.714 216.815L215.629 217.203C215.507 217.253 215.384 217.291 215.26 217.334L215.12 217.382C214.485 217.608 213.86 217.827 213.222 218.046L212.16 218.408L211.993 218.462L211.482 218.634C210.907 218.825 210.331 219.017 209.752 219.201L209.592 219.252L208.403 219.637C207.62 219.902 206.854 220.131 206.081 220.375C202.431 221.517 198.484 222.684 193.282 224.163L187.472 225.807C185.794 226.286 184.121 226.757 182.454 227.221C182.377 227.242 182.305 227.278 182.242 227.327C182.179 227.377 182.126 227.438 182.087 227.508C182.048 227.578 182.023 227.655 182.014 227.734C182.005 227.814 182.011 227.895 182.034 227.972L182.624 227.805C186.227 226.78 189.84 225.776 193.451 224.748C197.721 223.522 201.998 222.281 206.265 220.954C207.036 220.715 207.814 220.472 208.592 220.218L209.781 219.833L209.941 219.782C210.522 219.592 211.103 219.403 211.681 219.207C211.903 219.14 212.13 219.063 212.352 218.984L213.421 218.619C214.057 218.405 214.689 218.184 215.322 217.962L215.84 217.776C216.201 217.648 216.573 217.525 216.926 217.388L219.356 216.493C219.512 216.434 219.664 216.373 219.826 216.316L219.998 216.251L219.917 215.595L219.137 215.924Z" fill="#FFF1DF"/>
<path d="M281.922 152.634C281.878 152.569 281.843 152.494 281.823 152.415C281.809 152.338 281.808 152.257 281.819 152.178C281.836 152.1 281.864 152.024 281.907 151.957C281.95 151.889 282.007 151.831 282.071 151.785L274.693 141.311L258.486 118.288L258.224 117.91L249.94 106.11L245.693 100.075L223.818 68.9822C211.235 86.5321 195.144 101.277 176.565 112.282C171.077 115.535 165.391 118.443 159.54 120.988C157.243 121.988 154.927 122.932 152.593 123.82C145.146 126.674 137.526 129.047 129.854 131.278C122.181 133.509 114.461 135.583 106.805 137.859L106.536 137.935C102.329 139.183 98.1457 140.492 93.999 141.91C91.2781 142.841 88.5678 143.834 85.8703 144.888C68.9728 151.534 52.8266 160.898 41.6158 174.75L107.937 269.019C113.221 262.103 119.583 256.081 126.778 251.183C132.519 247.235 138.594 243.797 144.934 240.908C146.948 239.961 148.987 239.082 151.037 238.232C153.651 237.149 156.286 236.143 158.928 235.19C159.929 234.825 160.928 234.479 161.933 234.134L162.379 233.983C168.856 231.781 175.404 229.833 182.018 227.971C181.995 227.894 181.988 227.813 181.997 227.734C182.006 227.654 182.031 227.577 182.071 227.508C182.11 227.438 182.162 227.376 182.225 227.327C182.288 227.277 182.361 227.242 182.438 227.22C184.113 226.739 185.785 226.268 187.456 225.806L193.265 224.162C198.468 222.683 202.424 221.495 206.065 220.375C206.847 220.11 207.609 219.891 208.387 219.636L209.576 219.252L209.736 219.2C210.315 219.016 210.891 218.824 211.466 218.633L211.977 218.462L212.144 218.407L213.206 218.046C213.844 217.826 214.469 217.608 215.104 217.381L215.244 217.333C215.369 217.29 215.491 217.253 215.613 217.202L216.698 216.814L219.121 215.923L219.879 215.616L221.455 214.979L226.493 212.961C229.316 211.759 232.068 210.397 234.741 208.885C238.241 207.007 241.725 205.097 245.231 203.247C246.036 202.837 246.802 202.403 247.561 201.929C247.751 201.811 247.943 201.687 248.128 201.567C259.934 194.09 270.679 185.057 280.073 174.711C283.396 171.05 286.563 167.213 289.465 163.306L281.922 152.634ZM224.879 82.9324C228.256 84.4607 229.665 88.6407 228.025 92.2645C226.385 95.8883 222.312 97.5937 218.935 96.0654C215.559 94.5372 214.155 90.3595 215.798 86.7305C217.44 83.1016 221.507 81.3938 224.884 82.9221L224.879 82.9324ZM54.8665 181.552C51.4846 180.022 50.081 175.844 51.7212 172.22C53.3613 168.596 57.4286 166.889 60.8104 168.419C64.1923 169.95 65.5907 174.125 63.9483 177.754C62.3059 181.383 58.2381 183.078 54.8665 181.552ZM116.797 252.152C115.093 255.45 110.85 256.645 107.312 254.815C103.775 252.985 102.294 248.828 103.99 245.545C105.686 242.262 109.93 241.055 113.467 242.886C117.004 244.716 118.498 248.86 116.797 252.152ZM264.303 174.324C263.794 174.806 263.24 175.304 262.713 175.853C257.416 180.757 251.85 185.365 246.044 189.656C244.269 190.952 242.587 192.11 241.124 193.002C241.067 193.059 241.003 193.106 240.932 193.139C238.632 194.116 234.178 197.39 228.288 200.019C225.188 201.396 221.801 202.818 218.38 204.205C208.664 208.118 198.7 211.69 194.533 212.975C190.539 214.165 186.469 215.345 182.154 216.588C172.468 219.382 162.454 222.269 153.411 225.366C141.051 229.594 130.752 234.384 121.938 240C121.832 240.067 121.708 240.099 121.584 240.092C121.459 240.086 121.34 240.041 121.242 239.964C120.222 239.177 119.114 238.512 117.941 237.98C115.61 236.913 113.06 236.412 110.498 236.516C107.937 236.622 105.437 237.331 103.201 238.586C103.118 238.633 103.025 238.66 102.929 238.664C102.834 238.668 102.739 238.65 102.652 238.61C102.552 238.565 102.467 238.494 102.404 238.405L64.528 184.723C64.4436 184.605 64.4047 184.46 64.4183 184.315C64.4314 184.169 64.4963 184.034 64.601 183.933C66.7772 181.814 68.2844 179.104 68.9342 176.137C69.5846 173.171 69.3498 170.079 68.259 167.245C68.2067 167.114 68.2016 166.969 68.2444 166.835C68.2872 166.701 68.3749 166.585 68.4931 166.508C77.4519 160.766 87.9233 155.881 100.498 151.576C108.99 148.67 117.795 146.195 126.308 143.805C139.538 140.089 153.221 136.237 166.01 130.679C182.862 123.348 198.268 113.061 211.499 100.305C211.595 100.211 211.72 100.151 211.854 100.136C211.987 100.121 212.122 100.152 212.236 100.223C212.839 100.584 213.463 100.909 214.104 101.199C216.628 102.353 219.388 102.903 222.162 102.806C224.937 102.708 227.65 101.965 230.088 100.636C230.219 100.567 230.372 100.547 230.517 100.581C230.662 100.615 230.79 100.7 230.878 100.82L266.805 151.557C266.884 151.67 266.926 151.81 266.913 151.947C266.906 152.087 266.852 152.22 266.756 152.322C265.03 154.206 263.724 156.436 262.923 158.862C262.127 161.291 261.85 163.859 262.124 166.401C262.396 168.919 263.195 171.354 264.463 173.548C264.535 173.676 264.555 173.823 264.527 173.966C264.494 174.107 264.418 174.235 264.303 174.324ZM270.868 170.409C267.502 168.885 266.103 164.71 267.746 161.081C269.388 157.452 273.446 155.752 276.812 157.276C280.179 158.799 281.579 162.969 279.937 166.598C278.294 170.227 274.235 171.932 270.868 170.409Z" fill="#FFF1DF"/>
<path d="M276.814 157.276C280.18 158.799 281.581 162.97 279.939 166.598C278.296 170.227 274.236 171.932 270.87 170.409C267.503 168.885 266.115 164.714 267.758 161.085C269.4 157.457 273.447 155.752 276.814 157.276Z" fill="#EAA28C"/>
<path d="M261.47 166.501C261.225 164.252 261.399 161.979 261.974 159.792C262.243 158.786 262.595 157.804 263.024 156.855C263.832 155.056 264.928 153.401 266.261 151.948L258.964 141.622L250.32 129.417L230.348 101.18C227.824 102.542 225.019 103.302 222.152 103.401C219.286 103.5 216.434 102.935 213.822 101.751C213.16 101.453 212.517 101.116 211.894 100.743C198.599 113.534 183.134 123.859 166.222 131.232C145.177 140.379 122.391 144.726 100.679 152.159C89.637 155.937 78.6391 160.726 68.8081 167.027C69.9445 169.973 70.1898 173.188 69.5141 176.272C68.8384 179.357 67.2707 182.175 65.0065 184.375L102.888 238.059C105.209 236.765 107.802 236.034 110.458 235.924C113.113 235.815 115.758 236.331 118.177 237.429C119.388 237.98 120.531 238.668 121.584 239.479C131.337 233.266 142.239 228.527 153.181 224.79C159.683 222.562 166.678 220.445 173.696 218.388C180.714 216.332 187.753 214.352 194.338 212.39C201.763 210.091 211.14 207.119 218.347 204.028L218.22 202.942C208.454 206.883 198.404 210.509 194.219 211.804C190.231 212.996 186.158 214.169 181.848 215.414C172.147 218.213 162.119 221.106 153.045 224.215C140.76 228.415 130.495 233.17 121.697 238.75C119.05 236.809 115.913 235.644 112.64 235.384C109.367 235.124 106.087 235.781 103.166 237.281L65.8844 184.488C68.0419 182.256 69.5355 179.468 70.1971 176.435C70.8587 173.403 70.662 170.246 69.6299 167.319C78.411 161.75 88.6651 156.989 100.974 152.794C109.436 149.898 118.216 147.425 126.703 145.036C139.979 141.303 153.678 137.427 166.562 131.851C183.408 124.527 198.819 114.27 212.077 101.556C212.568 101.84 213.119 102.114 213.669 102.363C216.282 103.556 219.13 104.145 222.001 104.085C224.872 104.025 227.694 103.318 230.254 102.017L265.593 151.918C263.859 153.916 262.55 156.247 261.76 158.773C260.964 161.297 260.696 163.956 260.979 166.588C261.252 169.117 262.014 171.566 263.232 173.801C262.829 174.184 262.413 174.584 261.983 175C256.886 179.72 251.543 184.165 245.974 188.316L246.007 188.585L246.402 188.534C253.81 184.041 259.756 177.95 263.998 173.912C262.639 171.648 261.776 169.121 261.47 166.501ZM186.435 206.114C186.492 206.266 186.608 206.389 186.756 206.457C186.829 206.492 186.908 206.511 186.988 206.514C187.068 206.516 187.147 206.5 187.221 206.469C195.085 203.616 201.497 197.761 205.05 190.187C205.524 189.161 205.943 188.11 206.301 187.038C208.441 180.567 208.43 173.578 206.272 167.114C206.221 166.961 206.113 166.835 205.97 166.762C205.826 166.689 205.66 166.675 205.507 166.724L205.703 167.303C207.815 173.643 207.824 180.495 205.728 186.841C205.378 187.896 204.97 188.931 204.505 189.941C201.009 197.368 194.713 203.107 186.995 205.902L186.435 206.114Z" fill="#EAA28C"/>
<path d="M205.735 186.846C207.831 180.5 207.822 173.648 205.711 167.308L205.514 166.73C202.08 156.803 193.906 148.254 182.756 144.334C164.378 137.875 144.872 146.437 139.189 163.453C133.507 180.47 143.798 199.502 162.177 205.962C170.007 208.779 178.566 208.833 186.432 206.114L187.002 205.908C194.726 203.119 201.03 197.383 204.532 189.955C204.991 188.942 205.392 187.904 205.735 186.846ZM183.742 188.126C183.49 188.272 183.223 188.411 182.94 188.531L177.573 191.056L168.497 175.361L167.673 175.744C166.289 176.394 164.782 176.738 163.253 176.754C161.725 176.769 160.211 176.456 158.814 175.834C157.056 175.066 155.592 173.752 154.64 172.087C152.308 167.935 154.202 162.791 158.868 160.568L159.671 160.163L165.814 157.209L174.655 172.494C179.411 170.689 184.948 172.409 187.292 176.548C187.929 177.656 188.291 178.902 188.348 180.179C188.404 181.457 188.153 182.73 187.616 183.891C186.797 185.671 185.442 187.151 183.742 188.126Z" fill="#FFC964"/>
<path d="M187.661 183.89C186.829 185.677 185.459 187.157 183.744 188.125L174.715 172.501C179.47 170.696 185.008 172.416 187.357 176.557C187.988 177.667 188.345 178.911 188.398 180.187C188.451 181.463 188.198 182.733 187.661 183.89Z" fill="#FFC964"/>
<path d="M174.698 172.493L183.727 188.117C183.47 188.261 183.208 188.403 182.925 188.522L177.563 191.05L168.484 175.36L173.89 172.815C174.171 172.7 174.432 172.589 174.698 172.493Z" fill="#FFC964"/>
<path d="M224.888 82.9238C228.265 84.4521 229.674 88.6321 228.034 92.2559C226.394 95.8797 222.321 97.5851 218.944 96.0568C215.568 94.5285 214.164 90.3509 215.807 86.7219C217.449 83.093 221.512 81.3955 224.888 82.9238Z" fill="#EAA28C"/>
<path d="M165.859 157.209L174.701 172.494C174.434 172.59 174.173 172.701 173.931 172.827L168.525 175.372L159.727 160.168L165.859 157.209Z" fill="#FFC964"/>
<path d="M168.515 175.365L167.693 175.749C166.308 176.399 164.801 176.743 163.272 176.758C161.744 176.774 160.23 176.46 158.833 175.839C157.073 175.073 155.61 173.759 154.659 172.091C152.327 167.94 154.222 162.796 158.888 160.573L159.69 160.168L168.515 175.365Z" fill="#FFC964"/>
<path d="M113.468 242.885C117.008 244.71 118.492 248.875 116.798 252.152C115.104 255.43 110.854 256.64 107.314 254.815C103.775 252.99 102.295 248.827 103.986 245.543C105.678 242.258 109.936 241.058 113.468 242.885Z" fill="#EAA28C"/>
<path d="M60.8154 168.42C64.187 169.946 65.5957 174.126 63.9532 177.755C62.3108 181.384 58.243 183.079 54.8714 181.553C51.4999 180.027 50.086 175.845 51.7261 172.221C53.3662 168.598 57.4335 166.89 60.8154 168.42Z" fill="#EAA28C"/>
<path d="M290.721 163.707C287.711 167.77 284.439 171.757 280.991 175.559C275.733 181.348 270.049 186.736 263.987 191.676C259.549 195.188 254.935 198.473 250.167 201.523C246.915 203.674 243.534 205.507 240.098 207.352C237.068 208.984 234.083 210.723 231.001 212.251C228.05 213.709 224.944 214.935 221.923 216.15L219.571 217.092L217.156 217.981L217.113 217.993L216.042 218.375L215.666 218.508L215.524 218.562C214.892 218.783 214.251 219.008 213.616 219.221L212.547 219.586L212.38 219.641L211.869 219.812C211.293 220.003 210.709 220.198 210.131 220.382L209.969 220.438C209.57 220.567 209.171 220.696 208.772 220.825C207.989 221.091 207.221 221.325 206.437 221.565C202.78 222.709 198.826 223.879 193.618 225.356L187.801 227.003C186.123 227.482 184.448 227.962 182.777 228.445C182.638 228.481 182.49 228.469 182.359 228.41C182.278 228.374 182.206 228.319 182.148 228.253C182.09 228.186 182.046 228.107 182.021 228.022C181.999 227.945 181.992 227.864 182 227.785C182.01 227.705 182.034 227.628 182.074 227.558C182.113 227.488 182.166 227.427 182.229 227.378C182.292 227.328 182.364 227.292 182.441 227.271C184.116 226.79 185.789 226.319 187.459 225.857L193.268 224.213C198.471 222.734 202.427 221.546 206.067 220.425C206.85 220.16 207.612 219.941 208.389 219.686L209.579 219.302L209.739 219.25C210.317 219.066 210.893 218.875 211.469 218.683L211.98 218.512L212.147 218.458L213.209 218.096C213.847 217.877 214.472 217.658 215.107 217.432L215.247 217.383C215.371 217.341 215.493 217.303 215.615 217.253L216.701 216.865L219.123 215.973L219.882 215.666L221.458 215.029L226.495 213.011C229.318 211.809 232.076 210.45 234.743 208.935C238.243 207.057 241.727 205.147 245.234 203.297C246.038 202.887 246.804 202.454 247.564 201.98C247.754 201.861 247.946 201.738 248.13 201.617C259.938 194.123 270.684 185.074 280.074 174.711C283.397 171.05 286.564 167.213 289.466 163.306L281.927 152.598C281.882 152.533 281.848 152.458 281.833 152.382C281.813 152.302 281.812 152.222 281.824 152.142C281.84 152.064 281.868 151.988 281.911 151.921C281.954 151.853 282.011 151.796 282.076 151.749C282.21 151.658 282.375 151.622 282.535 151.651C282.696 151.68 282.835 151.768 282.93 151.9L290.707 162.957C290.795 163.063 290.842 163.193 290.842 163.329C290.848 163.466 290.801 163.597 290.721 163.707Z" fill="#002127"/>
<path d="M282.928 151.923L251.235 106.88L251.297 106.908L245.943 99.2821L245.931 99.3078L224.353 68.6402C224.297 68.5591 224.222 68.493 224.135 68.4469C224.048 68.4013 223.951 68.3772 223.853 68.3767C223.756 68.3778 223.659 68.4012 223.572 68.446C223.486 68.4905 223.41 68.5547 223.353 68.6335C210.807 86.0957 194.784 100.773 176.292 111.742C170.835 114.986 165.179 117.885 159.36 120.422C157.162 121.378 154.893 122.301 152.435 123.245C144.316 126.352 136.052 128.836 129.743 130.681C126.407 131.648 122.992 132.611 119.689 133.562C115.428 134.767 111.004 136.004 106.695 137.287L106.418 137.366C101.74 138.754 97.627 140.057 93.8466 141.349C91.063 142.3 88.322 143.308 85.6852 144.332L85.6735 144.357C65.7468 152.196 51.2015 162.018 41.2036 174.394C41.1207 174.497 41.0731 174.624 41.068 174.755C41.063 174.887 41.1009 175.016 41.1763 175.125L107.469 269.375C107.528 269.465 107.613 269.535 107.711 269.578C107.789 269.613 107.873 269.632 107.958 269.634C108.054 269.635 108.149 269.612 108.235 269.57C108.321 269.527 108.396 269.465 108.454 269.388C113.702 262.525 120.014 256.546 127.151 251.678C132.849 247.761 138.877 244.345 145.166 241.469L145.206 241.45C147.113 240.56 149.159 239.666 151.284 238.788C153.759 237.765 156.408 236.741 159.148 235.752C160.139 235.395 161.145 235.045 162.157 234.698L162.481 234.585L162.588 234.553C169.412 232.228 176.308 230.234 182.781 228.383C182.937 228.34 183.07 228.236 183.149 228.095C183.228 227.954 183.249 227.786 183.206 227.63C183.162 227.475 183.058 227.342 182.917 227.263C182.776 227.183 182.609 227.163 182.453 227.206C175.98 229.045 169.053 231.05 162.195 233.396L162.093 233.431L161.749 233.547C160.745 233.892 159.731 234.244 158.737 234.606C155.976 235.604 153.308 236.626 150.821 237.662C148.684 238.553 146.643 239.437 144.723 240.327C144.723 240.327 144.723 240.327 144.711 240.353C138.35 243.266 132.253 246.722 126.487 250.684C119.477 255.471 113.246 261.309 108.014 267.993L42.4508 174.785C52.3078 162.748 66.6144 153.152 86.1609 145.47L86.1866 145.481C88.7781 144.462 91.4893 143.466 94.2505 142.523C98.0108 141.234 102.109 139.936 106.78 138.551L107.029 138.478C111.327 137.191 115.756 135.956 120.023 134.753C123.322 133.825 126.734 132.868 130.087 131.877C136.411 130.039 144.717 127.531 152.876 124.405C155.349 123.455 157.633 122.526 159.846 121.564C165.707 119.004 171.403 116.083 176.902 112.817C195.295 101.901 211.265 87.3452 223.837 70.0414L245.217 100.434L249.465 106.468L281.925 152.633C281.984 152.723 282.069 152.794 282.173 152.838C282.292 152.89 282.429 152.903 282.555 152.871C282.686 152.842 282.799 152.769 282.882 152.668C282.971 152.568 283.016 152.44 283.025 152.31C283.03 152.177 282.995 152.048 282.921 151.938L282.928 151.923Z" fill="#002127"/>
<path d="M170.339 194.921C170.233 194.873 170.143 194.795 170.08 194.697C170.016 194.598 169.982 194.485 169.981 194.368C169.98 194.251 170.012 194.136 170.074 194.037C170.135 193.938 170.224 193.859 170.329 193.808L182.694 187.984C182.952 187.866 183.196 187.735 183.439 187.597C185.042 186.692 186.32 185.305 187.09 183.632C187.585 182.559 187.816 181.384 187.764 180.203C187.712 179.023 187.379 177.872 186.793 176.846C184.62 173.014 179.377 171.341 174.888 173.05C174.642 173.143 174.396 173.248 174.141 173.331L167.917 176.261C166.452 176.945 164.857 177.307 163.24 177.323C161.623 177.339 160.022 177.008 158.543 176.354C156.664 175.529 155.102 174.118 154.091 172.332C153.527 171.33 153.178 170.222 153.064 169.077C152.95 167.933 153.073 166.778 153.427 165.684C153.856 164.431 154.535 163.279 155.423 162.296C156.312 161.314 157.391 160.523 158.595 159.972L170.302 154.34C170.375 154.305 170.454 154.285 170.534 154.28C170.615 154.276 170.695 154.287 170.771 154.314C170.847 154.341 170.917 154.383 170.976 154.437C171.036 154.491 171.085 154.556 171.119 154.629C171.154 154.701 171.174 154.779 171.179 154.859C171.184 154.939 171.172 155.019 171.145 155.095C171.119 155.17 171.077 155.24 171.024 155.299C170.97 155.359 170.905 155.407 170.832 155.441L159.12 161.07C158.061 161.545 157.113 162.234 156.333 163.093C155.553 163.951 154.959 164.962 154.588 166.061C154.285 166.996 154.179 167.983 154.277 168.961C154.375 169.939 154.674 170.886 155.156 171.743C156.04 173.3 157.403 174.53 159.043 175.249C160.36 175.831 161.787 176.124 163.227 176.109C164.667 176.095 166.087 175.772 167.392 175.163L173.617 172.233C173.89 172.109 174.168 171.987 174.444 171.883C179.488 169.973 185.371 171.874 187.829 176.213C188.511 177.406 188.898 178.744 188.959 180.117C189.019 181.49 188.751 182.857 188.177 184.105C187.296 186.009 185.838 187.588 184.011 188.617C183.742 188.774 183.459 188.919 183.192 189.058L170.828 194.882C170.754 194.923 170.672 194.947 170.588 194.954C170.504 194.961 170.419 194.95 170.339 194.921Z" fill="#002127"/>
<path d="M179.777 195.825C179.661 195.772 179.565 195.685 179.5 195.575L157.27 157.125C157.23 157.056 157.204 156.98 157.193 156.9C157.183 156.821 157.188 156.739 157.209 156.662C157.23 156.585 157.265 156.512 157.314 156.448C157.363 156.385 157.423 156.331 157.493 156.291C157.563 156.251 157.639 156.225 157.718 156.215C157.798 156.204 157.879 156.209 157.956 156.23C158.034 156.25 158.106 156.286 158.17 156.335C158.233 156.383 158.287 156.445 158.327 156.514L180.557 194.964C180.636 195.104 180.657 195.271 180.616 195.426C180.574 195.583 180.473 195.716 180.334 195.798C180.249 195.846 180.155 195.873 180.058 195.878C179.962 195.882 179.865 195.864 179.777 195.825Z" fill="#002127"/>
<path d="M185.889 192.836C185.774 192.783 185.677 192.696 185.612 192.587L163.383 154.137C163.342 154.068 163.316 153.991 163.306 153.912C163.295 153.832 163.3 153.751 163.321 153.674C163.341 153.596 163.377 153.523 163.426 153.46C163.475 153.396 163.536 153.343 163.606 153.303C163.746 153.223 163.912 153.201 164.068 153.243C164.224 153.285 164.358 153.386 164.44 153.525L186.669 191.975C186.746 192.088 186.782 192.223 186.774 192.359C186.765 192.495 186.71 192.624 186.62 192.725C186.529 192.826 186.407 192.894 186.273 192.919C186.139 192.942 186 192.921 185.88 192.857L185.889 192.836Z" fill="#002127"/>
<path d="M158.796 205.285C142.144 197.748 133.165 179.577 138.603 163.279C139.935 159.339 142.042 155.705 144.802 152.593C147.561 149.48 150.917 146.953 154.669 145.159C163.213 140.975 173.508 140.476 182.94 143.797C194.057 147.708 202.782 156.438 206.268 167.15C206.293 167.227 206.303 167.307 206.297 167.387C206.29 167.467 206.269 167.545 206.232 167.616C206.196 167.688 206.146 167.752 206.084 167.804C206.024 167.856 205.953 167.895 205.876 167.92C205.8 167.945 205.72 167.955 205.64 167.948C205.56 167.943 205.482 167.92 205.41 167.884C205.339 167.848 205.275 167.797 205.223 167.737C205.171 167.675 205.131 167.605 205.106 167.529C201.742 157.175 193.296 148.732 182.519 144.92C173.404 141.717 163.442 142.193 155.192 146.232C151.582 147.955 148.354 150.386 145.7 153.378C143.046 156.371 141.018 159.866 139.739 163.657C134.172 180.336 144.313 199.058 162.34 205.39C170.23 208.229 178.866 208.21 186.743 205.337C186.892 205.297 187.049 205.313 187.186 205.384C187.322 205.453 187.427 205.572 187.481 205.716C187.534 205.859 187.533 206.018 187.476 206.16C187.418 206.303 187.31 206.418 187.172 206.485C179.024 209.453 170.096 209.474 161.935 206.545C160.874 206.172 159.827 205.752 158.796 205.285Z" fill="#002127"/>
<path d="M218.692 96.6094C215.017 94.9462 213.458 90.3883 215.235 86.4612C217.012 82.5341 221.448 80.6959 225.139 82.3661C228.829 84.0363 230.375 88.5822 228.598 92.5092C226.821 96.4363 222.372 98.275 218.692 96.6094ZM224.636 83.4764C221.552 82.0807 217.861 83.6552 216.361 86.9706C214.86 90.286 216.131 94.1128 219.195 95.4992C222.258 96.8856 225.977 95.3175 227.478 92.0021C228.978 88.6867 227.704 84.8651 224.636 83.4764Z" fill="#002127"/>
<path d="M54.612 182.106C50.9372 180.443 49.3752 175.89 51.1526 171.963C52.9299 168.036 57.3682 166.193 61.0585 167.863C64.7487 169.533 66.293 174.084 64.5156 178.011C62.7382 181.938 58.292 183.772 54.612 182.106ZM60.556 168.973C57.4722 167.577 53.7787 169.157 52.2782 172.472C50.7776 175.788 52.0513 179.609 55.1145 180.996C58.1777 182.382 61.9072 180.819 63.4054 177.509C64.9036 174.198 63.6243 170.362 60.556 168.973Z" fill="#002127"/>
<path d="M107.427 255.546C107.298 255.487 107.165 255.427 107.036 255.369C105.214 254.446 103.811 252.866 103.111 250.948C102.766 250.031 102.618 249.054 102.675 248.076C102.733 247.1 102.994 246.146 103.443 245.276C103.892 244.407 104.519 243.641 105.282 243.028C106.045 242.416 106.928 241.971 107.875 241.721C109.844 241.194 111.938 241.419 113.749 242.353C115.56 243.288 116.958 244.864 117.67 246.774C118.012 247.69 118.159 248.668 118.102 249.644C118.045 250.621 117.784 251.574 117.338 252.445C115.556 255.905 111.179 257.244 107.427 255.546ZM112.856 243.263C111.4 242.594 109.755 242.459 108.21 242.882C107.424 243.086 106.691 243.454 106.057 243.962C105.423 244.468 104.903 245.104 104.531 245.825C104.158 246.547 103.943 247.339 103.897 248.149C103.852 248.959 103.977 249.771 104.266 250.529C104.862 252.155 106.053 253.494 107.6 254.274C110.833 255.941 114.718 254.869 116.258 251.876C116.627 251.155 116.842 250.364 116.888 249.555C116.935 248.747 116.811 247.937 116.526 247.179C115.934 245.55 114.743 244.209 113.195 243.429L112.856 243.263Z" fill="#002127"/>
<path d="M270.622 170.964C266.952 169.303 265.418 164.757 267.196 160.83C268.973 156.903 273.401 155.055 277.071 156.716C280.74 158.377 282.274 162.923 280.497 166.85C278.72 170.777 274.302 172.63 270.622 170.964ZM276.566 157.831C273.513 156.449 269.806 158.017 268.306 161.332C266.805 164.648 268.071 168.472 271.124 169.854C274.177 171.236 277.886 169.663 279.387 166.347C280.887 163.032 279.619 159.213 276.566 157.831Z" fill="#002127"/>
<path d="M257.744 117.536C257.696 117.601 257.667 117.677 257.65 117.756C257.634 117.834 257.628 117.913 257.642 117.992C257.656 118.071 257.69 118.148 257.733 118.215C257.777 118.283 257.832 118.34 257.898 118.386L257.995 118.43C258.123 118.489 258.272 118.502 258.413 118.465C258.549 118.425 258.673 118.341 258.752 118.221" fill="#002127"/>
<path d="M264.404 173.577C263.137 171.382 262.343 168.95 262.065 166.43C261.797 163.89 262.068 161.32 262.864 158.891C263.665 156.465 264.971 154.235 266.697 152.351C266.793 152.248 266.847 152.115 266.855 151.976C266.867 151.838 266.825 151.699 266.746 151.586L230.819 100.849C230.732 100.728 230.603 100.644 230.459 100.61C230.314 100.576 230.161 100.596 230.03 100.665C227.592 101.994 224.878 102.737 222.104 102.835C219.329 102.933 216.571 102.383 214.046 101.228C213.405 100.939 212.781 100.613 212.178 100.252C212.064 100.181 211.929 100.15 211.796 100.165C211.662 100.18 211.537 100.239 211.441 100.334C198.21 113.09 182.804 123.377 165.951 130.708C153.163 136.266 139.48 140.118 126.249 143.835C117.737 146.224 108.948 148.706 100.44 151.606C87.8652 155.91 77.3937 160.795 68.4349 166.537C68.3167 166.614 68.2287 166.729 68.1864 166.863C68.1436 166.998 68.1488 167.142 68.2008 167.274C69.2917 170.108 69.5269 173.2 68.8767 176.166C68.2262 179.133 66.7195 181.844 64.5428 183.962C64.4382 184.063 64.3732 184.199 64.3596 184.343C64.3465 184.489 64.3857 184.633 64.4698 184.753L102.346 238.434C102.408 238.523 102.494 238.594 102.594 238.639C102.681 238.679 102.776 238.697 102.871 238.693C102.967 238.689 103.06 238.662 103.143 238.615C105.378 237.36 107.879 236.651 110.441 236.546C113.002 236.44 115.552 236.942 117.883 238.01C119.056 238.541 120.164 239.206 121.184 239.993C121.282 240.07 121.401 240.115 121.526 240.121C121.65 240.128 121.774 240.095 121.88 240.029C130.699 234.415 140.993 229.623 153.353 225.395C162.396 222.298 172.409 219.411 182.096 216.617C186.411 215.374 190.471 214.215 194.474 213.004C198.641 211.72 208.606 208.147 218.322 204.234C221.74 202.852 225.132 201.433 228.229 200.048C234.119 197.418 238.589 194.152 240.873 193.167C240.944 193.135 241.014 193.09 241.065 193.031C242.53 192.134 244.213 190.975 245.986 189.685C251.795 185.387 257.363 180.773 262.664 175.861C263.216 175.324 263.755 174.819 264.254 174.332C264.362 174.243 264.437 174.119 264.463 173.98C264.493 173.844 264.471 173.701 264.404 173.577ZM240.277 192.105C240.259 192.118 240.246 192.132 240.228 192.145C237.989 193.206 233.973 196.169 228.659 198.551C225.43 199.994 221.837 201.502 218.21 202.963C208.444 206.904 198.393 210.53 194.209 211.825C190.221 213.018 186.148 214.19 181.838 215.435C172.137 218.235 162.108 221.128 153.035 224.236C140.75 228.436 130.485 233.191 121.687 238.771C119.039 236.83 115.903 235.665 112.63 235.405C109.357 235.146 106.077 235.802 103.156 237.302L65.8744 184.509C68.0318 182.277 69.5249 179.489 70.1865 176.456C70.8481 173.424 70.6519 170.267 69.6198 167.34C78.4009 161.771 88.655 157.011 100.963 152.815C109.426 149.92 118.206 147.446 126.693 145.057C139.969 141.324 153.668 137.448 166.552 131.872C183.397 124.548 198.809 114.291 212.067 101.577C212.558 101.861 213.109 102.135 213.659 102.384C216.271 103.577 219.119 104.166 221.991 104.106C224.863 104.046 227.684 103.339 230.244 102.038L265.583 151.939C263.849 153.937 262.54 156.268 261.745 158.792C260.955 161.318 260.686 163.977 260.969 166.609C261.242 169.138 262.004 171.587 263.222 173.822C262.819 174.205 262.403 174.605 261.973 175.022C256.877 179.741 251.533 184.186 245.964 188.337C243.826 189.791 241.905 191.12 240.277 192.105Z" fill="#002127"/>
<path d="M260.865 166.566C260.583 163.934 260.851 161.275 261.642 158.749C262.437 156.225 263.746 153.894 265.48 151.896L230.14 101.995C227.579 103.296 224.758 104.003 221.887 104.063C219.016 104.123 216.167 103.534 213.555 102.341C213.005 102.092 212.46 101.846 211.963 101.534C198.703 114.247 183.29 124.504 166.443 131.826C153.577 137.417 139.87 141.283 126.584 145.012C118.076 147.391 109.317 149.874 100.854 152.769C88.5663 156.974 78.3122 161.734 69.5105 167.294C70.5432 170.222 70.7388 173.378 70.0777 176.411C69.4161 179.443 67.9231 182.232 65.7651 184.463L103.046 237.256C105.968 235.757 109.249 235.1 112.521 235.36C115.794 235.619 118.93 236.785 121.578 238.726C130.402 233.157 140.666 228.402 152.926 224.19C161.999 221.082 172.027 218.189 181.728 215.39C186.038 214.145 190.104 212.987 194.1 211.78C198.284 210.484 208.335 206.858 218.101 202.918C221.726 201.462 225.321 199.949 228.551 198.506C233.875 196.129 237.891 193.165 240.12 192.099C240.138 192.087 240.15 192.072 240.169 192.06C241.797 191.075 243.697 189.736 245.748 188.243C251.317 184.092 256.66 179.647 261.756 174.927C262.183 174.505 262.604 174.107 263.005 173.728C261.834 171.501 261.107 169.069 260.865 166.566ZM187.219 206.473C187.146 206.504 187.066 206.519 186.986 206.517C186.905 206.515 186.827 206.496 186.754 206.461C186.606 206.393 186.49 206.27 186.433 206.117C178.568 208.836 170.009 208.782 162.178 205.965C143.8 199.505 133.513 180.475 139.191 163.457C144.869 146.438 164.389 137.883 182.757 144.338C193.907 148.257 202.084 156.801 205.515 166.733C205.668 166.683 205.835 166.697 205.978 166.77C206.121 166.843 206.23 166.97 206.28 167.123C208.438 173.586 208.449 180.576 206.31 187.047C205.951 188.118 205.533 189.17 205.058 190.196C201.501 197.769 195.086 203.623 187.219 206.473Z" fill="#EAA28C"/>
<path d="M205.047 190.188C201.489 197.764 195.071 203.619 187.201 206.468C187.127 206.499 187.047 206.514 186.967 206.512C186.887 206.51 186.808 206.491 186.736 206.456C186.588 206.388 186.472 206.264 186.415 206.112C186.386 206.037 186.373 205.958 186.375 205.878C186.377 205.799 186.396 205.72 186.428 205.648C186.462 205.575 186.508 205.509 186.566 205.455C186.625 205.401 186.693 205.358 186.768 205.331C194.338 202.596 200.512 196.969 203.937 189.685C204.397 188.698 204.799 187.685 205.143 186.652C207.199 180.429 207.189 173.71 205.112 167.495C205.087 167.419 205.076 167.339 205.082 167.26C205.087 167.18 205.109 167.103 205.145 167.031C205.18 166.96 205.23 166.896 205.29 166.844C205.351 166.792 205.421 166.752 205.497 166.728C205.65 166.678 205.816 166.692 205.959 166.765C206.103 166.838 206.211 166.964 206.262 167.117C208.42 173.581 208.431 180.57 206.291 187.041C205.934 188.112 205.519 189.162 205.047 190.188Z" fill="#002127"/>
<path d="M275.21 141.643C275.126 141.759 275.006 141.845 274.871 141.884C274.73 141.922 274.586 141.912 274.453 141.851L274.355 141.807C274.289 141.762 274.234 141.706 274.19 141.639C274.146 141.571 274.117 141.497 274.103 141.419C274.084 141.338 274.089 141.259 274.106 141.181C274.122 141.103 274.156 141.029 274.199 140.962" fill="#002127"/>
<path d="M258.256 118.832C258.123 118.756 258.024 118.633 257.978 118.488C257.927 118.341 257.936 118.183 258 118.044C258.063 117.905 258.175 117.794 258.319 117.735C258.458 117.674 258.616 117.667 258.761 117.717" fill="#002127"/>
<path d="M282.176 152.829C282.027 152.761 281.914 152.64 281.858 152.489C281.798 152.336 281.805 152.17 281.872 152.022C281.938 151.875 282.059 151.759 282.214 151.704C282.364 151.647 282.529 151.651 282.678 151.718" fill="#002127"/>
</g>
<defs>
<clipPath id="clip0_2254_18183">
<rect width="243.051" height="255.515" fill="white" transform="translate(105.355) rotate(24.3512)"/>
</clipPath>
</defs>
</svg>
