<svg width="61" height="76" viewBox="0 0 61 76" fill="none" xmlns="http://www.w3.org/2000/svg">
<path d="M58.2666 15.6181C58.2517 14.7502 57.959 13.91 57.4315 13.2209C56.9055 12.5318 56.1713 12.0301 55.3378 11.7893L31.3131 4.85354C30.5375 4.62997 29.7129 4.64322 28.9449 4.89163L5.01101 12.6471C4.18609 12.9131 3.46783 13.4367 2.96177 14.1412C2.45587 14.8459 2.18863 15.6943 2.19954 16.5621L2.5121 38.8829C2.56469 42.6651 3.48239 46.3847 5.19441 49.7563C6.90659 53.1278 9.36762 56.0615 12.3886 58.332L28.0485 70.1019C28.9802 70.8023 30.1194 71.1699 31.2842 71.1465C32.4488 71.123 33.5724 70.7098 34.4752 69.9727L49.5478 57.6812C52.4502 55.314 54.7771 52.3178 56.3548 48.9185C57.9309 45.5194 58.7165 41.8059 58.652 38.0582L58.2666 15.6181Z" fill="#FFC964"/>
<path d="M55.3397 11.7893C56.1716 12.0301 56.9059 12.5318 57.4334 13.2209C57.961 13.91 58.2537 14.7502 58.2686 15.6181L58.6606 38.0582C58.7251 41.8059 57.9395 45.5194 56.3618 48.9185C54.7857 52.3178 52.4588 55.314 49.5564 57.6812L34.4849 69.9727C33.582 70.7098 32.4587 71.123 31.2939 71.1465C30.1291 71.1699 28.9902 70.8023 28.0583 70.1019L12.3986 58.332C9.37755 56.0615 6.91636 53.1278 5.20434 49.7563C3.49216 46.3847 2.57446 42.6651 2.52187 38.8829L2.20931 16.5621C2.19839 15.6943 2.46564 14.8459 2.97171 14.1412C3.47761 13.4367 4.19585 12.9131 5.02077 12.6471L28.9546 4.89163C29.7226 4.64322 30.5472 4.62997 31.3229 4.85354L55.3397 11.7893Z" fill="#1F67EC"/>
<path d="M33.0478 71.1423C32.1868 71.4505 31.2627 71.5399 30.3587 71.4023C29.4546 71.2647 28.5989 70.9045 27.8681 70.354L12.2082 58.5842C9.15776 56.2761 6.6721 53.3031 4.93908 49.8904C3.20622 46.4776 2.27149 42.7147 2.206 38.8866L1.89343 16.5724C1.87491 15.6368 2.15904 14.7201 2.70364 13.9596C3.24823 13.199 4.02403 12.6353 4.91493 12.3527L28.8488 4.59725C29.6768 4.32946 30.5659 4.31505 31.4023 4.55585L55.4269 11.4932C56.3266 11.7486 57.1187 12.2878 57.6876 13.0309C58.2566 13.774 58.5708 14.6809 58.5824 15.6169L58.9743 38.0586C59.052 41.8557 58.2615 45.6201 56.6623 49.0645C55.0647 52.5088 52.7014 55.5418 49.7544 57.9317L34.6817 70.2232C34.193 70.6201 33.6405 70.931 33.0478 71.1423ZM4.99597 12.9837C4.26019 13.2439 3.6248 13.7291 3.1796 14.3707C2.7344 15.0124 2.50203 15.778 2.51526 16.5592L2.82783 38.8783C2.89084 42.6122 3.80225 46.2826 5.49294 49.6111C7.18362 52.9397 9.60909 55.839 12.5853 58.089L28.2451 69.8588C29.12 70.5186 30.1908 70.8654 31.2858 70.8436C32.381 70.8215 33.4369 70.4324 34.2848 69.738L49.3574 57.4464C52.2318 55.1165 54.5355 52.1594 56.0934 48.8012C57.6513 45.4428 58.4219 41.7724 58.3459 38.0702L57.9539 15.6285C57.9423 14.8278 57.6744 14.052 57.1882 13.4166C56.7003 12.7812 56.0223 12.3198 55.2533 12.101L31.2286 5.16364C30.5125 4.95812 29.7514 4.9702 29.0423 5.19841L5.10842 12.9456L4.99597 12.9837Z" fill="#002127"/>
<path d="M57.8951 14.547C57.9513 14.2538 57.8108 13.9375 57.6785 13.6792C57.4304 13.2469 56.9872 13.0167 56.5407 12.8064C56.5688 12.6991 56.5721 12.587 56.5522 12.478C56.5307 12.3689 56.4877 12.2657 56.4232 12.1755C56.1503 11.8161 55.6823 11.6985 55.2871 11.513C54.3328 11.1649 53.3521 10.8968 52.3532 10.7115L51.5743 10.5657C51.4023 10.5114 51.2237 10.4851 51.045 10.4879C50.9739 10.4569 50.8995 10.4336 50.8234 10.4183C49.8907 10.2345 48.915 10.1136 48.0401 9.7294C47.8268 9.62888 47.582 9.6158 47.3604 9.69297C46.2887 9.39322 45.2101 9.0769 44.2178 8.76721C43.6898 8.58504 43.161 8.40404 42.6318 8.22402C42.3242 8.15281 42.015 7.93752 41.6958 7.99714L41.0508 7.83153L40.1528 7.58808C39.9654 7.42131 39.7372 7.30704 39.4913 7.25686C39.1605 7.18068 38.8297 7.09125 38.4907 6.99519C37.4108 6.70041 36.3656 6.41556 35.3832 6.12906C34.5447 5.84256 33.6814 5.53784 32.7156 5.19172C32.4487 5.08208 32.1717 4.99845 31.8887 4.94165C31.6777 4.85536 31.4721 4.75567 31.2735 4.64355C31.1948 4.57449 31.0972 4.53027 30.9932 4.51669C30.8893 4.50311 30.7836 4.52083 30.6897 4.56737C30.6125 4.49284 30.5167 4.44034 30.4124 4.41484C30.308 4.3895 30.1989 4.39232 30.096 4.42295C29.9931 4.45359 29.9002 4.5109 29.8268 4.58923C29.7532 4.66756 29.7017 4.76411 29.6776 4.86878C29.4295 4.73795 29.127 4.5094 28.9451 4.83234C28.7996 5.19999 29.2757 5.29604 29.5089 5.44178C30.1621 5.773 30.8319 6.08435 31.51 6.35098C34.209 7.45725 36.8915 8.60657 39.5773 9.74927C41.4345 10.4481 43.2834 11.1636 45.096 11.9767C45.8319 12.3079 46.5847 12.5961 47.3339 12.9157C47.9822 13.2138 48.6123 13.5517 49.2589 13.858C50.1173 14.2477 50.926 14.7381 51.6685 15.3187C52.4756 15.9397 52.7435 16.2792 53.0081 17.0791C53.3819 18.9851 53.6448 20.911 53.7986 22.8473C53.9739 24.8677 54.1509 26.8898 54.27 28.9152C54.2617 29.8317 54.2584 30.7475 54.2567 31.6627C54.2237 32.4212 54.2237 33.1813 54.2567 33.9398V34.228C54.1889 36.0977 54.2667 37.9691 54.2352 39.8388C54.1608 42.1209 53.964 44.6796 53.2909 47.2415C52.7948 49.1344 51.5726 50.9396 50.1917 52.7795C49.1134 54.324 47.9458 55.8032 46.6939 57.2095C45.349 58.6619 43.2207 60.8828 42.1755 61.8466C40.9749 62.8966 39.741 63.9134 38.5817 65.0114C38.5105 65.0859 38.4411 65.1604 38.37 65.2333C37.8573 65.6639 37.3512 66.1011 36.8402 66.5317C35.9868 67.2686 35.1204 67.9907 34.2753 68.7376C33.8867 69.0274 33.4912 69.3073 33.091 69.5822C33.0431 69.6203 32.9936 69.6551 32.9424 69.6882C32.2828 69.9985 31.5957 70.2458 30.8898 70.4268C30.5944 70.4778 30.2963 70.5116 29.9968 70.5278C29.5006 70.5527 28.8242 70.7216 29.2112 71.0247C29.4246 71.2002 30.3689 71.1903 30.6219 71.1422C31.0535 71.1058 31.2834 71.5016 31.7002 71.3724C31.9466 71.2979 32.1963 71.2068 32.4279 71.124C32.704 71.235 33.0034 71.0495 33.2548 70.9104C33.6659 70.6845 34.0577 70.4247 34.4256 70.1337H34.4703C34.7283 70.1138 34.9102 69.9018 35.1318 69.7809C35.7032 69.4103 36.2338 68.98 36.7147 68.4975C37.0339 68.1894 37.3595 67.8847 37.6803 67.5767C37.7663 67.5137 37.8507 67.4492 37.9334 67.3829C39.2895 66.3184 40.5905 65.1851 41.8315 63.9879C42.3393 63.4563 42.5822 63.304 43.2288 62.6448C43.3942 62.4792 43.5513 62.2971 43.7101 62.1199C43.8219 62.1806 43.9456 62.2161 44.0725 62.2235C44.1995 62.231 44.3265 62.2103 44.4444 62.1629C44.5891 62.118 44.7191 62.0352 44.8211 61.9231C44.9232 61.811 44.9936 61.6737 45.025 61.5253C45.1061 61.4657 45.1787 61.3928 45.2515 61.3282L45.3358 61.2488C45.508 61.2665 45.6804 61.2186 45.8187 61.1146C46.0572 60.9932 46.2755 60.8364 46.4657 60.6492C47.458 59.7218 48.3841 58.7348 49.3003 57.7378C49.3813 57.7763 49.4723 57.7923 49.5632 57.7842C49.8609 57.7627 50.028 57.4994 50.2248 57.3073C50.5721 56.9154 50.9161 56.5189 51.2567 56.1182C51.7661 55.5253 52.2639 54.9225 52.7617 54.3197C52.9982 54.0439 53.2148 53.7511 53.4083 53.4436C53.4728 53.3472 53.5324 53.2465 53.5837 53.1422C53.8036 52.8706 54.0252 52.5947 54.2452 52.3141C54.4469 52.0624 54.647 51.8074 54.8389 51.5474C54.9679 51.5639 55.1002 51.5296 55.2044 51.452C55.3102 51.3743 55.3813 51.259 55.4045 51.13C55.5203 50.6431 55.6327 50.1562 55.7452 49.6694C55.9139 49.6197 56.0627 49.5198 56.1735 49.3829C56.3041 49.2179 56.3802 49.0155 56.3885 48.8049C56.4431 48.6991 56.4695 48.5811 56.4662 48.4621C56.4662 48.4455 56.4662 48.4273 56.4662 48.4107C56.5274 48.3632 56.5787 48.3034 56.6167 48.2352C56.6366 48.2054 56.663 48.1623 56.6878 48.1176C57.0963 47.8924 57.1476 47.1968 57.3113 46.806C57.5247 46.122 57.6983 45.4248 57.8471 44.7226C57.9497 44.2423 58.0787 43.7555 58.0373 43.2603C58.0406 43.1985 58.0307 43.1366 58.0109 43.0781V43.0533C58.1134 42.8486 58.1531 42.6184 58.1283 42.3908C58.1928 42.1192 58.2556 41.8476 58.3218 41.5777C58.4326 41.1031 58.5417 40.6271 58.6525 40.1501C58.7005 39.9589 58.7187 39.7608 58.7038 39.5639C58.8642 38.9289 58.8394 38.2609 58.6327 37.6395C58.6195 37.5979 58.6013 37.5574 58.5814 37.5186C58.5814 37.4623 58.5814 37.4772 58.5814 37.5186C58.6575 36.0281 58.5384 34.5194 58.4624 33.0223C58.4491 32.8236 58.4359 32.6249 58.421 32.4245C58.431 32.3089 58.431 32.1925 58.421 32.0767C58.421 32.0707 58.421 32.0646 58.421 32.0585C58.4161 32.0158 58.4061 31.9735 58.3929 31.9326L58.3631 31.5534C58.4557 30.9171 58.4491 30.2704 58.3466 29.6356C58.3234 29.5033 58.2788 29.3758 58.2143 29.258C58.2738 29.2095 58.3218 29.1477 58.3549 29.0775C58.4475 28.8854 58.3946 28.6668 58.3979 28.4614C58.3863 28.112 58.3747 27.7626 58.3598 27.4132C58.4095 27.3744 58.4508 27.3267 58.4822 27.2724C58.555 27.1361 58.6046 26.9882 58.6278 26.8352C58.6923 26.2787 58.5715 25.7223 58.5269 25.1675C58.4392 24.3759 58.3565 23.5854 58.2788 22.796C58.211 22.1617 58.1597 21.5274 58.1051 20.8915C58.0952 20.8456 58.0886 20.799 58.0853 20.7523C58.1945 20.6623 58.2821 20.5477 58.34 20.4177C58.3962 20.2875 58.4227 20.1459 58.4161 20.0038C58.3846 18.4123 58.5269 16.6916 58.2507 15.1299C58.2077 14.8986 58.0803 14.6912 57.8951 14.547Z" fill="#002127"/>
<path d="M28.7991 45.7309C28.2774 45.9169 27.7141 45.9535 27.1728 45.8364C26.6313 45.7195 26.1334 45.4535 25.7346 45.0685L16.2484 35.8623C16.1545 35.7773 16.0786 35.6743 16.0253 35.5594C15.9719 35.4443 15.9423 35.3197 15.938 35.1931C15.9339 35.0664 15.9552 34.9402 16.0008 34.8219C16.0463 34.7035 16.1153 34.5957 16.2034 34.5046C16.2916 34.4137 16.3969 34.3413 16.5137 34.292C16.6303 34.2428 16.7556 34.2175 16.8823 34.2178C17.0088 34.2181 17.134 34.2438 17.2505 34.2936C17.3669 34.3435 17.4722 34.4162 17.5599 34.5076L27.0461 43.7138C27.25 43.9097 27.5227 44.0177 27.8054 44.0145C28.0878 44.0114 28.3581 43.8976 28.5577 43.6973L45.9358 26.1029C46.0202 26.0072 46.1244 25.9299 46.2402 25.8755C46.3559 25.8214 46.4816 25.7913 46.6089 25.7871C46.7379 25.783 46.8653 25.805 46.9844 25.8517C47.1034 25.8984 47.2109 25.969 47.3019 26.0589C47.3929 26.149 47.4656 26.2566 47.5136 26.3752C47.5615 26.4939 47.5847 26.6211 47.583 26.7491C47.5797 26.8773 47.5516 27.0035 47.4987 27.1201C47.4458 27.2369 47.3697 27.3415 47.2754 27.4278L29.8973 45.0221C29.5885 45.3374 29.2134 45.5796 28.7991 45.7309Z" fill="white"/>
<path d="M7.64954 40.8562C7.61613 40.8683 7.5809 40.8744 7.54535 40.8744C7.46216 40.8744 7.38228 40.8417 7.32324 40.783C7.26403 40.7244 7.23047 40.6447 7.22947 40.5614L7.13868 20.7397C7.13719 20.015 7.35963 19.3075 7.77572 18.7146C8.19182 18.1216 8.78091 17.6719 9.46211 17.4275L25.504 11.6775C25.5435 11.6593 25.5864 11.6496 25.6299 11.6487C25.6734 11.6479 25.7165 11.6562 25.7567 11.6731C25.7969 11.6898 25.8331 11.7146 25.863 11.7463C25.8931 11.7777 25.9161 11.8152 25.931 11.8561C25.9457 11.8971 25.952 11.9407 25.9492 11.9841C25.9462 12.0276 25.9345 12.07 25.9143 12.1086C25.8943 12.1472 25.8663 12.1813 25.8324 12.2087C25.7985 12.2358 25.7593 12.2559 25.7173 12.2671L9.67545 18.0154C9.11547 18.2165 8.63123 18.5863 8.28972 19.0742C7.94838 19.562 7.7663 20.144 7.76878 20.7397L7.85957 40.5614C7.85924 40.6264 7.83873 40.6895 7.80119 40.7421C7.76365 40.795 7.71073 40.8347 7.64954 40.8562Z" fill="#002127"/>
<path d="M34.7638 63.4398C34.6939 63.4648 34.6173 63.4642 34.5477 63.4382C34.4781 63.412 34.42 63.3621 34.3838 63.2972C34.3474 63.2323 34.3353 63.1564 34.3496 63.0834C34.3636 63.0105 34.4031 62.9448 34.4612 62.8983C34.5224 62.8502 40.59 57.9615 45.9847 51.4712C46.0095 51.4363 46.0426 51.407 46.079 51.3849C46.117 51.3631 46.1584 51.349 46.1997 51.3437C46.2427 51.3384 46.2857 51.3419 46.3271 51.3541C46.3684 51.3662 46.4081 51.3868 46.4412 51.4144C46.4743 51.4421 46.5007 51.4762 46.5206 51.5148C46.5388 51.5534 46.5503 51.5954 46.5536 51.6385C46.5553 51.6816 46.5487 51.7246 46.5338 51.765C46.5189 51.8056 46.4958 51.8425 46.466 51.8737C41.0299 58.4069 34.9158 63.3322 34.8546 63.3818C34.8275 63.4057 34.7969 63.4252 34.7638 63.4398Z" fill="#002127"/>
</svg>
