<svg width="329" height="171" viewBox="0 0 329 171" fill="none" xmlns="http://www.w3.org/2000/svg">
<path d="M296.361 48.7824L289.047 56.0562L296.278 63.5805L287.11 62.077L284.842 69.7695L279.793 65.5886L270.543 72.1105L272.476 62.9969L266.506 61.9912L270.121 56.1386L262.045 49.4518L273.823 50.5399L272.898 42.7616L279.624 47.2789L288.122 39.25L286.185 49.5342L296.361 48.7824Z" fill="#FFFDB3"/>
<path d="M250.204 154.879L256.758 161.734L248.364 160.175L248.978 168.383L243.039 162.482L236.896 168.318L238.122 160.92L231.841 159.087L235.256 155.016L229.932 147.55L237.373 149.112L238.191 144.293L242.97 147.211L248.433 140.695L247.545 150.2L253.892 149.452L250.204 154.879Z" fill="#FFFDB3"/>
<path d="M107.998 151.252L97.4797 150.284L98.305 157.228L92.2933 153.195L84.707 160.366L86.4335 151.177L77.3418 151.849L83.8783 145.351L77.4178 138.63L85.6083 139.973L87.6352 133.1L92.1448 136.835L100.411 131.01L98.6813 139.152L104.016 140.048L100.784 145.276L107.998 151.252Z" fill="#FFFDB3"/>
<path d="M61.8431 78.6458L53.2935 81.2546L56.743 86.8464L50.0684 84.9825L47.7411 93.9313L44.5919 86.3246L38.5181 90.3511L38.8151 82.4492L30.041 79.6138L39.043 76.5554L33.2661 68.3548L41.7432 70.8915L44.2915 61.4209L48.4938 70.2943L55.1685 67.1603L54.0428 75.1411L61.8431 78.6458Z" fill="#FFFDB3"/>
<path d="M153.718 29.3881L143.134 33.1914L144.519 47.5981L135.811 38.6939L128.646 46.788L127.261 36.5107L112.285 41.9309L122.544 30.6856L111.633 26.4772L121.484 20.8923L119.368 3.90081L130.358 16.6873L135.241 2.52776L139.637 15.5546L152.741 13.0453L146.228 22.7562L153.718 29.3881Z" fill="#FFFDB3"/>
<path d="M318.1 122.623L318.048 122.696C313.508 129.047 306.615 133.345 298.884 134.647C291.156 135.948 283.225 134.146 276.833 129.637C270.442 125.127 266.112 118.279 264.796 110.598C263.477 102.916 265.746 98.3737 270.276 92.0151C274.806 85.6565 282.23 79.4277 289.958 78.113C297.683 76.7983 304.62 77.1607 311.018 81.6595C317.42 86.158 321.76 92.9985 323.09 100.678C324.419 108.357 322.627 116.247 318.107 122.614L318.1 122.623ZM307.79 122.73C311.18 120.342 313.78 117.007 315.265 113.149C316.75 109.29 317.05 105.081 316.129 101.053C315.207 97.0247 313.104 93.3586 310.086 90.5185C307.068 87.6787 303.27 85.7917 299.174 85.097C295.079 84.4026 290.866 84.9312 287.072 86.6159C283.277 88.3006 280.072 91.0663 277.859 94.5628C275.646 98.0596 274.523 102.13 274.637 106.259C274.751 110.389 276.094 114.392 278.498 117.763C281.719 122.281 286.612 125.341 292.103 126.272C297.593 127.204 303.232 125.93 307.779 122.73H307.79Z" fill="#B9CEFF"/>
<path d="M318.036 122.71C316.226 125.207 314.255 127.584 312.131 129.826C301.8 140.591 284.594 143.718 272.491 133.986C266.686 129.307 262.985 122.53 262.201 115.141C261.417 107.753 263.61 100.357 268.306 94.576C271.227 90.9648 273.513 88.2943 273.513 88.2943C271.241 91.2 269.566 94.5221 268.585 98.0714C267.605 101.62 267.335 105.327 267.795 108.979C268.254 112.632 269.435 116.158 271.265 119.357C273.095 122.557 275.543 125.366 278.464 127.625C281.389 129.885 284.728 131.549 288.299 132.525C291.869 133.5 295.598 133.767 299.272 133.31C302.946 132.853 306.492 131.681 309.711 129.861C312.929 128.041 315.757 125.609 318.029 122.703L318.036 122.71Z" fill="#002127"/>
<path d="M312.785 93.6152C315.189 96.9857 316.532 100.989 316.646 105.119C316.76 109.248 315.638 113.318 313.424 116.815C311.211 120.312 308.006 123.077 304.212 124.762C300.417 126.447 296.204 126.976 292.109 126.281C288.01 125.586 284.215 123.699 281.197 120.86C278.179 118.019 276.077 114.354 275.155 110.326C274.233 106.297 274.533 102.088 276.014 98.2294C277.499 94.3708 280.103 91.0366 283.494 88.6482C285.745 87.0624 288.29 85.9327 290.98 85.3241C293.67 84.7155 296.453 84.6396 299.174 85.1009C301.895 85.5623 304.495 86.5512 306.832 88.0122C309.167 89.4731 311.19 91.3768 312.785 93.6152ZM299.916 111.177L307.202 98.3382L292.299 99.4232L284.039 112.961L299.785 111.42L299.916 111.177Z" fill="#6E9BFF"/>
<path d="M307.204 98.339L299.915 111.177L299.839 111.136L300.105 102.674L292.291 99.4374L292.298 99.4237L307.204 98.339Z" fill="#6E9BFF"/>
<path d="M300.109 102.673L299.843 111.134L292.709 107.688L292.291 99.4427L292.294 99.4358L300.109 102.673Z" fill="#6E9BFF"/>
<path d="M299.924 111.175L299.779 111.44L284.037 112.981L292.297 99.4427L292.714 107.688L299.848 111.134L299.924 111.175Z" fill="#6E9BFF"/>
<path d="M251.54 40.3828C257.662 62.0392 244.951 84.4649 223.184 90.6196C216.668 92.4629 211.703 93.709 211.703 93.709C216.91 92.2007 221.761 89.6804 225.981 86.2938C230.2 82.9075 233.705 78.7225 236.284 73.981C238.864 69.2398 240.473 64.0367 241.019 58.6728C241.561 53.3087 241.029 47.891 239.451 42.7334C237.873 37.5759 235.28 32.7809 231.823 28.626C228.367 24.4715 224.116 21.0399 219.316 18.53C214.517 16.0204 209.265 14.4823 203.864 14.0051C198.464 13.528 193.019 14.1211 187.85 15.7506C192.153 14.2804 196.549 13.0924 201.009 12.1941C222.365 8.06118 245.414 18.7264 251.54 40.3828Z" fill="#002127"/>
<path d="M187.785 15.7747L187.844 15.7541C198.573 11.9981 208.566 13.5054 218.825 18.3904C229.084 23.2753 235.416 31.2383 239.197 41.9039C242.978 52.5694 241 63.6259 236.09 73.8273C231.18 84.0287 224.349 88.0727 215.89 91.8486C205.161 95.6124 193.464 96.726 183.2 91.8486C172.936 86.9711 165.641 78.9978 161.851 68.3351C158.061 57.6723 158.476 47.8073 163.379 37.6024C168.282 27.3979 177.061 19.5461 187.785 15.7747ZM230.71 54.6046C230.71 48.5995 228.918 42.7301 225.562 37.7377C222.205 32.7453 217.433 28.854 211.853 26.5566C206.273 24.2591 200.13 23.6581 194.207 24.83C188.283 26.0019 182.841 28.8939 178.57 33.14C174.299 37.3865 171.391 42.7963 170.213 48.6857C169.035 54.5754 169.207 60.7277 171.519 66.2755C173.83 71.8233 178.178 76.5171 183.2 79.8529C188.223 83.1891 194.127 84.9696 200.168 84.9696C208.269 84.9686 216.038 81.7693 221.763 76.0749C227.492 70.3802 230.71 62.6572 230.71 54.6046Z" fill="#FFC964"/>
<path d="M197.945 68.9318L208.994 65.5648C210.33 65.1559 211.501 64.3325 212.33 63.2148C213.162 62.0971 213.611 60.7443 213.611 59.3548C213.611 58.6044 213.48 57.8599 213.221 57.1548C212.661 55.6105 211.536 54.3339 210.068 53.5822C208.597 52.8308 206.898 52.6598 205.31 53.104L194.515 56.0732V56.0492L204.55 53.0803C206.159 52.562 207.502 51.4378 208.29 49.9484C209.077 48.4586 209.246 46.7217 208.763 45.1094C208.276 43.4971 207.178 42.1378 205.696 41.3218C204.215 40.5056 202.475 40.2979 200.842 40.7431L190.369 43.8325L190.434 44.0487L194.101 56.1899L197.948 68.9284L197.945 68.9318ZM200.165 24.2425C206.208 24.2418 212.112 26.0223 217.136 29.3584C222.16 32.6946 226.076 37.4371 228.386 42.9856C230.7 48.5345 231.304 54.6401 230.126 60.5308C228.949 66.4212 226.038 71.832 221.767 76.0789C217.495 80.3257 212.05 83.2181 206.125 84.3893C200.199 85.5608 194.059 84.9591 188.477 82.6603C182.896 80.3618 178.125 76.4692 174.769 71.4751C171.413 66.4813 169.622 60.6101 169.623 54.604C169.624 46.5518 172.842 38.8301 178.569 33.1364C184.297 27.4427 192.065 24.2431 200.165 24.2425Z" fill="#DDA14B"/>
<path d="M213.209 57.1542C213.468 57.8593 213.599 58.6038 213.599 59.3542C213.599 60.7437 213.15 62.0965 212.318 63.2142C211.486 64.3319 210.319 65.1553 208.983 65.5642L197.933 68.9312V68.9072L194.086 56.1691L194.176 56.1416L194.501 56.0452V56.0695L205.284 53.1034C206.876 52.6551 208.578 52.8243 210.049 53.5761C211.52 54.3278 212.65 55.6068 213.209 57.1542Z" fill="#DDA14B"/>
<path d="M208.766 44.7458C209.067 45.5683 209.194 46.4422 209.143 47.3155C209.091 48.1884 208.859 49.0417 208.466 49.823C208.069 50.6046 207.52 51.298 206.846 51.8602C206.17 52.4225 205.389 52.8427 204.547 53.0943L194.512 56.0632L194.188 56.1593L194.098 56.1867L190.431 44.0455L190.365 43.8293L200.838 40.7399C202.423 40.2765 204.129 40.433 205.603 41.1779C207.078 41.9225 208.207 43.1991 208.766 44.7458Z" fill="#DDA14B"/>
<path d="M119.148 57.1448C125.531 61.0103 130.11 67.235 131.88 74.4531C133.651 81.6713 132.468 89.2931 128.592 95.6451C126.175 99.6098 124.279 102.562 124.279 102.562C126.195 99.374 127.454 95.8391 127.983 92.1631C128.513 88.4871 128.302 84.7428 127.363 81.1485C126.425 77.5542 124.777 74.1809 122.515 71.2251C120.254 68.2689 117.425 65.7895 114.191 63.9301C110.958 62.0706 107.385 60.8685 103.68 60.3935C99.975 59.9184 96.2119 60.1803 92.6098 61.1634C89.0073 62.1465 85.6375 63.8316 82.6959 66.1208C79.7543 68.4097 77.2999 71.2567 75.4746 74.4967C76.9487 71.739 78.6037 69.0811 80.4297 66.5399C89.2106 54.488 105.847 49.1056 119.148 57.1448Z" fill="#002127"/>
<path d="M75.6194 73.5434L75.6454 73.5049C79.6816 67.5191 85.9753 62.4883 93.305 60.9525C100.634 59.4171 108.381 60.5715 114.714 64.3855C121.045 68.1991 125.535 75.1656 127.162 82.0961C128.789 89.0262 127.722 97.6998 123.691 103.689C119.661 109.678 112.891 113.99 105.563 115.532C98.2349 117.073 90.3171 115.05 83.9819 111.241C77.6464 107.432 74.0477 101.178 72.4144 94.2493C70.7811 87.3202 71.5943 79.5361 75.6194 73.5434ZM114.196 103.174C117.472 100.286 119.556 96.8276 120.584 92.7046C121.611 88.5817 120.943 85.1731 119.375 81.2053C117.806 77.2376 116.622 74.2402 112.987 71.7656C109.351 69.2907 106.932 67.7941 102.455 67.6465C97.9786 67.4985 93.9935 67.1776 90.1845 69.4067C86.3755 71.6362 83.3511 74.8835 81.494 78.738C79.637 82.5928 79.0303 86.8819 79.7513 91.0625C80.4723 95.2431 82.4881 99.1281 85.5437 102.225C89.64 106.377 95.3126 108.82 101.314 109.019C107.315 109.217 109.803 107.046 114.196 103.174Z" fill="#FFB796"/>
<path d="M115.379 74.0131C118.214 77.0342 120.083 80.8234 120.751 84.9007C121.42 88.9783 120.857 93.161 119.134 96.9204C117.41 100.68 114.604 103.846 111.071 106.021C107.537 108.194 103.434 109.279 99.2807 109.134C95.1278 108.991 91.1106 107.625 87.7381 105.212C84.3652 102.798 81.7882 99.4444 80.3328 95.5748C78.8773 91.7052 78.6087 87.4934 79.5614 83.4721C80.5137 79.4511 82.6442 75.8008 85.6835 72.9833C89.7594 69.2061 95.1772 67.1928 100.746 67.3861C106.314 67.5793 111.578 69.9626 115.379 74.0131Z" fill="#D89377"/>
<path d="M47.6982 139.271L47.6636 139.295C43.2393 142.368 37.7687 143.567 32.4546 142.63C27.1408 141.694 22.4184 138.698 19.3259 134.302C16.2334 129.905 15.0239 124.467 15.9631 119.184C16.9023 113.901 18.876 111.775 23.2972 108.698C27.7184 105.621 34.1241 102.929 39.439 103.86C44.7538 104.791 49.5804 106.7 52.6774 111.093C55.7747 115.487 56.9899 120.923 56.0562 126.207C55.1225 131.491 52.1163 136.19 47.6982 139.271ZM40.9234 136.975C43.6896 136.217 46.1675 134.66 48.0435 132.502C49.9198 130.343 51.1097 127.68 51.4626 124.849C51.8155 122.019 51.3159 119.148 50.0269 116.599C48.7375 114.051 46.7168 111.939 44.2207 110.533C41.7242 109.127 38.864 108.488 36.0025 108.698C33.1407 108.908 30.4063 109.957 28.1446 111.713C25.8828 113.468 24.196 115.851 23.2972 118.56C22.3984 121.269 22.3283 124.182 23.0956 126.931C24.1228 130.611 26.5772 133.735 29.9197 135.619C33.2622 137.502 37.2194 137.99 40.9234 136.975Z" fill="#95A6B0"/>
<path d="M51.032 119.25C51.7993 121.998 51.7288 124.912 50.8303 127.621C49.9315 130.329 48.2444 132.713 45.9827 134.468C43.7213 136.224 40.9865 137.273 38.1251 137.483C35.2632 137.693 32.4034 137.054 29.9069 135.647C27.4104 134.241 25.3897 132.13 24.1007 129.582C22.8117 127.033 22.3117 124.162 22.6649 121.331C23.0178 118.5 24.2077 115.837 26.0838 113.679C27.9598 111.521 30.4377 109.964 33.2042 109.206C36.9079 108.191 40.8654 108.679 44.2079 110.562C47.5504 112.445 50.0044 115.57 51.032 119.25Z" fill="#95A6B0"/>
<path d="M47.6691 139.296C45.8804 140.516 44.013 141.616 42.0786 142.591C32.8384 147.167 20.9397 145.186 15.3873 136.069C12.7237 131.685 11.9184 126.428 13.1484 121.454C14.3784 116.479 17.543 112.193 21.948 109.535C24.6103 107.922 26.6717 106.748 26.7822 106.676C24.5941 108.022 22.6966 109.786 21.1994 111.866C19.7022 113.946 18.6349 116.301 18.0599 118.794C17.485 121.287 17.4135 123.869 17.8497 126.39C18.2858 128.91 19.2208 131.32 20.6007 133.479C21.9805 135.638 23.7778 137.503 25.8879 138.967C27.998 140.43 30.3796 141.462 32.894 142.004C35.4088 142.545 38.0065 142.586 40.5369 142.122C43.0672 141.658 45.4795 140.7 47.6345 139.303L47.6691 139.296Z" fill="#002127"/>
<path d="M211.715 94.1718C211.601 94.1759 211.494 94.1381 211.408 94.0664C211.325 93.9947 211.27 93.8941 211.256 93.7842C211.242 93.6744 211.27 93.5635 211.335 93.4732C211.398 93.3829 211.494 93.3198 211.605 93.2964C211.653 93.2964 216.639 92.0161 223.076 90.2071C244.567 84.1245 257.15 61.8364 251.121 40.5164C248.272 30.4451 241.407 22.1004 231.784 17.0235C222.564 12.1526 211.667 10.5976 201.097 12.6435C196.657 13.5353 192.281 14.7171 187.999 16.1825C187.887 16.221 187.765 16.2141 187.658 16.1629C187.551 16.1118 187.47 16.0205 187.431 15.9096C187.392 15.7984 187.399 15.6765 187.451 15.5705C187.502 15.4647 187.594 15.3837 187.705 15.3449C192.028 13.8634 196.445 12.6695 200.928 11.7716C211.694 9.68797 222.803 11.2738 232.202 16.234C242.039 21.4276 249.063 29.9645 251.981 40.2624C258.141 62.0527 245.282 84.835 223.321 91.0481C216.87 92.8708 211.874 94.1374 211.826 94.1546C211.788 94.1635 211.75 94.169 211.715 94.1718Z" fill="#002127"/>
<path d="M187.613 16.274C187.507 16.2747 187.405 16.2383 187.324 16.171C187.243 16.1034 187.188 16.0097 187.17 15.906C187.153 15.8023 187.172 15.6959 187.226 15.6053C187.28 15.515 187.365 15.4464 187.465 15.4124L187.627 15.354C187.736 15.3255 187.851 15.3386 187.951 15.3908C188.05 15.4429 188.126 15.5308 188.164 15.6358C188.202 15.7412 188.198 15.8566 188.154 15.9595C188.111 16.0622 188.03 16.1452 187.928 16.1916L187.762 16.2499C187.714 16.2668 187.664 16.2747 187.613 16.274Z" fill="#002127"/>
<path d="M200.201 95.7828C190.321 95.7695 180.772 92.2476 173.275 85.8526C165.777 79.458 160.825 70.6104 159.31 60.906C157.796 51.2013 159.819 41.2786 165.015 32.926C170.211 24.5734 178.238 18.3411 187.649 15.3526L187.707 15.3324C192.94 13.6586 198.453 13.0367 203.93 13.5025C209.406 13.9683 214.738 15.5126 219.606 18.0455C224.479 20.5785 228.791 24.0495 232.3 28.2562C235.808 32.4632 238.439 37.3218 240.038 42.549C241.64 47.7762 242.179 53.2681 241.623 58.704C241.067 64.1402 239.43 69.4124 236.806 74.2132C234.182 79.0141 230.622 83.2483 226.333 86.6682C222.048 90.0885 217.12 92.6265 211.837 94.1348C208.056 95.2298 204.137 95.7849 200.201 95.7828ZM200.201 14.3163C196.058 14.3115 191.94 14.9387 187.99 16.1768H187.935C177.774 19.3949 169.298 26.4634 164.343 35.8513C159.389 45.2391 158.354 56.1896 161.465 66.3299C164.576 76.4702 171.582 84.9838 180.963 90.0253C190.344 95.0665 201.347 96.2298 211.585 93.2629C219.897 90.821 227.213 85.8111 232.472 78.9592C237.852 71.9628 240.756 63.3943 240.728 54.5876C240.711 43.909 236.436 33.6726 228.84 26.1232C221.24 18.5742 210.943 14.328 200.201 14.3163Z" fill="#002127"/>
<path d="M200.176 85.4146C194.045 85.4153 188.052 83.6083 182.955 80.2234C177.857 76.8382 173.884 72.0263 171.538 66.3961C169.192 60.7663 168.577 54.5711 169.773 48.5942C170.968 42.6173 173.92 37.1268 178.255 32.8175C182.589 28.5082 188.111 25.5733 194.124 24.3842C200.138 23.1948 206.367 23.8051 212.033 26.1369C217.696 28.469 222.537 32.4179 225.942 37.4848C229.35 42.5517 231.166 48.509 231.166 54.603C231.156 62.7713 227.889 70.6025 222.078 76.3785C216.27 82.155 208.394 85.4043 200.176 85.4146ZM200.176 24.6876C194.223 24.6876 188.404 26.4424 183.454 29.7302C178.505 33.0179 174.648 37.6908 172.37 43.1579C170.092 48.6251 169.496 54.6407 170.657 60.4443C171.819 66.2482 174.686 71.5794 178.895 75.7634C183.105 79.9474 188.467 82.7969 194.306 83.9509C200.144 85.105 206.194 84.5121 211.695 82.247C217.195 79.9821 221.895 76.1465 225.203 71.2262C228.507 66.3055 230.272 60.5205 230.272 54.603C230.262 46.6712 227.088 39.0669 221.446 33.4583C215.804 27.8501 208.155 24.6959 200.176 24.6876Z" fill="#002127"/>
<path d="M124.272 103.006C124.186 103.005 124.103 102.981 124.03 102.937C123.93 102.873 123.86 102.773 123.835 102.658C123.81 102.542 123.831 102.422 123.895 102.323C123.916 102.292 125.825 99.3295 128.201 95.4163C136.108 82.3964 131.94 65.398 118.909 57.5236C112.755 53.806 105.401 52.8174 98.1908 54.7363C91.168 56.6616 85.0186 60.9167 80.7638 66.7951C78.9493 69.316 77.3042 71.9536 75.8395 74.6901C75.7787 74.7838 75.6848 74.8515 75.576 74.8796C75.4676 74.9077 75.3523 74.8944 75.2532 74.8425C75.1537 74.7903 75.0778 74.7032 75.0398 74.5981C75.0021 74.4931 75.0053 74.3777 75.0488 74.2748C76.5325 71.4978 78.1993 68.8213 80.0387 66.263C84.4157 60.2206 90.7388 55.8471 97.9594 53.8678C105.397 51.8837 112.997 52.9067 119.368 56.7546C132.817 64.8831 137.124 82.4273 128.961 95.866C126.578 99.7929 124.661 102.762 124.641 102.793C124.602 102.857 124.548 102.909 124.484 102.946C124.419 102.984 124.346 103.004 124.272 103.006Z" fill="#002127"/>
<path d="M75.392 75.0485C75.3184 75.0492 75.2456 75.0303 75.1817 74.9936C75.1299 74.9661 75.084 74.9287 75.0467 74.8837C75.0094 74.8388 74.9814 74.7869 74.9645 74.7313C74.9472 74.6754 74.9417 74.6167 74.9476 74.5586C74.9534 74.5006 74.9707 74.4443 74.9983 74.3929L75.0297 74.3314C75.0532 74.2748 75.0885 74.2236 75.1327 74.1811C75.1769 74.1388 75.2297 74.1059 75.2874 74.0846C75.345 74.0633 75.4065 74.0537 75.4679 74.0571C75.5294 74.0602 75.5895 74.0764 75.6447 74.1038C75.6996 74.1309 75.7483 74.1694 75.788 74.2164C75.8274 74.2631 75.8568 74.3177 75.8744 74.376C75.8916 74.4347 75.8972 74.4965 75.8896 74.5573C75.882 74.618 75.8619 74.6764 75.8305 74.7292L75.786 74.8151C75.7473 74.8854 75.6907 74.9445 75.6212 74.9857C75.5518 75.0269 75.4728 75.0485 75.392 75.0485Z" fill="#002127"/>
<path d="M100.053 116.721C99.7078 116.721 99.3625 116.721 99.0172 116.704C94.1116 116.529 89.3336 115.103 85.1417 112.563C80.9498 110.024 77.485 106.456 75.0793 102.202C72.6736 97.9482 71.4084 93.1515 71.4043 88.2716C71.4005 83.3915 72.6581 78.5927 75.0569 74.3352C75.0707 74.3036 75.088 74.2737 75.1087 74.2459C76.9719 70.9692 79.4702 68.0919 82.4591 65.7814C85.448 63.4706 88.8682 61.7721 92.5218 60.7839C96.1751 59.796 99.9896 59.5378 103.744 60.0246C107.499 60.5117 111.119 61.7337 114.395 63.6202C117.672 65.5068 120.539 68.0205 122.832 71.0158C125.125 74.0111 126.797 77.429 127.753 81.0714C128.708 84.7134 128.928 88.5078 128.398 92.2346C127.869 95.9618 126.602 99.5478 124.67 102.785C122.134 107.027 118.533 110.541 114.22 112.984C109.908 115.427 105.031 116.715 100.067 116.721H100.053ZM75.8407 74.7402C72.2997 81.0669 71.4029 88.524 73.3435 95.5021C75.2844 102.48 79.907 108.42 86.2142 112.041C92.5218 115.661 100.008 116.67 107.058 114.852C114.107 113.034 120.155 108.533 123.896 102.321C127.301 96.6139 128.523 89.8774 127.336 83.3476C126.149 76.8173 122.634 70.9314 117.435 66.7693C112.236 62.6073 105.702 60.4482 99.0314 60.6878C92.3605 60.9274 86.0001 63.5499 81.1169 68.0741C79.0327 70.0008 77.2609 72.2368 75.8649 74.7021C75.8545 74.7131 75.8462 74.7262 75.8407 74.7402Z" fill="#002127"/>
<path d="M100.019 109.594C99.7631 109.594 99.5076 109.594 99.2521 109.594C96.4348 109.504 93.663 108.859 91.0978 107.697C88.5322 106.535 86.2246 104.879 84.3075 102.825C80.9436 99.2391 78.9246 94.6109 78.5904 89.719C78.2561 84.8272 79.6273 79.9704 82.4729 75.9655C85.3182 71.961 89.4645 69.0525 94.2138 67.7303C98.9634 66.4081 104.026 66.7523 108.55 68.7055C113.074 70.6587 116.783 74.1012 119.053 78.4538C121.324 82.8067 122.016 87.8043 121.015 92.6052C120.014 97.406 117.379 101.717 113.555 104.814C109.731 107.911 104.951 109.604 100.019 109.607V109.594ZM99.9945 67.8288C95.9886 67.8264 92.0695 68.988 88.7187 71.1705C85.3679 73.353 82.7319 76.4612 81.1345 80.1132C79.5372 83.7655 79.0482 87.8019 79.7281 91.7264C80.4077 95.6513 82.2264 99.2923 84.9601 102.203C87.2864 104.687 90.198 106.557 93.4324 107.643C96.6671 108.73 100.123 108.998 103.488 108.425C106.853 107.852 110.021 106.454 112.708 104.36C115.394 102.265 117.513 99.538 118.874 96.4257C120.236 93.3133 120.796 89.9126 120.505 86.5311C120.214 83.1493 119.081 79.8931 117.208 77.0557C115.334 74.2183 112.78 71.8893 109.775 70.2783C106.77 68.6674 103.409 67.8257 99.9945 67.8288Z" fill="#002127"/>
<path d="M32.0001 145.412C30.4035 145.413 28.8113 145.241 27.2523 144.898C24.7267 144.369 22.3369 143.332 20.2299 141.85C18.1229 140.369 16.3432 138.473 15.001 136.282C12.2897 131.791 11.4752 126.416 12.7355 121.331C13.9955 116.245 17.2282 111.862 21.7275 109.137C24.3517 107.548 26.3994 106.39 26.5617 106.281C26.6501 106.223 26.7561 106.199 26.861 106.213C26.9657 106.227 27.0617 106.278 27.1318 106.356C27.2105 106.444 27.2519 106.559 27.2467 106.676C27.2416 106.793 27.1901 106.904 27.1041 106.985C27.0717 107.011 27.0368 107.033 27.0002 107.053C27.0002 107.053 24.8973 108.248 22.166 109.895C17.8691 112.498 14.7825 116.686 13.5791 121.543C12.3761 126.4 13.154 131.533 15.7434 135.822C17.0234 137.91 18.7199 139.715 20.7285 141.127C22.7368 142.538 25.0147 143.526 27.4218 144.029C32.3016 145.073 37.3937 144.425 41.8519 142.193C43.7631 141.226 45.6087 140.136 47.3767 138.929C47.4747 138.862 47.5956 138.837 47.7123 138.858C47.8294 138.879 47.9333 138.945 48.0017 139.042C48.0683 139.139 48.0939 139.258 48.0724 139.374C48.051 139.49 47.9848 139.592 47.8877 139.66C46.0804 140.89 44.1947 142.003 42.2417 142.989C39.0608 144.569 35.556 145.398 32.0001 145.412Z" fill="#002127"/>
<path d="M47.7101 139.706C47.6435 139.705 47.5778 139.688 47.5181 139.659C47.4584 139.629 47.4059 139.587 47.3648 139.534C47.3289 139.489 47.3023 139.437 47.2864 139.382C47.2705 139.327 47.2657 139.269 47.2726 139.212C47.2792 139.154 47.2975 139.1 47.3258 139.049C47.3538 138.999 47.3917 138.955 47.4373 138.92L47.5167 138.865C47.6172 138.813 47.7332 138.801 47.842 138.831C47.9508 138.861 48.0444 138.93 48.1037 139.025C48.1635 139.12 48.1849 139.235 48.1638 139.345C48.1428 139.455 48.0806 139.553 47.9898 139.62C47.9086 139.678 47.8102 139.708 47.7101 139.706Z" fill="#002127"/>
<path d="M37.0325 142.875C32.6879 142.861 28.467 141.436 25.013 138.817C21.5586 136.197 19.0607 132.527 17.8994 128.365C17.2009 125.863 17.0055 123.248 17.3245 120.67C17.6436 118.092 18.4709 115.603 19.7589 113.343C21.0468 111.084 22.7702 109.099 24.8306 107.502C26.891 105.905 29.2481 104.728 31.7667 104.038C36.3388 102.782 41.212 103.191 45.5072 105.192C49.802 107.194 53.2364 110.655 55.1901 114.952C57.1438 119.249 57.4884 124.099 56.1617 128.626C54.8348 133.153 51.9239 137.06 47.9543 139.641C47.9398 139.655 47.9236 139.667 47.906 139.675C44.666 141.759 40.8909 142.87 37.0325 142.875ZM37.0946 104.206C33.5488 104.21 30.0733 105.192 27.0568 107.045C23.5803 109.208 20.8973 112.426 19.4046 116.224C17.9119 120.021 17.6895 124.195 18.7696 128.128C19.5655 130.989 21.0285 133.622 23.0399 135.815C25.0513 138.008 27.5544 139.698 30.3461 140.75C33.1378 141.801 36.1395 142.183 39.1077 141.865C42.0759 141.548 44.9271 140.539 47.4295 138.921L47.464 138.897C50.8894 136.674 53.5016 133.412 54.9118 129.595C56.3223 125.778 56.4552 121.611 55.2912 117.713C54.1272 113.815 51.7284 110.395 48.4516 107.961C45.175 105.528 41.1954 104.211 37.105 104.206H37.0946Z" fill="#002127"/>
<path d="M37.055 137.941C33.263 137.945 29.6114 136.516 26.839 133.944C24.0666 131.371 22.3808 127.848 22.1226 124.087C21.8646 120.326 23.0531 116.608 25.4485 113.685C27.8435 110.763 31.2661 108.854 35.0236 108.345C38.7809 107.836 42.5926 108.764 45.6868 110.943C48.7814 113.122 50.9278 116.389 51.6916 120.081C52.4551 123.774 51.7793 127.617 49.8004 130.833C47.8215 134.049 44.6879 136.397 41.0329 137.403C39.738 137.761 38.3996 137.943 37.055 137.941ZM37.0758 109.107C34.6045 109.103 32.1749 109.747 30.0337 110.973C27.8922 112.2 26.1146 113.967 24.8798 116.096C23.645 118.224 22.9972 120.639 23.0014 123.096C23.0058 125.553 23.6623 127.965 24.9043 130.089C26.1467 132.214 27.9305 133.974 30.0762 135.194C32.2219 136.413 34.6531 137.049 37.1248 137.035C39.5965 137.022 42.0208 136.36 44.153 135.118C46.2849 133.875 48.0497 132.095 49.2687 129.958C50.1833 128.365 50.771 126.608 50.9976 124.787C51.2241 122.967 51.0846 121.12 50.5873 119.354C49.7679 116.415 48.0041 113.823 45.5646 111.973C43.1251 110.123 40.1441 109.117 37.0758 109.107Z" fill="#002127"/>
<path d="M289.284 140.274C283.072 140.312 277.039 138.214 272.205 134.336C259.968 124.491 258.048 106.531 267.955 94.301C270.845 90.7242 273.134 88.0365 273.169 88.009C273.207 87.9637 273.252 87.9266 273.307 87.8992C273.359 87.872 273.414 87.8552 273.473 87.8501C273.531 87.8446 273.593 87.8511 273.649 87.8686C273.704 87.8861 273.756 87.9146 273.804 87.9524C273.849 87.9898 273.887 88.0358 273.911 88.088C273.939 88.1402 273.956 88.1971 273.963 88.2555C273.966 88.3142 273.959 88.3729 273.942 88.4288C273.925 88.4851 273.897 88.537 273.859 88.5823C273.839 88.6097 271.546 91.294 268.662 94.8571C259.077 106.71 260.924 124.107 272.778 133.646C278.376 138.149 285.53 140.106 292.927 139.158C300.147 138.184 306.811 134.784 311.818 129.523C313.928 127.298 315.889 124.937 317.688 122.455L318.085 122.675L317.719 122.414C317.733 122.4 317.743 122.386 317.754 122.369C317.833 122.3 317.933 122.26 318.04 122.258C318.147 122.256 318.248 122.29 318.33 122.356C318.413 122.421 318.472 122.514 318.493 122.617C318.513 122.72 318.496 122.827 318.444 122.919L318.386 122.997C316.569 125.504 314.591 127.889 312.46 130.137C307.312 135.546 300.458 139.04 293.037 140.041C291.794 140.198 290.537 140.276 289.284 140.274Z" fill="#002127"/>
<path d="M318.105 123.068C318.022 123.066 317.946 123.042 317.877 122.998C317.808 122.954 317.753 122.893 317.718 122.82C317.684 122.748 317.666 122.667 317.677 122.587C317.684 122.506 317.711 122.43 317.76 122.365L317.853 122.238C317.884 122.184 317.925 122.139 317.977 122.102C318.026 122.066 318.084 122.041 318.143 122.028C318.205 122.015 318.267 122.014 318.329 122.026C318.388 122.039 318.447 122.063 318.499 122.099C318.547 122.134 318.592 122.18 318.623 122.233C318.654 122.285 318.678 122.344 318.685 122.405C318.692 122.466 318.689 122.528 318.671 122.588C318.654 122.647 318.623 122.702 318.585 122.75L318.488 122.883C318.443 122.943 318.385 122.991 318.319 123.023C318.253 123.056 318.177 123.071 318.105 123.068Z" fill="#002127"/>
<path d="M295.673 134.154C290.29 134.163 285.01 132.662 280.445 129.824C275.877 126.986 272.21 122.924 269.862 118.107C267.51 113.29 266.578 107.912 267.165 102.591C267.749 97.2696 269.834 92.2206 273.177 88.0235C277.828 82.0507 284.675 78.1591 292.21 77.2049C299.747 76.2506 307.358 78.3115 313.366 82.9343C319.371 87.5573 323.287 94.3635 324.246 101.856C325.206 109.348 323.135 116.912 318.483 122.885L318.414 122.978C316.653 125.256 314.557 127.258 312.199 128.916C307.372 132.328 301.595 134.158 295.673 134.154ZM273.878 88.5761C271.595 91.4311 269.903 94.7082 268.902 98.2177C267.9 101.727 267.607 105.399 268.042 109.021C268.481 112.643 269.634 116.143 271.44 119.319C273.246 122.495 275.666 125.283 278.563 127.522C281.46 129.761 284.775 131.407 288.315 132.364C291.857 133.321 295.552 133.571 299.192 133.098C302.831 132.625 306.339 131.44 309.513 129.61C312.686 127.781 315.466 125.343 317.686 122.439L317.724 122.384L317.744 122.356C322.071 116.562 323.943 109.313 322.955 102.163C321.968 95.0137 318.2 88.5339 312.461 84.1137C306.723 79.6935 299.471 77.6851 292.261 78.5192C285.052 79.3533 278.456 82.9641 273.891 88.5761H273.878Z" fill="#002127"/>
<path d="M295.683 127.013C291.998 127.02 288.373 126.083 285.161 124.293C281.947 122.504 279.25 119.921 277.33 116.795C275.414 113.669 274.336 110.104 274.205 106.444C274.074 102.784 274.892 99.153 276.584 95.8992C278.273 92.6454 280.78 89.8791 283.856 87.8669C286.936 85.8547 290.482 84.6646 294.156 84.4109C297.834 84.1572 301.511 84.8482 304.84 86.418C308.169 87.988 311.035 90.3833 313.162 93.3735C315.43 96.5631 316.777 100.311 317.05 104.209C317.323 108.107 316.511 112.004 314.709 115.476C312.906 118.947 310.175 121.859 306.822 123.894C303.466 125.928 299.612 127.008 295.683 127.013ZM295.624 85.2553C291.018 85.2642 286.55 86.8103 282.934 89.6457C279.319 92.4807 276.764 96.4409 275.683 100.891C274.602 105.341 275.054 110.023 276.967 114.187C278.884 118.35 282.15 121.754 286.242 123.852C290.337 125.95 295.02 126.621 299.543 125.757C304.067 124.893 308.165 122.545 311.183 119.088C314.205 115.631 315.969 111.267 316.193 106.694C316.421 102.122 315.095 97.6059 312.433 93.8712C310.537 91.1948 308.017 89.0127 305.092 87.5116C302.164 86.0101 298.915 85.234 295.624 85.2485V85.2553Z" fill="#002127"/>
<path d="M194.187 56.5833C194.08 56.5846 193.975 56.5465 193.893 56.4769C193.811 56.4075 193.758 56.3107 193.742 56.2046C193.726 56.0982 193.75 55.9901 193.808 55.9002C193.867 55.8099 193.956 55.7443 194.06 55.7148L204.42 52.6495C205.949 52.1943 207.237 51.1529 207.997 49.7541C208.757 48.3549 208.926 46.7134 208.47 45.1904C208.011 43.6673 206.965 42.3873 205.556 41.6321C204.15 40.8773 202.496 40.7087 200.967 41.1639L186.867 45.2831C186.753 45.3163 186.632 45.3033 186.528 45.247C186.424 45.1907 186.347 45.0956 186.313 44.9827C186.28 44.8698 186.293 44.7483 186.349 44.6449C186.406 44.5416 186.502 44.4647 186.615 44.4318L200.715 40.3126C202.472 39.7898 204.368 39.9834 205.984 40.8505C207.6 41.7176 208.802 43.1874 209.33 44.936C209.855 46.6849 209.661 48.5701 208.788 50.1763C207.914 51.7824 206.436 52.978 204.679 53.5008L194.319 56.5661C194.276 56.5788 194.232 56.5846 194.187 56.5833Z" fill="#002127"/>
<path d="M195.014 70.2746C194.907 70.2739 194.804 70.2351 194.723 70.1654C194.642 70.0957 194.589 69.9997 194.573 69.8946C194.558 69.7892 194.58 69.6818 194.637 69.5919C194.694 69.5016 194.781 69.4346 194.883 69.4027L208.858 65.1394C210.405 64.687 211.71 63.6417 212.483 62.2333C213.253 60.8253 213.433 59.1697 212.977 57.6305C212.521 56.0917 211.472 54.7952 210.056 54.027C208.637 53.2587 206.972 53.0809 205.426 53.5333L194.638 56.496C194.581 56.5118 194.522 56.5159 194.464 56.5087C194.406 56.5019 194.35 56.4833 194.299 56.4545C194.196 56.3965 194.12 56.3004 194.089 56.1871C194.057 56.0738 194.072 55.9527 194.13 55.8504C194.188 55.7477 194.285 55.6729 194.399 55.6413L205.187 52.679C206.945 52.2101 208.82 52.4438 210.408 53.3308C211.997 54.2175 213.174 55.6866 213.689 57.4242C214.203 59.1622 214.013 61.0305 213.157 62.6305C212.304 64.2308 210.854 65.4353 209.12 65.9872L195.145 70.2537C195.102 70.267 195.058 70.2743 195.014 70.2746Z" fill="#002127"/>
<path d="M197.951 69.353C197.854 69.3519 197.761 69.3203 197.685 69.2627C197.606 69.2054 197.551 69.125 197.523 69.0334L190.009 44.154C189.975 44.0411 189.988 43.9193 190.044 43.8159C190.1 43.7123 190.196 43.635 190.309 43.6014C190.423 43.5674 190.545 43.5801 190.649 43.6361C190.754 43.692 190.831 43.7871 190.865 43.9L198.379 68.7794C198.397 68.835 198.4 68.8937 198.397 68.9517C198.39 69.0097 198.372 69.0656 198.345 69.1171C198.317 69.1683 198.279 69.2139 198.234 69.2507C198.189 69.2877 198.138 69.3152 198.082 69.332C198.041 69.3457 197.996 69.353 197.951 69.353Z" fill="#002127"/>
<path d="M194.287 42.7844C194.187 42.784 194.089 42.7501 194.011 42.6876C193.933 42.6255 193.878 42.5383 193.855 42.4411L192.568 37.6736C192.542 37.561 192.561 37.4432 192.622 37.3447C192.682 37.2462 192.778 37.1741 192.89 37.1446C193.002 37.1147 193.121 37.1295 193.222 37.1851C193.324 37.2407 193.4 37.3334 193.434 37.4436L194.719 42.2111C194.748 42.3255 194.732 42.4466 194.673 42.5489C194.613 42.6509 194.515 42.7257 194.401 42.7569C194.365 42.7713 194.326 42.7806 194.287 42.7844Z" fill="#002127"/>
<path d="M198.598 41.3096C198.498 41.3089 198.401 41.2749 198.322 41.2125C198.243 41.1503 198.187 41.0635 198.167 40.9663L196.962 36.528C196.944 36.4717 196.941 36.4126 196.951 36.3549C196.958 36.2973 196.975 36.2413 197.006 36.1912C197.037 36.1408 197.075 36.0965 197.12 36.0615C197.169 36.0261 197.22 36.0004 197.279 35.9856C197.334 35.9702 197.393 35.9657 197.452 35.9732C197.511 35.9805 197.566 35.999 197.618 36.0282C197.669 36.0574 197.711 36.0961 197.749 36.1425C197.783 36.1888 197.811 36.2417 197.825 36.298L199.03 40.7364C199.061 40.85 199.044 40.9712 198.985 41.0734C198.926 41.1757 198.83 41.2506 198.716 41.2821C198.678 41.2962 198.636 41.3055 198.598 41.3096Z" fill="#002127"/>
<path d="M203.353 73.233C203.253 73.232 203.156 73.1973 203.077 73.1352C202.997 73.0731 202.942 72.9866 202.921 72.8898L201.633 68.1222C201.606 68.0096 201.626 67.8919 201.685 67.7933C201.747 67.6945 201.844 67.6227 201.954 67.5932C202.068 67.5633 202.186 67.5781 202.286 67.6337C202.389 67.6893 202.465 67.782 202.5 67.8922L203.784 72.6567C203.815 72.7707 203.798 72.8925 203.74 72.9948C203.677 73.0971 203.581 73.1716 203.467 73.2021C203.429 73.2176 203.391 73.2279 203.353 73.233Z" fill="#002127"/>
<path d="M207.673 71.7553C207.573 71.7547 207.477 71.7203 207.397 71.6582C207.318 71.5957 207.266 71.5092 207.242 71.4121L206.037 66.9733C206.006 66.8594 206.023 66.7379 206.082 66.6359C206.144 66.5336 206.24 66.4592 206.354 66.4276C206.468 66.3974 206.589 66.4131 206.693 66.4715C206.793 66.5302 206.869 66.6267 206.9 66.7403L208.105 71.1783C208.136 71.2926 208.119 71.4138 208.06 71.5161C207.998 71.618 207.901 71.6929 207.787 71.7241C207.749 71.7396 207.711 71.7502 207.673 71.7553Z" fill="#002127"/>
<path d="M47.7325 94.3738C47.6437 94.3745 47.557 94.3484 47.4831 94.2996C47.4092 94.2505 47.3516 94.1808 47.3181 94.0995L44.3761 86.9936L38.7547 90.7218C38.686 90.7654 38.6065 90.7894 38.525 90.7918C38.4435 90.7939 38.3627 90.774 38.292 90.7342C38.2208 90.6943 38.1621 90.636 38.1221 90.5656C38.082 90.4949 38.062 90.4146 38.0641 90.3336L38.3507 82.7818L29.8977 80.0357C29.8086 80.0065 29.7313 79.9502 29.6764 79.8747C29.6215 79.7992 29.5918 79.7086 29.5918 79.6152C29.5918 79.5222 29.6215 79.4312 29.6764 79.3557C29.7313 79.2802 29.8086 79.2242 29.8977 79.195L38.3369 76.325L32.9018 68.6085C32.8452 68.5333 32.8141 68.442 32.8131 68.3479C32.8121 68.2539 32.8411 68.1622 32.8963 68.0857C32.9512 68.0095 33.0292 67.9522 33.119 67.923C33.2088 67.8935 33.3055 67.8931 33.3956 67.922L41.4307 70.3248L43.8478 61.297C43.8713 61.2088 43.9214 61.1298 43.9918 61.0711C44.0619 61.0121 44.1486 60.9764 44.2401 60.9685C44.3316 60.9606 44.4231 60.9808 44.5025 61.0268C44.5819 61.0728 44.6451 61.1418 44.6835 61.2249L48.6958 69.6932L54.9665 66.7518C55.0393 66.7181 55.1201 66.7041 55.2002 66.712C55.2807 66.7199 55.357 66.749 55.4223 66.7961C55.4872 66.8434 55.538 66.9076 55.569 66.9814C55.6001 67.0552 55.6101 67.1359 55.5984 67.2148L54.5176 74.8662L62.0141 78.2336C62.0962 78.271 62.1653 78.3328 62.2116 78.41C62.2582 78.4876 62.2799 78.5768 62.2744 78.6668C62.2689 78.7563 62.2361 78.8425 62.1801 78.9136C62.1246 78.9846 62.0486 79.0371 61.9623 79.0646L53.9651 81.5049L57.1108 86.6057C57.1574 86.6819 57.1799 86.7702 57.1754 86.8594C57.1709 86.9483 57.1398 87.0345 57.0859 87.1055C57.0321 87.1769 56.9578 87.2305 56.8732 87.2597C56.7883 87.2885 56.6968 87.2916 56.6101 87.2682L50.374 85.5245L48.1606 94.0339C48.1399 94.1266 48.0898 94.2097 48.0177 94.2715C47.9455 94.3336 47.855 94.3707 47.7601 94.3772L47.7325 94.3738ZM44.5833 85.878C44.6279 85.8787 44.6721 85.8852 44.7145 85.8986C44.7777 85.9175 44.8357 85.9508 44.8841 85.9954C44.9328 86.0401 44.9704 86.095 44.9942 86.1561L47.6358 92.527L49.6247 84.8688C49.6561 84.7542 49.7317 84.6567 49.8353 84.5977C49.8868 84.5671 49.9438 84.5475 50.0032 84.54C50.0625 84.5324 50.123 84.5366 50.1806 84.553L55.7607 86.1114L52.905 81.4877C52.8702 81.4297 52.8488 81.3641 52.8429 81.2968C52.837 81.2292 52.8464 81.1609 52.8705 81.0978C52.895 81.0343 52.9334 80.9773 52.9831 80.9306C53.0325 80.8842 53.0922 80.8492 53.1571 80.8286L60.5742 78.5669L53.8512 75.5462C53.7631 75.5063 53.6906 75.4391 53.644 75.355C53.5974 75.2709 53.5791 75.1744 53.5922 75.079L54.6039 67.9151L48.6786 70.6955C48.5681 70.7408 48.4438 70.7408 48.3333 70.6955C48.2773 70.6766 48.2262 70.6468 48.1824 70.608C48.1385 70.5692 48.103 70.5222 48.0778 70.4693L44.4003 62.6941L42.1662 70.9907C42.1507 71.0484 42.1237 71.1026 42.0868 71.1497C42.0499 71.197 42.0036 71.2361 41.9511 71.2653C41.8986 71.2945 41.8409 71.3127 41.7812 71.3192C41.7215 71.3258 41.6611 71.3203 41.6034 71.3031L34.3521 69.1371L39.39 76.2873C39.4318 76.3439 39.4594 76.4098 39.4705 76.4791C39.4819 76.5485 39.4763 76.6195 39.4549 76.6865C39.4332 76.7534 39.3962 76.8142 39.3465 76.8643C39.2968 76.9141 39.236 76.9515 39.169 76.9738L31.4343 79.5998L38.9342 82.0197C39.0271 82.0503 39.1079 82.11 39.1639 82.1897C39.2198 82.2696 39.2484 82.3654 39.245 82.4625L38.9756 89.496L44.3244 85.9501C44.4014 85.9003 44.4915 85.8753 44.5833 85.878Z" fill="#002127"/>
<path d="M144.522 48.0426C144.462 48.0426 144.403 48.0309 144.348 48.0079C144.293 47.9849 144.242 47.9509 144.201 47.9084L135.831 39.3508L128.984 47.0811C128.928 47.1463 128.855 47.1937 128.773 47.2174C128.69 47.2414 128.603 47.2407 128.521 47.215C128.438 47.1906 128.365 47.1429 128.309 47.0777C128.253 47.0125 128.218 46.9325 128.207 46.8477L126.895 37.1196L112.44 42.3513C112.346 42.3836 112.245 42.3843 112.15 42.3527C112.056 42.3214 111.975 42.26 111.92 42.178C111.865 42.0959 111.838 41.9981 111.845 41.8996C111.852 41.801 111.891 41.7077 111.957 41.6339L121.777 30.8657L111.477 26.8939C111.398 26.8636 111.329 26.8118 111.278 26.7442C111.228 26.6766 111.197 26.5959 111.191 26.5118C111.184 26.4277 111.202 26.3436 111.241 26.2691C111.281 26.1946 111.341 26.1328 111.415 26.0906L121.004 20.6568L118.932 3.95705C118.92 3.86162 118.94 3.76481 118.988 3.6814C119.036 3.59798 119.109 3.53208 119.198 3.49363C119.286 3.45519 119.384 3.44592 119.477 3.46755C119.57 3.48917 119.654 3.54067 119.716 3.61379L130.199 15.8065L134.826 2.3849C134.856 2.29634 134.913 2.2198 134.989 2.16556C135.065 2.11133 135.157 2.08248 135.251 2.08283C135.344 2.08248 135.435 2.11166 135.511 2.1659C135.586 2.22013 135.643 2.29668 135.672 2.3849L139.943 15.0448L152.664 12.6072C152.751 12.5911 152.841 12.6007 152.922 12.6351C153.003 12.6694 153.073 12.7267 153.121 12.8002C153.17 12.8733 153.196 12.9594 153.196 13.047C153.195 13.1348 153.169 13.2207 153.12 13.2938L146.825 22.6858L154.025 29.0636C154.083 29.1144 154.126 29.1793 154.151 29.2521C154.176 29.3252 154.182 29.4031 154.167 29.4786C154.152 29.5541 154.118 29.6245 154.068 29.6829C154.018 29.7412 153.953 29.7858 153.88 29.8116L143.621 33.4986L144.974 47.5723C144.983 47.664 144.963 47.756 144.916 47.836C144.87 47.9159 144.8 47.9798 144.715 48.0182C144.654 48.0405 144.587 48.0488 144.522 48.0426ZM135.814 38.2524C135.873 38.2524 135.932 38.2648 135.988 38.2878C136.043 38.3108 136.093 38.3444 136.135 38.3866L143.956 46.3809L142.692 33.2339C142.682 33.1357 142.706 33.0372 142.759 32.9541C142.812 32.8707 142.892 32.8072 142.986 32.7739L152.861 29.2246L145.934 23.0871C145.854 23.016 145.803 22.9185 145.789 22.8128C145.775 22.7067 145.8 22.6 145.858 22.5107L151.777 13.6817L139.722 15.9922C139.616 16.0124 139.506 15.9935 139.413 15.9393C139.319 15.8851 139.249 15.7989 139.215 15.6966L135.237 3.91242L130.783 16.8332C130.756 16.9077 130.71 16.9739 130.65 17.0251C130.589 17.0765 130.516 17.1109 130.437 17.1246C130.36 17.1387 130.28 17.1325 130.205 17.1067C130.131 17.0807 130.064 17.0364 130.013 16.9773L119.999 5.3064L121.933 20.8353C121.943 20.9218 121.928 21.01 121.888 21.0879C121.849 21.1662 121.788 21.231 121.712 21.2746L112.679 26.3961L122.71 30.265C122.778 30.2897 122.838 30.3316 122.886 30.3862C122.934 30.4408 122.967 30.5067 122.982 30.5774C122.999 30.6474 122.999 30.7209 122.981 30.7909C122.963 30.8609 122.927 30.9255 122.879 30.979L113.835 40.8924L127.116 36.0868C127.178 36.0641 127.246 36.0555 127.312 36.062C127.379 36.0689 127.444 36.0902 127.501 36.1249C127.558 36.1595 127.607 36.2062 127.644 36.2618C127.68 36.3178 127.704 36.3809 127.713 36.4468L128.966 45.7561L135.482 38.3966C135.522 38.3502 135.572 38.3128 135.628 38.2867C135.684 38.2606 135.745 38.2469 135.807 38.2459L135.814 38.2524Z" fill="#002127"/>
<path d="M270.556 72.5469C270.487 72.5472 270.422 72.5328 270.363 72.5047C270.301 72.4762 270.249 72.435 270.208 72.3835C270.166 72.332 270.135 72.2719 270.118 72.2074C270.104 72.1432 270.104 72.0763 270.118 72.0114L271.955 63.3509L266.43 62.4237C266.354 62.4138 266.285 62.3853 266.223 62.3406C266.164 62.2964 266.116 62.2373 266.085 62.1697C266.054 62.1031 266.04 62.0304 266.047 61.9572C266.05 61.8845 266.074 61.8134 266.112 61.7513L269.527 56.2282L261.748 49.7851C261.675 49.7244 261.624 49.6416 261.599 49.5497C261.579 49.4573 261.586 49.3609 261.624 49.2737C261.662 49.1872 261.724 49.1141 261.807 49.0653C261.886 49.0169 261.979 48.9949 262.076 49.0025L273.302 50.0323L272.442 42.7997C272.431 42.7149 272.445 42.6298 272.483 42.5533C272.521 42.4767 272.58 42.4122 272.652 42.3672C272.725 42.3209 272.808 42.2965 272.894 42.2965C272.98 42.2965 273.063 42.3209 273.136 42.3672L279.565 46.6821L287.801 38.9003C287.87 38.8354 287.956 38.7935 288.049 38.7815C288.143 38.7691 288.239 38.7867 288.322 38.8316C288.405 38.8769 288.471 38.9466 288.512 39.0317C288.553 39.1169 288.567 39.2126 288.55 39.3053L286.72 49.0197L296.316 48.3126C296.406 48.3074 296.495 48.3297 296.571 48.3764C296.651 48.4231 296.713 48.4921 296.751 48.5741C296.785 48.6561 296.799 48.7474 296.782 48.8364C296.768 48.9249 296.723 49.007 296.661 49.0712L289.652 56.036L296.585 63.2445C296.651 63.3118 296.692 63.3979 296.706 63.4906C296.72 63.5833 296.703 63.678 296.658 63.7607C296.616 63.8435 296.544 63.91 296.461 63.9512C296.375 63.9921 296.281 64.0058 296.188 63.9894L287.411 62.5476L285.252 69.8622C285.232 69.9333 285.19 69.9981 285.138 70.0507C285.087 70.1035 285.021 70.1423 284.952 70.1643C284.879 70.1852 284.807 70.188 284.734 70.1732C284.662 70.1581 284.593 70.1255 284.538 70.0785L279.755 66.1172L270.777 72.4405C270.715 72.4957 270.639 72.5321 270.556 72.5469ZM267.245 61.6548L272.563 62.5511C272.621 62.5614 272.68 62.5833 272.728 62.6156C272.78 62.6482 272.825 62.6901 272.86 62.7395C272.894 62.7893 272.918 62.8453 272.929 62.9043C272.939 62.9633 272.939 63.0241 272.929 63.0828L271.23 71.088L279.548 65.2217C279.627 65.1654 279.724 65.1372 279.824 65.141C279.921 65.1444 280.018 65.1801 280.094 65.2419L284.617 68.9903L286.689 61.9469C286.72 61.8433 286.789 61.7544 286.882 61.6967C286.975 61.6394 287.086 61.6174 287.193 61.6346L295.038 62.9218L288.733 56.3617C288.65 56.279 288.605 56.1678 288.605 56.0514C288.605 55.935 288.65 55.8235 288.733 55.7407L295.197 49.3111L286.219 49.9739C286.15 49.9794 286.081 49.9691 286.019 49.9434C285.953 49.9176 285.898 49.8775 285.853 49.826C285.808 49.7755 285.774 49.7151 285.753 49.6499C285.736 49.5843 285.732 49.5157 285.746 49.4488L287.424 40.5239L279.931 47.6085C279.855 47.6775 279.759 47.7194 279.659 47.7276C279.558 47.7359 279.455 47.7098 279.372 47.6535L273.454 43.6785L274.265 50.4923C274.272 50.5578 274.265 50.6244 274.244 50.6869C274.224 50.7497 274.189 50.8067 274.141 50.8541C274.096 50.9018 274.037 50.9381 273.975 50.9611C273.913 50.9841 273.847 50.9927 273.782 50.9866L263.44 50.0323L270.408 55.806C270.491 55.8743 270.546 55.97 270.56 56.0751C270.577 56.1805 270.556 56.2886 270.501 56.3792L267.245 61.6548Z" fill="#002127"/>
<path d="M248.981 168.831C248.922 168.831 248.863 168.82 248.808 168.796C248.753 168.776 248.705 168.741 248.663 168.7L243.035 163.105L237.206 168.642C237.137 168.707 237.051 168.748 236.957 168.762C236.864 168.776 236.771 168.759 236.685 168.717C236.602 168.673 236.536 168.604 236.495 168.518C236.453 168.436 236.439 168.34 236.457 168.247L237.62 161.238L231.719 159.521C231.647 159.501 231.581 159.463 231.529 159.411C231.478 159.36 231.436 159.295 231.415 159.226C231.395 159.154 231.391 159.079 231.405 159.006C231.419 158.934 231.453 158.866 231.502 158.811L234.696 155.004L229.568 147.816C229.516 147.743 229.489 147.657 229.489 147.569C229.485 147.48 229.513 147.393 229.561 147.319C229.609 147.245 229.682 147.188 229.761 147.154C229.844 147.12 229.937 147.111 230.024 147.13L237.009 148.592L237.752 144.229C237.762 144.155 237.793 144.084 237.838 144.025C237.883 143.965 237.942 143.917 238.011 143.886C238.076 143.855 238.149 143.842 238.221 143.847C238.294 143.851 238.366 143.874 238.428 143.913L242.876 146.628L248.09 140.409C248.152 140.336 248.235 140.285 248.328 140.262C248.418 140.24 248.518 140.247 248.604 140.284C248.694 140.32 248.767 140.383 248.818 140.464C248.867 140.545 248.888 140.64 248.881 140.735L248.042 149.691L253.843 149.004C253.925 148.994 254.012 149.008 254.091 149.046C254.167 149.084 254.229 149.143 254.274 149.217C254.319 149.287 254.347 149.37 254.347 149.455C254.347 149.54 254.319 149.623 254.274 149.694L250.79 154.826L257.095 161.423C257.161 161.492 257.202 161.577 257.216 161.67C257.227 161.766 257.209 161.859 257.164 161.941C257.119 162.024 257.047 162.092 256.964 162.13C256.878 162.171 256.781 162.182 256.688 162.164L248.863 160.712L249.437 168.347C249.443 168.436 249.423 168.529 249.374 168.604C249.329 168.683 249.26 168.745 249.178 168.783C249.115 168.813 249.05 168.831 248.981 168.831ZM243.042 162.037C243.159 162.037 243.273 162.085 243.356 162.168L248.446 167.224L247.917 160.208C247.91 160.139 247.924 160.071 247.948 160.009C247.976 159.947 248.014 159.889 248.066 159.844C248.118 159.799 248.176 159.765 248.242 159.748C248.307 159.727 248.376 159.724 248.446 159.738L255.483 161.045L249.882 155.186C249.809 155.113 249.768 155.018 249.761 154.917C249.751 154.817 249.778 154.716 249.837 154.633L252.976 150.01L247.6 150.641C247.534 150.648 247.465 150.641 247.403 150.619C247.341 150.598 247.282 150.563 247.234 150.518C247.189 150.473 247.151 150.419 247.13 150.36C247.106 150.301 247.099 150.237 247.102 150.174L247.855 142.097L243.314 147.511C243.245 147.594 243.149 147.649 243.045 147.667C242.938 147.685 242.827 147.663 242.738 147.607L238.525 145.032L237.814 149.199C237.803 149.258 237.783 149.315 237.748 149.366C237.717 149.416 237.676 149.459 237.624 149.493C237.576 149.527 237.52 149.551 237.462 149.563C237.403 149.575 237.341 149.575 237.282 149.563L230.96 148.235L235.625 154.757C235.68 154.837 235.711 154.934 235.704 155.032C235.701 155.13 235.663 155.224 235.6 155.299L232.624 158.849L238.249 160.493C238.352 160.524 238.442 160.592 238.501 160.682C238.56 160.774 238.584 160.884 238.567 160.99L237.555 167.073L242.734 162.158C242.817 162.079 242.928 162.037 243.042 162.037Z" fill="#002127"/>
<path d="M84.7194 160.809C84.6456 160.809 84.573 160.792 84.5088 160.754C84.4256 160.71 84.3586 160.641 84.3175 160.555C84.2768 160.473 84.2637 160.377 84.2809 160.284L85.9038 151.665L77.3922 152.293C77.3007 152.3 77.2095 152.279 77.1308 152.232C77.0521 152.186 76.9896 152.117 76.9519 152.034C76.9139 151.951 76.9029 151.859 76.9198 151.769C76.9371 151.68 76.9813 151.598 77.0469 151.534L83.2623 145.356L77.1229 138.937C77.0576 138.87 77.0155 138.783 77.0027 138.691C76.9896 138.598 77.0062 138.504 77.0504 138.422C77.0946 138.34 77.1636 138.273 77.2479 138.232C77.3321 138.191 77.4271 138.177 77.52 138.192L85.3168 139.472L87.2367 132.977C87.2571 132.907 87.2954 132.842 87.3475 132.789C87.3997 132.737 87.4639 132.698 87.535 132.676C87.6058 132.655 87.6814 132.652 87.754 132.666C87.8268 132.681 87.8945 132.714 87.9514 132.761L92.1952 136.277L100.182 130.647C100.256 130.596 100.344 130.568 100.434 130.568C100.524 130.568 100.612 130.596 100.686 130.647C100.761 130.696 100.819 130.767 100.853 130.85C100.886 130.932 100.895 131.023 100.876 131.11L99.222 138.799L104.098 139.62C104.172 139.63 104.242 139.659 104.303 139.703C104.363 139.747 104.411 139.806 104.443 139.874C104.474 139.94 104.487 140.012 104.482 140.085C104.477 140.157 104.454 140.228 104.415 140.289L101.387 145.191L108.293 150.916C108.366 150.977 108.418 151.06 108.44 151.153C108.463 151.245 108.455 151.341 108.419 151.429C108.382 151.516 108.319 151.59 108.237 151.64C108.155 151.689 108.06 151.711 107.965 151.702L97.9962 150.782L98.7593 157.184C98.769 157.268 98.7545 157.354 98.7172 157.43C98.6799 157.506 98.6216 157.569 98.5487 157.613C98.4762 157.657 98.3923 157.68 98.307 157.678C98.2221 157.676 98.1395 157.65 98.0687 157.603L92.354 153.769L85.0268 160.692C84.9432 160.768 84.8331 160.809 84.7194 160.809ZM86.4459 150.734C86.5109 150.732 86.5751 150.745 86.6348 150.77C86.6946 150.796 86.7481 150.834 86.7912 150.882C86.8375 150.932 86.8714 150.993 86.8897 151.058C86.9083 151.124 86.9114 151.193 86.8983 151.26L85.4239 159.096L92.0122 152.873C92.0861 152.803 92.1817 152.76 92.2832 152.751C92.3851 152.743 92.4866 152.769 92.5716 152.825L97.7718 156.316L97.0605 150.337C97.0525 150.27 97.0594 150.203 97.0808 150.14C97.1022 150.077 97.1375 150.019 97.1841 149.972C97.231 149.924 97.2877 149.888 97.3505 149.865C97.4134 149.841 97.4807 149.833 97.5473 149.839L106.632 150.676L100.524 145.62C100.441 145.552 100.387 145.456 100.369 145.35C100.352 145.245 100.374 145.138 100.431 145.047L103.314 140.378L98.6316 139.589C98.5725 139.579 98.5159 139.558 98.4655 139.526C98.4151 139.495 98.3716 139.452 98.3381 139.403C98.3039 139.354 98.2804 139.298 98.2687 139.239C98.2566 139.18 98.2569 139.119 98.269 139.06L99.7607 132.03L92.43 137.2C92.3492 137.256 92.2522 137.284 92.1538 137.28C92.055 137.277 91.9607 137.241 91.8844 137.179L87.8997 133.877L86.0627 140.1C86.0306 140.204 85.9618 140.293 85.8693 140.35C85.7768 140.408 85.6663 140.43 85.5585 140.413L78.6905 139.287L84.2153 145.047C84.2972 145.13 84.3431 145.241 84.3431 145.358C84.3431 145.474 84.2972 145.585 84.2153 145.668L78.5317 151.318L86.4218 150.734H86.4459Z" fill="#002127"/>
<path d="M284.029 113.43C283.95 113.43 283.871 113.409 283.802 113.368C283.729 113.327 283.674 113.269 283.636 113.199C283.594 113.128 283.577 113.049 283.581 112.969C283.581 112.889 283.605 112.811 283.65 112.743L291.909 99.2052V99.1777C291.947 99.119 291.999 99.0696 292.058 99.0339C292.116 98.9982 292.185 98.9766 292.254 98.9714L307.158 97.8867C307.237 97.8823 307.32 97.8987 307.392 97.9351C307.461 97.9712 307.524 98.0257 307.568 98.093C307.61 98.162 307.631 98.241 307.631 98.3213C307.631 98.4016 307.61 98.4806 307.568 98.5496L300.138 111.648C300.103 111.71 300.051 111.763 299.993 111.802C299.93 111.841 299.865 111.866 299.792 111.875L284.05 113.416L284.029 113.43ZM292.565 99.854L284.875 112.455L299.495 111.02L299.53 110.962L306.408 98.8444L292.565 99.854Z" fill="#002127"/>
<path d="M299.848 111.578C299.779 111.579 299.714 111.564 299.655 111.534L292.518 108.101C292.445 108.067 292.383 108.014 292.338 107.947C292.293 107.88 292.269 107.803 292.265 107.724L291.848 99.4853V99.451C291.848 99.3799 291.865 99.3099 291.896 99.2467C291.927 99.1839 291.975 99.1297 292.034 99.0885C292.093 99.0476 292.158 99.0209 292.231 99.0113C292.3 99.0013 292.373 99.0085 292.442 99.0322L300.283 102.279C300.366 102.314 300.439 102.373 300.487 102.449C300.535 102.525 300.563 102.614 300.56 102.705L300.297 111.167C300.294 111.282 300.242 111.392 300.159 111.472C300.076 111.552 299.962 111.597 299.848 111.596V111.578ZM293.146 107.404L299.424 110.435L299.655 102.966L292.777 100.113L293.146 107.404Z" fill="#002127"/>
<path d="M101.223 101.067C101.124 101.067 101.029 101.036 100.95 100.978L86.8411 90.1886C86.7703 90.135 86.7175 90.0616 86.6892 89.9778C86.6609 89.8941 86.6585 89.8034 86.6823 89.7183C86.7027 89.6301 86.7496 89.5505 86.8169 89.489C86.8839 89.4279 86.9682 89.3881 87.0586 89.375L111.778 86.3924L98.3116 76.2144C98.2173 76.1436 98.1555 76.0382 98.1393 75.9219C98.1231 75.8052 98.1538 75.6871 98.2253 75.5934C98.2968 75.4997 98.4028 75.4379 98.5202 75.4218C98.6372 75.4056 98.756 75.4365 98.8503 75.5076L113.198 86.3478C113.268 86.4017 113.321 86.4752 113.349 86.5589C113.378 86.6427 113.38 86.7329 113.357 86.8184C113.334 86.9039 113.286 86.9801 113.219 87.0381C113.151 87.0961 113.068 87.1328 112.98 87.1438L88.253 90.1271L101.496 100.253C101.57 100.309 101.625 100.388 101.653 100.477C101.681 100.566 101.679 100.662 101.649 100.75C101.619 100.838 101.561 100.914 101.485 100.968C101.408 101.022 101.316 101.051 101.223 101.05V101.067Z" fill="#002127"/>
<path d="M104.531 80.3363C104.431 80.336 104.334 80.3034 104.255 80.2433C104.162 80.1702 104.101 80.0638 104.087 79.9467C104.073 79.8296 104.106 79.7116 104.179 79.6185L106.371 76.8278C106.445 76.7344 106.552 76.674 106.67 76.6596C106.788 76.6452 106.908 76.6778 107.002 76.7506C107.095 76.8237 107.157 76.9305 107.171 77.0482C107.186 77.1656 107.153 77.284 107.08 77.3774L104.883 80.1647C104.842 80.2186 104.789 80.2618 104.728 80.2917C104.667 80.3215 104.599 80.3366 104.531 80.3363Z" fill="#002127"/>
<path d="M106.855 82.0821C106.755 82.0821 106.657 82.0482 106.579 81.986C106.486 81.9129 106.426 81.8062 106.412 81.6891C106.397 81.5721 106.43 81.454 106.503 81.3609L108.696 78.5737C108.775 78.5043 108.876 78.4648 108.982 78.4624C109.088 78.46 109.191 78.4944 109.273 78.5599C109.356 78.6255 109.412 78.7182 109.433 78.8211C109.454 78.9241 109.437 79.0312 109.386 79.1232L107.194 81.9105C107.153 81.9613 107.101 82.0028 107.043 82.0324C106.985 82.0622 106.921 82.079 106.855 82.0821Z" fill="#002127"/>
<path d="M91.1347 97.951C91.0352 97.9517 90.9389 97.9173 90.8619 97.8545C90.8153 97.8192 90.7759 97.7745 90.7465 97.7241C90.7172 97.6733 90.6985 97.617 90.691 97.559C90.6837 97.501 90.6878 97.4419 90.7037 97.3853C90.7193 97.329 90.7462 97.2761 90.7825 97.2301L92.9786 94.4428C93.058 94.3732 93.1591 94.3337 93.2648 94.3313C93.3705 94.3285 93.4737 94.3632 93.5562 94.4288C93.6388 94.4943 93.6954 94.587 93.7158 94.69C93.7365 94.793 93.7199 94.8997 93.6692 94.9921L91.4731 97.7794C91.4327 97.8308 91.3815 97.8727 91.3232 97.9022C91.2645 97.9318 91.2003 97.9486 91.1347 97.951Z" fill="#002127"/>
<path d="M93.4628 99.6641C93.3633 99.6647 93.2667 99.6308 93.19 99.5679C93.143 99.5322 93.104 99.488 93.0747 99.4372C93.0453 99.3864 93.0263 99.3304 93.0191 99.2724C93.0118 99.2144 93.016 99.155 93.0318 99.0987C93.0474 99.0424 93.074 98.9895 93.1106 98.9436L95.3067 96.1593C95.3391 96.1048 95.3827 96.0577 95.4351 96.0214C95.4873 95.985 95.5463 95.9606 95.6092 95.9489C95.6717 95.9376 95.7362 95.9393 95.798 95.9548C95.8598 95.9699 95.9179 95.998 95.9676 96.0375C96.0173 96.077 96.0581 96.1264 96.0871 96.183C96.1161 96.2393 96.1327 96.3015 96.1354 96.3646C96.1382 96.4278 96.1275 96.4913 96.1036 96.55C96.0798 96.6087 96.0436 96.6615 95.9973 96.7051L93.8012 99.4924C93.7611 99.5446 93.7104 99.5868 93.6517 99.6167C93.593 99.6462 93.5284 99.6627 93.4628 99.6641Z" fill="#002127"/>
<path d="M33.3273 131.321C33.2241 131.319 33.1247 131.283 33.0442 131.218C32.9889 131.173 32.9454 131.116 32.9171 131.051C32.8888 130.986 32.8771 130.915 32.8819 130.844L34.0387 115.28C34.0494 115.164 34.1053 115.056 34.1951 114.979C34.2849 114.903 34.4009 114.864 34.5186 114.872C34.6367 114.881 34.7462 114.935 34.8239 115.024C34.9012 115.113 34.9406 115.228 34.933 115.346L33.8211 130.278L44.0524 127.422C44.1104 127.402 44.1715 127.394 44.2323 127.399C44.293 127.404 44.3521 127.421 44.4063 127.45C44.4602 127.478 44.5078 127.517 44.5461 127.564C44.5845 127.611 44.6128 127.665 44.629 127.724C44.6456 127.782 44.6497 127.843 44.6418 127.904C44.6335 127.964 44.6131 128.021 44.5817 128.073C44.5506 128.125 44.5088 128.171 44.4595 128.206C44.4101 128.242 44.3538 128.267 44.2941 128.28L33.4482 131.304C33.4088 131.315 33.3684 131.321 33.3273 131.321Z" fill="#002127"/>
<path d="M29.9671 124.691C29.8653 124.69 29.7669 124.654 29.6881 124.59C29.6091 124.526 29.5549 124.437 29.5335 124.338C29.512 124.239 29.5252 124.135 29.5708 124.045C29.6163 123.954 29.6916 123.882 29.7841 123.84L38.0713 120.191C38.1259 120.162 38.1856 120.144 38.2474 120.139C38.3089 120.133 38.371 120.141 38.4297 120.161C38.4881 120.181 38.542 120.213 38.5876 120.254C38.6331 120.296 38.6697 120.347 38.6949 120.403C38.7198 120.459 38.7329 120.52 38.7333 120.581C38.7336 120.643 38.7212 120.704 38.6967 120.76C38.6721 120.816 38.6359 120.867 38.5907 120.909C38.5454 120.951 38.4923 120.984 38.4339 121.004L30.1294 124.653C30.078 124.675 30.0231 124.688 29.9671 124.691Z" fill="#002127"/>
<g style="mix-blend-mode:overlay" opacity="0.5">
<g style="mix-blend-mode:overlay" opacity="0.5">
<path d="M323.787 107.25C319.709 106.368 316.453 105.088 308.874 105.939C296.129 107.367 296.653 111.97 283.908 113.398C275.904 114.298 272.514 112.3 268.025 111.377C266.778 105.346 267.555 99.0749 270.241 93.5271C273.107 94.1656 276.312 94.639 281.699 94.0348C294.444 92.6034 293.919 88.0003 306.664 86.5688C311.001 86.0848 313.915 86.2942 316.387 86.7302C318.932 89.4869 320.9 92.7225 322.168 96.2461C323.438 99.7694 323.987 103.51 323.78 107.247L323.787 107.25Z" fill="white"/>
</g>
<g style="mix-blend-mode:overlay" opacity="0.5">
<path d="M323.326 110.971C322.688 114.3 321.444 117.486 319.659 120.373C317.315 120.03 314.518 119.906 310.512 120.373C297.767 121.804 298.268 126.208 285.523 127.629C283.071 127.934 280.592 127.954 278.137 127.688C274.273 124.637 271.276 120.635 269.449 116.079C273.517 116.899 276.766 118.107 284.345 117.256C297.087 115.825 296.586 111.421 309.331 109.999C316.341 109.196 319.645 110.171 323.326 110.971Z" fill="white"/>
</g>
</g>
<g style="mix-blend-mode:overlay" opacity="0.5">
<g style="mix-blend-mode:overlay" opacity="0.5">
<path d="M231.858 28.7428C230.277 31.7171 228.495 34.5841 226.534 37.3243C216.292 51.9473 210.951 48.2507 200.709 62.8737C191.088 76.6042 195.214 80.7234 187.265 93.2662C178.303 90.2911 170.646 84.3362 165.584 76.4051C172.459 64.844 168.944 60.5636 178.226 47.3136C188.467 32.6906 193.809 36.391 204.051 21.768C205.643 19.5306 207.004 17.1398 208.112 14.6316C217.435 16.4533 225.829 21.4419 231.858 28.7428Z" fill="white"/>
</g>
<g style="mix-blend-mode:overlay" opacity="0.5">
<path d="M241.054 51.4362C232.077 62.9802 227.011 60.8107 217.45 74.4589C210.989 83.6823 210.634 88.4914 208.679 94.4608C203.434 95.5503 198.03 95.6196 192.76 94.6636C199.37 83.4218 196.213 79.2165 205.402 66.1245C215.644 51.5015 220.751 55.0336 230.992 40.4106C232.577 38.1746 233.962 35.8051 235.136 33.3291C238.527 38.8117 240.557 45.0189 241.054 51.4362Z" fill="white"/>
</g>
</g>
<g style="mix-blend-mode:overlay" opacity="0.5">
<g style="mix-blend-mode:overlay" opacity="0.5">
<path d="M128.195 88.9013C120.143 89.1725 118.772 86.1209 109 87.2433C98.1164 88.4963 98.5722 92.4266 87.6883 93.6795C79.6877 94.5995 77.0945 92.1142 72.0428 91.6886C71.3936 86.4617 72.2372 81.1587 74.4772 76.386C77.3673 77.0725 80.2092 77.7799 85.7581 77.138C96.6454 75.8886 96.1862 71.9582 107.073 70.7053C115.457 69.7407 117.657 71.848 123.196 72.2977C126.59 77.1658 128.341 82.98 128.195 88.9013Z" fill="white"/>
</g>
<g style="mix-blend-mode:overlay" opacity="0.5">
<path d="M127.914 92.2014C127.484 95.2177 126.563 98.144 125.186 100.865C120.58 100.278 118.097 98.6757 110.428 99.5579C99.5408 100.811 99.9793 104.566 89.092 105.819C83.2219 106.505 80.311 105.459 77.1861 104.697C75.1761 101.953 73.6896 98.8662 72.8008 95.5894C77.7351 96.1181 80.1177 97.8721 88.0596 96.9625C98.9434 95.7096 98.5083 91.9546 109.392 90.7052C118.891 89.6033 120.438 92.325 127.914 92.2014Z" fill="white"/>
</g>
</g>
<g style="mix-blend-mode:overlay" opacity="0.5">
<g style="mix-blend-mode:overlay" opacity="0.5">
<path d="M55.4987 116.927C49.7563 119.862 48.0678 117.957 41.6867 121.647C34.8429 125.601 36.2897 128.073 29.4458 132.028C25.9065 134.07 23.6517 134.228 21.4176 134.55C20.0102 132.655 18.9674 130.517 18.341 128.245C17.9522 126.855 17.7205 125.426 17.6504 123.985C19.6673 123.501 21.5954 122.707 23.3651 121.63C30.2055 117.679 28.7621 115.207 35.6025 111.257C41.4726 107.869 43.3614 109.197 48.0782 107.165C51.5571 109.527 54.1631 112.955 55.4987 116.927Z" fill="white"/>
</g>
<g style="mix-blend-mode:overlay" opacity="0.5">
<path d="M56.3058 126.036C53.1187 126.945 51.0089 126.619 46.2196 129.389C39.3792 133.34 40.7569 135.699 33.9165 139.653C32.8185 140.298 31.6624 140.841 30.4636 141.273C27.8027 140.313 25.3828 138.79 23.3711 136.811C25.9488 136.373 28.4183 135.45 30.6466 134.089C37.4869 130.134 36.1092 127.776 42.9496 123.825C49.1097 120.262 50.8431 121.824 56.1262 119.277C56.5879 121.502 56.6487 123.79 56.3058 126.036Z" fill="white"/>
</g>
</g>
<path d="M251.545 93.6929C249.221 93.6929 249.218 97.2834 251.545 97.2834C253.872 97.2834 253.872 93.6929 251.545 93.6929Z" fill="#002127"/>
<path d="M319.953 137.183C317.629 137.183 317.626 140.773 319.953 140.773C322.28 140.773 322.284 137.183 319.953 137.183Z" fill="#002127"/>
<path d="M152.945 75.8842C150.621 75.8842 150.614 79.4748 152.945 79.4748C155.275 79.4748 155.272 75.8842 152.945 75.8842Z" fill="#002127"/>
<path d="M23.4805 151.135C21.1567 151.135 21.1532 154.725 23.4805 154.725C25.8078 154.725 25.8113 151.135 23.4805 151.135Z" fill="#002127"/>
<path d="M114.832 157.643C112.508 157.643 112.505 161.233 114.832 161.233C117.159 161.233 117.173 157.643 114.832 157.643Z" fill="#002127"/>
<path d="M64.8946 40.2255C62.5707 40.2255 62.5673 43.816 64.8946 43.816C67.2219 43.816 67.2219 40.2255 64.8946 40.2255Z" fill="#002127"/>
<path d="M309.755 52.9171C306.213 52.9171 306.206 58.4093 309.755 58.4093C313.305 58.4093 313.312 52.9171 309.755 52.9171Z" fill="#002127"/>
<path d="M165.007 9.34927C161.465 9.34927 161.458 14.8415 165.007 14.8415C168.557 14.8415 168.557 9.34927 165.007 9.34927Z" fill="#002127"/>
<path d="M244.964 120.07C241.417 120.07 241.414 125.544 244.964 125.544C248.513 125.544 248.513 120.07 244.964 120.07Z" fill="#002127"/>
<path d="M81.5633 122.806C78.0171 122.806 78.0136 128.298 81.5633 128.298C85.113 128.298 85.113 122.806 81.5633 122.806Z" fill="#002127"/>
<path d="M7.22998 98.4211C3.68721 98.4211 3.6803 103.913 7.22998 103.913C10.7797 103.913 10.7797 98.4211 7.22998 98.4211Z" fill="#002127"/>
<path d="M213.096 81.6875C213.096 81.787 210.406 82.2917 210.143 82.35C207.726 82.9442 205.247 83.2349 202.757 83.2154C200.316 83.1 197.913 82.5488 195.668 81.588C195.077 81.3477 194.501 81.0926 193.942 80.8228C188.816 78.408 184.355 74.7944 180.941 70.2919C177.527 65.7893 175.26 60.5316 174.336 54.968C174.198 54.1579 174.094 53.3412 174.015 52.5208C174.15 47.2964 175.31 42.0342 177.92 37.4722C178.963 35.563 180.216 33.776 181.659 32.1444C183.811 29.8171 187.343 27.8952 190.151 26.4741C190.451 26.3196 191.397 26.0446 191.269 25.5538C191.179 25.2105 189.743 25.8116 189.401 25.9317C184.611 27.5773 180.478 30.7051 177.606 34.8565C177.49 34.7749 177.345 34.7422 177.205 34.7659C177.064 34.7896 176.939 34.8682 176.857 34.9836C176.334 35.6152 175.847 36.266 175.396 36.9364C175.304 36.9645 175.219 37.0116 175.147 37.0744C175.074 37.1368 175.016 37.2141 174.975 37.3006C174.754 37.74 174.543 38.1862 174.339 38.6324C173.932 39.3327 173.554 40.0487 173.207 40.7809C173.193 40.8067 173.18 40.8331 173.169 40.8602C172.381 42.5312 171.702 44.251 171.138 46.0091L171.014 46.3898C170.865 46.4489 170.737 46.5505 170.647 46.6819C170.557 46.8134 170.507 46.9689 170.506 47.1282C170.506 47.4714 170.482 47.7873 170.472 48.1168C169.509 51.3503 168.835 54.8173 170.006 58.0233C170.173 60.0575 170.613 62.0604 171.314 63.9786C171.304 64.0493 171.304 64.121 171.314 64.1918C171.598 65.3918 172.064 66.5424 172.695 67.6035C172.753 67.7054 172.838 67.7899 172.941 67.8472C174.132 69.8515 175.471 71.7655 176.946 73.5731C176.954 73.776 177.039 73.9686 177.184 74.1117C177.53 74.455 177.875 74.8257 178.252 75.1793L178.832 75.7559C179.453 76.4425 180.102 77.0809 180.765 77.716C180.794 77.8498 180.867 77.9707 180.973 78.0592C182.2 79.0698 183.494 79.998 184.847 80.8366C185.521 81.4919 186.353 81.9645 187.264 82.2096C187.371 82.2378 187.482 82.2446 187.592 82.2299C187.702 82.2151 187.807 82.1791 187.902 82.1238L189.46 82.7585C189.494 82.7709 189.529 82.7801 189.564 82.7863C189.619 82.8234 189.68 82.8532 189.743 82.8752L189.985 82.9439C190.003 83.064 190.057 83.1755 190.141 83.2634C190.225 83.3513 190.335 83.4114 190.455 83.4347C192.388 83.881 194.253 84.4645 196.235 84.722C196.118 84.5366 196.925 84.7223 196.797 84.5266C199.663 85.1685 201.708 85.0275 204.639 84.8181C205.205 84.8043 205.765 84.6996 206.297 84.5091C206.442 84.4546 206.576 84.3756 206.694 84.2757C206.759 84.204 206.832 84.1364 206.904 84.0735C207.039 83.9915 207.191 83.9441 207.35 83.9359C209.069 83.6846 210.761 83.2871 212.412 82.7482C212.847 82.604 213.355 82.3637 213.403 81.9072C213.41 81.8736 213.406 81.8392 213.399 81.8063C213.389 81.7733 213.372 81.7435 213.348 81.7184C213.313 81.693 213.268 81.6772 213.227 81.6717C213.182 81.6666 213.137 81.6717 213.096 81.6875Z" fill="#002127"/>
<path d="M117.342 100.115C117.31 100.081 117.271 100.054 117.229 100.036C117.185 100.018 117.139 100.008 117.092 100.008C117.046 100.008 116.999 100.018 116.956 100.036C116.913 100.054 116.874 100.081 116.842 100.115C116.096 100.857 115.297 101.545 114.452 102.174C113.582 102.833 112.522 103.654 111.586 104.234C110.857 104.677 110.097 105.067 109.311 105.401C107.796 106.034 106.203 106.464 104.573 106.678C101.172 107.089 97.7215 106.648 94.5358 105.395C88.5483 103.105 83.3408 98.1551 81.3899 92.0073C79.7601 86.8583 81.0449 80.8169 83.5 76.0936C83.7452 75.6165 82.8336 75.7126 82.5366 76.152C81.8464 77.1845 81.3122 78.3122 80.9514 79.4988C80.8184 79.4792 80.6827 79.5046 80.566 79.5706C80.449 79.6365 80.3574 79.7391 80.306 79.8623C78.8219 83.4014 78.5053 87.317 79.401 91.0458C79.5608 91.743 79.7604 92.4309 79.9983 93.1054C79.8958 93.1782 79.8208 93.2832 79.786 93.4037C79.7507 93.5238 79.7576 93.6522 79.805 93.7682C80.1195 94.6061 80.4814 95.4255 80.8895 96.2226C80.8422 96.3211 80.8195 96.4299 80.8233 96.539C80.8267 96.6485 80.8567 96.755 80.9103 96.8507C81.5515 98.0779 82.3653 99.2086 83.3274 100.208C83.4517 100.4 83.5791 100.592 83.7207 100.774C83.7124 100.88 83.7282 100.986 83.768 101.084C83.8073 101.182 83.8695 101.27 83.9485 101.341C84.1695 101.557 84.3943 101.766 84.6222 101.979L84.6878 102.072C85.7358 103.356 86.9489 104.499 88.2959 105.47C88.395 105.547 88.5158 105.59 88.6412 105.593C88.8449 105.789 89.0521 105.985 89.2662 106.174C89.3577 106.257 89.4713 106.313 89.5939 106.334C89.7164 106.356 89.8421 106.342 89.9568 106.294C91.9336 107.25 94.021 107.96 96.1722 108.408C96.2226 108.517 96.3024 108.609 96.4021 108.675C96.5023 108.741 96.6186 108.778 96.7385 108.782C98.9225 108.924 101.113 108.948 103.299 108.854C103.43 108.852 103.557 108.81 103.663 108.734C103.769 108.658 103.85 108.552 103.893 108.429C105.762 108.265 107.598 107.842 109.349 107.173C110.156 106.825 110.93 106.405 111.659 105.916C112.588 105.392 113.442 104.746 114.197 103.994C114.497 103.671 114.853 103.263 114.618 102.964C115.347 102.373 116.014 101.71 116.61 100.987C116.759 100.815 117.488 100.262 117.342 100.115Z" fill="#002127"/>
<path d="M51.7747 123.555C51.243 119.415 49.5096 115.128 46.7403 111.994C46.6709 111.918 46.5869 111.858 46.4934 111.815C46.4001 111.773 46.299 111.749 46.1961 111.746C46.0932 111.743 45.991 111.761 45.8953 111.799C45.7997 111.836 45.7123 111.892 45.6388 111.963C44.9609 111.432 44.2213 110.983 43.4357 110.628L43.3598 110.604C42.3083 109.897 41.1592 109.345 39.9482 108.966C38.2611 108.441 36.4766 108.3 34.7273 108.554C33.8723 108.687 33.036 108.917 32.2342 109.241C31.7543 109.433 31.2639 109.632 30.7874 109.855C30.5353 109.965 30.2936 110.089 30.0588 110.199C29.5512 110.446 29.4304 110.841 28.9401 111.125C27.9491 111.706 27.8593 111.963 27.0064 112.739L26.4159 112.955C26.2053 113.178 25.4629 113.607 25.601 113.899C25.5147 113.992 25.4249 114.084 25.342 114.177C24.8686 114.705 24.4336 115.266 24.0403 115.856C23.8607 116.13 24.0161 116.484 23.8572 116.769C23.6363 117.163 23.1667 117.671 23.3773 118.142C23.4256 118.252 23.436 118.557 23.5534 118.615C23.7295 118.701 23.8987 118.128 23.947 118.022C24.0109 117.896 24.0824 117.775 24.1611 117.658C24.9898 116.323 26.0009 115.109 27.1652 114.05C28.323 113.055 29.6213 112.233 31.0188 111.613C31.6714 111.318 32.3033 110.995 32.9835 110.755C33.8419 110.431 34.7394 110.221 35.6527 110.13C36.5905 110.058 37.5335 110.12 38.4531 110.315C41.0846 110.915 43.4423 112.363 45.1588 114.435C48.636 118.471 50.2209 124.612 47.6208 129.487C46.2845 131.989 44.1678 133.99 41.8163 135.566H41.7852C41.1899 135.94 40.5556 136.248 39.893 136.486C39.1364 136.745 38.3557 136.929 37.5622 137.035C37.286 137.066 37.3516 137.152 37.3895 137.454C37.3996 137.519 37.423 137.581 37.4586 137.636C37.4942 137.691 37.5408 137.738 37.5957 137.774C37.6506 137.81 37.7127 137.835 37.7777 137.846C37.8426 137.857 37.9092 137.854 37.9731 137.838C39.1668 137.661 40.3222 137.286 41.3916 136.729C41.3981 136.742 41.404 136.754 41.4088 136.767C41.6264 137.138 42.1961 136.932 42.5759 136.678C44.8066 135.198 46.8404 133.771 48.3355 131.529C48.4167 131.551 48.5013 131.557 48.5845 131.547C48.6677 131.536 48.7482 131.509 48.8207 131.467C48.8936 131.425 48.9567 131.369 49.0075 131.303C49.0583 131.236 49.0952 131.16 49.1159 131.079C49.368 130.207 49.8928 129.442 50.2554 128.615C50.5914 127.845 50.8624 127.05 51.0669 126.236C51.1055 126.113 51.1055 125.981 51.0669 125.858C51.1421 125.76 51.1801 125.638 51.1739 125.515C51.1722 125.14 51.1964 124.765 51.2464 124.393C51.2464 124.351 51.2464 124.307 51.2637 124.262C51.2809 124.218 51.2637 124.06 51.2637 124.224C51.2709 124.137 51.2847 124.049 51.3051 123.963C51.3051 123.926 51.3051 123.891 51.3258 123.854C51.6401 123.792 51.8231 123.936 51.7747 123.555Z" fill="#002127"/>
<path d="M276.079 97.8752C275.817 98.2459 276.1 97.453 276.079 97.8752V97.8752Z" fill="#002127"/>
<path d="M316.31 105.551C316.289 105.101 316.261 104.651 316.223 104.198C316.265 104.104 316.282 104.002 316.275 103.899C316.213 102.972 316.096 102.048 315.93 101.133C315.916 101.04 315.882 100.951 315.826 100.875C315.768 100.799 315.695 100.739 315.609 100.7C315.426 99.9892 315.194 99.2921 314.918 98.6135C315.008 98.5359 315.07 98.4332 315.098 98.3189C315.125 98.2046 315.118 98.0845 315.077 97.9746C314.856 97.319 314.428 96.8522 314.103 96.2583C313.717 95.5375 313.516 94.748 313.067 94.0477C312.297 92.8257 311.172 91.8817 310.232 90.7936C310.153 90.6916 310.043 90.6202 309.915 90.5914C309.787 90.5626 309.656 90.578 309.542 90.6357C309.404 90.4949 309.266 90.3546 309.124 90.2172C308.444 89.5709 307.705 88.9839 306.925 88.4628C306.956 88.3544 306.959 88.2383 306.928 88.1292C306.897 88.0197 306.835 87.9215 306.752 87.8453C306.248 87.3407 305.581 87.1241 304.925 86.8735C304.062 86.5279 303.168 86.2656 302.256 86.0909C302.173 86.0754 302.09 86.0754 302.007 86.0909C301.987 86.0154 301.966 85.9639 301.949 85.981C301.258 85.6378 300.716 85.7408 299.97 85.4867C299.677 85.3838 299.245 85.1847 299.055 85.3632C298.53 85.2774 298.485 85.1366 297.954 85.0714C297.885 84.7281 297.104 85.0477 296.648 85.0134C295.426 84.9235 294.2 84.9581 292.988 85.116C292.398 85.0577 291.883 85.2121 291.3 85.092C290.854 85.0028 290.316 84.9822 290.191 85.4353C290.167 85.5156 290.16 85.5993 290.171 85.6824C289.318 85.9203 288.482 86.2104 287.667 86.5509C286.055 86.843 284.525 87.4749 283.178 88.4045C282.191 89.16 281.258 89.9814 280.385 90.8626C279.404 91.8031 278.955 92.7746 277.999 93.7357C277.719 94.0172 277.187 95.5031 277.332 95.7606C276.78 96.4471 276.576 97.1577 276.062 97.882C276.062 98.184 275.951 98.4758 275.923 98.7744C275.899 99.0147 275.924 99.1177 276.151 98.9358C276.638 98.5307 276.984 97.8854 277.35 97.3808C277.833 96.708 278.337 96.0479 278.862 95.4002C279.111 95.0174 279.404 94.6646 279.739 94.3498C281.207 92.7035 282.881 91.2481 284.718 90.0182C285.274 89.6821 285.851 89.3783 286.445 89.1082C287.591 88.6039 288.776 88.193 289.991 87.8793C293.296 87.57 296.631 88.0042 299.746 89.1494C303.282 90.4126 306.731 92.5374 309.179 95.4002C310.426 96.9212 311.379 98.6588 311.987 100.525C312.694 102.523 313.168 104.597 313.392 106.704C313.703 109.549 313.395 112.428 312.491 115.145C312.066 116.391 311.486 117.58 310.764 118.684C310.267 119.432 309.704 120.136 309.141 120.833C308.969 121.049 307.591 122.505 307.795 122.759C307.902 122.892 308.831 122.106 308.979 121.993C309.487 121.597 309.949 121.147 310.36 120.651L310.561 120.414C310.837 120.572 311.12 120.198 311.348 119.909C312.746 118.145 313.803 116.539 314.417 114.417C314.535 114.422 314.649 114.395 314.749 114.338C314.853 114.281 314.935 114.197 314.991 114.094L315.681 112.608C315.764 112.454 315.788 112.274 315.743 112.104C315.699 111.935 315.592 111.788 315.443 111.695H315.409C315.426 111.664 315.44 111.632 315.45 111.599C315.474 111.516 315.498 111.437 315.519 111.355C315.605 111.372 315.692 111.371 315.778 111.353C315.864 111.335 315.944 111.301 316.016 111.252C316.089 111.203 316.151 111.14 316.199 111.067C316.248 110.994 316.279 110.912 316.296 110.826C316.593 109.08 316.596 107.298 316.31 105.551Z" fill="#002127"/>
<path d="M221.611 109.584C225.026 110.946 227.758 113.599 229.205 116.96C230.655 120.321 230.703 124.116 229.343 127.513C228.497 129.634 227.813 131.22 227.813 131.22C228.462 129.522 228.766 127.712 228.711 125.896C228.656 124.08 228.238 122.293 227.485 120.638C226.732 118.982 225.658 117.491 224.322 116.25C222.989 115.008 221.421 114.041 219.709 113.403C217.996 112.766 216.176 112.471 214.35 112.535C212.523 112.599 210.728 113.021 209.063 113.778C207.402 114.534 205.907 115.609 204.664 116.941C203.421 118.273 202.454 119.836 201.822 121.54C202.313 120.08 202.9 118.655 203.58 117.273C206.86 110.714 214.495 106.756 221.611 109.584Z" fill="#002127"/>
<path d="M223.314 115.289C225.344 116.839 226.905 118.917 227.82 121.294C228.735 123.67 228.974 126.252 228.504 128.754C228.034 131.256 226.881 133.58 225.165 135.47C223.449 137.359 221.242 138.74 218.787 139.459C216.329 140.178 213.722 140.208 211.249 139.545C208.78 138.882 206.539 137.553 204.782 135.703C203.024 133.854 201.812 131.556 201.287 129.066C200.759 126.575 200.939 123.988 201.798 121.592C201.802 121.573 201.809 121.554 201.819 121.537C202.562 119.498 203.777 117.661 205.369 116.177C206.957 114.693 208.877 113.602 210.973 112.994C213.066 112.385 215.276 112.276 217.42 112.675C219.564 113.074 221.584 113.969 223.314 115.289ZM223.069 132.497C224.319 130.882 225.061 128.935 225.196 126.901C225.334 124.868 224.861 122.84 223.839 121.074C222.813 119.308 221.287 117.883 219.45 116.981C217.61 116.078 215.545 115.738 213.511 116.003C211.477 116.269 209.571 117.128 208.031 118.473C206.488 119.816 205.383 121.585 204.854 123.554C204.326 125.523 204.395 127.604 205.055 129.533C205.718 131.462 206.937 133.153 208.566 134.392C210.742 136.048 213.494 136.779 216.211 136.424C218.929 136.069 221.394 134.656 223.069 132.497Z" fill="#FF7170"/>
<path d="M221.15 118.079C222.776 119.317 223.998 121.008 224.658 122.937C225.321 124.867 225.39 126.947 224.862 128.916C224.33 130.885 223.225 132.654 221.685 133.998C220.145 135.342 218.235 136.201 216.202 136.467C214.171 136.733 212.103 136.392 210.266 135.49C208.429 134.587 206.899 133.163 205.877 131.397C204.855 129.631 204.382 127.603 204.517 125.569C204.655 123.536 205.394 121.588 206.647 119.974C208.318 117.814 210.784 116.402 213.505 116.047C216.222 115.692 218.971 116.422 221.15 118.079Z" fill="#CE4D4D"/>
<path d="M227.809 131.645C227.751 131.645 227.692 131.633 227.64 131.61C227.588 131.588 227.54 131.557 227.502 131.517C227.461 131.477 227.433 131.429 227.412 131.377C227.388 131.325 227.378 131.27 227.381 131.214C227.381 131.158 227.392 131.102 227.416 131.051C227.416 131.034 228.106 129.445 228.942 127.358C230.258 124.063 230.209 120.384 228.807 117.125C227.402 113.866 224.76 111.292 221.452 109.965C214.916 107.37 207.399 110.586 203.959 117.448C203.29 118.81 202.713 120.216 202.233 121.656C202.216 121.709 202.188 121.758 202.15 121.801C202.112 121.844 202.071 121.878 202.019 121.904C201.967 121.929 201.915 121.944 201.857 121.949C201.801 121.953 201.746 121.947 201.691 121.929C201.639 121.912 201.587 121.884 201.546 121.848C201.504 121.811 201.47 121.767 201.442 121.717C201.418 121.667 201.401 121.613 201.397 121.557C201.394 121.501 201.401 121.445 201.418 121.392C201.912 119.912 202.509 118.467 203.2 117.067C206.839 109.803 214.826 106.426 221.777 109.172C225.289 110.582 228.099 113.317 229.594 116.779C231.086 120.242 231.141 124.151 229.746 127.653C228.907 129.754 228.22 131.353 228.213 131.371C228.182 131.452 228.127 131.522 228.054 131.571C227.982 131.62 227.896 131.646 227.809 131.645Z" fill="#002127"/>
<path d="M214.849 140.453C212.56 140.45 210.305 139.9 208.274 138.851C206.241 137.802 204.493 136.284 203.174 134.424C201.855 132.564 201.002 130.417 200.692 128.162C200.381 125.908 200.616 123.612 201.382 121.467C201.382 121.436 201.403 121.406 201.417 121.375C201.914 120.008 202.622 118.726 203.516 117.575C205.612 114.863 208.623 112.993 211.993 112.308C215.363 111.623 218.868 112.168 221.869 113.844C224.87 115.52 227.159 118.215 228.323 121.434C229.486 124.653 229.441 128.18 228.202 131.371C227.273 133.749 225.719 135.835 223.699 137.411C221.682 138.988 219.276 139.995 216.731 140.329C216.106 140.411 215.477 140.452 214.849 140.453ZM202.221 121.704V121.735C201.034 125.045 201.206 128.686 202.701 131.87C204.193 135.055 206.886 137.527 210.198 138.752C213.513 139.978 217.176 139.858 220.401 138.419C223.623 136.98 226.147 134.337 227.428 131.061C228.592 128.063 228.633 124.746 227.539 121.721C226.444 118.695 224.293 116.163 221.472 114.587C218.654 113.012 215.357 112.5 212.19 113.143C209.02 113.787 206.192 115.544 204.221 118.093C203.378 119.179 202.708 120.389 202.242 121.68L202.221 121.704Z" fill="#002127"/>
<path d="M214.849 136.939C212.477 136.947 210.167 136.17 208.288 134.732C206.258 133.188 204.846 130.976 204.3 128.492C203.758 126.009 204.121 123.414 205.322 121.171C206.527 118.928 208.492 117.183 210.868 116.247C213.243 115.31 215.878 115.243 218.302 116.058C220.723 116.873 222.774 118.516 224.093 120.696C225.408 122.874 225.902 125.447 225.488 127.955C225.073 130.463 223.775 132.743 221.828 134.389C219.88 136.034 217.404 136.938 214.849 136.939ZM208.827 134.056C210.381 135.243 212.259 135.945 214.214 136.073C216.172 136.201 218.122 135.749 219.821 134.774C221.52 133.799 222.891 132.346 223.758 130.597C224.628 128.848 224.952 126.882 224.697 124.949C224.441 123.016 223.616 121.202 222.321 119.736C221.026 118.27 219.328 117.218 217.432 116.713C215.536 116.208 213.533 116.274 211.676 116.901C209.818 117.528 208.192 118.689 206.997 120.236C205.398 122.311 204.694 124.931 205.039 127.522C205.381 130.113 206.745 132.463 208.827 134.056Z" fill="#002127"/>
<path d="M212.745 130.674C212.632 130.674 212.521 130.629 212.442 130.55C212.362 130.47 212.317 130.362 212.317 130.249C212.317 130.136 212.362 130.028 212.442 129.948C212.521 129.868 212.632 129.823 212.745 129.823L215.884 129.799C216.361 129.804 216.827 129.63 217.183 129.312C217.338 129.178 217.466 129.013 217.552 128.828C217.642 128.643 217.69 128.441 217.697 128.236C217.7 128.031 217.663 127.827 217.583 127.637C217.504 127.447 217.386 127.277 217.238 127.136C217.055 126.959 216.837 126.82 216.602 126.727C216.364 126.634 216.109 126.589 215.857 126.593H214.275C213.553 126.596 212.863 126.32 212.345 125.824C212.127 125.613 211.951 125.36 211.834 125.082C211.716 124.803 211.654 124.504 211.654 124.201C211.682 123.544 211.969 122.925 212.449 122.475C212.932 122.026 213.571 121.783 214.234 121.798L217.217 121.757C217.328 121.757 217.438 121.801 217.517 121.879C217.6 121.957 217.645 122.063 217.652 122.175C217.652 122.231 217.642 122.287 217.621 122.34C217.6 122.392 217.569 122.439 217.528 122.479C217.49 122.519 217.442 122.552 217.39 122.574C217.338 122.596 217.283 122.607 217.227 122.608L214.244 122.649C213.294 122.649 212.518 123.335 212.518 124.176C212.518 124.369 212.556 124.559 212.632 124.736C212.707 124.913 212.818 125.073 212.96 125.206C213.132 125.379 213.339 125.514 213.567 125.603C213.792 125.692 214.037 125.733 214.282 125.725H215.86C216.599 125.725 217.31 126.008 217.846 126.514C218.077 126.737 218.26 127.005 218.381 127.302C218.505 127.599 218.564 127.917 218.557 128.238C218.546 128.558 218.474 128.874 218.336 129.165C218.201 129.455 218.004 129.715 217.763 129.926C217.248 130.384 216.582 130.638 215.891 130.637L212.756 130.657L212.745 130.674Z" fill="#002127"/>
<path d="M214.935 122.634C214.88 122.634 214.821 122.622 214.773 122.6C214.721 122.577 214.673 122.545 214.635 122.505C214.593 122.465 214.565 122.417 214.545 122.365C214.524 122.313 214.514 122.258 214.514 122.202L214.538 120.935C214.541 120.822 214.586 120.715 214.669 120.637C214.752 120.559 214.859 120.516 214.973 120.518C215.087 120.521 215.197 120.568 215.273 120.649C215.353 120.731 215.394 120.839 215.394 120.952L215.37 122.216C215.37 122.272 215.356 122.327 215.335 122.378C215.311 122.429 215.28 122.476 215.239 122.515C215.197 122.554 215.152 122.584 215.097 122.605C215.045 122.625 214.99 122.635 214.935 122.634Z" fill="#002127"/>
<path d="M214.935 131.934C214.88 131.933 214.821 131.921 214.773 131.899C214.721 131.877 214.673 131.845 214.635 131.804C214.593 131.764 214.565 131.717 214.545 131.665C214.524 131.613 214.514 131.557 214.514 131.502L214.538 130.235C214.541 130.123 214.59 130.017 214.669 129.939C214.752 129.862 214.859 129.818 214.973 129.819C215.028 129.82 215.083 129.831 215.135 129.854C215.187 129.876 215.235 129.908 215.273 129.948C215.315 129.988 215.342 130.036 215.363 130.088C215.384 130.14 215.394 130.196 215.394 130.252L215.37 131.515C215.37 131.571 215.356 131.626 215.335 131.677C215.311 131.729 215.28 131.775 215.239 131.814C215.197 131.853 215.152 131.884 215.097 131.904C215.045 131.925 214.99 131.935 214.935 131.934Z" fill="#002127"/>
<g style="mix-blend-mode:overlay" opacity="0.5">
<g style="mix-blend-mode:overlay" opacity="0.5">
<path d="M228.057 121.948C224.88 123.125 223.306 122.391 219.055 124.849C213.731 127.938 214.853 129.846 209.532 132.922C207.843 133.939 205.951 134.576 203.986 134.79C202.105 132.427 201.055 129.516 200.996 126.503C202.329 126.11 203.607 125.55 204.794 124.835C210.115 121.746 208.993 119.837 214.314 116.761C217.861 114.701 219.542 114.88 221.842 114.314C224.784 116.015 226.997 118.732 228.057 121.948Z" fill="white"/>
</g>
<g style="mix-blend-mode:overlay" opacity="0.5">
<path d="M228.512 128.699C226.406 129.027 224.386 129.765 222.566 130.872C217.245 133.961 218.319 135.783 212.994 138.856C212.469 139.161 211.979 139.412 211.523 139.625C209.665 139.168 207.925 138.333 206.413 137.174C206.123 136.954 205.846 136.724 205.584 136.487C207.307 136.108 208.954 135.445 210.46 134.527C215.784 131.438 214.71 129.615 220.035 126.54C224.064 124.212 225.656 124.696 228.505 123.738C228.809 125.378 228.809 127.058 228.512 128.699Z" fill="white"/>
</g>
</g>
<path d="M225.212 124.112C225.119 123.689 224.967 122.54 224.563 122.65C224.159 122.76 224.719 124.462 224.812 124.884C225.651 128.629 222.84 131.811 219.429 133.576C217.706 134.45 215.755 134.777 213.838 134.511C211.925 134.245 210.137 133.4 208.724 132.089C207.899 131.316 207.208 130.414 206.68 129.418C205.213 126.374 205.769 123.151 206.956 120.13C207.119 119.718 206.3 120.817 205.996 121.105C205.368 121.688 204.957 122.464 204.833 123.309C204.746 124.054 204.308 124.977 204.394 125.712C204.394 125.852 204.432 125.996 204.453 126.137C204.332 126.235 204.239 126.365 204.187 126.512C204.139 126.658 204.128 126.816 204.163 126.968C204.957 131.29 208.414 135.045 212.778 135.948C217.305 136.885 222.139 134.942 224.401 130.864C225.634 128.67 225.765 126.576 225.212 124.112Z" fill="#002127"/>
</svg>
