<svg width="18" height="18" viewBox="0 0 18 18" fill="none" xmlns="http://www.w3.org/2000/svg">
<path d="M14.2085 4.12603C14.2042 4.11772 14.1971 4.11121 14.1885 4.10766C13.1881 3.64866 12.1324 3.32136 11.0478 3.13395C11.0379 3.13212 11.0277 3.13344 11.0187 3.13773C11.0096 3.14201 11.0021 3.14905 10.9973 3.15783C10.8536 3.41874 10.7231 3.68675 10.6063 3.96081C9.43718 3.78334 8.24796 3.78334 7.07882 3.96081C6.9613 3.68605 6.82871 3.41798 6.68166 3.15783C6.67661 3.14924 6.6691 3.14237 6.66009 3.13811C6.65109 3.13385 6.64101 3.1324 6.63117 3.13395C5.54645 3.32097 4.49067 3.64829 3.4904 4.10769C3.48184 4.11132 3.47462 4.11751 3.46973 4.12542C1.46938 7.11268 0.921412 10.0265 1.19023 12.9042C1.19098 12.9113 1.19315 12.9181 1.1966 12.9243C1.20005 12.9305 1.20471 12.9359 1.2103 12.9403C2.37508 13.8027 3.67791 14.461 5.06317 14.8871C5.07293 14.89 5.08335 14.8899 5.09302 14.8867C5.1027 14.8835 5.11118 14.8775 5.11731 14.8694C5.41483 14.4645 5.67846 14.0358 5.90552 13.5877C5.90864 13.5815 5.91042 13.5748 5.91074 13.5679C5.91107 13.561 5.90993 13.5541 5.9074 13.5477C5.90488 13.5413 5.90102 13.5355 5.89609 13.5307C5.89115 13.5259 5.88525 13.5221 5.87878 13.5198C5.46305 13.3607 5.06058 13.169 4.67514 12.9463C4.66814 12.9422 4.66226 12.9364 4.65802 12.9295C4.65378 12.9226 4.65131 12.9147 4.65083 12.9066C4.65035 12.8985 4.65188 12.8904 4.65527 12.883C4.65866 12.8756 4.66382 12.8692 4.67029 12.8643C4.75117 12.8037 4.83209 12.7407 4.90932 12.677C4.91618 12.6714 4.92448 12.6677 4.93329 12.6665C4.9421 12.6654 4.95107 12.6667 4.95918 12.6703C7.48435 13.8227 10.2182 13.8227 12.7135 12.6703C12.7216 12.6664 12.7307 12.6649 12.7396 12.666C12.7485 12.6671 12.757 12.6707 12.764 12.6764C12.8412 12.7401 12.9221 12.8037 13.0036 12.8643C13.0101 12.8691 13.0153 12.8755 13.0187 12.8829C13.0222 12.8902 13.0238 12.8983 13.0234 12.9064C13.0229 12.9145 13.0205 12.9224 13.0163 12.9294C13.0121 12.9363 13.0063 12.9422 12.9993 12.9463C12.6148 13.1708 12.2119 13.3625 11.7951 13.5192C11.7887 13.5216 11.7828 13.5254 11.7779 13.5303C11.773 13.5352 11.7692 13.5411 11.7667 13.5476C11.7642 13.554 11.7631 13.5609 11.7635 13.5679C11.7639 13.5748 11.7657 13.5815 11.7689 13.5877C11.9997 14.0334 12.263 14.4615 12.5565 14.8686C12.5625 14.877 12.5709 14.8833 12.5806 14.8866C12.5903 14.8899 12.6008 14.89 12.6106 14.887C13.9984 14.4624 15.3035 13.804 16.4697 12.9403C16.4754 12.9361 16.4801 12.9308 16.4836 12.9247C16.4871 12.9186 16.4892 12.9118 16.4898 12.9048C16.8116 9.57786 15.951 6.68794 14.2085 4.12603ZM6.28263 11.152C5.52237 11.152 4.89594 10.4543 4.89594 9.59746C4.89594 8.74063 5.51022 8.0429 6.28263 8.0429C7.06108 8.0429 7.68145 8.74669 7.6693 9.59741C7.6693 10.4543 7.05499 11.152 6.28263 11.152ZM11.4096 11.152C10.6494 11.152 10.023 10.4543 10.023 9.59746C10.023 8.74063 10.6373 8.0429 11.4096 8.0429C12.1881 8.0429 12.8085 8.74669 12.7963 9.59741C12.7963 10.4543 12.1881 11.152 11.4096 11.152Z" fill="black"/>
</svg>
