<svg width="24" height="24" viewBox="0 0 24 24" fill="none" xmlns="http://www.w3.org/2000/svg">
<path opacity="0.4" d="M16.19 2H7.81C4.17 2 2 4.17 2 7.81V16.18C2 19.83 4.17 22 7.81 22H16.18C19.82 22 21.99 19.83 21.99 16.19V7.81C22 4.17 19.83 2 16.19 2Z" fill="#292D32"/>
<path d="M8.82043 9.75C7.97043 9.75 7.12043 9.43 6.47043 8.78C6.18043 8.49 6.18043 8.01 6.47043 7.72C6.76043 7.43 7.24043 7.43 7.53043 7.72C8.24043 8.43 9.40043 8.43 10.1104 7.72C10.4004 7.43 10.8804 7.43 11.1704 7.72C11.4604 8.01 11.4604 8.49 11.1704 8.78C10.5204 9.42 9.67043 9.75 8.82043 9.75Z" fill="#292D32"/>
<path d="M15.1798 9.75C14.3298 9.75 13.4798 9.43 12.8298 8.78C12.5398 8.49 12.5398 8.01 12.8298 7.72C13.1198 7.43 13.5998 7.43 13.8898 7.72C14.5998 8.43 15.7598 8.43 16.4698 7.72C16.7598 7.43 17.2398 7.43 17.5298 7.72C17.8198 8.01 17.8198 8.49 17.5298 8.78C16.8798 9.42 16.0298 9.75 15.1798 9.75Z" fill="#292D32"/>
<path d="M15.5999 12.62H8.39988C7.69988 12.62 7.12988 13.19 7.12988 13.9C7.12988 16.59 9.31988 18.78 12.0099 18.78C14.6999 18.78 16.8899 16.59 16.8899 13.9C16.8799 13.2 16.2999 12.62 15.5999 12.62Z" fill="#292D32"/>
</svg>
