<svg width="16" height="16" viewBox="0 0 16 16" fill="none" xmlns="http://www.w3.org/2000/svg">
<path opacity="0.4" d="M12.0266 9.03365C11.7466 9.30698 11.5866 9.70032 11.6266 10.1203C11.6866 10.8403 12.3466 11.367 13.0666 11.367H14.3333V12.1603C14.3333 13.5403 13.2066 14.667 11.8266 14.667H4.17329C2.79329 14.667 1.66663 13.5403 1.66663 12.1603V7.67367C1.66663 6.29367 2.79329 5.16699 4.17329 5.16699H11.8266C13.2066 5.16699 14.3333 6.29367 14.3333 7.67367V8.63367H12.9866C12.6133 8.63367 12.2733 8.78032 12.0266 9.03365Z" fill="#072AC8"/>
<path d="M9.89996 2.63342V5.16674H4.17329C2.79329 5.16674 1.66663 6.29341 1.66663 7.67341V5.22676C1.66663 4.43343 2.15329 3.72673 2.89329 3.44673L8.18663 1.44673C9.01329 1.14006 9.89996 1.74675 9.89996 2.63342Z" fill="#072AC8"/>
<path d="M15.04 9.31376V10.6871C15.04 11.0538 14.7467 11.3538 14.3734 11.3671H13.0667C12.3467 11.3671 11.6867 10.8404 11.6267 10.1204C11.5867 9.70044 11.7467 9.30711 12.0267 9.03377C12.2734 8.78044 12.6134 8.63379 12.9867 8.63379H14.3734C14.7467 8.64712 15.04 8.94709 15.04 9.31376Z" fill="#072AC8"/>
<path d="M9.33329 8.5H4.66663C4.39329 8.5 4.16663 8.27333 4.16663 8C4.16663 7.72667 4.39329 7.5 4.66663 7.5H9.33329C9.60663 7.5 9.83329 7.72667 9.83329 8C9.83329 8.27333 9.60663 8.5 9.33329 8.5Z" fill="#072AC8"/>
</svg>
