<svg width="18" height="18" viewBox="0 0 18 18" fill="none" xmlns="http://www.w3.org/2000/svg">
<path d="M15.827 15.4554L15.3188 14.9471C15.58 14.5518 15.7353 14.0717 15.7353 13.5634C15.7353 12.1656 14.6057 11.0361 13.208 11.0361C11.8102 11.0361 10.6807 12.1656 10.6807 13.5634C10.6807 14.9612 11.8102 16.0907 13.208 16.0907C13.7233 16.0907 14.1963 15.9354 14.5916 15.6742L15.0999 16.1825C15.1987 16.2813 15.3329 16.3308 15.46 16.3308C15.5941 16.3308 15.7211 16.2813 15.82 16.1825C16.0247 15.9778 16.0247 15.6531 15.827 15.4554Z" fill="#292D32"/>
<path opacity="0.4" d="M1.8774 11.1279C1.8774 11.1491 1.86328 11.1774 1.86328 11.1985C2.51276 12.4975 3.57169 13.5634 4.87064 14.2059C4.89182 14.2059 4.92005 14.1918 4.94123 14.1918C4.7012 13.3728 4.51766 12.5328 4.38353 11.6927C3.53639 11.5515 2.69631 11.368 1.8774 11.1279Z" fill="#292D32"/>
<path opacity="0.4" d="M13.907 5.33911C13.2434 3.94839 12.121 2.82594 10.7373 2.1694C10.9914 3.00948 11.2032 3.87075 11.3444 4.73201C12.2057 4.8732 13.0669 5.07791 13.907 5.33911Z" fill="#292D32"/>
<path opacity="0.4" d="M1.80713 5.33913C2.65427 5.08499 3.51554 4.87322 4.3768 4.73203C4.51799 3.89195 4.69447 3.05893 4.93449 2.24002C4.91332 2.24002 4.88507 2.22589 4.8639 2.22589C3.53671 2.88242 2.4566 3.99077 1.80713 5.33913Z" fill="#292D32"/>
<path opacity="0.4" d="M10.2007 4.58375C10.0313 3.66601 9.81949 2.74829 9.51593 1.85879C9.50181 1.80937 9.50181 1.76702 9.49475 1.71055C8.97235 1.58348 8.4217 1.49875 7.85694 1.49875C7.28512 1.49875 6.74154 1.57642 6.21208 1.71055C6.20502 1.75996 6.21208 1.80231 6.19796 1.85879C5.90146 2.74829 5.68261 3.66601 5.51318 4.58375C7.07333 4.41432 8.64055 4.41432 10.2007 4.58375Z" fill="#292D32"/>
<path opacity="0.4" d="M4.22855 5.86859C3.30376 6.03802 2.39308 6.24981 1.50359 6.55336C1.45417 6.56748 1.41181 6.56748 1.35533 6.57454C1.22826 7.09694 1.14355 7.64759 1.14355 8.21235C1.14355 8.78417 1.2212 9.32774 1.35533 9.85721C1.40475 9.86427 1.44711 9.85722 1.50359 9.87134C2.39308 10.1678 3.30376 10.3867 4.22855 10.5561C4.05913 8.99596 4.05913 7.42874 4.22855 5.86859Z" fill="#292D32"/>
<path opacity="0.4" d="M14.3512 6.57454C14.3018 6.57454 14.2595 6.56748 14.203 6.55336C13.3135 6.25686 12.3958 6.03802 11.478 5.86859C11.6545 7.42874 11.6545 8.99595 11.478 10.549C12.3958 10.3796 13.3135 10.1678 14.203 9.86427C14.2524 9.85015 14.2948 9.85722 14.3512 9.85016C14.4783 9.3207 14.563 8.7771 14.563 8.20529C14.563 7.64758 14.4854 7.104 14.3512 6.57454Z" fill="#292D32"/>
<path opacity="0.4" d="M5.51318 11.8409C5.68261 12.7657 5.8944 13.6764 6.19796 14.5659C6.21208 14.6153 6.20502 14.6577 6.21208 14.7141C6.74154 14.8412 7.28512 14.9259 7.85694 14.9259C8.4217 14.9259 8.97235 14.8483 9.49475 14.7141C9.50181 14.6647 9.50181 14.6224 9.51593 14.5659C9.81243 13.6764 10.0313 12.7657 10.2007 11.8409C9.42416 11.9257 8.64055 11.9892 7.85694 11.9892C7.07334 11.9821 6.28973 11.9257 5.51318 11.8409Z" fill="#292D32"/>
<path opacity="0.4" d="M5.35073 5.70623C5.13895 7.37228 5.13895 9.05243 5.35073 10.7255C7.01678 10.9373 8.69694 10.9373 10.37 10.7255C10.5818 9.05949 10.5818 7.37933 10.37 5.70623C8.69694 5.49445 7.01678 5.49445 5.35073 5.70623Z" fill="#292D32"/>
</svg>
