<svg width="35" height="34" viewBox="0 0 35 34" fill="none" xmlns="http://www.w3.org/2000/svg">
<path d="M17.344 33.9112C26.6909 33.9112 34.268 26.3341 34.268 16.9872C34.268 7.64036 26.6909 0.0632324 17.344 0.0632324C7.99718 0.0632324 0.420044 7.64036 0.420044 16.9872C0.420044 26.3341 7.99718 33.9112 17.344 33.9112Z" fill="#0F8FF8"/>
<path fill-rule="evenodd" clip-rule="evenodd" d="M8.88196 20.1648L9.73874 18.045H10.6452C10.6217 17.6823 10.6098 17.319 10.6093 16.9555C10.6093 16.4817 10.6294 16.0417 10.6685 15.6334H8.88196L9.73874 13.5147H11.0863C12.3408 9.4836 15.1692 7.46753 19.5684 7.46753C21.0143 7.46753 22.3884 7.65475 23.6905 8.03025V10.7C22.4651 10.1524 21.1369 9.8726 19.7948 9.8792C17.1578 9.8792 15.4622 11.0914 14.707 13.5157H22.5587L21.7019 15.6344H14.195C14.1501 15.9834 14.1303 16.3351 14.1358 16.6869C14.1358 17.1935 14.1517 17.6463 14.1834 18.0461H20.7235L19.8773 20.1648H14.6361C15.1999 21.634 15.8874 22.6558 16.6977 23.2322C17.5069 23.8076 18.663 24.0954 20.1639 24.0954C21.2365 24.0954 22.4116 23.8341 23.6905 23.3116V25.8216C22.4751 26.2786 21.0302 26.507 19.3537 26.507C14.946 26.507 12.1578 24.3926 10.9911 20.1648H8.88196Z" fill="white"/>
</svg>
