<svg width="193" height="34" viewBox="0 0 193 34" fill="none" xmlns="http://www.w3.org/2000/svg">
<path fill-rule="evenodd" clip-rule="evenodd" d="M8.43438 4.07881C9.56072 4.07881 10.4738 3.16574 10.4738 2.0394C10.4738 0.913072 9.56072 0 8.43438 0C7.30805 0 6.39498 0.913072 6.39498 2.0394C6.39498 3.16574 7.30805 4.07881 8.43438 4.07881ZM14.1495 33.9999C15.2758 33.9999 16.1889 33.0869 16.1889 31.9605C16.1889 30.8342 15.2758 29.9211 14.1495 29.9211C13.0232 29.9211 12.1101 30.8342 12.1101 31.9605C12.1101 33.0869 13.0232 33.9999 14.1495 33.9999ZM14.8857 27.5724L9.30033 17.8983L12.6061 15.9897L11.6561 14.3442L8.35028 16.2528L8.05226 15.7366L11.383 13.8136L10.4601 12.2151L7.12936 14.1381L6.82711 13.6146L10.1509 11.6956L9.22796 10.0971L5.9042 12.0161L5.90093 12.0104L4.2554 12.9604L12.3979 27.0637C12.8626 27.8685 13.633 28.2956 14.1176 28.0159L14.8857 27.5724ZM13.3985 16.1559L7.78277 6.42906L8.52893 5.99827C8.99962 5.72651 9.76 6.16211 10.226 6.96931L18.3932 21.1152L16.7946 22.0381L16.7912 22.0322L13.4127 23.9828L12.4897 22.3843L15.8683 20.4336L15.5737 19.9233L12.1971 21.8727L11.2742 20.2742L14.6508 18.3248L14.3486 17.8014L10.9845 19.7436L10.0345 18.0981L13.3985 16.1559ZM11.9633 29.2591L12.7094 28.8283L3.72516 13.2671L2.12665 14.19L10.2688 28.2925C10.7334 29.0973 11.4926 29.5308 11.9633 29.2591ZM10.5828 30.0514L9.83663 30.4822C9.36593 30.754 8.60672 30.3204 8.14211 29.5157L0 15.4131L1.59852 14.4902L10.5828 30.0514ZM9.90942 5.20593L10.6556 4.77513C11.1263 4.50338 11.8866 4.93897 12.3527 5.74617L20.5198 19.8921L18.9213 20.815L9.90942 5.20593ZM12.78 3.53864L12.0119 3.9821L21.0237 19.5911L22.6693 18.6411L14.5021 4.49513C14.0361 3.68797 13.2645 3.25889 12.78 3.53864Z" fill="#1941F4"/>
<path d="M109.191 8.74829H111.776V14.7557H111.821C112.138 14.2268 112.607 13.7885 113.227 13.4409C113.861 13.0782 114.564 12.8968 115.335 12.8968C116.619 12.8968 117.632 13.2293 118.373 13.8943C119.113 14.5592 119.483 15.5567 119.483 16.8866V24.9343H116.899V17.5667C116.869 16.6448 116.672 15.9799 116.31 15.5718C115.947 15.1486 115.38 14.9371 114.609 14.9371C114.171 14.9371 113.778 15.0202 113.431 15.1864C113.083 15.3376 112.788 15.5567 112.546 15.8438C112.305 16.1159 112.116 16.4408 111.98 16.8186C111.844 17.1965 111.776 17.5969 111.776 18.0201V24.9343H109.191V8.74829Z" fill="#151517"/>
<path d="M101.598 13.2145H103.547V9.70068H106.132V13.2145H108.467V15.1414H106.132V21.3981C106.132 21.6702 106.139 21.9044 106.154 22.1009C106.184 22.2974 106.237 22.4636 106.313 22.5996C106.404 22.7356 106.532 22.8414 106.698 22.917C106.865 22.9774 107.091 23.0077 107.378 23.0077C107.56 23.0077 107.741 23.0077 107.922 23.0077C108.104 22.9926 108.285 22.9623 108.467 22.917V24.9119C108.179 24.9421 107.9 24.9724 107.628 25.0026C107.356 25.0328 107.076 25.0479 106.789 25.0479C106.109 25.0479 105.557 24.9875 105.134 24.8666C104.726 24.7306 104.401 24.5416 104.159 24.2998C103.933 24.0429 103.774 23.7255 103.683 23.3477C103.608 22.9699 103.562 22.5392 103.547 22.0556V15.1414H101.598V13.2145Z" fill="#151517"/>
<path d="M95.8425 25.2516C94.9055 25.2516 94.0667 25.1005 93.3262 24.7982C92.6008 24.4808 91.9812 24.0501 91.4673 23.5061C90.9686 22.962 90.5832 22.3121 90.3112 21.5565C90.0542 20.8008 89.9258 19.9696 89.9258 19.0628C89.9258 18.1712 90.0542 17.3475 90.3112 16.5919C90.5832 15.8362 90.9686 15.1863 91.4673 14.6423C91.9812 14.0982 92.6008 13.675 93.3262 13.3728C94.0667 13.0554 94.9055 12.8967 95.8425 12.8967C96.7795 12.8967 97.6107 13.0554 98.3362 13.3728C99.0767 13.675 99.6963 14.0982 100.195 14.6423C100.709 15.1863 101.094 15.8362 101.351 16.5919C101.623 17.3475 101.759 18.1712 101.759 19.0628C101.759 19.9696 101.623 20.8008 101.351 21.5565C101.094 22.3121 100.709 22.962 100.195 23.5061C99.6963 24.0501 99.0767 24.4808 98.3362 24.7982C97.6107 25.1005 96.7795 25.2516 95.8425 25.2516ZM95.8425 23.2113C96.4168 23.2113 96.9155 23.0904 97.3387 22.8486C97.7619 22.6068 98.1095 22.2895 98.3815 21.8965C98.6535 21.5036 98.85 21.0653 98.9709 20.5817C99.1069 20.083 99.1749 19.5767 99.1749 19.0628C99.1749 18.5641 99.1069 18.0654 98.9709 17.5666C98.85 17.0679 98.6535 16.6296 98.3815 16.2518C98.1095 15.8589 97.7619 15.5415 97.3387 15.2997C96.9155 15.0579 96.4168 14.937 95.8425 14.937C95.2682 14.937 94.7695 15.0579 94.3463 15.2997C93.9232 15.5415 93.5756 15.8589 93.3035 16.2518C93.0315 16.6296 92.8275 17.0679 92.6915 17.5666C92.5706 18.0654 92.5101 18.5641 92.5101 19.0628C92.5101 19.5767 92.5706 20.083 92.6915 20.5817C92.8275 21.0653 93.0315 21.5036 93.3035 21.8965C93.5756 22.2895 93.9232 22.6068 94.3463 22.8486C94.7695 23.0904 95.2682 23.2113 95.8425 23.2113Z" fill="#151517"/>
<path d="M77.8125 8.74829H80.3968V14.733H80.4422C80.6235 14.4459 80.8427 14.189 81.0996 13.9623C81.3565 13.7356 81.6361 13.5467 81.9384 13.3955C82.2557 13.2293 82.5807 13.1084 82.9131 13.0328C83.2607 12.9421 83.6008 12.8968 83.9333 12.8968C84.8552 12.8968 85.6561 13.0631 86.3362 13.3955C87.0314 13.7129 87.6057 14.1587 88.0591 14.733C88.5125 15.2922 88.8525 15.9496 89.0792 16.7053C89.3059 17.4609 89.4193 18.2695 89.4193 19.1309C89.4193 19.9168 89.3135 20.68 89.1019 21.4205C88.9054 22.1611 88.5956 22.8185 88.1725 23.3928C87.7644 23.952 87.243 24.4054 86.6083 24.753C85.9735 25.0854 85.2254 25.2517 84.364 25.2517C83.971 25.2517 83.5706 25.2215 83.1625 25.161C82.7696 25.1157 82.3917 25.0174 82.029 24.8663C81.6663 24.7152 81.3338 24.5187 81.0316 24.2769C80.7444 24.0351 80.5026 23.7177 80.3061 23.3248H80.2608V24.9343H77.8125V8.74829ZM86.835 19.0856C86.835 18.5566 86.7669 18.0428 86.6309 17.5441C86.4949 17.0453 86.2909 16.607 86.0189 16.2292C85.7468 15.8363 85.4068 15.5265 84.9987 15.2998C84.5907 15.058 84.1222 14.9371 83.5932 14.9371C82.5051 14.9371 81.6814 15.3149 81.1222 16.0705C80.5782 16.8262 80.3061 17.8312 80.3061 19.0856C80.3061 19.675 80.3742 20.2266 80.5102 20.7405C80.6613 21.2392 80.8804 21.6699 81.1676 22.0326C81.4547 22.3953 81.7948 22.6825 82.1877 22.8941C82.5958 23.1056 83.0643 23.2114 83.5932 23.2114C84.1826 23.2114 84.6814 23.0905 85.0894 22.8487C85.4975 22.6069 85.8299 22.2971 86.0869 21.9193C86.3589 21.5263 86.5478 21.0881 86.6536 20.6044C86.7745 20.1057 86.835 19.5994 86.835 19.0856Z" fill="#151517"/>
<path d="M70.8152 25.2516C69.8782 25.2516 69.0394 25.1005 68.2989 24.7982C67.5734 24.4808 66.9538 24.0501 66.44 23.5061C65.9412 22.962 65.5559 22.3121 65.2838 21.5565C65.0269 20.8008 64.8984 19.9696 64.8984 19.0628C64.8984 18.1712 65.0269 17.3475 65.2838 16.5919C65.5559 15.8362 65.9412 15.1863 66.44 14.6423C66.9538 14.0982 67.5734 13.675 68.2989 13.3728C69.0394 13.0554 69.8782 12.8967 70.8152 12.8967C71.7522 12.8967 72.5834 13.0554 73.3088 13.3728C74.0494 13.675 74.669 14.0982 75.1677 14.6423C75.6816 15.1863 76.0669 15.8362 76.3239 16.5919C76.5959 17.3475 76.7319 18.1712 76.7319 19.0628C76.7319 19.9696 76.5959 20.8008 76.3239 21.5565C76.0669 22.3121 75.6816 22.962 75.1677 23.5061C74.669 24.0501 74.0494 24.4808 73.3088 24.7982C72.5834 25.1005 71.7522 25.2516 70.8152 25.2516ZM70.8152 23.2113C71.3895 23.2113 71.8882 23.0904 72.3114 22.8486C72.7345 22.6068 73.0821 22.2895 73.3542 21.8965C73.6262 21.5036 73.8227 21.0653 73.9436 20.5817C74.0796 20.083 74.1476 19.5767 74.1476 19.0628C74.1476 18.5641 74.0796 18.0654 73.9436 17.5666C73.8227 17.0679 73.6262 16.6296 73.3542 16.2518C73.0821 15.8589 72.7345 15.5415 72.3114 15.2997C71.8882 15.0579 71.3895 14.937 70.8152 14.937C70.2409 14.937 69.7422 15.0579 69.319 15.2997C68.8958 15.5415 68.5482 15.8589 68.2762 16.2518C68.0042 16.6296 67.8001 17.0679 67.6641 17.5666C67.5432 18.0654 67.4828 18.5641 67.4828 19.0628C67.4828 19.5767 67.5432 20.083 67.6641 20.5817C67.8001 21.0653 68.0042 21.5036 68.2762 21.8965C68.5482 22.2895 68.8958 22.6068 69.319 22.8486C69.7422 23.0904 70.2409 23.2113 70.8152 23.2113Z" fill="#151517"/>
<path d="M53.5586 8.74829H56.1429V14.7557H56.1883C56.5056 14.2268 56.9741 13.7885 57.5938 13.4409C58.2285 13.0782 58.9313 12.8968 59.702 12.8968C60.9866 12.8968 61.9992 13.2293 62.7397 13.8943C63.4803 14.5592 63.8505 15.5567 63.8505 16.8866V24.9343H61.2662V17.5667C61.236 16.6448 61.0395 15.9799 60.6768 15.5718C60.3141 15.1486 59.7474 14.9371 58.9766 14.9371C58.5383 14.9371 58.1454 15.0202 57.7978 15.1864C57.4502 15.3376 57.1555 15.5567 56.9137 15.8438C56.6719 16.1159 56.483 16.4408 56.3469 16.8186C56.2109 17.1965 56.1429 17.5969 56.1429 18.0201V24.9343H53.5586V8.74829Z" fill="#151517"/>
<path d="M50.1418 18.0427C50.1115 17.6347 50.0208 17.2417 49.8697 16.8639C49.7337 16.4861 49.5372 16.1611 49.2803 15.8891C49.0385 15.602 48.7362 15.3753 48.3735 15.209C48.0259 15.0277 47.633 14.937 47.1947 14.937C46.7413 14.937 46.3257 15.0201 45.9479 15.1863C45.5852 15.3375 45.2678 15.5566 44.9958 15.8438C44.7389 16.1158 44.5273 16.4407 44.361 16.8185C44.2099 17.1964 44.1268 17.6044 44.1117 18.0427H50.1418ZM44.1117 19.7429C44.1117 20.1963 44.1721 20.6346 44.293 21.0577C44.429 21.4809 44.6255 21.8512 44.8824 22.1686C45.1393 22.4859 45.4643 22.7428 45.8572 22.9393C46.2502 23.1207 46.7187 23.2113 47.2627 23.2113C48.0184 23.2113 48.6229 23.0527 49.0763 22.7353C49.5448 22.4028 49.8924 21.9116 50.1191 21.2618H52.5674C52.4314 21.8965 52.1971 22.4633 51.8646 22.962C51.5321 23.4607 51.1317 23.8839 50.6631 24.2315C50.1946 24.564 49.6657 24.8133 49.0763 24.9796C48.502 25.1609 47.8975 25.2516 47.2627 25.2516C46.3408 25.2516 45.5247 25.1005 44.8144 24.7982C44.1041 24.496 43.4996 24.0728 43.0009 23.5287C42.5172 22.9847 42.147 22.3348 41.8901 21.5791C41.6482 20.8235 41.5273 19.9923 41.5273 19.0855C41.5273 18.2543 41.6558 17.4684 41.9127 16.7279C42.1848 15.9722 42.5626 15.3148 43.0462 14.7556C43.5449 14.1813 44.1419 13.7279 44.8371 13.3955C45.5323 13.063 46.3182 12.8967 47.1947 12.8967C48.1166 12.8967 48.9403 13.0932 49.6657 13.4861C50.4062 13.864 51.0183 14.3702 51.5019 15.005C51.9855 15.6397 52.3331 16.3727 52.5447 17.2039C52.7714 18.02 52.8319 18.8664 52.7261 19.7429H44.1117Z" fill="#151517"/>
<path d="M27.6289 8.74829H35.3592C37.1425 8.74829 38.48 9.13367 39.3717 9.90443C40.2634 10.6752 40.7092 11.7482 40.7092 13.1235C40.7092 13.8943 40.5959 14.5366 40.3692 15.0504C40.1425 15.5491 39.878 15.9572 39.5757 16.2746C39.2735 16.5768 38.9712 16.796 38.6689 16.932C38.3818 17.068 38.1702 17.1587 38.0342 17.204V17.2494C38.276 17.2796 38.5329 17.3551 38.805 17.476C39.0921 17.5969 39.3566 17.7934 39.5984 18.0655C39.8402 18.3224 40.0367 18.6624 40.1878 19.0856C40.354 19.5087 40.4372 20.0377 40.4372 20.6724C40.4372 21.6246 40.5052 22.4936 40.6412 23.2794C40.7923 24.0502 41.019 24.6018 41.3213 24.9343H38.2836C38.072 24.5867 37.9435 24.2013 37.8982 23.7782C37.868 23.355 37.8528 22.9469 37.8528 22.554C37.8528 21.8135 37.8075 21.1787 37.7168 20.6498C37.6262 20.1057 37.4599 19.6599 37.2181 19.3123C36.9763 18.9496 36.6438 18.6851 36.2206 18.5188C35.8126 18.3526 35.2836 18.2695 34.6338 18.2695H30.4626V24.9343H27.6289V8.74829ZM30.4626 16.1159H35.1098C36.0166 16.1159 36.7043 15.9043 37.1728 15.4811C37.6413 15.0429 37.8755 14.393 37.8755 13.5316C37.8755 13.0177 37.8 12.6021 37.6488 12.2847C37.4977 11.9522 37.2861 11.6953 37.0141 11.514C36.7572 11.3326 36.4549 11.2117 36.1073 11.1513C35.7748 11.0908 35.4272 11.0606 35.0645 11.0606H30.4626V16.1159Z" fill="#151517"/>
<path d="M186.457 18.2694C186.442 17.7253 186.343 17.2039 186.162 16.7052C185.996 16.2065 185.754 15.7682 185.437 15.3904C185.119 14.9974 184.734 14.6876 184.281 14.4609C183.827 14.2191 183.313 14.0982 182.739 14.0982C182.15 14.0982 181.628 14.2191 181.175 14.4609C180.721 14.6876 180.336 14.9974 180.019 15.3904C179.701 15.7682 179.444 16.214 179.248 16.7279C179.067 17.2266 178.946 17.7404 178.885 18.2694H186.457ZM178.885 19.4709C178.885 19.9847 178.953 20.5212 179.089 21.0804C179.24 21.6245 179.475 22.1157 179.792 22.5539C180.109 22.9922 180.51 23.3549 180.993 23.6421C181.477 23.9292 182.059 24.0728 182.739 24.0728C183.782 24.0728 184.598 23.8008 185.187 23.2567C185.777 22.7126 186.185 21.9872 186.411 21.0804H187.84C187.537 22.4104 186.978 23.438 186.162 24.1635C185.361 24.8889 184.22 25.2516 182.739 25.2516C181.817 25.2516 181.016 25.0929 180.336 24.7755C179.671 24.4431 179.127 23.9972 178.704 23.438C178.281 22.8637 177.963 22.2063 177.752 21.4658C177.555 20.7101 177.457 19.9167 177.457 19.0855C177.457 18.3147 177.555 17.5591 177.752 16.8185C177.963 16.078 178.281 15.4206 178.704 14.8463C179.127 14.2569 179.671 13.7884 180.336 13.4408C181.016 13.0781 181.817 12.8967 182.739 12.8967C183.676 12.8967 184.477 13.0856 185.142 13.4635C185.807 13.8413 186.343 14.34 186.752 14.9597C187.175 15.5642 187.477 16.2669 187.658 17.0679C187.84 17.8538 187.915 18.6548 187.885 19.4709H178.885Z" fill="#151517"/>
<path d="M175.677 16.9092C175.481 16.0327 175.118 15.345 174.589 14.8463C174.06 14.3476 173.319 14.0982 172.367 14.0982C171.687 14.0982 171.09 14.2418 170.576 14.5289C170.063 14.8161 169.632 15.1939 169.284 15.6624C168.952 16.1309 168.695 16.6674 168.513 17.2719C168.347 17.8613 168.264 18.4659 168.264 19.0855C168.264 19.7051 168.347 20.3172 168.513 20.9217C168.695 21.5111 168.952 22.0401 169.284 22.5086C169.632 22.9771 170.063 23.3549 170.576 23.6421C171.09 23.9292 171.687 24.0728 172.367 24.0728C172.806 24.0728 173.221 23.9897 173.614 23.8234C174.007 23.6572 174.355 23.4305 174.657 23.1433C174.959 22.8411 175.209 22.4859 175.405 22.0779C175.601 21.6698 175.722 21.224 175.768 20.7404H177.196C176.999 22.161 176.478 23.2718 175.632 24.0728C174.785 24.8587 173.697 25.2516 172.367 25.2516C171.476 25.2516 170.682 25.0929 169.987 24.7755C169.307 24.4431 168.733 23.9972 168.264 23.438C167.796 22.8789 167.44 22.229 167.199 21.4885C166.957 20.7328 166.836 19.9318 166.836 19.0855C166.836 18.2392 166.957 17.4457 167.199 16.7052C167.44 15.9496 167.796 15.2921 168.264 14.733C168.733 14.1738 169.307 13.7279 169.987 13.3955C170.682 13.063 171.476 12.8967 172.367 12.8967C173.622 12.8967 174.68 13.2292 175.541 13.8942C176.418 14.5592 176.939 15.5642 177.105 16.9092H175.677Z" fill="#151517"/>
<path d="M156.359 13.2368H157.788V15.2544H157.833C158.105 14.544 158.589 13.9773 159.284 13.5541C159.979 13.1159 160.742 12.8967 161.573 12.8967C162.389 12.8967 163.07 13.0025 163.614 13.2141C164.173 13.4257 164.619 13.7279 164.951 14.1209C165.284 14.4987 165.518 14.9672 165.654 15.5264C165.79 16.0856 165.858 16.7128 165.858 17.408V24.9342H164.43V17.6347C164.43 17.1359 164.384 16.675 164.294 16.2518C164.203 15.8135 164.044 15.4357 163.818 15.1183C163.591 14.801 163.281 14.5516 162.888 14.3702C162.51 14.1889 162.034 14.0982 161.46 14.0982C160.886 14.0982 160.372 14.204 159.918 14.4156C159.48 14.6121 159.102 14.8916 158.785 15.2544C158.483 15.602 158.241 16.0251 158.06 16.5238C157.893 17.0075 157.803 17.5364 157.788 18.1107V24.9342H156.359V13.2368Z" fill="#151517"/>
<path d="M145.628 16.8185C145.673 16.1385 145.817 15.5491 146.058 15.0503C146.3 14.5516 146.625 14.1436 147.033 13.8262C147.456 13.5088 147.947 13.2746 148.507 13.1234C149.066 12.9723 149.685 12.8967 150.366 12.8967C150.879 12.8967 151.393 12.9496 151.907 13.0554C152.421 13.1461 152.882 13.3274 153.29 13.5995C153.698 13.8715 154.03 14.2569 154.287 14.7556C154.544 15.2392 154.673 15.874 154.673 16.6599V22.8713C154.673 23.4456 154.952 23.7327 155.512 23.7327C155.678 23.7327 155.829 23.7025 155.965 23.6421V24.8436C155.799 24.8738 155.648 24.8964 155.512 24.9116C155.391 24.9267 155.232 24.9342 155.035 24.9342C154.673 24.9342 154.378 24.8889 154.151 24.7982C153.94 24.6924 153.774 24.5488 153.653 24.3675C153.532 24.1861 153.449 23.9746 153.403 23.7327C153.373 23.4758 153.358 23.1962 153.358 22.894H153.313C153.056 23.2718 152.791 23.6118 152.519 23.9141C152.262 24.2012 151.968 24.4431 151.635 24.6395C151.318 24.836 150.947 24.9871 150.524 25.0929C150.116 25.1987 149.625 25.2516 149.051 25.2516C148.507 25.2516 147.993 25.1836 147.509 25.0476C147.041 24.9267 146.625 24.7302 146.262 24.4582C145.915 24.171 145.635 23.8159 145.424 23.3927C145.227 22.9544 145.129 22.4406 145.129 21.8512C145.129 21.0351 145.31 20.4003 145.673 19.9469C146.036 19.4784 146.512 19.1233 147.101 18.8815C147.706 18.6397 148.378 18.4734 149.119 18.3827C149.874 18.277 150.638 18.1787 151.408 18.088C151.711 18.0578 151.975 18.02 152.202 17.9747C152.428 17.9294 152.617 17.8538 152.769 17.748C152.92 17.6271 153.033 17.4684 153.109 17.2719C153.199 17.0755 153.245 16.8186 153.245 16.5012C153.245 16.0176 153.161 15.6246 152.995 15.3224C152.844 15.005 152.625 14.7556 152.338 14.5743C152.066 14.3929 151.741 14.272 151.363 14.2116C151 14.136 150.607 14.0982 150.184 14.0982C149.277 14.0982 148.537 14.3174 147.963 14.7556C147.388 15.1788 147.086 15.8664 147.056 16.8185H145.628ZM153.245 18.5414H153.199C153.109 18.7077 152.935 18.8286 152.678 18.9041C152.421 18.9797 152.194 19.0326 151.998 19.0628C151.393 19.1686 150.766 19.2669 150.116 19.3575C149.481 19.4331 148.9 19.554 148.371 19.7202C147.842 19.8865 147.403 20.1283 147.056 20.4457C146.723 20.7479 146.557 21.1862 146.557 21.7605C146.557 22.1232 146.625 22.4481 146.761 22.7353C146.912 23.0073 147.109 23.2491 147.351 23.4607C147.592 23.6572 147.872 23.8083 148.189 23.9141C148.507 24.0199 148.832 24.0728 149.164 24.0728C149.708 24.0728 150.23 23.9897 150.728 23.8234C151.227 23.6572 151.658 23.4154 152.02 23.098C152.398 22.7806 152.693 22.3952 152.905 21.9419C153.131 21.4885 153.245 20.9746 153.245 20.4003V18.5414Z" fill="#151517"/>
<path d="M134.699 13.2368H136.127V15.2544H136.173C136.445 14.544 136.928 13.9773 137.624 13.5541C138.319 13.1159 139.082 12.8967 139.913 12.8967C140.729 12.8967 141.409 13.0025 141.953 13.2141C142.513 13.4257 142.958 13.7279 143.291 14.1209C143.623 14.4987 143.858 14.9672 143.994 15.5264C144.13 16.0856 144.198 16.7128 144.198 17.408V24.9342H142.77V17.6347C142.77 17.1359 142.724 16.675 142.634 16.2518C142.543 15.8135 142.384 15.4357 142.157 15.1183C141.931 14.801 141.621 14.5516 141.228 14.3702C140.85 14.1889 140.374 14.0982 139.8 14.0982C139.226 14.0982 138.712 14.204 138.258 14.4156C137.82 14.6121 137.442 14.8916 137.125 15.2544C136.823 15.602 136.581 16.0251 136.399 16.5238C136.233 17.0075 136.143 17.5364 136.127 18.1107V24.9342H134.699V13.2368Z" fill="#151517"/>
<path d="M131.691 8.74829H133.12V11.0379H131.691V8.74829ZM131.691 13.2369H133.12V24.9343H131.691V13.2369Z" fill="#151517"/>
<path d="M120.898 8.74829H131.168V10.0631H122.44V15.9119H130.193V17.2267H122.44V24.9343H120.898V8.74829Z" fill="#151517"/>
<path d="M189.734 22.8638H190.018V23.133H190.025C190.162 22.9252 190.359 22.8213 190.616 22.8213C190.73 22.8213 190.832 22.8449 190.925 22.8921C191.017 22.9394 191.082 23.0196 191.119 23.133C191.181 23.0338 191.261 22.9571 191.36 22.9028C191.462 22.8484 191.573 22.8213 191.693 22.8213C191.785 22.8213 191.868 22.8319 191.941 22.8532C192.017 22.8721 192.08 22.9028 192.132 22.9453C192.187 22.9878 192.228 23.0433 192.256 23.1117C192.287 23.1779 192.302 23.2581 192.302 23.3526V24.6951H192.001V23.4943C192.001 23.4376 191.997 23.3845 191.987 23.3349C191.978 23.2853 191.96 23.2428 191.934 23.2074C191.908 23.1696 191.871 23.1401 191.824 23.1188C191.779 23.0976 191.72 23.0869 191.647 23.0869C191.498 23.0869 191.381 23.1295 191.296 23.2145C191.211 23.2995 191.169 23.4128 191.169 23.5545V24.6951H190.868V23.4943C190.868 23.4353 190.862 23.3809 190.85 23.3314C190.841 23.2818 190.823 23.2393 190.797 23.2038C190.771 23.1661 190.736 23.1377 190.691 23.1188C190.648 23.0976 190.593 23.0869 190.524 23.0869C190.437 23.0869 190.361 23.1047 190.298 23.1401C190.236 23.1755 190.185 23.218 190.145 23.2676C190.107 23.3172 190.079 23.3691 190.06 23.4234C190.044 23.4754 190.035 23.5191 190.035 23.5545V24.6951H189.734V22.8638Z" fill="#151517"/>
<path d="M189.214 22.864H189.579V23.1296H189.214V24.2666C189.214 24.3021 189.217 24.3304 189.221 24.3517C189.229 24.3729 189.24 24.3894 189.257 24.4012C189.273 24.413 189.296 24.4213 189.324 24.426C189.355 24.4284 189.394 24.4296 189.441 24.4296H189.579V24.6952H189.349C189.271 24.6952 189.204 24.6905 189.147 24.6811C189.093 24.6693 189.048 24.6492 189.012 24.6209C188.979 24.5925 188.955 24.5524 188.938 24.5004C188.922 24.4485 188.913 24.38 188.913 24.295V23.1296H188.602V22.864H188.913V22.3149H189.214V22.864Z" fill="#151517"/>
</svg>
