<svg width="97" height="98" viewBox="0 0 97 98" fill="none" xmlns="http://www.w3.org/2000/svg">
<g filter="url(#filter0_dd_1623_21006)">
<g clip-path="url(#clip0_1623_21006)">
<rect x="8" y="6" width="81" height="81" rx="20.25" fill="white"/>
<rect x="8" y="6" width="81" height="81" rx="20.25" fill="url(#paint0_linear_1623_21006)"/>
<path fill-rule="evenodd" clip-rule="evenodd" d="M48.4831 11.1444C28.9658 11.1444 13.1439 26.9663 13.1439 46.4836C13.1439 66.0009 28.9658 81.8228 48.4831 81.8228C68.0004 81.8228 83.8223 66.0009 83.8223 46.4836C83.8223 26.9663 68.0004 11.1444 48.4831 11.1444ZM12.9473 46.4836C12.9473 26.8577 28.8572 10.9478 48.4831 10.9478C68.109 10.9478 84.0189 26.8577 84.0189 46.4836C84.0189 66.1094 68.109 82.0194 48.4831 82.0194C28.8572 82.0194 12.9473 66.1094 12.9473 46.4836Z" fill="#D0D5DD"/>
<path fill-rule="evenodd" clip-rule="evenodd" d="M48.5088 36.5803C43.0255 36.5803 38.5804 41.0254 38.5804 46.5087C38.5804 51.992 43.0255 56.4371 48.5088 56.4371C53.9921 56.4371 58.4372 51.992 58.4372 46.5087C58.4372 41.0254 53.9921 36.5803 48.5088 36.5803ZM38.3838 46.5087C38.3838 40.9168 42.9169 36.3837 48.5088 36.3837C54.1007 36.3837 58.6338 40.9168 58.6338 46.5087C58.6338 52.1006 54.1007 56.6337 48.5088 56.6337C42.9169 56.6337 38.3838 52.1006 38.3838 46.5087Z" fill="#D0D5DD"/>
<path fill-rule="evenodd" clip-rule="evenodd" d="M48.495 39.7122C44.749 39.7122 41.7122 42.7489 41.7122 46.4949C41.7122 50.241 44.749 53.2777 48.495 53.2777C52.241 53.2777 55.2778 50.241 55.2778 46.4949C55.2778 42.7489 52.241 39.7122 48.495 39.7122ZM41.5156 46.4949C41.5156 42.6403 44.6404 39.5156 48.495 39.5156C52.3496 39.5156 55.4744 42.6403 55.4744 46.4949C55.4744 50.3495 52.3496 53.4743 48.495 53.4743C44.6404 53.4743 41.5156 50.3495 41.5156 46.4949Z" fill="#D0D5DD"/>
<path d="M48.3711 6H48.5677V87H48.3711V6Z" fill="#D0D5DD"/>
<path d="M89.0059 46.3713L89.0059 46.5679L8.00586 46.5679L8.00586 46.3713L89.0059 46.3713Z" fill="#D0D5DD"/>
<path d="M75.3467 6H75.5433V87H75.3467V6Z" fill="#D0D5DD"/>
<path d="M34.9365 6H35.1331V87H34.9365V6Z" fill="#D0D5DD"/>
<path d="M61.8721 6H62.0687V87H61.8721V6Z" fill="#D0D5DD"/>
<path d="M21.4746 6H21.6712V87H21.4746V6Z" fill="#D0D5DD"/>
<path d="M89.0059 73.3469L89.0059 73.5435L8.00586 73.5435L8.00586 73.3469L89.0059 73.3469Z" fill="#D0D5DD"/>
<path d="M89.0059 32.9362L89.0059 33.1328L8.00586 33.1328L8.00586 32.9362L89.0059 32.9362Z" fill="#D0D5DD"/>
<path d="M89.0059 59.8723L89.0059 60.0689L8.00586 60.0689L8.00586 59.8723L89.0059 59.8723Z" fill="#D0D5DD"/>
<path d="M89.0059 19.4747L89.0059 19.6713L8.00586 19.6713L8.00586 19.4747L89.0059 19.4747Z" fill="#D0D5DD"/>
<path fill-rule="evenodd" clip-rule="evenodd" d="M44.2942 25.7628C46.0993 25.7628 47.5625 24.2995 47.5625 22.4945C47.5625 20.6894 46.0993 19.2261 44.2942 19.2261C42.4892 19.2261 41.0259 20.6894 41.0259 22.4945C41.0259 24.2995 42.4892 25.7628 44.2942 25.7628ZM53.4528 73.7137C55.2578 73.7137 56.7211 72.2504 56.7211 70.4453C56.7211 68.6403 55.2578 67.177 53.4528 67.177C51.6478 67.177 50.1845 68.6403 50.1845 70.4453C50.1845 72.2504 51.6478 73.7137 53.4528 73.7137ZM54.6321 63.4135L45.6811 47.9098L50.9794 44.8508L49.4568 42.2137L44.1585 45.2727L43.6809 44.4455L49.0187 41.3637L47.5397 38.802L42.2019 41.8837L41.7174 41.0446L47.0449 37.9688L45.5659 35.407L40.2384 38.4828L40.2333 38.4741L37.5962 39.9966L50.6453 62.5983C51.3899 63.888 52.6247 64.5725 53.4012 64.1242L54.6321 63.4135ZM52.2494 45.1174L43.2498 29.5295L44.4455 28.8391C45.1999 28.4036 46.4184 29.1017 47.1653 30.3953L60.2538 53.0653L57.692 54.5443L57.6864 54.5345L52.2717 57.6607L50.7927 55.0989L56.2074 51.9728L55.7352 51.1549L50.3242 54.2789L48.8452 51.7171L54.2561 48.5931L53.772 47.7545L48.3807 50.8672L46.8582 48.2301L52.2494 45.1174ZM49.9486 66.1159L51.1443 65.4255L36.7463 40.4874L34.1845 41.9664L47.233 64.5669C47.9775 65.8566 49.1942 66.5514 49.9486 66.1159ZM47.7362 67.3863L46.5404 68.0767C45.7861 68.5122 44.5694 67.8173 43.8248 66.5277L30.7764 43.9272L33.3381 42.4481L47.7362 67.3863ZM46.6579 27.5689L47.8536 26.8785C48.608 26.443 49.8265 27.1411 50.5734 28.4347L63.6619 51.1046L61.1002 52.5837L46.6579 27.5689ZM51.2575 24.8974L50.0266 25.6081L64.4689 50.6229L67.106 49.1004L54.0174 26.4303C53.2706 25.1368 52.0341 24.4491 51.2575 24.8974Z" fill="#072AC8"/>
</g>
<rect x="8.37969" y="6.37969" width="80.2406" height="80.2406" rx="19.8703" stroke="#D0D5DD" stroke-width="0.759375"/>
</g>
<defs>
<filter id="filter0_dd_1623_21006" x="0.406251" y="0.937501" width="96.1875" height="96.1875" filterUnits="userSpaceOnUse" color-interpolation-filters="sRGB">
<feFlood flood-opacity="0" result="BackgroundImageFix"/>
<feColorMatrix in="SourceAlpha" type="matrix" values="0 0 0 0 0 0 0 0 0 0 0 0 0 0 0 0 0 0 127 0" result="hardAlpha"/>
<feOffset dy="2.53125"/>
<feGaussianBlur stdDeviation="2.53125"/>
<feColorMatrix type="matrix" values="0 0 0 0 0.0627451 0 0 0 0 0.0941176 0 0 0 0 0.156863 0 0 0 0.06 0"/>
<feBlend mode="normal" in2="BackgroundImageFix" result="effect1_dropShadow_1623_21006"/>
<feColorMatrix in="SourceAlpha" type="matrix" values="0 0 0 0 0 0 0 0 0 0 0 0 0 0 0 0 0 0 127 0" result="hardAlpha"/>
<feOffset dy="2.53125"/>
<feGaussianBlur stdDeviation="3.79687"/>
<feColorMatrix type="matrix" values="0 0 0 0 0.0627451 0 0 0 0 0.0941176 0 0 0 0 0.156863 0 0 0 0.1 0"/>
<feBlend mode="normal" in2="effect1_dropShadow_1623_21006" result="effect2_dropShadow_1623_21006"/>
<feBlend mode="normal" in="SourceGraphic" in2="effect2_dropShadow_1623_21006" result="shape"/>
</filter>
<linearGradient id="paint0_linear_1623_21006" x1="48.5" y1="6" x2="48.5" y2="87" gradientUnits="userSpaceOnUse">
<stop stop-color="white"/>
<stop offset="1" stop-color="#D0D5DD"/>
</linearGradient>
<clipPath id="clip0_1623_21006">
<rect x="8" y="6" width="81" height="81" rx="20.25" fill="white"/>
</clipPath>
</defs>
</svg>
