<svg width="936" height="200" viewBox="0 0 936 200" fill="none" xmlns="http://www.w3.org/2000/svg">
<g filter="url(#filter0_d_68_67)">
<path d="M15.831 40.301C14.9655 28.1051 26.8718 19.0106 38.4104 23.0541L66.4942 32.8954C70.3668 34.2525 74.5997 34.163 78.4115 32.6434L114.734 18.1636C127.78 12.9626 141.148 24.9288 137.419 38.4695L124.45 85.5512C123.824 87.8255 123.677 90.2053 124.02 92.5391L129.479 129.66C131.323 142.194 119.303 152.268 107.285 148.262L84.5778 140.693C80.3612 139.287 75.7619 139.589 71.765 141.533L34.3835 159.719C21.8216 165.83 7.65947 155.022 10.2389 141.293L19.0951 94.1551C19.3639 92.7243 19.4478 91.2649 19.3448 89.8127L15.831 40.301Z" fill="#F3F0F0"/>
</g>
<g filter="url(#filter1_d_68_67)">
<path fill-rule="evenodd" clip-rule="evenodd" d="M120.762 91.9087C120.429 95.3287 119.751 98.6477 118.764 101.831C116.794 103.989 114.131 106.758 111.088 109.544C107.835 112.521 104.215 115.455 100.592 117.683C96.9166 119.944 93.5343 121.292 90.7039 121.477C88.0374 121.652 85.6814 120.803 83.2748 119.162C80.7784 117.461 78.4513 115.07 75.8182 112.339L75.6717 112.187L75.6717 112.187L75.6715 112.187C73.1877 109.611 70.4085 106.728 67.2744 104.576C63.9906 102.321 60.114 100.719 55.4611 100.988C51.386 101.223 47.2105 102.868 43.417 104.934C39.577 107.025 35.8572 109.698 32.6383 112.287C31.538 113.172 30.4889 114.053 29.5055 114.905C28.204 112.974 27.0338 110.947 26.0077 108.837C26.5632 109.353 26.5631 109.353 26.5629 109.354L26.5636 109.353L26.5703 109.346L26.6033 109.31C26.6339 109.278 26.6815 109.227 26.7455 109.16C26.8735 109.026 27.0667 108.824 27.3195 108.565C27.8253 108.046 28.5685 107.298 29.5038 106.395C31.378 104.585 34.0051 102.171 37.0253 99.7416C40.0554 97.3046 43.418 94.9038 46.7647 93.0813C50.1579 91.2335 53.2733 90.1254 55.8643 89.976C58.5347 89.8219 60.898 90.6893 63.3123 92.3469C65.8145 94.0648 68.1439 96.4649 70.7791 99.1979L70.8819 99.3045L70.8819 99.3046C73.3789 101.894 76.1744 104.794 79.3321 106.946C82.6229 109.19 86.5058 110.767 91.1612 110.462C95.6435 110.169 100.176 108.157 104.259 105.646C108.395 103.102 112.378 99.8532 115.814 96.7076C117.613 95.0612 119.28 93.426 120.762 91.9087ZM104.259 123.646C105.031 123.171 105.798 122.672 106.556 122.153C97.4927 131.32 84.9097 137 71 137C56.2388 137 42.9716 130.603 33.8191 120.431C34.8203 119.557 35.8952 118.65 37.0253 117.742C40.0554 115.305 43.418 112.904 46.7647 111.081C50.1579 109.233 53.2733 108.125 55.8643 107.976C58.5347 107.822 60.898 108.689 63.3123 110.347C65.8145 112.065 68.1439 114.465 70.7791 117.198L70.8819 117.304L70.882 117.305C73.3789 119.894 76.1745 122.794 79.3321 124.946C82.6229 127.19 86.5058 128.767 91.1612 128.462C95.6435 128.169 100.176 126.157 104.259 123.646ZM120.716 81.6417C120.273 82.1511 119.744 82.75 119.139 83.4182C117.138 85.629 114.329 88.5772 111.088 91.5443C107.835 94.5215 104.215 97.4552 100.592 99.6832C96.9166 101.944 93.5343 103.292 90.7039 103.477C88.0374 103.652 85.6814 102.803 83.2748 101.162C80.7784 99.4606 78.4513 97.07 75.8182 94.3391L75.6717 94.1872L75.6717 94.1872L75.6717 94.1872C73.1878 91.6107 70.4085 88.7278 67.2744 86.576C63.9906 84.3215 60.114 82.7192 55.4611 82.9876C51.386 83.2227 47.2105 84.8679 43.417 86.9337C39.577 89.0248 35.8572 91.698 32.6383 94.2869C29.4093 96.8838 26.6205 99.4477 24.6411 101.359C24.2065 101.779 23.81 102.168 23.4555 102.52C22.6451 100.036 22.024 97.4661 21.6092 94.8279C21.7306 94.7053 21.8698 94.5652 22.0259 94.4089C22.6868 93.7475 23.65 92.7971 24.849 91.6522C27.2504 89.3591 30.5803 86.3022 34.3077 83.2302C38.0472 80.1483 42.1202 77.1068 46.0122 74.8066C50.0012 72.4491 53.3938 71.1185 55.8643 70.976C58.5347 70.8219 60.898 71.6893 63.3123 73.3469C65.8145 75.0648 68.1439 77.4649 70.7791 80.1979L70.8818 80.3044C73.3788 82.8943 76.1744 85.7938 79.3321 87.9463C82.6229 90.1895 86.5058 91.7672 91.1612 91.4625C95.6435 91.169 100.176 89.1569 104.259 86.6458C108.395 84.1022 112.378 80.8532 115.814 77.7076C117.071 76.5568 118.264 75.4114 119.375 74.3079C119.998 76.688 120.449 79.1372 120.716 81.6417ZM116.807 66.9267C115.158 68.6554 113.216 70.5958 111.088 72.5443C107.835 75.5215 104.215 78.4552 100.592 80.6832C96.9166 82.9436 93.5343 84.2921 90.7039 84.4774C88.0374 84.652 85.6814 83.8027 83.2748 82.1623C80.7784 80.4606 78.4513 78.07 75.8182 75.3391L75.6717 75.1872L75.6717 75.1872C73.1878 72.6108 70.4085 69.7278 67.2744 67.576C63.9906 65.3215 60.114 63.7192 55.4611 63.9876C51.2654 64.2296 46.6797 66.281 42.4507 68.7803C38.1249 71.3369 33.7404 74.6268 29.8558 77.8283C26.4593 80.6276 23.3938 83.4017 21.0182 85.6382C21.1469 80.8242 21.9561 76.1799 23.353 71.7979C23.9504 71.3416 24.7587 70.7332 25.7375 70.0177C27.9775 68.3802 31.0947 66.1934 34.6101 63.9884C38.1344 61.7778 42.0048 59.5834 45.7573 57.9055C49.5632 56.2037 52.9932 55.1504 55.7016 54.9942C61.3998 54.6655 66.1475 58.3961 72.2666 63.4715L72.6784 63.8134C78.1717 68.3748 84.9878 74.0347 93.7286 73.4625C98.291 73.1638 102.47 71.0942 106.033 68.49C108.921 66.3781 111.555 63.8049 113.847 61.214C114.951 63.045 115.941 64.9525 116.807 66.9267ZM71 37C53.8394 37 38.6979 45.6451 29.6933 58.8178C30.0868 58.5655 30.4861 58.3121 30.8907 58.0583C34.5749 55.7475 38.7462 53.3725 42.8999 51.5152C47.0001 49.6818 51.3406 48.2341 55.2984 48.0058C63.9981 47.504 70.7905 53.1459 76.269 57.6964L76.7355 58.0837C82.8493 63.1548 87.5881 66.8494 93.2714 66.4774C96.0217 66.2974 98.9365 65.0064 101.901 62.8389C104.706 60.7888 107.352 58.1025 109.685 55.3197C100.515 44.1359 86.5909 37 71 37Z" fill="#072AC8"/>
</g>
<path d="M143.348 49.2461H162.293L182.312 98.123H183.143L203.211 49.2461H222.303V122H207.215V74.6367H206.678L187.781 121.658H177.576L158.875 74.5391H158.24V122H143.348V49.2461ZM250.232 123.025C245.024 123.025 240.695 121.674 237.244 118.973C233.826 116.238 232.117 112.169 232.117 106.766C232.117 102.697 233.061 99.5065 234.949 97.1953C236.87 94.8516 239.393 93.1426 242.518 92.0684C245.643 90.9616 248.995 90.2454 252.576 89.9199C257.329 89.4642 260.714 88.9922 262.732 88.5039C264.783 87.9831 265.809 86.8438 265.809 85.0859V84.8418C265.809 82.5957 265.092 80.8542 263.66 79.6172C262.228 78.3802 260.161 77.7617 257.459 77.7617C254.757 77.7617 252.544 78.3477 250.818 79.5195C249.126 80.6914 248.003 82.1888 247.449 84.0117L233.68 81.8145C234.982 77.0618 237.716 73.3672 241.883 70.7305C246.082 68.0612 251.29 66.7266 257.508 66.7266C261.544 66.7266 265.337 67.3613 268.885 68.6309C272.465 69.9004 275.363 71.9023 277.576 74.6367C279.79 77.3385 280.896 80.8542 280.896 85.1836V122H266.59V114.383H266.15C264.816 116.954 262.83 119.038 260.193 120.633C257.589 122.228 254.269 123.025 250.232 123.025ZM246.521 106.277C246.521 108.361 247.27 109.939 248.768 111.014C250.298 112.055 252.218 112.576 254.529 112.576C257.85 112.576 260.568 111.616 262.684 109.695C264.832 107.775 265.906 105.382 265.906 102.518V96.707C265.32 97.0977 264.393 97.4557 263.123 97.7812C261.886 98.1068 260.568 98.3835 259.168 98.6113C257.768 98.8066 256.515 98.9857 255.408 99.1484C252.739 99.5391 250.59 100.304 248.963 101.443C247.335 102.55 246.521 104.161 246.521 106.277ZM293.055 122V67.4102H307.41V77.127H308.094C309.233 73.9043 311.137 71.3652 313.807 69.5098C316.476 67.6543 319.65 66.7266 323.328 66.7266C327.072 66.7266 330.245 67.6706 332.85 69.5586C335.486 71.4141 337.228 73.9368 338.074 77.127H338.66C339.799 73.9694 341.818 71.4466 344.715 69.5586C347.645 67.6706 351.111 66.7266 355.115 66.7266C360.193 66.7266 364.327 68.3379 367.518 71.5605C370.74 74.7832 372.352 79.3568 372.352 85.2812V122H357.215V88.3086C357.215 85.2487 356.401 82.9701 354.773 81.4727C353.178 79.9753 351.176 79.2266 348.768 79.2266C346.033 79.2266 343.885 80.1055 342.322 81.8633C340.792 83.5885 340.027 85.8672 340.027 88.6992V122H325.33V87.918C325.33 85.2812 324.565 83.1816 323.035 81.6191C321.538 80.0241 319.552 79.2266 317.078 79.2266C314.539 79.2266 312.423 80.1543 310.73 82.0098C309.038 83.8327 308.191 86.2578 308.191 89.2852V122H293.055ZM384.461 122V67.4102H398.816V77.127H399.5C400.639 73.9043 402.544 71.3652 405.213 69.5098C407.882 67.6543 411.056 66.7266 414.734 66.7266C418.478 66.7266 421.652 67.6706 424.256 69.5586C426.893 71.4141 428.634 73.9368 429.48 77.127H430.066C431.206 73.9694 433.224 71.4466 436.121 69.5586C439.051 67.6706 442.518 66.7266 446.521 66.7266C451.6 66.7266 455.734 68.3379 458.924 71.5605C462.146 74.7832 463.758 79.3568 463.758 85.2812V122H448.621V88.3086C448.621 85.2487 447.807 82.9701 446.18 81.4727C444.585 79.9753 442.583 79.2266 440.174 79.2266C437.439 79.2266 435.291 80.1055 433.729 81.8633C432.199 83.5885 431.434 85.8672 431.434 88.6992V122H416.736V87.918C416.736 85.2812 415.971 83.1816 414.441 81.6191C412.944 80.0241 410.958 79.2266 408.484 79.2266C405.945 79.2266 403.829 80.1543 402.137 82.0098C400.444 83.8327 399.598 86.2578 399.598 89.2852V122H384.461ZM500.477 123.074C494.975 123.074 490.206 121.902 486.17 119.559C482.166 117.182 479.074 113.895 476.893 109.695C474.744 105.464 473.67 100.548 473.67 94.9492C473.67 89.3177 474.744 84.3861 476.893 80.1543C479.074 75.9225 482.166 72.6348 486.17 70.291C490.206 67.9147 494.975 66.7266 500.477 66.7266C506.01 66.7266 510.779 67.9147 514.783 70.291C518.82 72.6348 521.912 75.9225 524.061 80.1543C526.242 84.3861 527.332 89.3177 527.332 94.9492C527.332 100.548 526.242 105.464 524.061 109.695C521.912 113.895 518.82 117.182 514.783 119.559C510.779 121.902 506.01 123.074 500.477 123.074ZM489.051 94.8516C489.051 99.6042 490.011 103.527 491.932 106.619C493.852 109.712 496.717 111.258 500.525 111.258C504.301 111.258 507.15 109.712 509.07 106.619C510.991 103.527 511.951 99.6042 511.951 94.8516C511.951 90.099 510.991 86.1927 509.07 83.1328C507.15 80.0729 504.301 78.543 500.525 78.543C496.717 78.543 493.852 80.0729 491.932 83.1328C490.011 86.1927 489.051 90.099 489.051 94.8516ZM552.43 90.457V122H537.293V67.4102H552.186V77.127H552.723C553.96 73.9368 555.929 71.4141 558.631 69.5586C561.333 67.6706 564.702 66.7266 568.738 66.7266C574.435 66.7266 578.992 68.5658 582.41 72.2441C585.861 75.89 587.586 80.903 587.586 87.2832V122H572.449V89.9688C572.449 86.6159 571.587 83.9954 569.861 82.1074C568.169 80.2194 565.809 79.2754 562.781 79.2754C559.721 79.2754 557.231 80.2682 555.311 82.2539C553.39 84.207 552.43 86.9414 552.43 90.457Z" fill="#072AC8"/>
<path d="M645.221 52.8105V59.5H607.477V82.8887H640.289V89.5781H607.477V122H600.104V52.8105H645.221ZM664.752 52.4199V61.0137H657.477V52.4199H664.752ZM664.752 72.293V122H657.477V72.293H664.752ZM676.764 72.293H684.137V79.8125C686.708 76.8503 689.492 74.7181 692.486 73.416C695.481 72.0814 698.541 71.4141 701.666 71.4141C704.01 71.4141 706.093 71.7559 707.916 72.4395C709.771 73.123 711.334 74.1159 712.604 75.418C713.906 76.6875 714.882 78.25 715.533 80.1055C716.217 81.9284 716.559 83.9954 716.559 86.3066V122H709.283V87.1855C709.283 85.4928 709.072 84.0605 708.648 82.8887C708.258 81.6842 707.672 80.724 706.891 80.0078C706.109 79.2591 705.149 78.722 704.01 78.3965C702.903 78.071 701.65 77.9082 700.25 77.9082C698.004 77.9082 695.904 78.3151 693.951 79.1289C691.998 79.9102 690.289 80.9681 688.824 82.3027C687.359 83.6048 686.204 85.1185 685.357 86.8438C684.544 88.5365 684.137 90.2943 684.137 92.1172V122H676.764V72.293ZM728.473 85.623C728.603 83.1816 729.27 81.0658 730.475 79.2754C731.679 77.485 733.193 76.0039 735.016 74.832C736.871 73.6602 738.922 72.7975 741.168 72.2441C743.414 71.6908 745.644 71.4141 747.857 71.4141C750.299 71.4141 752.675 71.6908 754.986 72.2441C757.298 72.765 759.348 73.6113 761.139 74.7832C762.929 75.9551 764.361 77.485 765.436 79.373C766.51 81.2285 767.047 83.4746 767.047 86.1113V112.283C767.047 112.804 767.145 113.325 767.34 113.846C767.535 114.367 767.796 114.839 768.121 115.262C768.447 115.652 768.821 115.978 769.244 116.238C769.7 116.466 770.172 116.58 770.66 116.58C771.018 116.58 771.376 116.548 771.734 116.482C772.125 116.385 772.564 116.255 773.053 116.092V122.098C772.011 122.391 771.116 122.602 770.367 122.732C769.651 122.895 768.854 122.977 767.975 122.977C765.859 122.977 764.101 122.195 762.701 120.633C761.334 119.07 760.553 116.661 760.357 113.406C758.795 115.457 757.249 117.117 755.719 118.387C754.189 119.624 752.659 120.584 751.129 121.268C749.632 121.951 748.102 122.407 746.539 122.635C745.009 122.863 743.447 122.977 741.852 122.977C739.801 122.977 737.88 122.651 736.09 122C734.299 121.349 732.737 120.421 731.402 119.217C730.1 117.98 729.059 116.499 728.277 114.773C727.529 113.048 727.154 111.128 727.154 109.012C727.154 106.896 727.61 105.089 728.521 103.592C729.465 102.062 730.702 100.76 732.232 99.6855C733.762 98.6113 735.504 97.6999 737.457 96.9512C739.41 96.2025 741.396 95.5352 743.414 94.9492C745.432 94.3633 747.418 93.8099 749.371 93.2891C751.324 92.7682 753.066 92.1823 754.596 91.5312C756.126 90.8802 757.346 90.1315 758.258 89.2852C759.202 88.4062 759.674 87.3483 759.674 86.1113C759.674 83.2142 758.616 81.1309 756.5 79.8613C754.384 78.5592 751.438 77.9082 747.662 77.9082C746.197 77.9082 744.798 78.0547 743.463 78.3477C742.161 78.6406 741.005 79.0964 739.996 79.7148C738.987 80.3333 738.141 81.1309 737.457 82.1074C736.773 83.084 736.334 84.2559 736.139 85.623H728.473ZM759.674 93.9238C758.665 94.998 757.33 95.8932 755.67 96.6094C754.042 97.3255 752.285 97.9766 750.396 98.5625C748.541 99.1159 746.653 99.653 744.732 100.174C742.844 100.695 741.135 101.329 739.605 102.078C738.076 102.794 736.822 103.673 735.846 104.715C734.902 105.757 734.43 107.059 734.43 108.621C734.43 110.053 734.674 111.274 735.162 112.283C735.65 113.26 736.301 114.074 737.115 114.725C737.929 115.376 738.84 115.848 739.85 116.141C740.891 116.434 741.933 116.58 742.975 116.58C746.035 116.58 749.013 115.669 751.91 113.846C754.84 111.99 757.428 109.142 759.674 105.301V93.9238ZM783.6 72.293H790.973V79.8125C793.544 76.8503 796.327 74.7181 799.322 73.416C802.317 72.0814 805.377 71.4141 808.502 71.4141C810.846 71.4141 812.929 71.7559 814.752 72.4395C816.607 73.123 818.17 74.1159 819.439 75.418C820.742 76.6875 821.718 78.25 822.369 80.1055C823.053 81.9284 823.395 83.9954 823.395 86.3066V122H816.119V87.1855C816.119 85.4928 815.908 84.0605 815.484 82.8887C815.094 81.6842 814.508 80.724 813.727 80.0078C812.945 79.2591 811.985 78.722 810.846 78.3965C809.739 78.071 808.486 77.9082 807.086 77.9082C804.84 77.9082 802.74 78.3151 800.787 79.1289C798.834 79.9102 797.125 80.9681 795.66 82.3027C794.195 83.6048 793.04 85.1185 792.193 86.8438C791.38 88.5365 790.973 90.2943 790.973 92.1172V122H783.6V72.293ZM868.072 87.5762C867.584 85.8184 866.965 84.321 866.217 83.084C865.468 81.847 864.589 80.8542 863.58 80.1055C862.571 79.3242 861.415 78.7708 860.113 78.4453C858.811 78.0872 857.363 77.9082 855.768 77.9082C853.456 77.9082 851.406 78.4128 849.615 79.4219C847.825 80.3984 846.311 81.7331 845.074 83.4258C843.837 85.1185 842.893 87.0879 842.242 89.334C841.591 91.5475 841.266 93.875 841.266 96.3164C841.266 98.8555 841.591 101.346 842.242 103.787C842.893 106.229 843.837 108.393 845.074 110.281C846.311 112.169 847.809 113.699 849.566 114.871C851.357 116.01 853.359 116.58 855.572 116.58C857.363 116.58 858.941 116.271 860.309 115.652C861.708 115.001 862.913 114.122 863.922 113.016C864.964 111.909 865.81 110.639 866.461 109.207C867.145 107.742 867.649 106.18 867.975 104.52H875.982C875.624 107.417 874.892 110.021 873.785 112.332C872.678 114.611 871.246 116.564 869.488 118.191C867.73 119.786 865.647 121.007 863.238 121.854C860.862 122.7 858.209 123.123 855.279 123.123C852.805 123.123 850.559 122.749 848.541 122C846.555 121.284 844.765 120.291 843.17 119.021C841.607 117.752 840.24 116.255 839.068 114.529C837.929 112.804 836.985 110.949 836.236 108.963C835.488 106.977 834.918 104.91 834.527 102.762C834.169 100.613 833.99 98.4648 833.99 96.3164C833.99 92.8008 834.495 89.5293 835.504 86.502C836.546 83.4746 838.01 80.8542 839.898 78.6406C841.819 76.3945 844.13 74.6367 846.832 73.3672C849.534 72.0651 852.545 71.4141 855.865 71.4141C858.762 71.4141 861.35 71.821 863.629 72.6348C865.908 73.4486 867.877 74.5879 869.537 76.0527C871.197 77.485 872.548 79.194 873.59 81.1797C874.632 83.1328 875.396 85.265 875.885 87.5762H868.072ZM894.244 98.5137C894.277 100.825 894.684 103.071 895.465 105.252C896.246 107.433 897.304 109.37 898.639 111.062C900.006 112.723 901.601 114.057 903.424 115.066C905.247 116.076 907.216 116.58 909.332 116.58C916.493 116.58 921.23 113.26 923.541 106.619H930.23C929.677 109.223 928.733 111.551 927.398 113.602C926.064 115.62 924.452 117.329 922.564 118.729C920.709 120.096 918.642 121.154 916.363 121.902C914.117 122.618 911.773 122.977 909.332 122.977C905.849 122.977 902.691 122.26 899.859 120.828C897.06 119.396 894.667 117.475 892.682 115.066C890.729 112.625 889.215 109.809 888.141 106.619C887.066 103.396 886.529 99.9948 886.529 96.4141C886.529 93.0938 887.05 89.9199 888.092 86.8926C889.166 83.8652 890.68 81.2122 892.633 78.9336C894.618 76.6224 897.011 74.7995 899.811 73.4648C902.61 72.0977 905.751 71.4141 909.234 71.4141C912.587 71.4141 915.615 72.0326 918.316 73.2695C921.051 74.474 923.362 76.1504 925.25 78.2988C927.171 80.4473 928.635 83.0026 929.645 85.9648C930.686 88.9271 931.207 92.1335 931.207 95.584V98.5137H894.244ZM923.639 92.8008C923.574 90.7174 923.183 88.7643 922.467 86.9414C921.783 85.1185 920.79 83.5397 919.488 82.2051C918.219 80.8704 916.673 79.8288 914.85 79.0801C913.059 78.2988 911.025 77.9082 908.746 77.9082C906.695 77.9082 904.791 78.3151 903.033 79.1289C901.308 79.9427 899.794 81.0495 898.492 82.4492C897.19 83.8164 896.165 85.3952 895.416 87.1855C894.667 88.9759 894.277 90.8477 894.244 92.8008H923.639Z" fill="#D9D9D9"/>
<defs>
<filter id="filter0_d_68_67" x="0.931885" y="6.92111" width="148.122" height="164.547" filterUnits="userSpaceOnUse" color-interpolation-filters="sRGB">
<feFlood flood-opacity="0" result="BackgroundImageFix"/>
<feColorMatrix in="SourceAlpha" type="matrix" values="0 0 0 0 0 0 0 0 0 0 0 0 0 0 0 0 0 0 127 0" result="hardAlpha"/>
<feOffset dx="1"/>
<feGaussianBlur stdDeviation="5"/>
<feComposite in2="hardAlpha" operator="out"/>
<feColorMatrix type="matrix" values="0 0 0 0 0 0 0 0 0 0 0 0 0 0 0 0 0 0 0.25 0"/>
<feBlend mode="normal" in2="BackgroundImageFix" result="effect1_dropShadow_68_67"/>
<feBlend mode="normal" in="SourceGraphic" in2="effect1_dropShadow_68_67" result="shape"/>
</filter>
<filter id="filter1_d_68_67" x="17.0182" y="37" width="107.744" height="108" filterUnits="userSpaceOnUse" color-interpolation-filters="sRGB">
<feFlood flood-opacity="0" result="BackgroundImageFix"/>
<feColorMatrix in="SourceAlpha" type="matrix" values="0 0 0 0 0 0 0 0 0 0 0 0 0 0 0 0 0 0 127 0" result="hardAlpha"/>
<feOffset dy="4"/>
<feGaussianBlur stdDeviation="2"/>
<feComposite in2="hardAlpha" operator="out"/>
<feColorMatrix type="matrix" values="0 0 0 0 0 0 0 0 0 0 0 0 0 0 0 0 0 0 0.25 0"/>
<feBlend mode="normal" in2="BackgroundImageFix" result="effect1_dropShadow_68_67"/>
<feBlend mode="normal" in="SourceGraphic" in2="effect1_dropShadow_68_67" result="shape"/>
</filter>
</defs>
</svg>
