<svg width="764" height="200" viewBox="0 0 764 200" fill="none" xmlns="http://www.w3.org/2000/svg">
<g filter="url(#filter0_d_1_49)">
<path d="M15.831 40.301C14.9655 28.1051 26.8718 19.0106 38.4104 23.0541L66.4942 32.8954C70.3668 34.2525 74.5997 34.163 78.4115 32.6434L114.734 18.1636C127.78 12.9626 141.148 24.9288 137.419 38.4695L124.45 85.5512C123.824 87.8255 123.677 90.2053 124.02 92.5391L129.479 129.66C131.323 142.194 119.303 152.268 107.285 148.262L84.5778 140.693C80.3612 139.287 75.7619 139.589 71.765 141.533L34.3835 159.719C21.8216 165.83 7.65947 155.022 10.2389 141.293L19.0951 94.1551C19.3639 92.7243 19.4478 91.2649 19.3448 89.8127L15.831 40.301Z" fill="#3458D9"/>
</g>
<g filter="url(#filter1_d_1_49)">
<path fill-rule="evenodd" clip-rule="evenodd" d="M120.762 91.9087C120.429 95.3287 119.751 98.6477 118.764 101.831C116.794 103.989 114.131 106.758 111.088 109.544C107.835 112.521 104.215 115.455 100.592 117.683C96.9166 119.944 93.5343 121.292 90.7039 121.477C88.0374 121.652 85.6814 120.803 83.2748 119.162C80.7784 117.461 78.4513 115.07 75.8182 112.339L75.6717 112.187L75.6717 112.187L75.6715 112.187C73.1877 109.611 70.4085 106.728 67.2744 104.576C63.9906 102.321 60.114 100.719 55.4611 100.988C51.386 101.223 47.2105 102.868 43.417 104.934C39.577 107.025 35.8572 109.698 32.6383 112.287C31.538 113.172 30.4889 114.053 29.5055 114.905C28.204 112.974 27.0338 110.947 26.0077 108.837C26.5632 109.353 26.5631 109.353 26.5629 109.354L26.5636 109.353L26.5703 109.346L26.6033 109.31C26.6339 109.278 26.6815 109.227 26.7455 109.16C26.8735 109.026 27.0667 108.824 27.3195 108.565C27.8253 108.046 28.5685 107.298 29.5038 106.395C31.378 104.585 34.0051 102.171 37.0253 99.7416C40.0554 97.3046 43.418 94.9038 46.7647 93.0813C50.1579 91.2335 53.2733 90.1254 55.8643 89.976C58.5347 89.8219 60.898 90.6893 63.3123 92.3469C65.8145 94.0648 68.1439 96.4649 70.7791 99.1979L70.8819 99.3045L70.8819 99.3046C73.3789 101.894 76.1744 104.794 79.3321 106.946C82.6229 109.19 86.5058 110.767 91.1612 110.462C95.6435 110.169 100.176 108.157 104.259 105.646C108.395 103.102 112.378 99.8532 115.814 96.7076C117.613 95.0612 119.28 93.426 120.762 91.9087ZM104.259 123.646C105.031 123.171 105.798 122.672 106.556 122.153C97.4927 131.32 84.9097 137 71 137C56.2388 137 42.9716 130.603 33.8191 120.431C34.8203 119.557 35.8952 118.65 37.0253 117.742C40.0554 115.305 43.418 112.904 46.7647 111.081C50.1579 109.233 53.2733 108.125 55.8643 107.976C58.5347 107.822 60.898 108.689 63.3123 110.347C65.8145 112.065 68.1439 114.465 70.7791 117.198L70.8819 117.304L70.882 117.305C73.3789 119.894 76.1745 122.794 79.3321 124.946C82.6229 127.19 86.5058 128.767 91.1612 128.462C95.6435 128.169 100.176 126.157 104.259 123.646ZM120.716 81.6417C120.273 82.1511 119.744 82.75 119.139 83.4182C117.138 85.629 114.329 88.5772 111.088 91.5443C107.835 94.5215 104.215 97.4552 100.592 99.6832C96.9166 101.944 93.5343 103.292 90.7039 103.477C88.0374 103.652 85.6814 102.803 83.2748 101.162C80.7784 99.4606 78.4513 97.07 75.8182 94.3391L75.6717 94.1872L75.6717 94.1872L75.6717 94.1872C73.1878 91.6107 70.4085 88.7278 67.2744 86.576C63.9906 84.3215 60.114 82.7192 55.4611 82.9876C51.386 83.2227 47.2105 84.8679 43.417 86.9337C39.577 89.0248 35.8572 91.698 32.6383 94.2869C29.4093 96.8838 26.6205 99.4477 24.6411 101.359C24.2065 101.779 23.81 102.168 23.4555 102.52C22.6451 100.036 22.024 97.4661 21.6092 94.8279C21.7306 94.7053 21.8698 94.5652 22.0259 94.4089C22.6868 93.7475 23.65 92.7971 24.849 91.6522C27.2504 89.3591 30.5803 86.3022 34.3077 83.2302C38.0472 80.1483 42.1202 77.1068 46.0122 74.8066C50.0012 72.4491 53.3938 71.1185 55.8643 70.976C58.5347 70.8219 60.898 71.6893 63.3123 73.3469C65.8145 75.0648 68.1439 77.4649 70.7791 80.1979L70.8818 80.3044C73.3788 82.8943 76.1744 85.7938 79.3321 87.9463C82.6229 90.1895 86.5058 91.7672 91.1612 91.4625C95.6435 91.169 100.176 89.1569 104.259 86.6458C108.395 84.1022 112.378 80.8532 115.814 77.7076C117.071 76.5568 118.264 75.4114 119.375 74.3079C119.998 76.688 120.449 79.1372 120.716 81.6417ZM116.807 66.9267C115.158 68.6554 113.216 70.5958 111.088 72.5443C107.835 75.5215 104.215 78.4552 100.592 80.6832C96.9166 82.9436 93.5343 84.2921 90.7039 84.4774C88.0374 84.652 85.6814 83.8027 83.2748 82.1623C80.7784 80.4606 78.4513 78.07 75.8182 75.3391L75.6717 75.1872L75.6717 75.1872C73.1878 72.6108 70.4085 69.7278 67.2744 67.576C63.9906 65.3215 60.114 63.7192 55.4611 63.9876C51.2654 64.2296 46.6797 66.281 42.4507 68.7803C38.1249 71.3369 33.7404 74.6268 29.8558 77.8283C26.4593 80.6276 23.3938 83.4017 21.0182 85.6382C21.1469 80.8242 21.9561 76.1799 23.353 71.7979C23.9504 71.3416 24.7587 70.7332 25.7375 70.0177C27.9775 68.3802 31.0947 66.1934 34.6101 63.9884C38.1344 61.7778 42.0048 59.5834 45.7573 57.9055C49.5632 56.2037 52.9932 55.1504 55.7016 54.9942C61.3998 54.6655 66.1475 58.3961 72.2666 63.4715L72.6784 63.8134C78.1717 68.3748 84.9878 74.0347 93.7286 73.4625C98.291 73.1638 102.47 71.0942 106.033 68.49C108.921 66.3781 111.555 63.8049 113.847 61.214C114.951 63.045 115.941 64.9525 116.807 66.9267ZM71 37C53.8394 37 38.6979 45.6451 29.6933 58.8178C30.0868 58.5655 30.4861 58.3121 30.8907 58.0583C34.5749 55.7475 38.7462 53.3725 42.8999 51.5152C47.0001 49.6818 51.3406 48.2341 55.2984 48.0058C63.9981 47.504 70.7905 53.1459 76.269 57.6964L76.7355 58.0837C82.8493 63.1548 87.5881 66.8494 93.2714 66.4774C96.0217 66.2974 98.9365 65.0064 101.901 62.8389C104.706 60.7888 107.352 58.1025 109.685 55.3197C100.515 44.1359 86.5909 37 71 37Z" fill="white"/>
</g>
<path d="M143.348 49.2461H162.293L182.312 98.123H183.143L203.211 49.2461H222.303V122H207.215V74.6367H206.678L187.781 121.658H177.576L158.875 74.5391H158.24V122H143.348V49.2461ZM250.232 123.025C245.024 123.025 240.695 121.674 237.244 118.973C233.826 116.238 232.117 112.169 232.117 106.766C232.117 102.697 233.061 99.5065 234.949 97.1953C236.87 94.8516 239.393 93.1426 242.518 92.0684C245.643 90.9616 248.995 90.2454 252.576 89.9199C257.329 89.4642 260.714 88.9922 262.732 88.5039C264.783 87.9831 265.809 86.8438 265.809 85.0859V84.8418C265.809 82.5957 265.092 80.8542 263.66 79.6172C262.228 78.3802 260.161 77.7617 257.459 77.7617C254.757 77.7617 252.544 78.3477 250.818 79.5195C249.126 80.6914 248.003 82.1888 247.449 84.0117L233.68 81.8145C234.982 77.0618 237.716 73.3672 241.883 70.7305C246.082 68.0612 251.29 66.7266 257.508 66.7266C261.544 66.7266 265.337 67.3613 268.885 68.6309C272.465 69.9004 275.363 71.9023 277.576 74.6367C279.79 77.3385 280.896 80.8542 280.896 85.1836V122H266.59V114.383H266.15C264.816 116.954 262.83 119.038 260.193 120.633C257.589 122.228 254.269 123.025 250.232 123.025ZM246.521 106.277C246.521 108.361 247.27 109.939 248.768 111.014C250.298 112.055 252.218 112.576 254.529 112.576C257.85 112.576 260.568 111.616 262.684 109.695C264.832 107.775 265.906 105.382 265.906 102.518V96.707C265.32 97.0977 264.393 97.4557 263.123 97.7812C261.886 98.1068 260.568 98.3835 259.168 98.6113C257.768 98.8066 256.515 98.9857 255.408 99.1484C252.739 99.5391 250.59 100.304 248.963 101.443C247.335 102.55 246.521 104.161 246.521 106.277ZM293.055 122V67.4102H307.41V77.127H308.094C309.233 73.9043 311.137 71.3652 313.807 69.5098C316.476 67.6543 319.65 66.7266 323.328 66.7266C327.072 66.7266 330.245 67.6706 332.85 69.5586C335.486 71.4141 337.228 73.9368 338.074 77.127H338.66C339.799 73.9694 341.818 71.4466 344.715 69.5586C347.645 67.6706 351.111 66.7266 355.115 66.7266C360.193 66.7266 364.327 68.3379 367.518 71.5605C370.74 74.7832 372.352 79.3568 372.352 85.2812V122H357.215V88.3086C357.215 85.2487 356.401 82.9701 354.773 81.4727C353.178 79.9753 351.176 79.2266 348.768 79.2266C346.033 79.2266 343.885 80.1055 342.322 81.8633C340.792 83.5885 340.027 85.8672 340.027 88.6992V122H325.33V87.918C325.33 85.2812 324.565 83.1816 323.035 81.6191C321.538 80.0241 319.552 79.2266 317.078 79.2266C314.539 79.2266 312.423 80.1543 310.73 82.0098C309.038 83.8327 308.191 86.2578 308.191 89.2852V122H293.055ZM384.461 122V67.4102H398.816V77.127H399.5C400.639 73.9043 402.544 71.3652 405.213 69.5098C407.882 67.6543 411.056 66.7266 414.734 66.7266C418.478 66.7266 421.652 67.6706 424.256 69.5586C426.893 71.4141 428.634 73.9368 429.48 77.127H430.066C431.206 73.9694 433.224 71.4466 436.121 69.5586C439.051 67.6706 442.518 66.7266 446.521 66.7266C451.6 66.7266 455.734 68.3379 458.924 71.5605C462.146 74.7832 463.758 79.3568 463.758 85.2812V122H448.621V88.3086C448.621 85.2487 447.807 82.9701 446.18 81.4727C444.585 79.9753 442.583 79.2266 440.174 79.2266C437.439 79.2266 435.291 80.1055 433.729 81.8633C432.199 83.5885 431.434 85.8672 431.434 88.6992V122H416.736V87.918C416.736 85.2812 415.971 83.1816 414.441 81.6191C412.944 80.0241 410.958 79.2266 408.484 79.2266C405.945 79.2266 403.829 80.1543 402.137 82.0098C400.444 83.8327 399.598 86.2578 399.598 89.2852V122H384.461ZM500.477 123.074C494.975 123.074 490.206 121.902 486.17 119.559C482.166 117.182 479.074 113.895 476.893 109.695C474.744 105.464 473.67 100.548 473.67 94.9492C473.67 89.3177 474.744 84.3861 476.893 80.1543C479.074 75.9225 482.166 72.6348 486.17 70.291C490.206 67.9147 494.975 66.7266 500.477 66.7266C506.01 66.7266 510.779 67.9147 514.783 70.291C518.82 72.6348 521.912 75.9225 524.061 80.1543C526.242 84.3861 527.332 89.3177 527.332 94.9492C527.332 100.548 526.242 105.464 524.061 109.695C521.912 113.895 518.82 117.182 514.783 119.559C510.779 121.902 506.01 123.074 500.477 123.074ZM489.051 94.8516C489.051 99.6042 490.011 103.527 491.932 106.619C493.852 109.712 496.717 111.258 500.525 111.258C504.301 111.258 507.15 109.712 509.07 106.619C510.991 103.527 511.951 99.6042 511.951 94.8516C511.951 90.099 510.991 86.1927 509.07 83.1328C507.15 80.0729 504.301 78.543 500.525 78.543C496.717 78.543 493.852 80.0729 491.932 83.1328C490.011 86.1927 489.051 90.099 489.051 94.8516ZM552.43 90.457V122H537.293V67.4102H552.186V77.127H552.723C553.96 73.9368 555.929 71.4141 558.631 69.5586C561.333 67.6706 564.702 66.7266 568.738 66.7266C574.435 66.7266 578.992 68.5658 582.41 72.2441C585.861 75.89 587.586 80.903 587.586 87.2832V122H572.449V89.9688C572.449 86.6159 571.587 83.9954 569.861 82.1074C568.169 80.2194 565.809 79.2754 562.781 79.2754C559.721 79.2754 557.231 80.2682 555.311 82.2539C553.39 84.207 552.43 86.9414 552.43 90.457Z" fill="#3458D9"/>
<path d="M629.498 52.8105L654.693 122H646.881L639.215 100.809H609.479L601.812 122H593.902L619.391 52.8105H629.498ZM624.322 59.5977L611.92 94.3145H636.676L624.322 59.5977ZM661.334 72.293H668.609V79.8125C669.456 78.4453 670.465 77.2246 671.637 76.1504C672.809 75.0762 674.046 74.181 675.348 73.4648C676.682 72.7161 678.033 72.1628 679.4 71.8047C680.8 71.4141 682.151 71.2188 683.453 71.2188C686.806 71.2188 689.801 71.9023 692.438 73.2695C695.107 74.6042 697.337 76.4434 699.127 78.7871C700.95 81.0983 702.333 83.8164 703.277 86.9414C704.254 90.0664 704.742 93.4193 704.742 97C704.742 100.581 704.27 103.95 703.326 107.107C702.415 110.232 701.048 112.967 699.225 115.311C697.434 117.654 695.221 119.51 692.584 120.877C689.98 122.212 687.001 122.879 683.648 122.879C682.379 122.879 681.044 122.7 679.645 122.342C678.245 121.984 676.878 121.463 675.543 120.779C674.208 120.063 672.939 119.184 671.734 118.143C670.562 117.068 669.521 115.848 668.609 114.48V142.41H661.334V72.293ZM668.609 97.7812C668.674 100.353 669.065 102.778 669.781 105.057C670.53 107.303 671.539 109.272 672.809 110.965C674.078 112.625 675.576 113.943 677.301 114.92C679.059 115.896 680.995 116.385 683.111 116.385C685.26 116.385 687.213 115.88 688.971 114.871C690.729 113.862 692.226 112.479 693.463 110.721C694.7 108.963 695.644 106.912 696.295 104.568C696.979 102.192 697.32 99.6693 697.32 97C697.32 94.3307 696.979 91.8242 696.295 89.4805C695.644 87.1367 694.7 85.1022 693.463 83.377C692.226 81.6191 690.729 80.2357 688.971 79.2266C687.213 78.2174 685.26 77.7129 683.111 77.7129C680.963 77.7129 678.993 78.2174 677.203 79.2266C675.445 80.2357 673.915 81.6191 672.613 83.377C671.344 85.1022 670.351 87.1367 669.635 89.4805C668.951 91.8242 668.609 94.3307 668.609 97V97.7812ZM715.338 72.293H722.613V79.8125C723.46 78.4453 724.469 77.2246 725.641 76.1504C726.812 75.0762 728.049 74.181 729.352 73.4648C730.686 72.7161 732.037 72.1628 733.404 71.8047C734.804 71.4141 736.155 71.2188 737.457 71.2188C740.81 71.2188 743.805 71.9023 746.441 73.2695C749.111 74.6042 751.34 76.4434 753.131 78.7871C754.954 81.0983 756.337 83.8164 757.281 86.9414C758.258 90.0664 758.746 93.4193 758.746 97C758.746 100.581 758.274 103.95 757.33 107.107C756.419 110.232 755.051 112.967 753.229 115.311C751.438 117.654 749.225 119.51 746.588 120.877C743.984 122.212 741.005 122.879 737.652 122.879C736.383 122.879 735.048 122.7 733.648 122.342C732.249 121.984 730.882 121.463 729.547 120.779C728.212 120.063 726.943 119.184 725.738 118.143C724.566 117.068 723.525 115.848 722.613 114.48V142.41H715.338V72.293ZM722.613 97.7812C722.678 100.353 723.069 102.778 723.785 105.057C724.534 107.303 725.543 109.272 726.812 110.965C728.082 112.625 729.579 113.943 731.305 114.92C733.062 115.896 734.999 116.385 737.115 116.385C739.264 116.385 741.217 115.88 742.975 114.871C744.732 113.862 746.23 112.479 747.467 110.721C748.704 108.963 749.648 106.912 750.299 104.568C750.982 102.192 751.324 99.6693 751.324 97C751.324 94.3307 750.982 91.8242 750.299 89.4805C749.648 87.1367 748.704 85.1022 747.467 83.377C746.23 81.6191 744.732 80.2357 742.975 79.2266C741.217 78.2174 739.264 77.7129 737.115 77.7129C734.967 77.7129 732.997 78.2174 731.207 79.2266C729.449 80.2357 727.919 81.6191 726.617 83.377C725.348 85.1022 724.355 87.1367 723.639 89.4805C722.955 91.8242 722.613 94.3307 722.613 97V97.7812Z" fill="#1E1E1E"/>
<defs>
<filter id="filter0_d_1_49" x="0.931885" y="6.92108" width="148.122" height="164.547" filterUnits="userSpaceOnUse" color-interpolation-filters="sRGB">
<feFlood flood-opacity="0" result="BackgroundImageFix"/>
<feColorMatrix in="SourceAlpha" type="matrix" values="0 0 0 0 0 0 0 0 0 0 0 0 0 0 0 0 0 0 127 0" result="hardAlpha"/>
<feOffset dx="1"/>
<feGaussianBlur stdDeviation="5"/>
<feComposite in2="hardAlpha" operator="out"/>
<feColorMatrix type="matrix" values="0 0 0 0 0 0 0 0 0 0 0 0 0 0 0 0 0 0 0.25 0"/>
<feBlend mode="normal" in2="BackgroundImageFix" result="effect1_dropShadow_1_49"/>
<feBlend mode="normal" in="SourceGraphic" in2="effect1_dropShadow_1_49" result="shape"/>
</filter>
<filter id="filter1_d_1_49" x="17.0182" y="37" width="107.744" height="108" filterUnits="userSpaceOnUse" color-interpolation-filters="sRGB">
<feFlood flood-opacity="0" result="BackgroundImageFix"/>
<feColorMatrix in="SourceAlpha" type="matrix" values="0 0 0 0 0 0 0 0 0 0 0 0 0 0 0 0 0 0 127 0" result="hardAlpha"/>
<feOffset dy="4"/>
<feGaussianBlur stdDeviation="2"/>
<feComposite in2="hardAlpha" operator="out"/>
<feColorMatrix type="matrix" values="0 0 0 0 0 0 0 0 0 0 0 0 0 0 0 0 0 0 0.25 0"/>
<feBlend mode="normal" in2="BackgroundImageFix" result="effect1_dropShadow_1_49"/>
<feBlend mode="normal" in="SourceGraphic" in2="effect1_dropShadow_1_49" result="shape"/>
</filter>
</defs>
</svg>
