<svg width="150" height="169" viewBox="0 0 150 169" fill="none" xmlns="http://www.w3.org/2000/svg">
<g filter="url(#filter0_d_1_58)">
<path d="M15.831 34.801C14.9655 22.6051 26.8718 13.5106 38.4104 17.5541L66.4942 27.3954C70.3668 28.7525 74.5997 28.663 78.4115 27.1434L114.734 12.6636C127.78 7.46261 141.148 19.4288 137.419 32.9695L124.45 80.0512C123.824 82.3255 123.677 84.7053 124.02 87.0391L129.479 124.16C131.323 136.694 119.303 146.768 107.285 142.762L84.5778 135.193C80.3612 133.787 75.7619 134.089 71.765 136.033L34.3835 154.219C21.8216 160.33 7.65947 149.522 10.2389 135.793L19.0951 88.6551C19.3639 87.2243 19.4478 85.7649 19.3448 84.3127L15.831 34.801Z" fill="#F3F0F0"/>
</g>
<g filter="url(#filter1_d_1_58)">
<path fill-rule="evenodd" clip-rule="evenodd" d="M120.762 86.4087C120.429 89.8287 119.751 93.1477 118.764 96.3306C116.794 98.4885 114.131 101.258 111.088 104.044C107.835 107.021 104.215 109.955 100.592 112.183C96.9166 114.444 93.5343 115.792 90.7039 115.977C88.0374 116.152 85.6814 115.303 83.2748 113.662C80.7784 111.961 78.4513 109.57 75.8182 106.839L75.6717 106.687L75.6717 106.687L75.6715 106.687C73.1877 104.111 70.4085 101.228 67.2744 99.076C63.9906 96.8215 60.114 95.2192 55.4611 95.4876C51.386 95.7227 47.2105 97.3679 43.417 99.4337C39.577 101.525 35.8572 104.198 32.6383 106.787C31.538 107.672 30.4889 108.553 29.5055 109.405C28.204 107.474 27.0338 105.447 26.0077 103.337C26.5632 103.853 26.5631 103.853 26.5629 103.854L26.5636 103.853L26.5703 103.846L26.6033 103.81C26.6339 103.778 26.6815 103.727 26.7455 103.66C26.8735 103.526 27.0667 103.324 27.3195 103.065C27.8253 102.546 28.5685 101.798 29.5038 100.895C31.378 99.0846 34.0051 96.6706 37.0253 94.2416C40.0554 91.8046 43.418 89.4038 46.7647 87.5813C50.1579 85.7335 53.2733 84.6254 55.8643 84.476C58.5347 84.3219 60.898 85.1893 63.3123 86.8469C65.8145 88.5648 68.1439 90.9649 70.7791 93.6979L70.8819 93.8045L70.8819 93.8046C73.3789 96.3944 76.1744 99.2939 79.3321 101.446C82.6229 103.69 86.5058 105.267 91.1612 104.962C95.6435 104.669 100.176 102.657 104.259 100.146C108.395 97.6022 112.378 94.3532 115.814 91.2076C117.613 89.5612 119.28 87.926 120.762 86.4087ZM104.259 118.146C105.031 117.671 105.798 117.172 106.556 116.653C97.4927 125.82 84.9097 131.5 71 131.5C56.2388 131.5 42.9716 125.103 33.8191 114.931C34.8203 114.057 35.8952 113.15 37.0253 112.242C40.0554 109.805 43.418 107.404 46.7647 105.581C50.1579 103.733 53.2733 102.625 55.8643 102.476C58.5347 102.322 60.898 103.189 63.3123 104.847C65.8145 106.565 68.1439 108.965 70.7791 111.698L70.8819 111.804L70.882 111.805C73.3789 114.394 76.1745 117.294 79.3321 119.446C82.6229 121.69 86.5058 123.267 91.1612 122.962C95.6435 122.669 100.176 120.657 104.259 118.146ZM120.716 76.1417C120.273 76.6511 119.744 77.25 119.139 77.9182C117.138 80.129 114.329 83.0772 111.088 86.0443C107.835 89.0215 104.215 91.9552 100.592 94.1832C96.9166 96.4436 93.5343 97.7921 90.7039 97.9774C88.0374 98.152 85.6814 97.3027 83.2748 95.6623C80.7784 93.9606 78.4513 91.57 75.8182 88.8391L75.6717 88.6872L75.6717 88.6872L75.6717 88.6872C73.1878 86.1107 70.4085 83.2278 67.2744 81.076C63.9906 78.8215 60.114 77.2192 55.4611 77.4876C51.386 77.7227 47.2105 79.3679 43.417 81.4337C39.577 83.5248 35.8572 86.198 32.6383 88.7869C29.4093 91.3838 26.6205 93.9477 24.6411 95.8591C24.2065 96.2788 23.81 96.668 23.4555 97.0201C22.6451 94.5359 22.024 91.9661 21.6092 89.3279C21.7306 89.2053 21.8698 89.0652 22.0259 88.9089C22.6868 88.2475 23.65 87.2971 24.849 86.1522C27.2504 83.8591 30.5803 80.8022 34.3077 77.7302C38.0472 74.6483 42.1202 71.6068 46.0122 69.3066C50.0012 66.9491 53.3938 65.6185 55.8643 65.476C58.5347 65.3219 60.898 66.1893 63.3123 67.8469C65.8145 69.5648 68.1439 71.9649 70.7791 74.6979L70.8818 74.8044C73.3788 77.3943 76.1744 80.2938 79.3321 82.4463C82.6229 84.6895 86.5058 86.2672 91.1612 85.9625C95.6435 85.669 100.176 83.6569 104.259 81.1458C108.395 78.6022 112.378 75.3532 115.814 72.2076C117.071 71.0568 118.264 69.9114 119.375 68.8079C119.998 71.188 120.449 73.6372 120.716 76.1417ZM116.807 61.4267C115.158 63.1554 113.216 65.0958 111.088 67.0443C107.835 70.0215 104.215 72.9552 100.592 75.1832C96.9166 77.4436 93.5343 78.7921 90.7039 78.9774C88.0374 79.152 85.6814 78.3027 83.2748 76.6623C80.7784 74.9606 78.4513 72.57 75.8182 69.8391L75.6717 69.6872L75.6717 69.6872C73.1878 67.1108 70.4085 64.2278 67.2744 62.076C63.9906 59.8215 60.114 58.2192 55.4611 58.4876C51.2654 58.7296 46.6797 60.781 42.4507 63.2803C38.1249 65.8369 33.7404 69.1268 29.8558 72.3283C26.4593 75.1276 23.3938 77.9017 21.0182 80.1382C21.1469 75.3242 21.9561 70.6799 23.353 66.2979C23.9504 65.8416 24.7587 65.2332 25.7375 64.5177C27.9775 62.8802 31.0947 60.6934 34.6101 58.4884C38.1344 56.2778 42.0048 54.0834 45.7573 52.4055C49.5632 50.7037 52.9932 49.6504 55.7016 49.4942C61.3998 49.1655 66.1475 52.8961 72.2666 57.9715L72.6784 58.3134C78.1717 62.8748 84.9878 68.5347 93.7286 67.9625C98.291 67.6638 102.47 65.5942 106.033 62.99C108.921 60.8781 111.555 58.3049 113.847 55.714C114.951 57.545 115.941 59.4525 116.807 61.4267ZM71 31.5C53.8394 31.5 38.6979 40.1451 29.6933 53.3178C30.0868 53.0655 30.4861 52.8121 30.8907 52.5583C34.5749 50.2475 38.7462 47.8725 42.8999 46.0152C47.0001 44.1818 51.3406 42.7341 55.2984 42.5058C63.9981 42.004 70.7905 47.6459 76.269 52.1964L76.7355 52.5837C82.8493 57.6548 87.5881 61.3494 93.2714 60.9774C96.0217 60.7974 98.9365 59.5064 101.901 57.3389C104.706 55.2888 107.352 52.6025 109.685 49.8197C100.515 38.6359 86.5909 31.5 71 31.5Z" fill="#072AC8"/>
</g>
<defs>
<filter id="filter0_d_1_58" x="0.931885" y="1.42111" width="148.122" height="164.547" filterUnits="userSpaceOnUse" color-interpolation-filters="sRGB">
<feFlood flood-opacity="0" result="BackgroundImageFix"/>
<feColorMatrix in="SourceAlpha" type="matrix" values="0 0 0 0 0 0 0 0 0 0 0 0 0 0 0 0 0 0 127 0" result="hardAlpha"/>
<feOffset dx="1"/>
<feGaussianBlur stdDeviation="5"/>
<feComposite in2="hardAlpha" operator="out"/>
<feColorMatrix type="matrix" values="0 0 0 0 0 0 0 0 0 0 0 0 0 0 0 0 0 0 0.25 0"/>
<feBlend mode="normal" in2="BackgroundImageFix" result="effect1_dropShadow_1_58"/>
<feBlend mode="normal" in="SourceGraphic" in2="effect1_dropShadow_1_58" result="shape"/>
</filter>
<filter id="filter1_d_1_58" x="17.0182" y="31.5" width="107.744" height="108" filterUnits="userSpaceOnUse" color-interpolation-filters="sRGB">
<feFlood flood-opacity="0" result="BackgroundImageFix"/>
<feColorMatrix in="SourceAlpha" type="matrix" values="0 0 0 0 0 0 0 0 0 0 0 0 0 0 0 0 0 0 127 0" result="hardAlpha"/>
<feOffset dy="4"/>
<feGaussianBlur stdDeviation="2"/>
<feComposite in2="hardAlpha" operator="out"/>
<feColorMatrix type="matrix" values="0 0 0 0 0 0 0 0 0 0 0 0 0 0 0 0 0 0 0.25 0"/>
<feBlend mode="normal" in2="BackgroundImageFix" result="effect1_dropShadow_1_58"/>
<feBlend mode="normal" in="SourceGraphic" in2="effect1_dropShadow_1_58" result="shape"/>
</filter>
</defs>
</svg>
