<svg width="41" height="40" viewBox="0 0 41 40" fill="none" xmlns="http://www.w3.org/2000/svg">
<rect x="0.5" width="40" height="40" rx="8" fill="#B9B9B9" fill-opacity="0.15"/>
<path d="M17.5002 27C17.5002 27.84 17.6302 28.66 17.8702 29.42C14.0302 28.09 11.1302 24.56 10.8302 20.43C10.5302 16.04 13.0602 11.94 17.1502 10.22C18.2102 9.77999 18.7502 10.1 18.9802 10.33C19.2002 10.55 19.5102 11.08 19.0702 12.09C18.6202 13.13 18.4002 14.23 18.4002 15.37C18.4102 17.41 19.2102 19.3 20.5102 20.75C18.6802 22.21 17.5002 24.47 17.5002 27Z" fill="#292D32"/>
<path opacity="0.4" d="M29.71 25.72C27.73 28.41 24.59 29.99 21.24 29.99C21.08 29.99 20.92 29.98 20.76 29.97C19.76 29.93 18.79 29.74 17.87 29.42C17.63 28.66 17.5 27.84 17.5 27C17.5 24.47 18.68 22.21 20.51 20.75C21.98 22.4 24.09 23.47 26.42 23.57C27.05 23.6 27.68 23.55 28.3 23.44C29.42 23.24 29.87 23.66 30.03 23.93C30.2 24.2 30.38 24.79 29.71 25.72Z" fill="#292D32"/>
</svg>
