<svg width="25" height="24" viewBox="0 0 25 24" fill="none" xmlns="http://www.w3.org/2000/svg">
<path opacity="0.4" d="M19.8399 14.49L18.8399 12.83C18.6299 12.46 18.4399 11.76 18.4399 11.35V8.82002C18.4399 5.56002 15.7899 2.90002 12.5199 2.90002C9.24994 2.90002 6.59994 5.56002 6.59994 8.82002V11.35C6.59994 11.76 6.40994 12.46 6.19994 12.82L5.18994 14.49C4.78994 15.16 4.69994 15.9 4.94994 16.58C5.18994 17.25 5.75994 17.77 6.49994 18.02C8.43994 18.68 10.4799 19 12.5199 19C14.5599 19 16.5999 18.68 18.5399 18.03C19.2399 17.8 19.7799 17.27 20.0399 16.58C20.2999 15.89 20.2299 15.13 19.8399 14.49Z" fill="#292D32"/>
<path d="M14.7498 3.32C14.0598 3.05 13.3098 2.9 12.5198 2.9C11.7398 2.9 10.9898 3.04 10.2998 3.32C10.7298 2.51 11.5798 2 12.5198 2C13.4698 2 14.3098 2.51 14.7498 3.32Z" fill="#292D32"/>
<path d="M15.3302 20.01C14.9102 21.17 13.8002 22 12.5002 22C11.7102 22 10.9302 21.68 10.3802 21.11C10.0602 20.81 9.82018 20.41 9.68018 20C9.81018 20.02 9.94018 20.03 10.0802 20.05C10.3102 20.08 10.5502 20.11 10.7902 20.13C11.3602 20.18 11.9402 20.21 12.5202 20.21C13.0902 20.21 13.6602 20.18 14.2202 20.13C14.4302 20.11 14.6402 20.1 14.8402 20.07C15.0002 20.05 15.1602 20.03 15.3302 20.01Z" fill="#292D32"/>
</svg>
