<svg width="21" height="20" viewBox="0 0 21 20" fill="none" xmlns="http://www.w3.org/2000/svg">
<path opacity="0.4" d="M18.8333 7.10002V3.31669C18.8333 2.14169 18.3 1.66669 16.975 1.66669H13.6083C12.2833 1.66669 11.75 2.14169 11.75 3.31669V7.09169C11.75 8.27502 12.2833 8.74169 13.6083 8.74169H16.975C18.3 8.75002 18.8333 8.27502 18.8333 7.10002Z" fill="#737985"/>
<path d="M18.8333 16.475V13.1083C18.8333 11.7833 18.3 11.25 16.975 11.25H13.6083C12.2833 11.25 11.75 11.7833 11.75 13.1083V16.475C11.75 17.8 12.2833 18.3333 13.6083 18.3333H16.975C18.3 18.3333 18.8333 17.8 18.8333 16.475Z" fill="#737985"/>
<path d="M9.24984 7.10002V3.31669C9.24984 2.14169 8.7165 1.66669 7.3915 1.66669H4.02484C2.69984 1.66669 2.1665 2.14169 2.1665 3.31669V7.09169C2.1665 8.27502 2.69984 8.74169 4.02484 8.74169H7.3915C8.7165 8.75002 9.24984 8.27502 9.24984 7.10002Z" fill="#737985"/>
<path opacity="0.4" d="M9.24984 16.475V13.1083C9.24984 11.7833 8.7165 11.25 7.3915 11.25H4.02484C2.69984 11.25 2.1665 11.7833 2.1665 13.1083V16.475C2.1665 17.8 2.69984 18.3333 4.02484 18.3333H7.3915C8.7165 18.3333 9.24984 17.8 9.24984 16.475Z" fill="#737985"/>
</svg>
