<svg width="21" height="20" viewBox="0 0 21 20" fill="none" xmlns="http://www.w3.org/2000/svg">
<path opacity="0.4" d="M7.72484 11.6667H3.83317C2.9165 11.6667 2.1665 12.4167 2.1665 13.3334V18.3334H7.72484V11.6667Z" fill="white"/>
<path d="M11.6085 8.33331H9.38346C8.4668 8.33331 7.7168 9.08331 7.7168 9.99998V18.3333H13.2751V9.99998C13.2751 9.08331 12.5335 8.33331 11.6085 8.33331Z" fill="white"/>
<path opacity="0.4" d="M17.1666 14.1667H13.2749V18.3334H18.8332V15.8334C18.8332 14.9167 18.0832 14.1667 17.1666 14.1667Z" fill="white"/>
<path d="M13.0084 4.04168C13.2667 3.78335 13.3667 3.47501 13.2834 3.20835C13.2001 2.94168 12.9417 2.75002 12.5751 2.69169L11.7751 2.55835C11.7417 2.55002 11.6667 2.5 11.6501 2.46667L11.2084 1.58334C10.8751 0.908337 10.1167 0.908337 9.7834 1.58334L9.34173 2.46667C9.32506 2.5 9.25006 2.55002 9.21673 2.55835L8.41673 2.69169C8.05006 2.75002 7.80006 2.94168 7.7084 3.20835C7.62506 3.47501 7.72506 3.78335 7.9834 4.04168L8.60006 4.66668C8.62506 4.69168 8.6584 4.79168 8.65006 4.82502L8.47506 5.59167C8.34173 6.15834 8.5584 6.41666 8.70006 6.525C8.84173 6.625 9.15006 6.75834 9.6584 6.45834L10.4084 6.01668C10.4417 5.99168 10.5501 5.99168 10.5834 6.01668L11.3334 6.45834C11.5667 6.60001 11.7584 6.64168 11.9084 6.64168C12.0834 6.64168 12.2084 6.575 12.2834 6.525C12.4251 6.425 12.6417 6.16667 12.5084 5.59167L12.3334 4.82502C12.3251 4.78335 12.3501 4.69168 12.3834 4.66668L13.0084 4.04168Z" fill="white"/>
</svg>
