<svg width="25" height="25" viewBox="0 0 25 25" fill="none" xmlns="http://www.w3.org/2000/svg">
<mask id="mask0_1640_7188" style="mask-type:alpha" maskUnits="userSpaceOnUse" x="0" y="0" width="25" height="25">
<path d="M0.57373 0.178497H24.6809V24.2856H0.57373V0.178497Z" fill="#D9D9D9"/>
</mask>
<g mask="url(#mask0_1640_7188)">
<path d="M18.6541 18.2588C19.0729 18.2588 19.4275 18.1122 19.7218 17.8189C20.0141 17.5266 20.1608 17.171 20.1608 16.7521C20.1608 16.3333 20.0141 15.9787 19.7208 15.6844C19.5825 15.5424 19.4166 15.4302 19.2333 15.3548C19.0501 15.2793 18.8533 15.2421 18.6551 15.2454C18.2362 15.2454 17.8817 15.3921 17.5873 15.6854C17.4452 15.8238 17.3329 15.9899 17.2574 16.1733C17.1819 16.3568 17.1448 16.5538 17.1484 16.7521C17.1484 17.171 17.295 17.5256 17.5884 17.8199C17.8807 18.1122 18.2362 18.2588 18.6551 18.2588H18.6541ZM18.6541 21.2722C19.1563 21.2722 19.6254 21.1547 20.0603 20.9207C20.4947 20.6871 20.8654 20.3509 21.1401 19.9413C20.7657 19.7117 20.3596 19.5384 19.9348 19.427C19.0951 19.2078 18.2131 19.2078 17.3734 19.427C16.9545 19.5355 16.5527 19.7073 16.168 19.9413C16.4427 20.3509 16.8134 20.6872 17.2478 20.9207C17.6828 21.1547 18.1519 21.2722 18.6541 21.2722ZM5.59605 21.2722C5.0436 21.2722 4.5715 21.0753 4.17675 20.6826C3.98671 20.4989 3.83635 20.2781 3.73494 20.034C3.63353 19.7899 3.58323 19.5276 3.58712 19.2633V5.20079C3.58712 4.64834 3.784 4.17624 4.17675 3.78149C4.36049 3.59145 4.58123 3.44109 4.82534 3.33968C5.06944 3.23828 5.33175 3.18797 5.59605 3.19186H19.6586C20.211 3.19186 20.6831 3.38874 21.0769 3.78149C21.4706 4.17523 21.6675 4.64834 21.6675 5.20079V11.9307C21.3497 11.7803 21.0226 11.6505 20.6881 11.542C20.3525 11.4328 20.008 11.3528 19.6586 11.3029V5.20079H5.59605V19.2633H11.6731C11.7233 19.6319 11.8036 19.9835 11.9121 20.318C12.0206 20.6525 12.1502 20.9709 12.3009 21.2722H5.59605ZM5.59605 19.2633V5.20079V11.3029V11.2276V19.2633ZM7.60498 17.2544H11.6982C11.7484 16.9028 11.8288 16.5593 11.9362 16.2248C12.0457 15.8903 12.1673 15.5639 12.3009 15.2454H7.60498V17.2544ZM7.60498 13.2365H13.7322C14.2676 12.7343 14.8673 12.3154 15.5272 11.9809C16.1944 11.6442 16.9108 11.4154 17.6496 11.3029V11.2276H7.60498V13.2365ZM7.60498 9.21865H17.6496V7.20972H7.60498V9.21865ZM18.6541 23.2812C17.2649 23.2812 16.0796 22.791 15.1003 21.8126C14.1219 20.8323 13.6318 19.648 13.6318 18.2588C13.6318 16.8697 14.1219 15.6844 15.1013 14.706C16.0796 13.7267 17.2639 13.2365 18.6531 13.2365C20.0423 13.2365 21.2275 13.7267 22.2059 14.706C23.1862 15.6854 23.6754 16.8697 23.6754 18.2588C23.6754 19.648 23.1852 20.8333 22.2059 21.8126C21.2275 22.791 20.0433 23.2812 18.6541 23.2812Z" fill="white"/>
</g>
</svg>
