<svg width="71" height="76" viewBox="0 0 71 76" fill="none" xmlns="http://www.w3.org/2000/svg">
<path d="M62.0508 28.0133C64.2112 30.1604 66.7596 32.0317 69.6103 33.5643C59.7444 41.6234 51.6675 52.1711 46.2015 64.0662C45.931 62.9476 45.6366 61.871 45.3342 60.8265C41.511 47.8546 35.0703 40.5725 27.0781 33.5643C33.2404 30.3407 39.9199 24.7251 43.4605 18.365C45.927 13.9324 47.7211 6.15382 49.1095 1.20874C50.494 6.15382 52.292 13.9324 54.7547 18.365C56.6455 21.8304 59.0979 25.0754 62.0508 28.0133Z" fill="#F5C84E"/>
<path d="M19.9829 44.1499C22.3698 48.4181 25.8109 52.1799 29.9285 54.3527C23.3126 59.7652 17.8942 66.8377 14.2264 74.8203C11.7678 64.7295 7.18493 59.4299 1.39258 54.3527C5.52601 52.1799 10.0094 48.4181 12.3844 44.1499C14.0433 41.1713 15.2407 35.9555 16.1756 32.6416C17.1224 35.9683 18.324 41.1713 19.9829 44.1499Z" fill="#F5C84E"/>
<path d="M46.1814 64.7391C45.992 64.7352 45.8098 64.6793 45.6652 64.5801C45.5205 64.4811 45.4219 64.345 45.3856 64.1943C45.1431 63.1885 44.8605 62.1376 44.5224 60.9706C40.8426 48.4824 34.8872 41.3968 26.4691 34.0115C26.3194 33.8802 26.2401 33.7061 26.2487 33.5275C26.2572 33.3489 26.353 33.1803 26.515 33.0589C26.6768 32.9374 26.8918 32.8732 27.1122 32.8801C27.3327 32.8871 27.5408 32.9648 27.6905 33.0959C36.0447 40.433 42.41 47.9246 46.1415 60.6612C46.4837 61.8347 46.7701 62.9016 47.0207 63.9234C47.0629 64.0992 47.0174 64.2812 46.8946 64.4297C46.7715 64.5784 46.5809 64.6815 46.3643 64.7165C46.3046 64.7298 46.2433 64.7374 46.1814 64.7391Z" fill="#002127" fill-opacity="0.03"/>
<path d="M69.592 34.239C69.4314 34.2401 69.275 34.2031 69.1395 34.1325C66.2241 32.5618 63.6174 30.6449 61.4048 28.4461C58.3998 25.4627 55.9015 22.1656 53.9784 18.643C51.9414 14.9521 50.3502 9.04954 49.0771 4.30437C48.7987 3.25347 48.532 2.26052 48.2815 1.3612C48.2507 1.27283 48.2423 1.18023 48.2571 1.08915C48.2719 0.998064 48.3092 0.910538 48.3672 0.831454C48.425 0.75254 48.5021 0.683935 48.5937 0.62986C48.6855 0.575786 48.7897 0.537418 48.9003 0.517141C49.0108 0.496694 49.1253 0.494836 49.2366 0.511396C49.3482 0.528125 49.4543 0.562938 49.5486 0.613802C49.6429 0.664665 49.7236 0.730733 49.7853 0.807619C49.8472 0.884506 49.8891 0.970858 49.9085 1.06143C50.1592 1.96396 50.4257 2.96333 50.7041 4.01744C51.9574 8.70144 53.5169 14.5264 55.4969 18.0885C57.355 21.5023 59.772 24.6976 62.6831 27.5885C64.7894 29.6815 67.2689 31.507 70.0425 33.0042C70.1926 33.0836 70.3073 33.2001 70.3678 33.3363C70.4303 33.4725 70.4366 33.6212 70.3845 33.7602C70.3344 33.8993 70.2281 34.0213 70.0862 34.1082C69.9424 34.195 69.7672 34.242 69.5878 34.2422L69.592 34.239Z" fill="#002127" fill-opacity="0.03"/>
<path d="M46.1811 64.7424C45.9613 64.7424 45.7504 64.6718 45.5946 64.5462C45.4389 64.4205 45.3507 64.25 45.3496 64.0719C45.3507 63.9906 45.3682 63.91 45.4013 63.8333C50.9113 51.8415 59.071 41.21 68.9953 33.0928C69.1517 32.9645 69.3623 32.8915 69.5855 32.8897C69.8065 32.888 70.0193 32.9574 70.1777 33.0832C70.3362 33.2089 70.4259 33.3804 70.428 33.5599C70.4301 33.7395 70.3446 33.9124 70.1902 34.0406C60.4348 42.0223 52.4109 52.4797 46.9808 64.2846C46.9243 64.4196 46.8165 64.5367 46.6728 64.619C46.5291 64.7012 46.3571 64.7444 46.1811 64.7424Z" fill="#002127" fill-opacity="0.03"/>
<path d="M27.0629 34.239C26.8838 34.2388 26.7096 34.1918 26.5662 34.105C26.4229 34.0181 26.3178 33.8961 26.2669 33.7569C26.2158 33.6178 26.2217 33.4691 26.2834 33.333C26.3451 33.1968 26.4594 33.0804 26.6093 33.001C31.9204 30.2126 38.9418 24.8324 42.6853 18.0885C44.6746 14.5426 46.2261 8.70144 47.4594 4.01744C47.7417 2.96333 48.0082 1.96396 48.2549 1.06143C48.2743 0.970858 48.3163 0.884506 48.3782 0.807619C48.4399 0.730733 48.5206 0.664665 48.6149 0.613802C48.7091 0.562938 48.8153 0.528125 48.9269 0.511396C49.0382 0.494836 49.1527 0.496694 49.2632 0.517141C49.3738 0.537418 49.478 0.575786 49.5696 0.62986C49.6613 0.683935 49.7385 0.75254 49.7963 0.831454C49.8542 0.910538 49.8916 0.998064 49.9064 1.08915C49.9212 1.18023 49.9128 1.27283 49.882 1.3612C49.6273 2.26052 49.3608 3.25347 49.0864 4.30437C47.8172 9.04954 46.238 14.9423 44.1851 18.643C40.2825 25.6511 33.0064 31.2409 27.4964 34.1165C27.3692 34.1898 27.2189 34.2322 27.0629 34.239Z" fill="#002127" fill-opacity="0.03"/>
<path d="M14.2398 75.4928C14.0472 75.4928 13.8603 75.4387 13.7116 75.339C13.5627 75.2393 13.4614 75.1025 13.4245 74.9487C11.0811 65.3451 6.85635 60.1195 0.793522 54.8103C0.643583 54.679 0.564342 54.505 0.572892 54.3263C0.581442 54.1477 0.677378 53.9791 0.839203 53.8578C1.00124 53.7363 1.21602 53.672 1.43645 53.679C1.65687 53.6859 1.86499 53.7635 2.01472 53.8948C8.2765 59.375 12.6406 64.7745 15.0554 74.6868C15.0775 74.7746 15.078 74.8642 15.0571 74.9504C15.036 75.0383 14.9941 75.1194 14.9335 75.1937C14.8728 75.2681 14.7946 75.3306 14.7036 75.3796C14.6125 75.4286 14.5103 75.4624 14.4029 75.481C14.3493 75.4894 14.2947 75.4928 14.2398 75.4928Z" fill="#002127" fill-opacity="0.03"/>
<path d="M29.9445 55.0287C29.7835 55.0284 29.626 54.9904 29.4911 54.9191C25.4532 52.798 21.805 49.0715 19.2231 44.4294C17.8388 41.9376 16.7765 37.9822 15.9213 34.794C15.7303 34.0784 15.5514 33.4047 15.3802 32.7921C15.3312 32.6177 15.3695 32.4347 15.4872 32.2833C15.6046 32.1319 15.7916 32.0244 16.0068 31.9847C16.222 31.9448 16.4479 31.9761 16.6347 32.0712C16.8218 32.1665 16.9542 32.3179 17.0034 32.4923C17.1744 33.1081 17.3573 33.7818 17.5483 34.5071C18.3877 37.6277 19.426 41.5121 20.731 43.8749C23.1855 48.2848 26.6147 51.8051 30.3901 53.7876C30.5419 53.8663 30.6579 53.9829 30.7209 54.1198C30.7838 54.2567 30.7901 54.4062 30.739 54.5463C30.6877 54.6862 30.5818 54.8091 30.4372 54.8961C30.2925 54.9831 30.1167 55.0296 29.9365 55.0287H29.9445Z" fill="#002127" fill-opacity="0.03"/>
<path d="M14.2397 75.4994C14.0195 75.4994 13.8086 75.4268 13.6529 75.3017C13.4973 75.175 13.4093 75.0043 13.4082 74.8252C13.4072 74.7441 13.4247 74.663 13.46 74.5869C17.1717 66.5089 22.6657 59.3492 29.3729 53.8787C29.5312 53.7505 29.7457 53.6783 29.9695 53.6785C30.1935 53.6785 30.408 53.7505 30.5663 53.8787C30.7246 54.007 30.8134 54.1809 30.8134 54.3622C30.8134 54.5437 30.7246 54.7175 30.5663 54.8458C24.0499 60.1745 18.6874 67.1632 15.0513 75.0584C14.9904 75.1919 14.8793 75.3051 14.7335 75.3845C14.5877 75.4639 14.4151 75.5045 14.2397 75.4994Z" fill="#002127" fill-opacity="0.03"/>
<path d="M1.42064 55.0267C1.24025 55.0275 1.06467 54.9811 0.91994 54.8941C0.775214 54.807 0.669273 54.6842 0.618181 54.5443C0.567089 54.4042 0.57334 54.2545 0.636318 54.1178C0.699088 53.9809 0.815244 53.8643 0.967059 53.7855C4.50366 51.9288 9.16616 48.3474 11.6526 43.8729C12.9693 41.5132 14.0036 37.6353 14.8351 34.5245C15.03 33.8023 15.2131 33.1157 15.3881 32.4967C15.4371 32.3223 15.5697 32.1709 15.7566 32.0756C15.9434 31.9805 16.1695 31.9492 16.3847 31.9891C16.5999 32.0288 16.7868 32.1363 16.9044 32.2877C17.0218 32.4391 17.0604 32.6221 17.0111 32.7965C16.8362 33.4123 16.6531 34.086 16.4623 34.8113C15.6108 37.9898 14.5527 41.9452 13.1642 44.4339C10.5306 49.1757 5.60557 52.9604 1.87003 54.9235C1.73532 54.9919 1.57955 55.0275 1.42064 55.0267Z" fill="#002127" fill-opacity="0.03"/>
</svg>
