<svg width="116" height="54" viewBox="0 0 116 54" fill="none" xmlns="http://www.w3.org/2000/svg">
<path d="M54.374 4.96753L54.3525 6.88572C54.2232 6.86416 54.0723 6.86416 53.8783 6.86416C53.2964 6.86416 52.7792 6.95038 52.3481 7.1228C51.917 7.29522 51.5938 7.5323 51.3351 7.81248C51.0765 8.11422 50.8825 8.45906 50.7101 8.89012C50.5592 9.32117 50.4515 9.75222 50.4084 10.1833C50.3652 10.6143 50.3437 11.11 50.3437 11.6489V16.3473H48.5117V5.22616H50.2575V7.61851C50.9903 5.85119 52.3481 4.96753 54.374 4.96753Z" fill="#A9A9A9" stroke="#A9A9A9" stroke-width="0.458495"/>
<path d="M47.9257 14.8816V16.3256C47.5378 16.4549 47.1283 16.5411 46.6756 16.5411C45.6196 16.5411 45.0808 15.9808 45.0592 14.9031C44.0031 16.067 42.6669 16.6705 41.0288 16.6705C39.9297 16.6705 39.0676 16.3903 38.421 15.8299C37.7744 15.2695 37.4727 14.4936 37.4727 13.5238C37.4727 11.5409 38.7874 10.3771 41.4168 10.0538C41.5892 10.0107 41.8263 9.98913 42.1711 9.96758C43.4212 9.81671 44.1755 9.64429 44.4773 9.47186C44.8006 9.23479 44.973 8.84684 44.973 8.28647C44.973 7.05796 44.1324 6.45449 42.4513 6.45449C41.5892 6.45449 40.9211 6.62691 40.49 6.97175C40.0374 7.3166 39.7788 7.89852 39.6926 8.71752H37.9037C37.9253 7.51057 38.3563 6.58381 39.1753 5.93723C39.9943 5.26909 41.1151 4.9458 42.5591 4.9458C44.1109 4.9458 45.2747 5.29064 46.0506 6.02344C46.2877 6.23896 46.4601 6.5407 46.5894 6.92865C46.6972 7.29504 46.7619 7.59678 46.7834 7.83386C46.7834 8.07094 46.805 8.43734 46.805 8.91149C46.805 9.45031 46.7834 10.2693 46.7619 11.3685C46.7188 12.4892 46.7188 13.3082 46.7188 13.8471C46.7188 14.2566 46.7619 14.5367 46.8696 14.7092C46.9774 14.8816 47.1714 14.9462 47.4731 14.9462C47.5809 14.9462 47.7317 14.9247 47.9257 14.8816ZM44.973 10.5926C44.8437 10.6788 44.6928 10.765 44.5635 10.8512C44.4126 10.9159 44.2186 10.9806 44.0031 11.0237C43.7876 11.0668 43.6367 11.0883 43.5505 11.1099C43.4643 11.1314 43.2919 11.153 42.9901 11.1961C42.6884 11.2392 42.516 11.2607 42.516 11.2607C42.0634 11.3038 41.7616 11.3469 41.6323 11.3685C41.503 11.3901 41.2444 11.4547 40.8564 11.5625C40.4685 11.6487 40.2098 11.778 40.059 11.9073C39.8866 12.0366 39.7357 12.2091 39.5848 12.4677C39.4339 12.7263 39.3693 13.0281 39.3693 13.3729C39.3693 13.9333 39.5633 14.3859 39.9512 14.7307C40.3392 15.054 40.8995 15.2264 41.5892 15.2264C42.4513 15.2264 43.2488 14.9678 43.9385 14.4505C44.6281 13.9333 44.973 13.3082 44.973 12.6186V10.5926Z" fill="#A9A9A9" stroke="#A9A9A9" stroke-width="0.458495"/>
<path d="M36.3164 1.00146V16.347H34.4629V1.00146H36.3164Z" fill="#A9A9A9" stroke="#A9A9A9" stroke-width="0.458495"/>
<path d="M32.6172 1.00146V16.347H30.7637V1.00146H32.6172Z" fill="#A9A9A9" stroke="#A9A9A9" stroke-width="0.458495"/>
<path d="M29.6843 12.834C29.1239 15.4203 27.5075 16.7135 24.835 16.7135C23.197 16.7135 21.9038 16.2177 20.977 15.1832C20.0503 14.1702 19.5977 12.7478 19.5977 10.9373C19.5977 9.14847 20.0718 7.70444 21.0201 6.5837C21.9685 5.46296 23.2185 4.90259 24.7703 4.90259C26.473 4.90259 27.7446 5.48451 28.5636 6.64836C29.3826 7.8122 29.8136 9.25623 29.8136 11.0235V11.2822H21.4512L21.4296 11.4115C21.4296 12.5969 21.7314 13.5237 22.3564 14.1918C22.9599 14.8815 23.822 15.2048 24.8996 15.2048C25.6971 15.2048 26.3221 15.0323 26.7963 14.6444C27.2704 14.278 27.6368 13.6745 27.8954 12.834H29.6843ZM27.917 9.79505C27.8308 8.73897 27.5075 7.91996 26.9471 7.31649C26.3868 6.71301 25.6324 6.41128 24.7272 6.41128C23.822 6.41128 23.0892 6.71301 22.5073 7.31649C21.9038 7.91996 21.559 8.76052 21.4512 9.79505H27.917Z" fill="#A9A9A9" stroke="#A9A9A9" stroke-width="0.458495"/>
<path d="M19.2219 5.22578V6.73447H17.002V13.2218C17.002 13.5882 17.002 13.8253 17.002 13.9331C17.002 14.0624 17.0451 14.2133 17.1313 14.4072C17.196 14.6012 17.3253 14.7305 17.4977 14.7736C17.6701 14.8383 17.9072 14.8598 18.2305 14.8598C18.4891 14.8598 18.834 14.8383 19.2219 14.7952V16.3685C18.7046 16.4332 18.2305 16.4547 17.821 16.4547C17.3037 16.4547 16.8727 16.4116 16.5278 16.2823C16.183 16.1745 15.9028 16.0452 15.7304 15.8944C15.558 15.765 15.4286 15.5064 15.3424 15.14C15.2562 14.7736 15.1916 14.4719 15.1916 14.2133C15.17 13.9546 15.17 13.5451 15.17 12.9416V12.8554V12.7477V12.6399V6.73447H13.2949V5.22578H15.17V1.92822H17.002V5.22578H19.2219Z" fill="#A9A9A9" stroke="#A9A9A9" stroke-width="0.458495"/>
<path d="M12.7462 5.5062L10.7634 5.52775C10.5478 3.43714 9.27623 2.40261 6.94854 2.40261C5.84935 2.40261 4.98725 2.61814 4.38377 3.07074C3.7803 3.5018 3.47856 4.12683 3.47856 4.94583C3.47856 5.22601 3.52166 5.48465 3.60787 5.70017C3.69409 5.9157 3.84495 6.08812 4.06048 6.26054C4.27601 6.43296 4.46998 6.56228 4.6424 6.6916C4.83638 6.79936 5.13811 6.90712 5.52606 7.01489C5.93556 7.1442 6.25885 7.23041 6.49593 7.27352C6.75457 7.31662 7.12096 7.40283 7.63823 7.5106C8.28481 7.63991 8.80207 7.76923 9.21157 7.87699C9.64263 7.98476 10.1383 8.15718 10.6987 8.39426C11.2806 8.65289 11.7332 8.91152 12.0781 9.21326C12.4229 9.515 12.7031 9.90295 12.9617 10.3771C13.2204 10.8728 13.3281 11.4332 13.3281 12.0367C13.3281 13.1143 13.0264 14.0195 12.4229 14.7523C11.8194 15.4851 11.0867 15.9808 10.2245 16.261C9.36244 16.5627 8.41412 16.692 7.35804 16.692C5.43985 16.692 3.90961 16.2394 2.74577 15.3342C1.58192 14.429 1 13.0712 1 11.2823H2.96129C3.0044 12.597 3.45701 13.5453 4.27601 14.1488C5.11656 14.7523 6.1942 15.054 7.53046 15.054C8.58654 15.054 9.49176 14.817 10.2461 14.3859C10.9789 13.9549 11.3668 13.2436 11.3668 12.2522C11.3668 11.778 11.2591 11.3901 11.0651 11.0668C10.8496 10.7435 10.5478 10.4849 10.1168 10.2693C9.68573 10.0538 9.25468 9.90295 8.82362 9.77363C8.39257 9.64431 7.81065 9.49344 7.12096 9.34258C7.0132 9.32102 6.94854 9.29947 6.90544 9.27792C5.31054 8.93307 4.27601 8.63134 3.80185 8.41581C2.29316 7.76923 1.56037 6.67004 1.56037 5.07515C1.56037 3.60956 2.09919 2.53193 3.17682 1.79914C4.25446 1.06635 5.56917 0.699951 7.09941 0.699951C8.78052 0.699951 10.1383 1.10945 11.1298 1.9069C12.1427 2.7259 12.6816 3.9113 12.7462 5.5062Z" fill="#A9A9A9" stroke="#A9A9A9" stroke-width="0.458495"/>
<path d="M115.624 23.2507V24.7594H113.404V31.2467C113.404 31.6131 113.404 31.8502 113.404 31.958C113.404 32.0873 113.447 32.2382 113.534 32.4321C113.598 32.6261 113.728 32.7554 113.9 32.7985C114.072 32.8632 114.31 32.8847 114.633 32.8847C114.891 32.8847 115.236 32.8632 115.624 32.8201V34.3934C115.107 34.4581 114.633 34.4796 114.223 34.4796C113.706 34.4796 113.275 34.4365 112.93 34.3072C112.585 34.1994 112.305 34.0701 112.133 33.9193C111.96 33.7899 111.831 33.5313 111.745 33.1649C111.659 32.7985 111.594 32.4968 111.594 32.2382C111.572 31.9795 111.572 31.57 111.572 30.9665V30.8803V30.7726V30.6648V24.7594H109.697V23.2507H111.572V19.9531H113.404V23.2507H115.624Z" fill="#A9A9A9" stroke="#A9A9A9" stroke-width="0.458495"/>
<path d="M101.685 23.2505V24.9747C102.59 23.6384 103.862 22.9487 105.478 22.9487C106.772 22.9487 107.72 23.2936 108.302 23.9833C108.884 24.6729 109.185 25.6644 109.185 26.9791V34.3717H107.354V27.8196C107.354 27.2808 107.332 26.8498 107.289 26.548C107.246 26.2463 107.16 25.9014 107.03 25.5566C106.879 25.2118 106.642 24.9531 106.297 24.7807C105.953 24.6298 105.5 24.5436 104.961 24.5436C102.849 24.5436 101.793 25.8799 101.793 28.5524V34.3717H99.9609V23.2505H101.685Z" fill="#A9A9A9" stroke="#A9A9A9" stroke-width="0.458495"/>
<path d="M98.9695 30.8586C98.4091 33.445 96.7926 34.7381 94.1201 34.7381C92.4821 34.7381 91.1889 34.2424 90.2622 33.2079C89.3354 32.1949 88.8828 30.7724 88.8828 28.962C88.8828 27.1731 89.357 25.7291 90.3053 24.6084C91.2536 23.4876 92.5037 22.9272 94.0555 22.9272C95.7581 22.9272 97.0297 23.5092 97.8487 24.673C98.6677 25.8369 99.0988 27.2809 99.0988 29.0482V29.3068H90.7363L90.7148 29.4362C90.7148 30.6216 91.0165 31.5483 91.6416 32.2165C92.245 32.9061 93.1071 33.2294 94.1848 33.2294C94.9822 33.2294 95.6072 33.057 96.0814 32.6691C96.5556 32.3027 96.922 31.6992 97.1806 30.8586H98.9695ZM97.2021 27.8197C97.1159 26.7636 96.7926 25.9446 96.2323 25.3411C95.6719 24.7377 94.9176 24.4359 94.0123 24.4359C93.1071 24.4359 92.3743 24.7377 91.7924 25.3411C91.1889 25.9446 90.8441 26.7852 90.7363 27.8197H97.2021Z" fill="#A9A9A9" stroke="#A9A9A9" stroke-width="0.458495"/>
<path d="M73.8922 23.2506L73.8706 24.8886C74.3663 24.2205 74.8836 23.7464 75.444 23.4446C76.0043 23.1429 76.694 22.992 77.4915 22.992C79.0217 22.992 80.0562 23.617 80.5951 24.9102C81.5434 23.617 82.7719 22.9705 84.2806 22.9705C85.4229 22.9705 86.285 23.2722 86.8885 23.9188C87.4919 24.5654 87.7937 25.449 87.7937 26.6129V34.3934H85.9617V27.3888C85.9617 26.462 85.8108 25.7723 85.5306 25.2981C85.2289 24.824 84.647 24.6085 83.7418 24.6085C81.8451 24.6085 80.8968 25.7508 80.8968 28.0784V34.3934H79.0648V27.2594C79.0648 26.3973 78.914 25.7508 78.6338 25.2981C78.3536 24.8455 77.8148 24.63 77.0173 24.63C75.875 24.63 75.0776 24.9749 74.6465 25.6645C74.2155 26.3542 73.9999 27.3025 73.9999 28.4879V34.3718H72.168V23.2506H73.8922Z" fill="#A9A9A9" stroke="#A9A9A9" stroke-width="0.458495"/>
<path d="M62.193 23.2504V24.8237C62.9904 23.5521 64.2405 22.9055 65.9431 22.9055C67.4949 22.9055 68.7234 23.4443 69.6286 24.4789C70.5339 25.5349 71.008 26.9574 71.008 28.7463C71.008 30.5567 70.5554 31.9792 69.6502 33.0568C68.745 34.1345 67.538 34.6517 66.0293 34.6517C64.4344 34.6517 63.1844 34.0483 62.3007 32.8198V38.6605H60.4688V23.2504H62.193ZM65.6629 24.4358C64.5853 24.4358 63.7448 24.8237 63.1413 25.5996C62.5378 26.3755 62.2361 27.4316 62.2361 28.7678C62.2361 30.1257 62.5378 31.1817 63.1628 31.9576C63.7879 32.7335 64.65 33.1215 65.7276 33.1215C66.7621 33.1215 67.6027 32.7335 68.2062 31.9576C68.8096 31.1817 69.1114 30.1257 69.1114 28.7894C69.1114 27.4316 68.7881 26.3755 68.1846 25.5996C67.5811 24.8237 66.7406 24.4358 65.6629 24.4358Z" fill="#A9A9A9" stroke="#A9A9A9" stroke-width="0.458495"/>
<path d="M54.0407 22.9272C55.7218 22.9272 57.015 23.4445 57.9633 24.479C58.8901 25.492 59.3642 26.9145 59.3642 28.7465C59.3642 30.6431 58.8901 32.1087 57.9633 33.1432C57.015 34.1993 55.7003 34.7166 54.0192 34.7166C52.3165 34.7166 50.9802 34.1993 50.0319 33.1648C49.0621 32.1302 48.5879 30.7078 48.5879 28.8542C48.5879 27.0438 49.062 25.5998 50.0535 24.5221C51.0233 23.4661 52.3596 22.9272 54.0407 22.9272ZM53.9976 24.479C52.92 24.479 52.0579 24.867 51.4328 25.6429C50.7863 26.4403 50.4845 27.4964 50.4845 28.8111C50.4845 30.1905 50.7863 31.2466 51.4113 32.0225C52.0363 32.7984 52.92 33.1648 54.0407 33.1648C55.1184 33.1648 55.9589 32.7768 56.5624 32.0009C57.1659 31.225 57.4891 30.1689 57.4891 28.7896C57.4891 27.4749 57.1659 26.4188 56.5408 25.6429C55.9158 24.867 55.0752 24.479 53.9976 24.479Z" fill="#A9A9A9" stroke="#A9A9A9" stroke-width="0.458495"/>
<path d="M47.4102 19.0266V34.3721H45.5566V19.0266H47.4102Z" fill="#A9A9A9" stroke="#A9A9A9" stroke-width="0.458495"/>
<path d="M44.4753 30.8586C43.915 33.445 42.2985 34.7381 39.626 34.7381C37.988 34.7381 36.6948 34.2424 35.768 33.2079C34.8413 32.1949 34.3887 30.7724 34.3887 28.962C34.3887 27.1731 34.8628 25.7291 35.8111 24.6084C36.7595 23.4876 38.0095 22.9272 39.5613 22.9272C41.264 22.9272 42.5356 23.5092 43.3546 24.673C44.1736 25.8369 44.6046 27.2809 44.6046 29.0482V29.3068H36.2422L36.2207 29.4362C36.2207 30.6216 36.5224 31.5483 37.1474 32.2165C37.7509 32.9061 38.613 33.2294 39.6906 33.2294C40.4881 33.2294 41.1131 33.057 41.5873 32.6691C42.0614 32.3027 42.4278 31.6992 42.6865 30.8586H44.4753ZM42.708 27.8197C42.6218 26.7636 42.2985 25.9446 41.7381 25.3411C41.1778 24.7377 40.4234 24.4359 39.5182 24.4359C38.613 24.4359 37.8802 24.7377 37.2983 25.3411C36.6948 25.9446 36.35 26.7852 36.2422 27.8197H42.708Z" fill="#A9A9A9" stroke="#A9A9A9" stroke-width="0.458495"/>
<path d="M24.1953 23.2507H26.2428L29.3895 32.583L32.45 23.2507H34.3682L30.2947 34.3719H28.3334L24.1953 23.2507Z" fill="#A9A9A9" stroke="#A9A9A9" stroke-width="0.458495"/>
<path d="M24.28 30.8586C23.7196 33.445 22.1032 34.7381 19.4307 34.7381C17.7927 34.7381 16.4995 34.2424 15.5727 33.2079C14.646 32.1949 14.1934 30.7724 14.1934 28.962C14.1934 27.1731 14.6675 25.7291 15.6158 24.6084C16.5642 23.4876 17.8142 22.9272 19.366 22.9272C21.0687 22.9272 22.3403 23.5092 23.1593 24.673C23.9783 25.8369 24.4093 27.2809 24.4093 29.0482V29.3068H16.0469L16.0253 29.4362C16.0253 30.6216 16.3271 31.5483 16.9521 32.2165C17.5556 32.9061 18.4177 33.2294 19.4953 33.2294C20.2928 33.2294 20.9178 33.057 21.392 32.6691C21.8661 32.3027 22.2325 31.6992 22.4911 30.8586H24.28ZM22.5127 27.8197C22.4265 26.7636 22.1032 25.9446 21.5428 25.3411C20.9825 24.7377 20.2281 24.4359 19.3229 24.4359C18.4177 24.4359 17.6849 24.7377 17.103 25.3411C16.4995 25.9446 16.1547 26.7852 16.0469 27.8197H22.5127Z" fill="#A9A9A9" stroke="#A9A9A9" stroke-width="0.458495"/>
<path d="M1 19.0266H5.97867C8.58654 19.0266 10.5047 19.6301 11.7332 20.837C12.9833 22.044 13.5868 23.9622 13.5868 26.57C13.5868 29.1564 13.0264 31.0961 11.8626 32.4108C10.7203 33.7255 8.88828 34.3721 6.36662 34.3721H1V19.0266ZM3.0044 20.7724L3.02595 32.6479H6.10799C8.02617 32.6479 9.4271 32.1737 10.2892 31.2254C11.1513 30.2771 11.5824 28.8115 11.5824 26.8071C11.5824 24.7165 11.1729 23.1863 10.3108 22.2164C9.4702 21.2681 8.02617 20.7724 6.00022 20.7724H3.0044Z" fill="#A9A9A9" stroke="#A9A9A9" stroke-width="0.458495"/>
<path d="M89.6891 42.0427V43.7669C90.5943 42.4307 91.8659 41.741 93.4823 41.741C94.7755 41.741 95.7238 42.0858 96.3057 42.7755C96.8877 43.4652 97.1894 44.4566 97.1894 45.7713V53.1639H95.3574V46.6119C95.3574 46.0731 95.3359 45.642 95.2928 45.3403C95.2497 45.0385 95.1634 44.6937 95.0341 44.3488C94.8833 44.004 94.6462 43.7454 94.3013 43.5729C93.9565 43.4221 93.5039 43.3359 92.9651 43.3359C90.8529 43.3359 89.7968 44.6721 89.7968 47.3447V53.1639H87.9648V42.0427H89.6891Z" fill="#A9A9A9" stroke="#A9A9A9" stroke-width="0.458495"/>
<path d="M81.5368 41.7192C83.2179 41.7192 84.5111 42.2365 85.4594 43.271C86.3862 44.284 86.8603 45.7065 86.8603 47.5385C86.8603 49.4351 86.3862 50.9007 85.4594 51.9352C84.5111 52.9913 83.1964 53.5086 81.5153 53.5086C79.8126 53.5086 78.4763 52.9913 77.528 51.9568C76.5581 50.9222 76.084 49.4998 76.084 47.6462C76.084 45.8358 76.5582 44.3918 77.5496 43.3141C78.5194 42.2581 79.8557 41.7192 81.5368 41.7192ZM81.4937 43.271C80.4161 43.271 79.554 43.659 78.9289 44.4349C78.2824 45.2323 77.9806 46.2884 77.9806 47.6031C77.9806 48.9825 78.2824 50.0386 78.9074 50.8145C79.5324 51.5904 80.4161 51.9568 81.5368 51.9568C82.6144 51.9568 83.455 51.5688 84.0585 50.7929C84.662 50.017 84.9852 48.9609 84.9852 47.5816C84.9852 46.2669 84.662 45.2108 84.0369 44.4349C83.4119 43.659 82.5713 43.271 81.4937 43.271Z" fill="#A9A9A9" stroke="#A9A9A9" stroke-width="0.458495"/>
<path d="M74.9043 37.8184V40.0598H73.0508V37.8184H74.9043ZM74.9043 42.0427V53.1639H73.0508V42.0427H74.9043Z" fill="#A9A9A9" stroke="#A9A9A9" stroke-width="0.458495"/>
<path d="M72.009 42.0424V43.5511H69.7891V50.0385C69.7891 50.4049 69.7891 50.642 69.7891 50.7497C69.7891 50.879 69.8322 51.0299 69.9184 51.2239C69.9831 51.4179 70.1124 51.5472 70.2848 51.5903C70.4572 51.6549 70.6943 51.6765 71.0176 51.6765C71.2762 51.6765 71.6211 51.6549 72.009 51.6118V53.1852C71.4918 53.2498 71.0176 53.2714 70.6081 53.2714C70.0908 53.2714 69.6598 53.2283 69.3149 53.099C68.9701 52.9912 68.6899 52.8619 68.5175 52.711C68.3451 52.5817 68.2157 52.3231 68.1295 51.9567C68.0433 51.5903 67.9787 51.2885 67.9787 51.0299C67.9571 50.7713 67.9571 50.3618 67.9571 49.7583V49.6721V49.5643V49.4566V43.5511H66.082V42.0424H67.9571V38.7449H69.7891V42.0424H72.009Z" fill="#A9A9A9" stroke="#A9A9A9" stroke-width="0.458495"/>
<path d="M66.5956 51.6982V53.1423C66.2077 53.2716 65.7982 53.3578 65.3456 53.3578C64.2895 53.3578 63.7507 52.7974 63.7291 51.7198C62.673 52.8836 61.3368 53.4871 59.6988 53.4871C58.5996 53.4871 57.7375 53.2069 57.0909 52.6466C56.4443 52.0862 56.1426 51.3103 56.1426 50.3404C56.1426 48.3576 57.4573 47.1937 60.0867 46.8704C60.2591 46.8273 60.4962 46.8058 60.8411 46.7842C62.0911 46.6334 62.8455 46.4609 63.1472 46.2885C63.4705 46.0514 63.6429 45.6635 63.6429 45.1031C63.6429 43.8746 62.8024 43.2711 61.1212 43.2711C60.2591 43.2711 59.591 43.4436 59.16 43.7884C58.7073 44.1332 58.4487 44.7152 58.3625 45.5342H56.5736C56.5952 44.3272 57.0262 43.4005 57.8452 42.7539C58.6642 42.0857 59.785 41.7625 61.229 41.7625C62.7808 41.7625 63.9447 42.1073 64.7205 42.8401C64.9576 43.0556 65.13 43.3574 65.2594 43.7453C65.3671 44.1117 65.4318 44.4134 65.4533 44.6505C65.4533 44.8876 65.4749 45.254 65.4749 45.7281C65.4749 46.267 65.4533 47.086 65.4318 48.1852C65.3887 49.3059 65.3887 50.1249 65.3887 50.6637C65.3887 51.0732 65.4318 51.3534 65.5396 51.5258C65.6473 51.6982 65.8413 51.7629 66.143 51.7629C66.2508 51.7629 66.4017 51.7413 66.5956 51.6982ZM63.6429 47.4093C63.5136 47.4955 63.3627 47.5817 63.2334 47.6679C63.0825 47.7325 62.8886 47.7972 62.673 47.8403C62.4575 47.8834 62.3066 47.905 62.2204 47.9265C62.1342 47.9481 61.9618 47.9696 61.6601 48.0127C61.3583 48.0558 61.1859 48.0774 61.1859 48.0774C60.7333 48.1205 60.4316 48.1636 60.3022 48.1852C60.1729 48.2067 59.9143 48.2714 59.5263 48.3791C59.1384 48.4653 58.8798 48.5947 58.7289 48.724C58.5565 48.8533 58.4056 49.0257 58.2547 49.2843C58.1039 49.543 58.0392 49.8447 58.0392 50.1896C58.0392 50.7499 58.2332 51.2025 58.6211 51.5474C59.0091 51.8707 59.5695 52.0431 60.2591 52.0431C61.1212 52.0431 61.9187 51.7845 62.6084 51.2672C63.2981 50.7499 63.6429 50.1249 63.6429 49.4352V47.4093Z" fill="#A9A9A9" stroke="#A9A9A9" stroke-width="0.458495"/>
<path d="M55.0705 37.8184V53.1639H53.3463V51.5259C52.6351 52.819 51.4066 53.4656 49.6823 53.4656C48.0874 53.4656 46.8374 52.9483 45.9106 51.8923C44.9839 50.8362 44.5312 49.3921 44.5312 47.5817C44.5312 45.9006 44.9623 44.5212 45.8244 43.4005C46.6865 42.2798 47.9581 41.7194 49.5961 41.7194C51.191 41.7194 52.398 42.3229 53.2385 43.5298V37.8184H55.0705ZM49.8332 43.2927C48.7771 43.2927 47.9366 43.6807 47.3331 44.435C46.7296 45.2109 46.4279 46.2455 46.4279 47.5386C46.4279 48.8964 46.7296 49.9741 47.3546 50.7715C47.9797 51.569 48.8202 51.9569 49.8763 51.9569C50.9324 51.9569 51.7729 51.5905 52.3764 50.8146C52.9799 50.0387 53.2816 48.9826 53.2816 47.6033C53.2816 46.3963 52.9799 45.3618 52.4195 44.5428C51.8592 43.7238 50.9971 43.2927 49.8332 43.2927Z" fill="#A9A9A9" stroke="#A9A9A9" stroke-width="0.458495"/>
<path d="M35.8746 42.0427V43.7669C36.7798 42.4307 38.0514 41.741 39.6679 41.741C40.961 41.741 41.9094 42.0858 42.4913 42.7755C43.0732 43.4652 43.3749 44.4566 43.3749 45.7713V53.1639H41.543V46.6119C41.543 46.0731 41.5214 45.642 41.4783 45.3403C41.4352 45.0385 41.349 44.6937 41.2197 44.3488C41.0688 44.004 40.8317 43.7454 40.4869 43.5729C40.142 43.4221 39.6894 43.3359 39.1506 43.3359C37.0384 43.3359 35.9824 44.6721 35.9824 47.3447V53.1639H34.1504V42.0427H35.8746Z" fill="#A9A9A9" stroke="#A9A9A9" stroke-width="0.458495"/>
<path d="M32.4766 42.0427L32.4551 53.1639H30.7524V51.4181C29.8041 52.7975 28.5325 53.4656 26.916 53.4656C25.7522 53.4656 24.8254 53.1424 24.1789 52.4958C23.5323 51.8492 23.209 50.9224 23.209 49.6939V42.0427H25.041V49.1982C25.041 50.0819 25.2134 50.75 25.5582 51.2026C25.9031 51.6552 26.5065 51.8707 27.3902 51.8707C29.5455 51.8707 30.6447 50.5345 30.6447 47.8619V42.0427H32.4766Z" fill="#A9A9A9" stroke="#A9A9A9" stroke-width="0.458495"/>
<path d="M16.8239 41.7192C18.505 41.7192 19.7982 42.2365 20.7465 43.271C21.6733 44.284 22.1474 45.7065 22.1474 47.5385C22.1474 49.4351 21.6733 50.9007 20.7465 51.9352C19.7982 52.9913 18.4835 53.5086 16.8024 53.5086C15.0997 53.5086 13.7634 52.9913 12.8151 51.9568C11.8453 50.9222 11.3711 49.4998 11.3711 47.6462C11.3711 45.8358 11.8453 44.3918 12.8367 43.3141C13.8065 42.2581 15.1428 41.7192 16.8239 41.7192ZM16.7808 43.271C15.7032 43.271 14.8411 43.659 14.216 44.4349C13.5695 45.2323 13.2677 46.2884 13.2677 47.6031C13.2677 48.9825 13.5695 50.0386 14.1945 50.8145C14.8195 51.5904 15.7032 51.9568 16.8239 51.9568C17.9016 51.9568 18.7421 51.5688 19.3456 50.7929C19.9491 50.017 20.2724 48.9609 20.2724 47.5816C20.2724 46.2669 19.9491 45.2108 19.324 44.4349C18.699 43.659 17.8585 43.271 16.7808 43.271Z" fill="#A9A9A9" stroke="#A9A9A9" stroke-width="0.458495"/>
<path d="M11.0867 37.8184V39.5857H3.02595V44.3704H10.1383V46.073H3.02595V53.1639H1V37.8184H11.0867Z" fill="#A9A9A9" stroke="#A9A9A9" stroke-width="0.458495"/>
</svg>
