<svg width="22" height="22" viewBox="0 0 22 22" fill="none" xmlns="http://www.w3.org/2000/svg">
<g id="Stellar (XLM)">
<circle id="Stellar (XLM)_2" cx="11" cy="11" r="11" fill="#3458D9"/>
<g id="Stellar (XLM)_3">
<path id="Stellar (XLM)_4" d="M16.6126 6.1163L14.7463 7.06715L5.73429 11.6574C5.70381 11.425 5.68848 11.1908 5.68838 10.9564C5.69089 9.05332 6.70074 7.29377 8.34269 6.33157C9.98464 5.36937 12.0133 5.34835 13.6748 6.27631L14.743 5.73203L14.9024 5.65072C12.9071 4.20251 10.2681 3.99584 8.07173 5.11577C5.87532 6.23569 4.49269 8.49294 4.49294 10.9584C4.49294 11.1254 4.49928 11.2917 4.51196 11.4574C4.54827 11.9372 4.29277 12.3918 3.86407 12.6102L3.30078 12.8975V14.2372L4.95918 13.3919L5.49625 13.1178L6.02544 12.8483L15.526 8.0075L16.5936 7.46388L18.8002 6.33926V5.00021L16.6126 6.1163Z" fill="white"/>
<path id="Stellar (XLM)_5" d="M18.8002 7.67969L6.56513 13.9094L5.49756 14.4543L3.30078 15.5737V16.9121L5.48248 15.8005L7.34875 14.8497L16.37 10.2529C16.4005 10.4868 16.4158 10.7225 16.4159 10.9585C16.4147 12.8638 15.4037 14.6259 13.7593 15.5884C12.1149 16.5509 10.0835 16.5698 8.42157 15.6379L8.35599 15.6727L7.19793 16.2629C9.19274 17.7111 11.8312 17.9183 14.0276 16.7991C16.224 15.6799 17.6072 13.4236 17.608 10.9585C17.608 10.7899 17.6015 10.6214 17.589 10.4548C17.5528 9.97526 17.8079 9.52078 18.2362 9.30202L18.8002 9.0148V7.67969Z" fill="white"/>
</g>
</g>
</svg>
