<svg width="165" height="42" viewBox="0 0 165 42" fill="none" xmlns="http://www.w3.org/2000/svg">
<path d="M42.0912 5.99506L36.2659 8.96338L8.13813 23.2909C8.04317 22.5656 7.99569 21.8337 7.99569 21.1019C8.00715 11.9186 15.5679 4.36765 24.7512 4.36765C27.6115 4.36765 30.4259 5.09949 32.9227 6.49442L36.2561 4.79661L36.7538 4.54283C33.2583 2.00511 29.049 0.639648 24.7316 0.639648C13.5034 0.639648 4.26442 9.8786 4.26442 21.1068C4.26442 21.6274 4.28406 22.1481 4.32336 22.6655C4.43633 24.1603 3.63572 25.583 2.30137 26.2641L0.542969 27.1613V31.3428L5.71992 28.7036L7.39482 27.849L9.0468 27.0074L38.7005 11.899L42.0323 10.2011L48.9202 6.69089V2.51265L42.0912 5.99506ZM48.9202 10.874L10.7315 30.3179L7.39973 32.019L0.542969 35.5129V39.6911L7.35225 36.2218L13.1776 33.2535L41.3348 18.9063C41.4298 19.6366 41.4773 20.3717 41.4773 21.1084C41.4724 30.2966 33.9099 37.8541 24.7217 37.8541C21.8517 37.8541 19.0291 37.1174 16.5257 35.7143L16.3211 35.8223L12.706 37.6642C16.2015 40.2019 20.4125 41.569 24.7316 41.569C35.9565 41.569 45.1954 32.3334 45.1987 21.1084C45.1987 20.5829 45.1774 20.0557 45.1398 19.5367C45.0268 18.0419 45.8258 16.6191 47.1585 15.938L48.9202 15.0425V10.874ZM106.438 13.7769C100.598 13.7769 96.0661 18.0746 96.0661 24.8643C96.0661 31.1824 99.8007 36.0319 106.558 36.0319C111.764 36.0319 115.181 32.9719 116.134 29.3143H112.399C111.486 31.4198 109.739 32.8507 106.558 32.8507C103.417 32.8507 100.079 30.6257 99.9611 26.0169H116.412C116.851 19.2207 112.995 13.7769 106.438 13.7769ZM100 22.9159C100.32 18.6182 103.259 16.8762 106.438 16.8762C110.292 16.8762 112.478 19.8969 112.597 22.9159H100ZM74.0731 18.9817L70.7462 18.2269C68.0333 17.6293 66.0392 16.3604 66.0392 13.8162C66.0392 10.5957 69.9276 9.60354 72.1575 9.60354C75.0227 9.60354 78.3577 10.7562 79.3106 14.0536H83.2466C82.0923 8.52788 77.5162 6.18498 72.318 6.18498C67.6682 6.18498 61.9068 8.53115 61.9068 14.0536C61.9068 18.8228 65.8394 21.0495 69.8146 21.9238L73.4067 22.6785C77.0234 23.5135 79.6053 24.7038 79.6053 27.7638C79.6053 30.6306 77.1822 32.6133 72.891 32.6133C68.4 32.6133 65.6986 30.5455 64.9438 26.5735H60.9604C61.7152 32.3039 66.008 36.0319 72.8026 36.0319C78.5329 36.0319 83.7705 33.0095 83.7705 27.4069C83.7705 21.6062 78.4871 19.9362 74.0731 18.9817ZM91.5359 8.76855H87.9192V14.1338H84.54V17.035H87.9192V30.1493C87.9192 34.6009 88.8737 35.5129 92.9669 35.5129H95.5897V32.4938H93.7609C91.6947 32.4938 91.5359 31.9371 91.5359 29.7121V17.035H95.5897V14.1338H91.5359V8.76855ZM163.195 14.0143C160.372 14.1338 158.227 15.4469 157.155 17.8683V14.1338H153.615V35.5129H157.232V24.3076C157.232 19.5383 158.902 17.7586 162.24 17.7586C162.92 17.7586 163.597 17.811 164.267 17.9175V14.0536C163.91 14.0225 163.553 14.0094 163.195 14.0143ZM150.136 27.4527L150.175 22.5246C150.216 16.4439 147.672 13.7032 141.671 13.7032C137.539 13.7032 133.405 16.2868 133.087 20.8956H136.822C136.982 18.2351 138.692 16.6453 141.711 16.6453C144.414 16.6453 146.559 17.9158 146.559 21.8501V22.3658C137.817 23.3203 132.095 24.8217 132.095 29.8759C132.095 33.8101 135.432 36.0368 139.446 36.0368C143.261 36.0368 145.447 34.8089 146.757 32.5806C146.788 33.5646 146.881 34.5469 147.035 35.5194H150.691C150.256 33.4876 150.095 31.0645 150.136 27.4527ZM146.837 26.5801C146.837 31.6244 143.62 33.1765 140.241 33.1765C137.657 33.1765 136.108 31.8258 136.108 29.7973C136.108 26.8551 140.28 25.863 146.837 25.2261V26.5801ZM118.847 6.68762H122.463V35.5129H118.847V6.68762ZM126.077 6.68762H129.693V35.5129H126.077V6.68762Z" fill="#A9A9A9"/>
</svg>
