<svg width="16" height="17" viewBox="0 0 16 17" fill="none" xmlns="http://www.w3.org/2000/svg">
<path d="M7.99247 6.6734C7.96633 6.6734 7.92711 6.6734 7.89442 6.6734C7.20807 6.6471 6.66553 6.08828 6.66553 5.39139C6.66553 4.68135 7.23422 4.10938 7.94018 4.10938C8.64614 4.10938 9.21484 4.68792 9.21484 5.39139C9.22137 6.08828 8.67883 6.65368 7.99247 6.6734Z" fill="#072AC8"/>
<path d="M6.14883 8.65376C5.27917 9.23907 5.27917 10.1927 6.14883 10.778C7.13618 11.4422 8.7578 11.4422 9.74516 10.778C10.6148 10.1927 10.6148 9.23907 9.74516 8.65376C8.7578 7.99611 7.14272 7.99611 6.14883 8.65376Z" fill="#072AC8"/>
<path opacity="0.4" d="M11.8702 2.10352H4.02365C2.93821 2.10352 2.06201 2.97819 2.06201 4.05675V11.2317C2.06201 12.3103 2.93821 13.185 4.02365 13.185H4.5206C5.0437 13.185 5.54065 13.3889 5.90682 13.7571L7.02495 14.8686C7.53498 15.375 8.36541 15.375 8.87543 14.8686L9.99356 13.7571C10.3597 13.3889 10.8632 13.185 11.3798 13.185H11.8702C12.9556 13.185 13.8318 12.3103 13.8318 11.2317V4.05675C13.8318 2.97819 12.9556 2.10352 11.8702 2.10352ZM7.94692 4.10936C8.65311 4.10936 9.22199 4.68809 9.22199 5.39178C9.22199 6.0889 8.67273 6.6479 7.9927 6.67421C7.96654 6.67421 7.92731 6.67421 7.89461 6.67421C7.20804 6.6479 6.66532 6.0889 6.66532 5.39178C6.67186 4.68809 7.24073 4.10936 7.94692 4.10936ZM9.74509 10.778C8.75773 11.4422 7.13611 11.4422 6.14876 10.778C5.2791 10.1992 5.2791 9.23906 6.14876 8.65375C7.14265 7.98952 8.76427 7.98952 9.74509 8.65375C10.6148 9.23906 10.6148 10.1927 9.74509 10.778Z" fill="#072AC8"/>
</svg>
