<svg width="37" height="37" viewBox="0 0 37 37" fill="none" xmlns="http://www.w3.org/2000/svg">
<path d="M18.4198 36.4533C28.3391 36.4533 36.3191 28.4732 36.3191 18.5539C36.3191 8.63462 28.3391 0.654541 18.4198 0.654541C8.50046 0.654541 0.520386 8.63462 0.520386 18.5539C0.520386 28.4732 8.50046 36.4533 18.4198 36.4533Z" fill="#2775CA"/>
<path d="M23.3421 21.388C23.3421 18.7777 21.776 17.8828 18.6436 17.5099C16.4061 17.2115 15.9587 16.615 15.9587 15.5707C15.9587 14.5265 16.7045 13.8554 18.1961 13.8554C19.5385 13.8554 20.2844 14.3029 20.6572 15.4216C20.7319 15.6454 20.9556 15.7945 21.1794 15.7945H22.3725C22.6709 15.7945 22.8947 15.5707 22.8947 15.2725V15.1979C22.5963 13.557 21.2538 12.2892 19.5385 12.1401V10.3502C19.5385 10.0518 19.3148 9.82806 18.9419 9.75342H17.8232C17.5248 9.75342 17.3011 9.97716 17.2265 10.3502V12.0655C14.989 12.3639 13.5721 13.8554 13.5721 15.72C13.5721 18.1812 15.0637 19.1506 18.1961 19.5236C20.2844 19.8965 20.9556 20.3439 20.9556 21.5373C20.9556 22.7306 19.9114 23.551 18.4945 23.551C16.5552 23.551 15.884 22.7305 15.6603 21.6118C15.5858 21.3135 15.3621 21.1643 15.1383 21.1643H13.8703C13.5721 21.1643 13.3484 21.388 13.3484 21.6864V21.761C13.6466 23.6254 14.8399 24.9679 17.3011 25.3409V27.1308C17.3011 27.429 17.5248 27.6528 17.8977 27.7274H19.0164C19.3148 27.7274 19.5385 27.5037 19.6132 27.1308V25.3409C21.8506 24.9679 23.3421 23.4017 23.3421 21.388V21.388Z" fill="white"/>
<path fill-rule="evenodd" clip-rule="evenodd" d="M7.97856 14.8994C5.8156 20.6422 8.79889 27.1307 14.6162 29.2189C14.8399 29.3682 15.0637 29.6664 15.0637 29.8901V30.9344C15.0637 31.0835 15.0637 31.1581 14.989 31.2326C14.9146 31.531 14.6162 31.6801 14.3178 31.531C10.1413 30.1885 6.93432 26.9815 5.59186 22.805C3.35444 15.7199 7.2327 8.18713 14.3178 5.94971C14.3924 5.87524 14.5415 5.87524 14.6162 5.87524C14.9146 5.94971 15.0637 6.17345 15.0637 6.47183V7.5159C15.0637 7.88892 14.9146 8.11267 14.6162 8.26177C11.5584 9.38048 9.09728 11.767 7.97856 14.8994ZM21.8505 6.24808C21.925 5.94969 22.2234 5.80059 22.5218 5.94969C26.6236 7.29215 29.9053 10.4992 31.2477 14.7503C33.4851 21.8354 29.6069 29.3682 22.5218 31.6056C22.4471 31.68 22.298 31.68 22.2234 31.68C21.925 31.6056 21.7759 31.3818 21.7759 31.0835V30.0394C21.7759 29.6664 21.925 29.4426 22.2234 29.2935C25.2811 28.1748 27.7423 25.7883 28.861 22.6559C31.024 16.9131 28.0407 10.4245 22.2234 8.33639C21.9996 8.18711 21.7759 7.88891 21.7759 7.59053V6.54646C21.7759 6.39718 21.7759 6.32272 21.8505 6.24808Z" fill="white"/>
</svg>
