<svg width="36" height="37" viewBox="0 0 36 37" fill="none" xmlns="http://www.w3.org/2000/svg">
<g clip-path="url(#clip0_1640_4089)">
<path d="M18.2101 36.2044C21.7286 36.2044 25.1682 35.161 28.0938 33.2062C31.0193 31.2514 33.2996 28.4729 34.646 25.2222C35.9925 21.9715 36.3448 18.3945 35.6584 14.9435C34.972 11.4926 33.2776 8.32265 30.7896 5.83465C28.3016 3.34665 25.1317 1.6523 21.6808 0.965864C18.2298 0.279427 14.6528 0.631732 11.4021 1.97823C8.15136 3.32472 5.37291 5.60493 3.4181 8.53051C1.4633 11.4561 0.419922 14.8956 0.419922 18.4142C0.419922 23.1324 2.29424 27.6574 5.63054 30.9937C8.96684 34.33 13.4918 36.2044 18.2101 36.2044Z" fill="white"/>
<path d="M26.7818 10.5511L23.9079 12.0066L10.0331 19.0742C9.83772 17.5567 10.0673 16.0148 10.6963 14.6201C11.3253 13.2254 12.3291 12.0326 13.5958 11.1746C14.8626 10.3166 16.3426 9.82696 17.8711 9.76027C19.3997 9.69359 20.9167 10.0524 22.2534 10.7969L23.8949 9.96723L24.1407 9.84269C22.6349 8.7495 20.8561 8.0938 19.001 7.94802C17.1459 7.80224 15.2866 8.17205 13.6284 9.0166C11.9703 9.86116 10.5778 11.1476 9.60487 12.7338C8.63192 14.32 8.11632 16.1443 8.11504 18.0051C8.11504 18.2623 8.12474 18.5178 8.14415 18.7734C8.17155 19.1352 8.09146 19.4971 7.91393 19.8136C7.7364 20.1301 7.46935 20.3871 7.14629 20.5524L6.27942 20.9939V23.0559L8.83312 21.7621L9.65955 21.34L10.4682 20.9243L25.0998 13.4622L26.7446 12.626L30.1409 10.8939V8.83512L26.7818 10.5511Z" fill="black"/>
<path d="M30.1409 12.9575L11.3043 22.548L9.66117 23.3906L6.27942 25.1114V27.1719L9.63853 25.4592L12.5108 24.0036L26.4001 16.9215C26.4467 17.2813 26.4699 17.6438 26.4696 18.0067C26.4674 19.4473 26.0889 20.8623 25.3714 22.1115C24.654 23.3607 23.6226 24.4008 22.3795 25.1287C21.1363 25.8566 19.7245 26.247 18.284 26.2613C16.8435 26.2756 15.4243 25.9132 14.1669 25.2101L14.0667 25.2635L12.2876 26.1724C13.7938 27.2658 15.573 27.9215 17.4286 28.0671C19.2841 28.2127 21.1438 27.8425 22.8021 26.9974C24.4604 26.1522 25.8528 24.8651 26.8254 23.2782C27.798 21.6912 28.313 19.8663 28.3133 18.0051C28.3133 17.7463 28.3036 17.4859 28.2842 17.2304C28.256 16.8686 28.3356 16.5066 28.5129 16.19C28.6902 15.8734 28.9573 15.6164 29.2805 15.4514L30.149 15.0099L30.1409 12.9575Z" fill="black"/>
</g>
<defs>
<clipPath id="clip0_1640_4089">
<rect x="0.4198" y="0.586914" width="35.5803" height="35.5803" rx="8.05065" fill="white"/>
</clipPath>
</defs>
</svg>
