<svg width="159" height="116" viewBox="0 0 159 116" fill="none" xmlns="http://www.w3.org/2000/svg">
<path fill-rule="evenodd" clip-rule="evenodd" d="M158.407 109.775L153.746 110.638L152.704 115.55L151.662 110.638L147 109.773L151.641 108.64L152.704 104L153.765 108.64L158.407 109.775Z" fill="#F5C84E"/>
<path fill-rule="evenodd" clip-rule="evenodd" d="M147.407 5.77766L142.745 6.6403L141.702 11.5505L140.661 6.6403L136 5.77526L140.641 4.64194L141.702 0L142.765 4.64194L147.407 5.77766Z" fill="#F5C84E"/>
<path fill-rule="evenodd" clip-rule="evenodd" d="M11.4069 34.7777L6.74498 35.6403L5.70236 40.5505L4.66071 35.6403L0 34.7753L4.64113 33.6419L5.70236 29L6.76455 33.6419L11.4069 34.7777Z" fill="#F5C84E"/>
<path fill-rule="evenodd" clip-rule="evenodd" d="M16.4069 62.7777L11.745 63.6403L10.7024 68.5505L9.66071 63.6403L5 62.7753L9.64113 61.6419L10.7024 57L11.7646 61.6419L16.4069 62.7777Z" fill="#F5C84E"/>
<path fill-rule="evenodd" clip-rule="evenodd" d="M150.376 95.2283L147.771 95.7092L147.188 98.4543L146.605 95.7092L144 95.2259L146.595 94.5928L147.188 92L147.782 94.5928L150.376 95.2283Z" fill="#F5C84E"/>
</svg>
