<svg width="210" height="38" viewBox="0 0 210 38" fill="none" xmlns="http://www.w3.org/2000/svg">
<g filter="url(#filter0_dd_1623_21042)">
<g clip-path="url(#clip0_1623_21042)">
<rect x="3" y="2.02161" width="31.9568" height="31.9568" rx="7.98919" fill="white"/>
<rect x="3" y="2.02161" width="31.9568" height="31.9568" rx="7.98919" fill="url(#paint0_linear_1623_21042)"/>
<path fill-rule="evenodd" clip-rule="evenodd" d="M18.972 4.0512C11.2719 4.0512 5.02971 10.2934 5.02971 17.9935C5.02971 25.6936 11.2719 31.9358 18.972 31.9358C26.6721 31.9358 32.9143 25.6936 32.9143 17.9935C32.9143 10.2934 26.6721 4.0512 18.972 4.0512ZM4.95215 17.9935C4.95215 10.2505 11.2291 3.97363 18.972 3.97363C26.715 3.97363 32.9919 10.2505 32.9919 17.9935C32.9919 25.7365 26.715 32.0134 18.972 32.0134C11.2291 32.0134 4.95215 25.7365 4.95215 17.9935Z" fill="#D0D5DD"/>
<path fill-rule="evenodd" clip-rule="evenodd" d="M18.9819 14.0864C16.8186 14.0864 15.0649 15.8401 15.0649 18.0034C15.0649 20.1667 16.8186 21.9204 18.9819 21.9204C21.1452 21.9204 22.8989 20.1667 22.8989 18.0034C22.8989 15.8401 21.1452 14.0864 18.9819 14.0864ZM14.9873 18.0034C14.9873 15.7972 16.7757 14.0088 18.9819 14.0088C21.1881 14.0088 22.9765 15.7972 22.9765 18.0034C22.9765 20.2095 21.1881 21.998 18.9819 21.998C16.7757 21.998 14.9873 20.2095 14.9873 18.0034Z" fill="#D0D5DD"/>
<path fill-rule="evenodd" clip-rule="evenodd" d="M18.9762 15.3219C17.4983 15.3219 16.3002 16.52 16.3002 17.9979C16.3002 19.4758 17.4983 20.6739 18.9762 20.6739C20.4541 20.6739 21.6522 19.4758 21.6522 17.9979C21.6522 16.52 20.4541 15.3219 18.9762 15.3219ZM16.2227 17.9979C16.2227 16.4772 17.4555 15.2444 18.9762 15.2444C20.497 15.2444 21.7298 16.4772 21.7298 17.9979C21.7298 19.5187 20.497 20.7515 18.9762 20.7515C17.4555 20.7515 16.2227 19.5187 16.2227 17.9979Z" fill="#D0D5DD"/>
<path d="M18.9277 2.02161H19.0053V33.9784H18.9277V2.02161Z" fill="#D0D5DD"/>
<path d="M34.959 17.9492L34.959 18.0268L3.00223 18.0268L3.00223 17.9492L34.959 17.9492Z" fill="#D0D5DD"/>
<path d="M29.5703 2.02161H29.6479V33.9784H29.5703V2.02161Z" fill="#D0D5DD"/>
<path d="M13.627 2.02161H13.7045V33.9784H13.627V2.02161Z" fill="#D0D5DD"/>
<path d="M24.2549 2.02161H24.3324V33.9784H24.2549V2.02161Z" fill="#D0D5DD"/>
<path d="M8.31641 2.02161H8.39397V33.9784H8.31641V2.02161Z" fill="#D0D5DD"/>
<path d="M34.959 28.5918L34.959 28.6694L3.00223 28.6694L3.00223 28.5918L34.959 28.5918Z" fill="#D0D5DD"/>
<path d="M34.959 12.6487L34.959 12.7262L3.00223 12.7262L3.00223 12.6487L34.959 12.6487Z" fill="#D0D5DD"/>
<path d="M34.959 23.2758L34.959 23.3533L3.00223 23.3533L3.00223 23.2758L34.959 23.2758Z" fill="#D0D5DD"/>
<path d="M34.959 7.33777L34.959 7.41533L3.00223 7.41533L3.00223 7.33777L34.959 7.33777Z" fill="#D0D5DD"/>
<path fill-rule="evenodd" clip-rule="evenodd" d="M17.3197 9.81851C18.0319 9.81851 18.6092 9.2412 18.6092 8.52907C18.6092 7.81693 18.0319 7.23962 17.3197 7.23962C16.6076 7.23962 16.0303 7.81693 16.0303 8.52907C16.0303 9.2412 16.6076 9.81851 17.3197 9.81851ZM20.9327 28.7365C21.6448 28.7365 22.2221 28.1592 22.2221 27.447C22.2221 26.7349 21.6448 26.1576 20.9327 26.1576C20.2205 26.1576 19.6432 26.7349 19.6432 27.447C19.6432 28.1592 20.2205 28.7365 20.9327 28.7365ZM21.398 24.6728L17.8666 18.5563L19.9572 17.3493L19.3565 16.3089L17.266 17.5159L17.0775 17.1894L19.1835 15.9735L18.6 14.9628L16.494 16.1788L16.3028 15.8476L18.4046 14.6341L17.8211 13.6234L15.7193 14.8369L15.7173 14.8335L14.6769 15.4342L19.8251 24.3512C20.1189 24.86 20.606 25.13 20.9124 24.9532L21.398 24.6728ZM20.458 17.4545L16.9073 11.3046L17.3791 11.0322C17.6767 10.8604 18.1575 11.1358 18.4521 11.6462L23.6159 20.5901L22.6052 21.1736L22.6031 21.1699L20.4671 22.4031L19.8836 21.3924L22.0196 20.1592L21.8332 19.8365L19.6986 21.0689L19.1151 20.0582L21.2497 18.8258L21.0587 18.4949L18.9317 19.7229L18.331 18.6825L20.458 17.4545ZM19.5502 25.7389L20.022 25.4666L14.3415 15.6278L13.3309 16.2113L18.4788 25.1278C18.7726 25.6366 19.2526 25.9108 19.5502 25.7389ZM18.6774 26.2401L18.2057 26.5125C17.9081 26.6843 17.428 26.4102 17.1343 25.9014L11.9863 16.9849L12.997 16.4013L18.6774 26.2401ZM18.2519 10.5311L18.7236 10.2587C19.0213 10.0869 19.502 10.3623 19.7967 10.8726L24.9605 19.8166L23.9498 20.4001L18.2519 10.5311ZM20.0665 9.47711L19.5808 9.7575L25.2787 19.6265L26.3191 19.0259L21.1553 10.0819C20.8607 9.57153 20.3728 9.30023 20.0665 9.47711Z" fill="#072AC8"/>
</g>
<rect x="3.1498" y="2.1714" width="31.6572" height="31.6572" rx="7.83939" stroke="#D0D5DD" stroke-width="0.299595"/>
</g>
<path d="M127.409 9.77673V14.8935C128.245 13.7441 129.395 13.6221 130.816 13.6221C133.323 13.6221 134.598 14.9387 134.598 17.6137V24.6774H131.631V18.3242C131.631 17.5719 131.484 17.0076 131.234 16.6315C130.962 16.2344 130.46 16.0463 129.729 16.0463C128.83 16.0463 128.224 16.318 127.89 16.9031C127.555 17.4674 127.409 18.2197 127.409 19.1602V24.6565H124.483V9.77673H127.409Z" fill="#101828"/>
<path d="M123.042 13.8727V15.8999H120.847V20.9782C120.847 21.2917 120.847 21.5216 120.868 21.6679C120.868 21.8142 120.931 21.9605 121.015 22.1277C121.098 22.2739 121.224 22.3784 121.391 22.4202C121.558 22.462 121.809 22.4829 122.143 22.4829C122.498 22.4829 122.791 22.4829 123.042 22.4411V24.6982C122.31 24.7609 121.704 24.7818 121.245 24.7818C119.949 24.7818 119.05 24.5728 118.59 24.113C118.131 23.6532 117.901 22.7755 117.901 21.4798V15.879H116.104V13.8727H117.901V10.6125H120.847V13.8727H123.042Z" fill="#101828"/>
<path d="M109.645 13.5665C111.296 13.5665 112.634 14.089 113.637 15.1339C114.64 16.1788 115.162 17.5582 115.162 19.2718C115.162 21.0064 114.64 22.3857 113.637 23.4306C112.634 24.4756 111.275 24.998 109.603 24.998C107.911 24.998 106.552 24.4756 105.549 23.4306C104.525 22.3857 104.023 21.0064 104.023 19.2718C104.023 17.5582 104.525 16.1788 105.57 15.1339C106.594 14.089 107.952 13.5665 109.645 13.5665ZM109.562 15.8236C108.767 15.8236 108.14 16.137 107.681 16.764C107.221 17.3701 106.991 18.206 106.991 19.2927C106.991 20.3795 107.221 21.2363 107.681 21.8633C108.14 22.4693 108.767 22.7828 109.603 22.7828C110.418 22.7828 111.045 22.4693 111.505 21.8424C111.965 21.2154 112.195 20.3586 112.195 19.2509C112.195 18.1851 111.944 17.3492 111.484 16.7431C111.024 16.1371 110.377 15.8236 109.562 15.8236Z" fill="#101828"/>
<path d="M94.4838 9.77673V15.1895C95.3197 14.1445 96.4483 13.6221 97.8903 13.6221C99.3114 13.6221 100.44 14.1445 101.276 15.1895C102.091 16.2344 102.509 17.5719 102.509 19.1602C102.509 20.8948 102.049 22.295 101.171 23.3608C100.294 24.4266 99.1442 24.9491 97.7231 24.9491C96.2184 24.9491 95.0899 24.4057 94.3375 23.2981L94.3584 24.6565H91.5371V9.77673H94.4838ZM96.9707 15.9C96.1766 15.9 95.5287 16.2135 95.069 16.7986C94.6092 17.3838 94.3793 18.1989 94.3793 19.202C94.3793 20.2469 94.6092 21.0829 95.069 21.668C95.5287 22.2741 96.1557 22.5667 96.9707 22.5667C97.7231 22.5667 98.35 22.2741 98.8098 21.6471C99.2696 21.0411 99.5204 20.226 99.5204 19.1811C99.5204 18.1989 99.2696 17.4047 98.8098 16.7986C98.35 16.2135 97.7231 15.9 96.9707 15.9Z" fill="#101828"/>
<path d="M84.0924 13.5665C85.7434 13.5665 87.0809 14.089 88.084 15.1339C89.0872 16.1788 89.6096 17.5582 89.6096 19.2718C89.6096 21.0064 89.0872 22.3857 88.084 23.4306C87.0809 24.4756 85.7225 24.998 84.0506 24.998C82.3578 24.998 80.9994 24.4756 79.9963 23.4306C78.9723 22.3857 78.4707 21.0064 78.4707 19.2718C78.4707 17.5582 78.9723 16.1788 80.0172 15.1339C81.0412 14.089 82.3996 13.5665 84.0924 13.5665ZM84.0088 15.8236C83.2147 15.8236 82.5877 16.137 82.1279 16.764C81.6682 17.3701 81.4383 18.206 81.4383 19.2927C81.4383 20.3795 81.6682 21.2363 82.1279 21.8633C82.5877 22.4693 83.2147 22.7828 84.0506 22.7828C84.8657 22.7828 85.4926 22.4693 85.9524 21.8424C86.4122 21.2154 86.642 20.3586 86.642 19.2509C86.642 18.1851 86.3913 17.3492 85.9315 16.7431C85.4717 16.1371 84.8239 15.8236 84.0088 15.8236Z" fill="#101828"/>
<path d="M69.3418 9.77673V15.3357C70.1778 14.1863 71.3272 13.6221 72.7483 13.6221C75.2561 13.6221 76.5309 14.9387 76.5309 17.6137V24.6774H73.5633V18.3242C73.5633 17.5719 73.417 17.0076 73.1662 16.6315C72.8946 16.2344 72.393 16.0463 71.6616 16.0463C70.7629 16.0463 70.1569 16.318 69.8225 16.9031C69.4881 17.4674 69.3418 18.2197 69.3418 19.1602V24.6565H66.416V9.77673H69.3418Z" fill="#101828"/>
<path d="M64.5307 21.3199C64.1963 22.4902 63.5694 23.3888 62.6708 24.0158C61.7721 24.6637 60.7063 24.9771 59.4524 24.9771C57.8014 24.9771 56.4639 24.4756 55.4608 23.4306C54.4576 22.4066 53.9561 21.0482 53.9561 19.3345C53.9561 17.6626 54.4576 16.2833 55.4816 15.1966C56.4848 14.1099 57.7805 13.5665 59.3688 13.5665C60.9989 13.5665 62.2946 14.1308 63.2559 15.2384C64.2172 16.346 64.6979 17.8507 64.6979 19.7316V20.0242H56.9654C56.9654 20.9646 57.1953 21.6752 57.6342 22.1558C58.0731 22.6574 58.7 22.8873 59.4942 22.8873C60.5391 22.8873 61.2705 22.3648 61.6885 21.3199H64.5307ZM61.6676 18.1433C61.6049 17.4328 61.375 16.8685 60.978 16.4087C60.6018 15.949 60.0584 15.7191 59.3479 15.7191C58.7 15.7191 58.1567 15.949 57.7178 16.3669C57.2998 16.8058 57.0281 17.391 56.9445 18.1433H61.6676Z" fill="#101828"/>
<path d="M39.752 9.77673L47.15 9.79763C48.6129 9.79763 49.8251 10.132 50.7655 10.8426C51.685 11.5322 52.1657 12.598 52.1657 14.0191C52.1657 14.876 51.9567 15.6283 51.5387 16.2762C51.1208 16.924 50.5356 17.3838 49.8042 17.6764C51.079 17.9272 51.8104 19.0975 51.9985 21.1455C51.9985 21.2082 51.9985 21.4172 52.0403 21.7934C52.0612 22.1487 52.0821 22.4413 52.1239 22.6502C52.1448 22.8592 52.1866 23.1309 52.2284 23.4444C52.2702 23.737 52.3329 24.0086 52.4165 24.2176C52.5001 24.4266 52.5837 24.5729 52.7091 24.6774H49.3235C49.1981 24.4475 49.1145 24.1549 49.0727 23.8206C49.01 23.4862 48.9682 23.0473 48.9264 22.504C48.8846 21.9606 48.8637 21.668 48.8637 21.6053C48.7383 20.5604 48.4875 19.8498 48.0696 19.4319C47.6516 19.0348 46.9411 18.8258 45.8961 18.8258H42.9912V24.6565H39.752V9.77673ZM42.9912 12.3682V16.4852H46.0842C46.9829 16.4852 47.6934 16.3389 48.195 16.0463C48.6965 15.7537 48.9682 15.2104 48.9682 14.3744C48.9682 13.5803 48.7174 13.0578 48.2159 12.7861C47.7143 12.4935 47.0664 12.3682 46.2305 12.3682H42.9912Z" fill="#101828"/>
<path d="M204.905 21.1524C204.654 22.3645 204.152 23.3258 203.358 24.0155C202.564 24.7051 201.54 25.0395 200.307 25.0395C198.802 25.0395 197.611 24.5379 196.713 23.5139C195.814 22.5108 195.375 21.1524 195.375 19.4387C195.375 17.7459 195.814 16.3666 196.733 15.2799C197.653 14.1931 198.823 13.6498 200.286 13.6498C201.791 13.6498 202.961 14.1931 203.776 15.259C204.591 16.3457 205.009 17.6623 205.009 19.2506V19.6268H196.713C196.713 20.8807 197.005 21.9047 197.611 22.7407C198.217 23.5766 199.137 23.9737 200.349 23.9737C202.104 23.9737 203.212 23.0332 203.63 21.1524H204.905ZM203.693 18.5609C203.609 17.3697 203.275 16.4293 202.669 15.7605C202.042 15.0918 201.247 14.7365 200.244 14.7365C199.158 14.7365 198.322 15.0918 197.757 15.8023C197.193 16.5129 196.838 17.4324 196.713 18.5609H203.693Z" fill="#101828"/>
<path d="M194.138 20.8287C193.95 22.0826 193.469 23.1066 192.675 23.8589C191.881 24.6113 190.857 24.9875 189.603 24.9875C188.098 24.9875 186.886 24.4859 185.987 23.4619C185.068 22.4587 184.629 21.1003 184.629 19.4076C184.629 17.6521 185.068 16.2519 185.987 15.2069C186.907 14.162 188.119 13.6187 189.645 13.6187C190.878 13.6187 191.881 13.953 192.654 14.6009C193.427 15.2696 193.887 16.1683 194.054 17.3177H192.717C192.361 15.5831 191.337 14.7054 189.665 14.7054C188.537 14.7054 187.638 15.1233 186.97 15.9593C186.301 16.7952 185.987 17.9029 185.987 19.3031C185.987 20.7242 186.301 21.8318 186.949 22.6677C187.576 23.5037 188.453 23.9007 189.54 23.9007C190.439 23.9007 191.17 23.65 191.755 23.1066C192.32 22.5632 192.675 21.8109 192.821 20.8287H194.138Z" fill="#101828"/>
<path d="M175.136 13.9424V15.9695C175.575 15.1754 176.098 14.5902 176.683 14.214C177.268 13.8379 178.02 13.6498 178.94 13.6498C180.047 13.6498 180.946 13.9633 181.636 14.5693C182.305 15.1963 182.66 16.1158 182.66 17.3697V24.6842H181.343V17.7877C181.343 15.8023 180.424 14.7992 178.605 14.7992C177.561 14.7992 176.746 15.1545 176.139 15.8441C175.513 16.5338 175.22 17.5369 175.22 18.8744V24.6842H173.903V13.9424H175.136Z" fill="#101828"/>
<path d="M172.482 23.6184V24.6215C172.148 24.7469 171.813 24.7887 171.437 24.7887C170.852 24.7887 170.476 24.6215 170.309 24.2662C170.121 23.9319 170.037 23.4512 170.037 22.8242C169.117 24.2662 167.78 24.9768 165.983 24.9768C164.875 24.9768 164.018 24.726 163.391 24.1827C162.764 23.6602 162.472 22.9287 162.472 21.9674C162.472 20.0447 163.788 18.9371 166.463 18.6445C166.589 18.6445 166.798 18.6236 167.048 18.6027C167.299 18.5818 167.466 18.5609 167.592 18.54C167.717 18.54 167.864 18.5191 168.052 18.4982C168.24 18.4773 168.386 18.4564 168.47 18.4355C168.553 18.4355 168.679 18.4146 168.804 18.3729C168.929 18.352 169.034 18.3311 169.117 18.2893C169.201 18.2684 169.285 18.2475 169.368 18.2057C169.452 18.1639 169.514 18.1221 169.598 18.0803C169.849 17.9131 169.974 17.5787 169.974 17.0562C169.974 16.2203 169.723 15.6142 169.264 15.259C168.783 14.9246 168.093 14.7365 167.174 14.7365C166.254 14.7365 165.565 14.9455 165.084 15.3635C164.603 15.7814 164.332 16.4084 164.248 17.2652H162.994C163.036 16.1158 163.454 15.2172 164.206 14.5902C164.959 13.9633 165.983 13.6498 167.32 13.6498C168.532 13.6498 169.494 13.9215 170.204 14.4439C170.915 14.9873 171.27 15.7396 171.27 16.7428V22.5944C171.27 22.8869 171.27 23.075 171.291 23.2004C171.291 23.3258 171.354 23.4303 171.458 23.5348C171.563 23.6393 171.73 23.6811 171.981 23.6811C172.148 23.6811 172.315 23.6602 172.482 23.6184ZM169.974 18.8326C169.849 18.9789 169.64 19.1043 169.347 19.1879C169.055 19.2715 168.804 19.3342 168.574 19.376C168.323 19.4178 167.926 19.4805 167.362 19.5432C167.216 19.5641 167.111 19.585 167.048 19.585C166.589 19.6477 166.233 19.7104 165.941 19.7731C165.648 19.8566 165.335 19.9611 164.959 20.1283C164.582 20.2955 164.311 20.5045 164.123 20.7971C163.935 21.0897 163.851 21.424 163.851 21.842C163.851 22.469 164.06 22.9705 164.52 23.3467C164.959 23.7229 165.565 23.8901 166.317 23.8901C167.32 23.8901 168.198 23.5975 168.908 22.9914C169.619 22.3854 169.974 21.5912 169.974 20.5881V18.8326Z" fill="#101828"/>
<path d="M153.072 13.9424V15.9695C153.511 15.1754 154.033 14.5902 154.618 14.214C155.204 13.8379 155.956 13.6498 156.875 13.6498C157.983 13.6498 158.882 13.9633 159.571 14.5693C160.24 15.1963 160.595 16.1158 160.595 17.3697V24.6842H159.279V17.7877C159.279 15.8023 158.359 14.7992 156.541 14.7992C155.496 14.7992 154.681 15.1545 154.075 15.8441C153.448 16.5338 153.155 17.5369 153.155 18.8744V24.6842H151.839V13.9424H153.072Z" fill="#101828"/>
<path d="M149.32 9.73535V11.8879H148.003V9.73535H149.32ZM149.32 13.936V24.6778H148.003V13.936H149.32Z" fill="#101828"/>
<path d="M146.474 9.79248V11.0046H138.387V16.3546H145.576V17.5667H138.387V24.6722H136.986V9.79248H146.474Z" fill="#101828"/>
<path d="M205.72 22.6502V22.8402H205.44V23.6571C205.44 23.7033 205.44 23.7331 205.44 23.7467C205.44 23.763 205.446 23.782 205.457 23.8064C205.465 23.8308 205.481 23.8471 205.503 23.8525C205.524 23.8607 205.554 23.8634 205.595 23.8634C205.628 23.8634 205.671 23.8607 205.72 23.8552V24.0534C205.655 24.0615 205.595 24.0642 205.543 24.0642C205.478 24.0642 205.424 24.0588 205.381 24.0425C205.337 24.0289 205.302 24.0127 205.28 23.9937C205.258 23.9774 205.242 23.9448 205.231 23.8987C205.22 23.8525 205.212 23.8145 205.212 23.782C205.21 23.7494 205.21 23.6978 205.21 23.6218V23.611V23.5974V23.5838V22.8402H204.973V22.6502H205.21V22.2349H205.44V22.6502H205.72ZM206.193 22.6502L206.191 22.8565C206.253 22.7723 206.318 22.7126 206.389 22.6746C206.459 22.6366 206.546 22.6176 206.646 22.6176C206.839 22.6176 206.969 22.6963 207.037 22.8592C207.157 22.6963 207.311 22.6149 207.501 22.6149C207.645 22.6149 207.754 22.6529 207.83 22.7343C207.906 22.8157 207.944 22.927 207.944 23.0736V24.0534H207.713V23.1713C207.713 23.0546 207.694 22.9677 207.659 22.908C207.621 22.8483 207.548 22.8212 207.434 22.8212C207.195 22.8212 207.075 22.965 207.075 23.2581V24.0534H206.845V23.155C206.845 23.0464 206.826 22.965 206.79 22.908C206.755 22.851 206.687 22.8239 206.587 22.8239C206.443 22.8239 206.343 22.8673 206.288 22.9542C206.234 23.041 206.207 23.1604 206.207 23.3097V24.0507H205.976V22.6502H206.193Z" fill="#101828"/>
<defs>
<filter id="filter0_dd_1623_21042" x="0.00405407" y="0.0243093" width="37.9489" height="37.9487" filterUnits="userSpaceOnUse" color-interpolation-filters="sRGB">
<feFlood flood-opacity="0" result="BackgroundImageFix"/>
<feColorMatrix in="SourceAlpha" type="matrix" values="0 0 0 0 0 0 0 0 0 0 0 0 0 0 0 0 0 0 127 0" result="hardAlpha"/>
<feOffset dy="0.998649"/>
<feGaussianBlur stdDeviation="0.998649"/>
<feColorMatrix type="matrix" values="0 0 0 0 0.0627451 0 0 0 0 0.0941176 0 0 0 0 0.156863 0 0 0 0.06 0"/>
<feBlend mode="normal" in2="BackgroundImageFix" result="effect1_dropShadow_1623_21042"/>
<feColorMatrix in="SourceAlpha" type="matrix" values="0 0 0 0 0 0 0 0 0 0 0 0 0 0 0 0 0 0 127 0" result="hardAlpha"/>
<feOffset dy="0.998649"/>
<feGaussianBlur stdDeviation="1.49797"/>
<feColorMatrix type="matrix" values="0 0 0 0 0.0627451 0 0 0 0 0.0941176 0 0 0 0 0.156863 0 0 0 0.1 0"/>
<feBlend mode="normal" in2="effect1_dropShadow_1623_21042" result="effect2_dropShadow_1623_21042"/>
<feBlend mode="normal" in="SourceGraphic" in2="effect2_dropShadow_1623_21042" result="shape"/>
</filter>
<linearGradient id="paint0_linear_1623_21042" x1="18.9784" y1="2.02161" x2="18.9784" y2="33.9784" gradientUnits="userSpaceOnUse">
<stop stop-color="white"/>
<stop offset="1" stop-color="#D0D5DD"/>
</linearGradient>
<clipPath id="clip0_1623_21042">
<rect x="3" y="2.02161" width="31.9568" height="31.9568" rx="7.98919" fill="white"/>
</clipPath>
</defs>
</svg>
